%TF.GenerationSoftware,KiCad,Pcbnew,(6.0.1)*%
%TF.CreationDate,2022-09-04T12:14:09+08:00*%
%TF.ProjectId,Digital Clock,44696769-7461-46c2-9043-6c6f636b2e6b,_____*%
%TF.SameCoordinates,Original*%
%TF.FileFunction,Copper,L1,Top*%
%TF.FilePolarity,Positive*%
%FSLAX46Y46*%
G04 Gerber Fmt 4.6, Leading zero omitted, Abs format (unit mm)*
G04 Created by KiCad (PCBNEW (6.0.1)) date 2022-09-04 12:14:09*
%MOMM*%
%LPD*%
G01*
G04 APERTURE LIST*
G04 Aperture macros list*
%AMRoundRect*
0 Rectangle with rounded corners*
0 $1 Rounding radius*
0 $2 $3 $4 $5 $6 $7 $8 $9 X,Y pos of 4 corners*
0 Add a 4 corners polygon primitive as box body*
4,1,4,$2,$3,$4,$5,$6,$7,$8,$9,$2,$3,0*
0 Add four circle primitives for the rounded corners*
1,1,$1+$1,$2,$3*
1,1,$1+$1,$4,$5*
1,1,$1+$1,$6,$7*
1,1,$1+$1,$8,$9*
0 Add four rect primitives between the rounded corners*
20,1,$1+$1,$2,$3,$4,$5,0*
20,1,$1+$1,$4,$5,$6,$7,0*
20,1,$1+$1,$6,$7,$8,$9,0*
20,1,$1+$1,$8,$9,$2,$3,0*%
G04 Aperture macros list end*
%TA.AperFunction,Profile*%
%ADD10C,0.100000*%
%TD*%
%TA.AperFunction,SMDPad,CuDef*%
%ADD11RoundRect,0.100000X-0.130000X-0.100000X0.130000X-0.100000X0.130000X0.100000X-0.130000X0.100000X0*%
%TD*%
%TA.AperFunction,SMDPad,CuDef*%
%ADD12R,2.100000X5.080000*%
%TD*%
%TA.AperFunction,SMDPad,CuDef*%
%ADD13RoundRect,0.100000X-0.100000X0.130000X-0.100000X-0.130000X0.100000X-0.130000X0.100000X0.130000X0*%
%TD*%
%TA.AperFunction,SMDPad,CuDef*%
%ADD14RoundRect,0.100000X0.100000X-0.130000X0.100000X0.130000X-0.100000X0.130000X-0.100000X-0.130000X0*%
%TD*%
%TA.AperFunction,SMDPad,CuDef*%
%ADD15RoundRect,0.100000X0.130000X0.100000X-0.130000X0.100000X-0.130000X-0.100000X0.130000X-0.100000X0*%
%TD*%
%TA.AperFunction,SMDPad,CuDef*%
%ADD16RoundRect,0.150000X0.512500X0.150000X-0.512500X0.150000X-0.512500X-0.150000X0.512500X-0.150000X0*%
%TD*%
%TA.AperFunction,SMDPad,CuDef*%
%ADD17RoundRect,0.225000X0.250000X-0.225000X0.250000X0.225000X-0.250000X0.225000X-0.250000X-0.225000X0*%
%TD*%
%TA.AperFunction,SMDPad,CuDef*%
%ADD18RoundRect,0.150000X-0.150000X0.650000X-0.150000X-0.650000X0.150000X-0.650000X0.150000X0.650000X0*%
%TD*%
%TA.AperFunction,SMDPad,CuDef*%
%ADD19R,1.390000X0.430000*%
%TD*%
%TA.AperFunction,ComponentPad*%
%ADD20C,0.650000*%
%TD*%
%TA.AperFunction,ComponentPad*%
%ADD21O,2.090000X0.930000*%
%TD*%
%TA.AperFunction,SMDPad,CuDef*%
%ADD22R,1.800000X1.800000*%
%TD*%
%TA.AperFunction,SMDPad,CuDef*%
%ADD23RoundRect,0.137500X-0.662500X-0.137500X0.662500X-0.137500X0.662500X0.137500X-0.662500X0.137500X0*%
%TD*%
%TA.AperFunction,SMDPad,CuDef*%
%ADD24RoundRect,0.150000X0.675000X0.150000X-0.675000X0.150000X-0.675000X-0.150000X0.675000X-0.150000X0*%
%TD*%
%TA.AperFunction,SMDPad,CuDef*%
%ADD25RoundRect,0.150000X0.150000X-0.650000X0.150000X0.650000X-0.150000X0.650000X-0.150000X-0.650000X0*%
%TD*%
%TA.AperFunction,ComponentPad*%
%ADD26C,1.000000*%
%TD*%
%TA.AperFunction,ViaPad*%
%ADD27C,0.800000*%
%TD*%
%TA.AperFunction,ViaPad*%
%ADD28C,1.200000*%
%TD*%
%TA.AperFunction,ViaPad*%
%ADD29C,2.000000*%
%TD*%
%TA.AperFunction,ViaPad*%
%ADD30C,1.000000*%
%TD*%
%TA.AperFunction,ViaPad*%
%ADD31C,0.700000*%
%TD*%
%TA.AperFunction,ViaPad*%
%ADD32C,0.600000*%
%TD*%
%TA.AperFunction,Conductor*%
%ADD33C,0.400000*%
%TD*%
%TA.AperFunction,Conductor*%
%ADD34C,0.500000*%
%TD*%
%TA.AperFunction,Conductor*%
%ADD35C,0.300000*%
%TD*%
%TA.AperFunction,Conductor*%
%ADD36C,0.250000*%
%TD*%
G04 APERTURE END LIST*
D10*
X43410000Y-19400000D02*
X88800000Y-19400000D01*
X88800000Y-19400000D02*
X88800000Y-48900000D01*
X88800000Y-48900000D02*
X43410000Y-48900000D01*
X43410000Y-48900000D02*
X43410000Y-19400000D01*
D11*
%TO.P,R3,1*%
%TO.N,VCC*%
X71550000Y-21460000D03*
%TO.P,R3,2*%
%TO.N,/P3.7*%
X72190000Y-21460000D03*
%TD*%
D12*
%TO.P,BZ1,1,-*%
%TO.N,GND*%
X46750000Y-26430000D03*
%TO.P,BZ1,2,+*%
%TO.N,/P1.1*%
X58750000Y-26430000D03*
%TD*%
D13*
%TO.P,C5,1*%
%TO.N,VCC*%
X50010000Y-43840000D03*
%TO.P,C5,2*%
%TO.N,GND*%
X50010000Y-44480000D03*
%TD*%
D14*
%TO.P,C4,1*%
%TO.N,VCC*%
X73100000Y-31680000D03*
%TO.P,C4,2*%
%TO.N,GND*%
X73100000Y-31040000D03*
%TD*%
D15*
%TO.P,CBP1,1*%
%TO.N,Net-(CBP1-Pad1)*%
X65530000Y-41860000D03*
%TO.P,CBP1,2*%
%TO.N,GND*%
X64890000Y-41860000D03*
%TD*%
D16*
%TO.P,U2,1,IN*%
%TO.N,Net-(CIN1-Pad2)*%
X69547500Y-41810000D03*
%TO.P,U2,2,EN*%
X69547500Y-40860000D03*
%TO.P,U2,3,GND*%
%TO.N,GND*%
X69547500Y-39910000D03*
%TO.P,U2,4,OUT*%
%TO.N,VCC*%
X67272500Y-39910000D03*
%TO.P,U2,5,BP*%
%TO.N,Net-(CBP1-Pad1)*%
X67272500Y-41810000D03*
%TD*%
D17*
%TO.P,C2,1*%
%TO.N,GND*%
X61620000Y-35800000D03*
%TO.P,C2,2*%
%TO.N,VCC*%
X61620000Y-34250000D03*
%TD*%
D18*
%TO.P,U5,1,DIG1*%
%TO.N,/DIG1*%
X57660000Y-36360000D03*
%TO.P,U5,2,SCL*%
%TO.N,/P1.2*%
X56385000Y-36360000D03*
%TO.P,U5,3,SDA*%
%TO.N,/P1.3*%
X55115000Y-36360000D03*
%TO.P,U5,4,GND*%
%TO.N,GND*%
X53845000Y-36360000D03*
%TO.P,U5,5,DIG2*%
%TO.N,/DIG2*%
X52575000Y-36360000D03*
%TO.P,U5,6,DIG3*%
%TO.N,/DIG3*%
X51305000Y-36360000D03*
%TO.P,U5,7,DIG4*%
%TO.N,/DIG4*%
X50060000Y-36360000D03*
%TO.P,U5,8,A/KI1*%
%TO.N,/A*%
X48765000Y-36360000D03*
%TO.P,U5,9,B/KI2*%
%TO.N,/B*%
X48760000Y-42260000D03*
%TO.P,U5,10,VDD*%
%TO.N,VCC*%
X50030000Y-42260000D03*
%TO.P,U5,11,C/KI3*%
%TO.N,/C*%
X51300000Y-42260000D03*
%TO.P,U5,12,D/KI4*%
%TO.N,/D*%
X52570000Y-42260000D03*
%TO.P,U5,13,E/KI5*%
%TO.N,/E*%
X53840000Y-42260000D03*
%TO.P,U5,14,F/KI6*%
%TO.N,/F*%
X55110000Y-42260000D03*
%TO.P,U5,15,G/KI7*%
%TO.N,/G*%
X56380000Y-42260000D03*
%TO.P,U5,16,DP/KP*%
%TO.N,/DP*%
X57650000Y-42260000D03*
%TD*%
D13*
%TO.P,COUT1,1*%
%TO.N,GND*%
X65700000Y-39225000D03*
%TO.P,COUT1,2*%
%TO.N,VCC*%
X65700000Y-39865000D03*
%TD*%
D11*
%TO.P,R4,1*%
%TO.N,/P1.0*%
X72590000Y-24100000D03*
%TO.P,R4,2*%
%TO.N,VCC*%
X73230000Y-24100000D03*
%TD*%
D19*
%TO.P,J1,1,VBUS*%
%TO.N,Net-(CIN1-Pad2)*%
X83677500Y-38060000D03*
%TO.P,J1,2,D-*%
%TO.N,/UD-*%
X83677500Y-37410000D03*
%TO.P,J1,3,D+*%
%TO.N,/UD+*%
X83677500Y-36760000D03*
%TO.P,J1,4,ID*%
%TO.N,GND*%
X83677500Y-36110000D03*
%TO.P,J1,5,GND*%
X83677500Y-35460000D03*
D20*
%TO.P,J1,6,Shield*%
X84237500Y-34760000D03*
X84237500Y-38760000D03*
D21*
%TO.P,J1,7*%
X86337500Y-39590000D03*
X86337500Y-33910000D03*
D22*
%TO.P,J1,8*%
X86337500Y-36790000D03*
%TD*%
D23*
%TO.P,U4,1,CMPO/T0/P1.2*%
%TO.N,/P1.2*%
X63510000Y-27205000D03*
%TO.P,U4,2,P1.3*%
%TO.N,/P1.3*%
X63510000Y-28475000D03*
%TO.P,U4,3,T0CLKO/P1.4*%
%TO.N,/P1.4*%
X63510000Y-29745000D03*
%TO.P,U4,4,P1.5*%
%TO.N,/P1.5*%
X63510000Y-31015000D03*
%TO.P,U4,5,CMP-/MCLKO/RST/P5.4*%
%TO.N,/P5.4*%
X63510000Y-32285000D03*
%TO.P,U4,6,VCC*%
%TO.N,VCC*%
X63510000Y-33555000D03*
%TO.P,U4,7,CMP+/P5.5*%
%TO.N,/P5.5*%
X63510000Y-34825000D03*
%TO.P,U4,8,GND*%
%TO.N,GND*%
X63510000Y-36095000D03*
%TO.P,U4,9,P3.0/RxD/~{INT4}/T2CLKO*%
%TO.N,/RX*%
X68810000Y-36095000D03*
%TO.P,U4,10,P3.1/TXD/T2*%
%TO.N,/TX*%
X68810000Y-34825000D03*
%TO.P,U4,11,P3.2/INT0*%
%TO.N,/P3.2*%
X68810000Y-33555000D03*
%TO.P,U4,12,P3.3/INT1*%
%TO.N,/P3.3*%
X68810000Y-32285000D03*
%TO.P,U4,13,P3.6/~{INT2}/RXD_2*%
%TO.N,/~{INT2}*%
X68810000Y-31015000D03*
%TO.P,U4,14,P3.7/~{INT3}/TXD_2*%
%TO.N,/P3.7*%
X68810000Y-29745000D03*
%TO.P,U4,15,P1.0/RSTOUT_LOW*%
%TO.N,/P1.0*%
X68810000Y-28475000D03*
%TO.P,U4,16,P1.1*%
%TO.N,/P1.1*%
X68810000Y-27205000D03*
%TD*%
D11*
%TO.P,R5,1*%
%TO.N,VCC*%
X62610000Y-23760000D03*
%TO.P,R5,2*%
%TO.N,/P1.1*%
X63250000Y-23760000D03*
%TD*%
D15*
%TO.P,C1,1*%
%TO.N,VCC*%
X72020000Y-38600000D03*
%TO.P,C1,2*%
%TO.N,GND*%
X71380000Y-38600000D03*
%TD*%
D14*
%TO.P,CIN1,1*%
%TO.N,GND*%
X71310000Y-42600000D03*
%TO.P,CIN1,2*%
%TO.N,Net-(CIN1-Pad2)*%
X71310000Y-41960000D03*
%TD*%
D24*
%TO.P,U1,1,UD+*%
%TO.N,/UD+*%
X79035000Y-38665000D03*
%TO.P,U1,2,UD-*%
%TO.N,/UD-*%
X79035000Y-37395000D03*
%TO.P,U1,3,GND*%
%TO.N,GND*%
X79035000Y-36125000D03*
%TO.P,U1,4,RTS#*%
X79035000Y-34855000D03*
%TO.P,U1,5,VCC*%
%TO.N,VCC*%
X73785000Y-34855000D03*
%TO.P,U1,6,TXD*%
%TO.N,/RX*%
X73785000Y-36125000D03*
%TO.P,U1,7,RXD*%
%TO.N,/TX*%
X73785000Y-37395000D03*
%TO.P,U1,8,V3*%
%TO.N,VCC*%
X73785000Y-38665000D03*
%TD*%
D25*
%TO.P,U3,1,32kHz*%
%TO.N,GND*%
X74700000Y-30860000D03*
%TO.P,U3,2,VCC*%
%TO.N,VCC*%
X75970000Y-30860000D03*
%TO.P,U3,3,~{INT}/SQW*%
%TO.N,/~{INT2}*%
X77240000Y-30860000D03*
%TO.P,U3,4,~{RST}*%
%TO.N,/P3.3*%
X78510000Y-30860000D03*
%TO.P,U3,5,N.C.*%
%TO.N,GND*%
X79780000Y-30860000D03*
%TO.P,U3,6,N.C.*%
X81050000Y-30860000D03*
%TO.P,U3,7,N.C.*%
X82320000Y-30860000D03*
%TO.P,U3,8,N.C.*%
X83590000Y-30860000D03*
%TO.P,U3,9,N.C.*%
X83595000Y-22610000D03*
%TO.P,U3,10,N.C.*%
X82325000Y-22610000D03*
%TO.P,U3,11,N.C.*%
X81055000Y-22610000D03*
%TO.P,U3,12,N.C.*%
X79785000Y-22610000D03*
%TO.P,U3,13,GND*%
X78515000Y-22610000D03*
%TO.P,U3,14,VBAT*%
X77245000Y-22610000D03*
%TO.P,U3,15,SDA*%
%TO.N,/P3.7*%
X75975000Y-22610000D03*
%TO.P,U3,16,SCL*%
%TO.N,/P1.0*%
X74705000Y-22610000D03*
%TD*%
D14*
%TO.P,C3,1*%
%TO.N,GND*%
X60370000Y-35895000D03*
%TO.P,C3,2*%
%TO.N,VCC*%
X60370000Y-35255000D03*
%TD*%
D13*
%TO.P,R2,1*%
%TO.N,VCC*%
X73210000Y-27560000D03*
%TO.P,R2,2*%
%TO.N,/~{INT2}*%
X73210000Y-28200000D03*
%TD*%
D26*
%TO.P,SW2,4*%
%TO.N,GND*%
X50910000Y-46680000D03*
X52610000Y-46680000D03*
%TD*%
%TO.P,SW5,4*%
%TO.N,GND*%
X74810000Y-46700000D03*
X76510000Y-46700000D03*
%TD*%
%TO.P,SW1,4*%
%TO.N,GND*%
X83170000Y-46700000D03*
X81470000Y-46700000D03*
%TD*%
%TO.P,SW3,4*%
%TO.N,GND*%
X67620000Y-46700000D03*
X65920000Y-46700000D03*
%TD*%
D27*
%TO.N,GND*%
X72110000Y-30460000D03*
X63300000Y-46750000D03*
X85400000Y-22650000D03*
D28*
X68900000Y-37900000D03*
D27*
X70200000Y-38100000D03*
X70400000Y-43200000D03*
D29*
X86900000Y-21199999D03*
D27*
X45550000Y-30410000D03*
X48450000Y-47000000D03*
D28*
X79000000Y-33100000D03*
D30*
X81900000Y-35400000D03*
D27*
X79100000Y-44550000D03*
X85700000Y-44900000D03*
X63900000Y-42100000D03*
X48600000Y-45300000D03*
D28*
X86350000Y-32000000D03*
X86337907Y-41700667D03*
D29*
X45100000Y-46700000D03*
D30*
X65700000Y-38000000D03*
D27*
X59450000Y-35890000D03*
X73130000Y-29320000D03*
D29*
X86900000Y-46700000D03*
X45100000Y-21200000D03*
D27*
X53810000Y-34000000D03*
X85400000Y-30850000D03*
X77250000Y-20850000D03*
D30*
%TO.N,VCC*%
X48610000Y-44100000D03*
D27*
X72110000Y-34360000D03*
X74500000Y-27200000D03*
X59330000Y-34600000D03*
X71970000Y-31690000D03*
X70760000Y-22260000D03*
D30*
X67300000Y-38100000D03*
D27*
X74600000Y-24500000D03*
D30*
X74300000Y-40100000D03*
D27*
X61370000Y-23740000D03*
%TO.N,/DIG1*%
X59290000Y-33420000D03*
%TO.N,/DIG4*%
X55900000Y-31200000D03*
%TO.N,/DIG2*%
X53600000Y-31900000D03*
%TO.N,/DIG3*%
X51290000Y-34370000D03*
%TO.N,/A*%
X58050000Y-30350000D03*
%TO.N,/B*%
X55000000Y-29400000D03*
%TO.N,/C*%
X64510000Y-38260000D03*
%TO.N,/D*%
X61710000Y-45460000D03*
%TO.N,/E*%
X72410000Y-42860000D03*
%TO.N,/F*%
X66000000Y-28300000D03*
X66000000Y-31600000D03*
X55110000Y-38860000D03*
X55110000Y-40660000D03*
X66000000Y-35900000D03*
%TO.N,/G*%
X60410000Y-43760000D03*
%TO.N,/DP*%
X65010000Y-42860000D03*
D31*
%TO.N,/UD+*%
X82110000Y-36760000D03*
X80840000Y-38010000D03*
%TO.N,/P3.7*%
X70660000Y-29280000D03*
X70660000Y-27680000D03*
D27*
%TO.N,/P3.2*%
X77250000Y-40800000D03*
X51850000Y-47800000D03*
D32*
X70510000Y-33560000D03*
D27*
X79200000Y-47800000D03*
X70200000Y-46700000D03*
%TO.N,/P1.4*%
X59210000Y-42160000D03*
X60310000Y-33560000D03*
X59910000Y-38260000D03*
%TO.N,/P1.5*%
X61470000Y-38270000D03*
X60510000Y-42160000D03*
X61110000Y-32760000D03*
%TO.N,/P5.4*%
X62500000Y-38100000D03*
X62130000Y-33000000D03*
X68100000Y-43800000D03*
X63400000Y-43800000D03*
X62700000Y-42100000D03*
D32*
%TO.N,/TX*%
X71710000Y-35360000D03*
X72100000Y-36900000D03*
%TO.N,/P1.3*%
X59980000Y-30730000D03*
D27*
X56780000Y-31810000D03*
%TO.N,/P5.5*%
X67110000Y-35460000D03*
X82250000Y-47850000D03*
X76350000Y-43500000D03*
%TD*%
D33*
%TO.N,/A*%
X48765000Y-34015000D02*
X48765000Y-36360000D01*
X52480000Y-30300000D02*
X48765000Y-34015000D01*
X58000000Y-30300000D02*
X52480000Y-30300000D01*
X58050000Y-30350000D02*
X58000000Y-30300000D01*
D34*
%TO.N,/P1.1*%
X58422500Y-26347500D02*
X59170000Y-25600000D01*
D33*
X63220000Y-24000000D02*
X63220000Y-25575000D01*
D34*
X68710000Y-27110000D02*
X68710000Y-27215000D01*
X59170000Y-25600000D02*
X67200000Y-25600000D01*
X67200000Y-25600000D02*
X68710000Y-27110000D01*
D33*
%TO.N,GND*%
X73100000Y-29350000D02*
X73130000Y-29320000D01*
X69547500Y-39147500D02*
X69547500Y-39910000D01*
X83677500Y-35460000D02*
X83677500Y-36110000D01*
X61525000Y-35895000D02*
X61620000Y-35800000D01*
X79000000Y-33100000D02*
X79035000Y-33135000D01*
X77250000Y-20850000D02*
X77245000Y-20855000D01*
X85487500Y-34760000D02*
X86337500Y-33910000D01*
X86337500Y-32012500D02*
X86337500Y-33910000D01*
X73900000Y-30860000D02*
X73100000Y-30060000D01*
X70700000Y-38600000D02*
X71380000Y-38600000D01*
X48600000Y-45300000D02*
X49190000Y-45300000D01*
D34*
X53810000Y-34000000D02*
X53845000Y-34035000D01*
D33*
X81960000Y-35460000D02*
X83677500Y-35460000D01*
D34*
X53845000Y-34035000D02*
X53845000Y-36360000D01*
D33*
X78515000Y-22610000D02*
X79785000Y-22610000D01*
X86337500Y-41700260D02*
X86337907Y-41700667D01*
X79035000Y-36125000D02*
X79035000Y-34855000D01*
X61630000Y-35810000D02*
X62330000Y-35810000D01*
X82320000Y-30860000D02*
X83590000Y-30860000D01*
X79780000Y-30860000D02*
X81050000Y-30860000D01*
X85390000Y-30860000D02*
X85400000Y-30850000D01*
X65700000Y-38000000D02*
X65700000Y-39225000D01*
X86337500Y-39590000D02*
X86337500Y-36790000D01*
X68900000Y-38500000D02*
X69547500Y-39147500D01*
X86337500Y-33910000D02*
X86337500Y-36790000D01*
X74700000Y-30860000D02*
X73900000Y-30860000D01*
X79785000Y-22610000D02*
X81055000Y-22610000D01*
X62615000Y-36095000D02*
X63510000Y-36095000D01*
X86350000Y-32000000D02*
X86337500Y-32012500D01*
X85360000Y-22610000D02*
X85400000Y-22650000D01*
X59455000Y-35895000D02*
X60370000Y-35895000D01*
X86337500Y-39590000D02*
X86337500Y-41700260D01*
X79035000Y-33135000D02*
X79035000Y-34855000D01*
X83590000Y-30860000D02*
X85390000Y-30860000D01*
X72110000Y-30460000D02*
X72520000Y-30460000D01*
X82325000Y-22610000D02*
X83595000Y-22610000D01*
X49190000Y-45300000D02*
X50010000Y-44480000D01*
X60370000Y-35895000D02*
X61525000Y-35895000D01*
X73100000Y-30060000D02*
X73100000Y-29350000D01*
X72520000Y-30460000D02*
X73100000Y-31040000D01*
X81050000Y-30860000D02*
X82320000Y-30860000D01*
X46422500Y-29527500D02*
X46422500Y-26347500D01*
X68900000Y-37900000D02*
X68900000Y-38500000D01*
X70200000Y-38100000D02*
X70700000Y-38600000D01*
X84237500Y-38760000D02*
X85507500Y-38760000D01*
X45550000Y-30400000D02*
X46422500Y-29527500D01*
X71000000Y-42600000D02*
X70400000Y-43200000D01*
X63900000Y-42100000D02*
X64140000Y-41860000D01*
X84237500Y-34760000D02*
X85487500Y-34760000D01*
X59450000Y-35890000D02*
X59455000Y-35895000D01*
X45550000Y-30410000D02*
X45550000Y-30400000D01*
X62330000Y-35810000D02*
X62615000Y-36095000D01*
X64140000Y-41860000D02*
X64890000Y-41860000D01*
X61620000Y-35800000D02*
X61630000Y-35810000D01*
X85507500Y-38760000D02*
X86337500Y-39590000D01*
X83595000Y-22610000D02*
X85360000Y-22610000D01*
X77245000Y-20855000D02*
X77245000Y-22610000D01*
X81055000Y-22610000D02*
X82325000Y-22610000D01*
X71310000Y-42600000D02*
X71000000Y-42600000D01*
%TO.N,VCC*%
X73720000Y-38600000D02*
X73785000Y-38665000D01*
X65700000Y-39865000D02*
X67227500Y-39865000D01*
X61390000Y-23760000D02*
X62610000Y-23760000D01*
X62310000Y-34250000D02*
X61620000Y-34250000D01*
X59520000Y-34600000D02*
X60175000Y-35255000D01*
X50010000Y-43840000D02*
X50010000Y-42280000D01*
X70760000Y-22260000D02*
X70760000Y-22250000D01*
X74300000Y-40100000D02*
X73785000Y-39585000D01*
X67227500Y-39865000D02*
X67272500Y-39910000D01*
X70760000Y-22250000D02*
X71510000Y-21500000D01*
X75270000Y-32430000D02*
X73220000Y-32430000D01*
X73210000Y-27560000D02*
X73570000Y-27200000D01*
X75970000Y-31730000D02*
X75270000Y-32430000D01*
X73100000Y-31680000D02*
X71980000Y-31680000D01*
X73785000Y-39585000D02*
X73785000Y-38665000D01*
X73570000Y-27200000D02*
X74500000Y-27200000D01*
X60370000Y-35255000D02*
X60615000Y-35255000D01*
X74200000Y-24100000D02*
X74600000Y-24500000D01*
X60175000Y-35255000D02*
X60370000Y-35255000D01*
X73220000Y-32430000D02*
X73100000Y-32310000D01*
X48610000Y-44100000D02*
X48870000Y-43840000D01*
X50010000Y-42280000D02*
X50030000Y-42260000D01*
X61370000Y-23740000D02*
X61390000Y-23760000D01*
X48870000Y-43840000D02*
X50010000Y-43840000D01*
X59330000Y-34600000D02*
X59520000Y-34600000D01*
X73230000Y-24100000D02*
X74200000Y-24100000D01*
X75970000Y-31730000D02*
X75970000Y-30860000D01*
X72605000Y-34855000D02*
X73785000Y-34855000D01*
X73100000Y-32310000D02*
X73100000Y-31680000D01*
X63005000Y-33555000D02*
X62310000Y-34250000D01*
X60615000Y-35255000D02*
X61620000Y-34250000D01*
X67300000Y-38100000D02*
X67300000Y-39882500D01*
X72020000Y-38600000D02*
X73720000Y-38600000D01*
X72110000Y-34360000D02*
X72605000Y-34855000D01*
X67202500Y-39840000D02*
X67272500Y-39910000D01*
X67300000Y-39882500D02*
X67272500Y-39910000D01*
X63510000Y-33555000D02*
X63005000Y-33555000D01*
X71980000Y-31680000D02*
X71970000Y-31690000D01*
%TO.N,Net-(CBP1-Pad1)*%
X67272500Y-41810000D02*
X65580000Y-41810000D01*
X65580000Y-41810000D02*
X65530000Y-41860000D01*
D34*
%TO.N,Net-(CIN1-Pad2)*%
X74590000Y-41960000D02*
X76650000Y-39900000D01*
D33*
X69697500Y-41960000D02*
X69547500Y-41810000D01*
X69547500Y-41810000D02*
X69547500Y-40860000D01*
D34*
X76650000Y-39900000D02*
X80850000Y-39900000D01*
D33*
X72010000Y-41960000D02*
X71310000Y-41960000D01*
X83677500Y-38060000D02*
X83677500Y-38122500D01*
X71310000Y-41960000D02*
X69697500Y-41960000D01*
X81900000Y-39900000D02*
X80850000Y-39900000D01*
X83677500Y-38122500D02*
X81900000Y-39900000D01*
D34*
X72010000Y-41960000D02*
X74590000Y-41960000D01*
D33*
%TO.N,/DIG1*%
X57660000Y-35050000D02*
X57660000Y-36360000D01*
X59290000Y-33420000D02*
X57660000Y-35050000D01*
%TO.N,/DIG4*%
X55900000Y-31200000D02*
X55800000Y-31100000D01*
X52790000Y-31100000D02*
X50060000Y-33830000D01*
X50060000Y-33830000D02*
X50060000Y-36360000D01*
X55800000Y-31100000D02*
X52790000Y-31100000D01*
%TO.N,/DIG2*%
X53600000Y-31900000D02*
X52575000Y-32925000D01*
X52575000Y-32925000D02*
X52575000Y-36360000D01*
%TO.N,/DIG3*%
X51310000Y-34390000D02*
X51290000Y-34370000D01*
X51310000Y-36355000D02*
X51310000Y-34390000D01*
X51305000Y-36360000D02*
X51310000Y-36355000D01*
%TO.N,/B*%
X55000000Y-29400000D02*
X52360000Y-29400000D01*
X52360000Y-29400000D02*
X47080000Y-34680000D01*
X47080000Y-40580000D02*
X48760000Y-42260000D01*
X47080000Y-34680000D02*
X47080000Y-40580000D01*
D35*
%TO.N,/C*%
X64510000Y-38260000D02*
X63560000Y-37310000D01*
X52410000Y-39760000D02*
X51300000Y-40870000D01*
X63560000Y-37310000D02*
X59660000Y-37310000D01*
X57210000Y-39760000D02*
X52410000Y-39760000D01*
X59660000Y-37310000D02*
X57210000Y-39760000D01*
X51300000Y-40870000D02*
X51300000Y-42260000D01*
D33*
%TO.N,/D*%
X52570000Y-43120000D02*
X52570000Y-42260000D01*
X61710000Y-45460000D02*
X54910000Y-45460000D01*
X54910000Y-45460000D02*
X52570000Y-43120000D01*
%TO.N,/E*%
X70500000Y-44600000D02*
X55150000Y-44600000D01*
X72240000Y-42860000D02*
X70500000Y-44600000D01*
X72410000Y-42860000D02*
X72240000Y-42860000D01*
X55150000Y-44600000D02*
X53840000Y-43290000D01*
X53840000Y-43290000D02*
X53840000Y-42260000D01*
D35*
%TO.N,/F*%
X66000000Y-28300000D02*
X66000000Y-31600000D01*
X55110000Y-42260000D02*
X55110000Y-40660000D01*
X66000000Y-35900000D02*
X65100000Y-36800000D01*
X59370000Y-36800000D02*
X58210000Y-37960000D01*
X65100000Y-36800000D02*
X59370000Y-36800000D01*
X58210000Y-37960000D02*
X56010000Y-37960000D01*
X56010000Y-37960000D02*
X55110000Y-38860000D01*
%TO.N,/G*%
X60410000Y-43760000D02*
X57010000Y-43760000D01*
X56380000Y-43130000D02*
X56380000Y-42260000D01*
X57010000Y-43760000D02*
X56380000Y-43130000D01*
%TO.N,/DP*%
X64910000Y-42960000D02*
X58210000Y-42960000D01*
X57650000Y-42400000D02*
X57650000Y-42260000D01*
X65010000Y-42860000D02*
X64910000Y-42960000D01*
X58210000Y-42960000D02*
X57650000Y-42400000D01*
%TO.N,/UD-*%
X80350000Y-36790000D02*
X80340000Y-36790000D01*
X82820000Y-37410000D02*
X82610000Y-37620000D01*
X81710000Y-37450000D02*
X81660000Y-37450000D01*
X81190000Y-37110140D02*
X81190000Y-36250000D01*
X79735000Y-37395000D02*
X79035000Y-37395000D01*
X82610000Y-37620000D02*
X82610000Y-38100000D01*
X80340000Y-36790000D02*
X79735000Y-37395000D01*
X80592882Y-36190900D02*
X80592882Y-36547118D01*
X80592882Y-36547118D02*
X80350000Y-36790000D01*
X82010000Y-38100000D02*
X82010000Y-37750000D01*
X81423468Y-37343608D02*
X81190000Y-37110140D01*
X83677500Y-37410000D02*
X82820000Y-37410000D01*
X83260000Y-37450000D02*
G75*
G02*
X83210000Y-37400000I1J50001D01*
G01*
X81423468Y-37343608D02*
G75*
G03*
X81660000Y-37450000I234008J204123D01*
G01*
X81710000Y-37450000D02*
G75*
G02*
X82010000Y-37750000I0J-300000D01*
G01*
X80890000Y-35950000D02*
G75*
G02*
X81190000Y-36250000I0J-300000D01*
G01*
X82310000Y-38400000D02*
G75*
G03*
X82610000Y-38100000I0J300000D01*
G01*
X82010000Y-38100000D02*
G75*
G03*
X82310000Y-38400000I300000J0D01*
G01*
X80592882Y-36190900D02*
G75*
G02*
X80890000Y-35950000I299474J-65683D01*
G01*
X83210000Y-37400000D02*
G75*
G03*
X83160000Y-37350000I-50001J-1D01*
G01*
%TO.N,/UD+*%
X79035000Y-38665000D02*
X80185000Y-38665000D01*
X80185000Y-38665000D02*
X80840000Y-38010000D01*
X82110000Y-36760000D02*
X83677500Y-36760000D01*
%TO.N,/~{INT2}*%
X77240000Y-30860000D02*
X77240000Y-31270000D01*
X71920000Y-33040000D02*
X69905000Y-31025000D01*
X69905000Y-31025000D02*
X68710000Y-31025000D01*
D33*
X77240000Y-29440000D02*
X77240000Y-30860000D01*
X76000000Y-28200000D02*
X77240000Y-29440000D01*
D35*
X77240000Y-31270000D02*
X75470000Y-33040000D01*
D33*
X73210000Y-28200000D02*
X76000000Y-28200000D01*
D35*
X75470000Y-33040000D02*
X71920000Y-33040000D01*
%TO.N,/P3.7*%
X70185000Y-29755000D02*
X68710000Y-29755000D01*
X75975000Y-21945000D02*
X75975000Y-22610000D01*
X73740000Y-21060000D02*
X75090000Y-21060000D01*
X73340000Y-21460000D02*
X73350000Y-21450000D01*
X70660000Y-27680000D02*
X70660000Y-24140000D01*
X70660000Y-24140000D02*
X73350000Y-21450000D01*
X73350000Y-21450000D02*
X73740000Y-21060000D01*
X70660000Y-29280000D02*
X70185000Y-29755000D01*
X75090000Y-21060000D02*
X75975000Y-21945000D01*
X72190000Y-21460000D02*
X73340000Y-21460000D01*
%TO.N,/P1.0*%
X72050000Y-23700000D02*
X71520000Y-24230000D01*
D33*
X72420000Y-24100000D02*
X72050000Y-23730000D01*
D35*
X73140000Y-22610000D02*
X72050000Y-23700000D01*
X72050000Y-23730000D02*
X72050000Y-23700000D01*
X71520000Y-27860000D02*
X70895000Y-28485000D01*
X70895000Y-28485000D02*
X68710000Y-28485000D01*
X74705000Y-22610000D02*
X73140000Y-22610000D01*
X71520000Y-24230000D02*
X71520000Y-27860000D01*
D33*
X72590000Y-24100000D02*
X72420000Y-24100000D01*
%TO.N,/P3.2*%
X77250000Y-40800000D02*
X77250000Y-40950000D01*
X70450000Y-47800000D02*
X79200000Y-47800000D01*
X51850000Y-47800000D02*
X70450000Y-47800000D01*
X71350000Y-46700000D02*
X71625000Y-46425000D01*
X70200000Y-46700000D02*
X71350000Y-46700000D01*
X71775000Y-46425000D02*
X71625000Y-46425000D01*
X77250000Y-40950000D02*
X71775000Y-46425000D01*
X70510000Y-33560000D02*
X70505000Y-33565000D01*
X70450000Y-47800000D02*
X71625000Y-46625000D01*
X70505000Y-33565000D02*
X68710000Y-33565000D01*
X71625000Y-46625000D02*
X71625000Y-46425000D01*
%TO.N,/P1.4*%
X60230000Y-33710000D02*
X60310000Y-33630000D01*
D35*
X63710000Y-29755000D02*
X62085000Y-29755000D01*
D33*
X60310000Y-33630000D02*
X60310000Y-33560000D01*
D35*
X60230000Y-31610000D02*
X60230000Y-33710000D01*
D33*
X59910000Y-41460000D02*
X59210000Y-42160000D01*
D35*
X62085000Y-29755000D02*
X60230000Y-31610000D01*
D33*
X59910000Y-38260000D02*
X59910000Y-41460000D01*
D35*
%TO.N,/P1.5*%
X61110000Y-32710000D02*
X61020000Y-32800000D01*
X63710000Y-31025000D02*
X61805000Y-31025000D01*
D33*
X61470000Y-38270000D02*
X61470000Y-41200000D01*
D35*
X61110000Y-31720000D02*
X61110000Y-32710000D01*
D33*
X61110000Y-32760000D02*
X61060000Y-32760000D01*
X61470000Y-41200000D02*
X60510000Y-42160000D01*
X61060000Y-32760000D02*
X61020000Y-32800000D01*
D35*
X61805000Y-31025000D02*
X61110000Y-31720000D01*
D33*
%TO.N,/P5.4*%
X63200000Y-41600000D02*
X62700000Y-42100000D01*
X68100000Y-43800000D02*
X63400000Y-43800000D01*
D35*
X63710000Y-32295000D02*
X62835000Y-32295000D01*
D33*
X63200000Y-38800000D02*
X63200000Y-41600000D01*
D35*
X62835000Y-32295000D02*
X62130000Y-33000000D01*
D33*
X62500000Y-38100000D02*
X63200000Y-38800000D01*
D35*
%TO.N,/RX*%
X73785000Y-36125000D02*
X69630000Y-36125000D01*
X69630000Y-36125000D02*
X69610000Y-36105000D01*
D36*
%TO.N,/TX*%
X72595000Y-37395000D02*
X72100000Y-36900000D01*
D35*
X71185000Y-34835000D02*
X69610000Y-34835000D01*
D36*
X73785000Y-37395000D02*
X72595000Y-37395000D01*
D35*
X71710000Y-35360000D02*
X71185000Y-34835000D01*
%TO.N,/P3.3*%
X68710000Y-32295000D02*
X70335000Y-32295000D01*
X78510000Y-31190000D02*
X78510000Y-30860000D01*
X70335000Y-32295000D02*
X71620000Y-33580000D01*
X76120000Y-33580000D02*
X78510000Y-31190000D01*
X71620000Y-33580000D02*
X76120000Y-33580000D01*
%TO.N,/P1.2*%
X58500000Y-33120000D02*
X56385000Y-35235000D01*
D33*
X63710000Y-27215000D02*
X62365000Y-27215000D01*
D35*
X62365000Y-27215000D02*
X58500000Y-31080000D01*
X56385000Y-35235000D02*
X56385000Y-35605000D01*
D33*
X56385000Y-35605000D02*
X56385000Y-36360000D01*
D35*
X58500000Y-31080000D02*
X58500000Y-33120000D01*
%TO.N,/P1.3*%
X59980000Y-30730000D02*
X62225000Y-28485000D01*
D33*
X55115000Y-33475000D02*
X55115000Y-36360000D01*
X62225000Y-28485000D02*
X63710000Y-28485000D01*
X56780000Y-31810000D02*
X55115000Y-33475000D01*
%TO.N,/P5.5*%
X82250000Y-47850000D02*
X80700000Y-47850000D01*
D35*
X66485000Y-34835000D02*
X63710000Y-34835000D01*
X67110000Y-35460000D02*
X66485000Y-34835000D01*
D33*
X80700000Y-47850000D02*
X76350000Y-43500000D01*
%TD*%
%TA.AperFunction,Conductor*%
%TO.N,GND*%
G36*
X87977121Y-20155002D02*
G01*
X88023614Y-20208658D01*
X88035000Y-20261000D01*
X88035000Y-48099000D01*
X88014998Y-48167121D01*
X87961342Y-48213614D01*
X87909000Y-48225000D01*
X83146556Y-48225000D01*
X83078435Y-48204998D01*
X83031942Y-48151342D01*
X83021838Y-48081068D01*
X83026296Y-48063819D01*
X83026004Y-48063744D01*
X83027757Y-48056918D01*
X83030257Y-48050336D01*
X83037284Y-48000336D01*
X83054700Y-47876416D01*
X83054700Y-47876411D01*
X83055251Y-47872493D01*
X83055565Y-47850000D01*
X83035546Y-47671528D01*
X82976485Y-47501927D01*
X82881316Y-47349625D01*
X82817771Y-47285635D01*
X82759733Y-47227190D01*
X82759729Y-47227187D01*
X82754770Y-47222193D01*
X82743761Y-47215206D01*
X82696860Y-47185442D01*
X82603136Y-47125963D01*
X82573352Y-47115357D01*
X82440586Y-47068081D01*
X82440581Y-47068080D01*
X82433951Y-47065719D01*
X82426965Y-47064886D01*
X82426961Y-47064885D01*
X82299177Y-47049648D01*
X82255624Y-47044455D01*
X82248621Y-47045191D01*
X82248620Y-47045191D01*
X82084025Y-47062490D01*
X82084021Y-47062491D01*
X82077017Y-47063227D01*
X82070346Y-47065498D01*
X81913677Y-47118832D01*
X81913674Y-47118833D01*
X81907007Y-47121103D01*
X81901009Y-47124793D01*
X81901007Y-47124794D01*
X81841318Y-47161515D01*
X81754045Y-47215206D01*
X81749010Y-47220136D01*
X81745615Y-47222789D01*
X81679621Y-47248967D01*
X81668041Y-47249500D01*
X81000925Y-47249500D01*
X80932804Y-47229498D01*
X80911830Y-47212595D01*
X77181249Y-43482014D01*
X77147223Y-43419702D01*
X77145129Y-43406964D01*
X77144043Y-43397275D01*
X77135546Y-43321528D01*
X77130874Y-43308110D01*
X77093475Y-43200717D01*
X77076485Y-43151927D01*
X77025981Y-43071103D01*
X76985049Y-43005599D01*
X76981316Y-42999625D01*
X76917771Y-42935635D01*
X76859733Y-42877190D01*
X76859729Y-42877187D01*
X76854770Y-42872193D01*
X76703136Y-42775963D01*
X76573909Y-42729947D01*
X76516446Y-42688254D01*
X76490645Y-42622112D01*
X76504700Y-42552520D01*
X76527081Y-42522154D01*
X77461903Y-41587332D01*
X77512061Y-41556594D01*
X77576086Y-41535791D01*
X77576088Y-41535790D01*
X77582782Y-41533615D01*
X77663506Y-41485494D01*
X77730992Y-41445265D01*
X77730994Y-41445264D01*
X77737044Y-41441657D01*
X77867099Y-41317807D01*
X77875204Y-41305609D01*
X77921926Y-41235285D01*
X77966483Y-41168222D01*
X77988616Y-41109956D01*
X78027757Y-41006919D01*
X78027758Y-41006914D01*
X78030257Y-41000336D01*
X78031967Y-40988170D01*
X78054700Y-40826416D01*
X78054700Y-40826411D01*
X78055251Y-40822493D01*
X78055565Y-40800000D01*
X78047553Y-40728573D01*
X78043288Y-40690545D01*
X78055572Y-40620619D01*
X78103711Y-40568435D01*
X78168503Y-40550500D01*
X80890925Y-40550500D01*
X80948690Y-40543203D01*
X81005193Y-40536065D01*
X81005196Y-40536064D01*
X81013058Y-40535071D01*
X81020424Y-40532154D01*
X81020426Y-40532154D01*
X81078027Y-40509348D01*
X81124411Y-40500500D01*
X81852381Y-40500500D01*
X81868827Y-40501578D01*
X81900000Y-40505682D01*
X81908188Y-40504604D01*
X81939361Y-40500500D01*
X82048574Y-40486122D01*
X82056762Y-40485044D01*
X82202841Y-40424536D01*
X82328282Y-40328282D01*
X82347430Y-40303328D01*
X82358297Y-40290938D01*
X83936831Y-38712404D01*
X83999143Y-38678378D01*
X84025926Y-38675499D01*
X84404018Y-38675499D01*
X84408912Y-38674724D01*
X84488006Y-38662198D01*
X84488008Y-38662197D01*
X84497804Y-38660646D01*
X84518989Y-38649852D01*
X84531969Y-38643238D01*
X84610842Y-38603050D01*
X84700550Y-38513342D01*
X84758146Y-38400304D01*
X84760725Y-38384025D01*
X84764030Y-38363151D01*
X84773000Y-38306519D01*
X84772999Y-37813482D01*
X84763691Y-37754708D01*
X84763691Y-37715295D01*
X84773000Y-37656519D01*
X84772999Y-37163482D01*
X84763691Y-37104708D01*
X84763691Y-37065295D01*
X84773000Y-37006519D01*
X84772999Y-36513482D01*
X84758146Y-36419696D01*
X84750254Y-36404206D01*
X84729020Y-36362534D01*
X84700550Y-36306658D01*
X84610842Y-36216950D01*
X84497804Y-36159354D01*
X84488015Y-36157804D01*
X84488013Y-36157803D01*
X84460651Y-36153470D01*
X84404019Y-36144500D01*
X83677647Y-36144500D01*
X82950982Y-36144501D01*
X82946089Y-36145276D01*
X82946088Y-36145276D01*
X82866994Y-36157802D01*
X82866992Y-36157803D01*
X82857196Y-36159354D01*
X82848359Y-36163857D01*
X82848358Y-36163857D01*
X82830740Y-36172834D01*
X82786996Y-36195123D01*
X82785732Y-36195767D01*
X82728529Y-36209500D01*
X82673520Y-36209500D01*
X82605399Y-36189498D01*
X82594080Y-36180344D01*
X82593698Y-36180820D01*
X82588204Y-36176403D01*
X82583242Y-36171406D01*
X82571344Y-36163855D01*
X82506547Y-36122734D01*
X82441079Y-36081187D01*
X82282462Y-36024706D01*
X82275474Y-36023873D01*
X82275471Y-36023872D01*
X82182300Y-36012762D01*
X82115273Y-36004769D01*
X82108270Y-36005505D01*
X82108269Y-36005505D01*
X82062712Y-36010293D01*
X81947821Y-36022369D01*
X81941155Y-36024638D01*
X81941152Y-36024639D01*
X81910587Y-36035045D01*
X81855358Y-36053846D01*
X81784428Y-36056864D01*
X81723124Y-36021054D01*
X81694180Y-35971145D01*
X81683524Y-35936017D01*
X81679561Y-35922953D01*
X81661080Y-35888376D01*
X81603504Y-35780660D01*
X81603503Y-35780659D01*
X81600586Y-35775201D01*
X81494304Y-35645696D01*
X81364799Y-35539414D01*
X81359340Y-35536496D01*
X81222505Y-35463356D01*
X81222502Y-35463355D01*
X81217047Y-35460439D01*
X81056727Y-35411806D01*
X80911195Y-35397473D01*
X80907113Y-35397003D01*
X80897641Y-35395756D01*
X80890000Y-35394750D01*
X80887869Y-35395031D01*
X80885733Y-35394766D01*
X80863638Y-35397848D01*
X80859372Y-35398367D01*
X80721184Y-35412779D01*
X80715385Y-35414550D01*
X80715384Y-35414550D01*
X80568750Y-35459326D01*
X80568747Y-35459327D01*
X80562948Y-35461098D01*
X80557594Y-35463946D01*
X80557591Y-35463947D01*
X80507004Y-35490854D01*
X80416876Y-35538792D01*
X80412162Y-35542614D01*
X80355059Y-35588913D01*
X80288362Y-35642990D01*
X80182150Y-35769845D01*
X80175053Y-35782696D01*
X80105096Y-35909364D01*
X80105094Y-35909369D01*
X80102164Y-35914674D01*
X80086736Y-35962484D01*
X80084015Y-35961606D01*
X80083595Y-35964408D01*
X80085246Y-35964888D01*
X80083429Y-35971145D01*
X80079315Y-35985306D01*
X80078237Y-35988825D01*
X80059485Y-36046936D01*
X80058082Y-36051035D01*
X80050524Y-36071946D01*
X80049823Y-36080178D01*
X80048053Y-36088245D01*
X80048016Y-36088237D01*
X80045535Y-36101573D01*
X80043167Y-36109725D01*
X80042382Y-36120415D01*
X80042382Y-36162136D01*
X80041927Y-36172833D01*
X80038217Y-36216371D01*
X80039669Y-36224499D01*
X80040418Y-36228691D01*
X80042382Y-36250850D01*
X80042382Y-36257250D01*
X80022380Y-36325371D01*
X80002184Y-36349511D01*
X80000578Y-36350897D01*
X79976042Y-36375433D01*
X79966241Y-36384258D01*
X79947412Y-36399506D01*
X79934930Y-36409614D01*
X79929956Y-36416613D01*
X79929955Y-36416614D01*
X79924034Y-36424946D01*
X79910424Y-36441051D01*
X79796853Y-36554623D01*
X79693881Y-36657595D01*
X79631569Y-36691620D01*
X79604785Y-36694500D01*
X78317228Y-36694500D01*
X78227453Y-36705364D01*
X78219925Y-36708344D01*
X78219923Y-36708345D01*
X78200670Y-36715968D01*
X78087217Y-36760887D01*
X77967078Y-36852078D01*
X77875887Y-36972217D01*
X77862306Y-37006519D01*
X77839037Y-37065291D01*
X77820364Y-37112453D01*
X77809500Y-37202228D01*
X77809500Y-37587772D01*
X77820364Y-37677547D01*
X77823344Y-37685075D01*
X77823345Y-37685077D01*
X77844299Y-37738001D01*
X77875887Y-37817783D01*
X77967078Y-37937922D01*
X77972204Y-37941813D01*
X78005734Y-38003217D01*
X78000669Y-38074032D01*
X77972375Y-38118058D01*
X77967078Y-38122078D01*
X77875887Y-38242217D01*
X77857659Y-38288256D01*
X77825794Y-38368739D01*
X77820364Y-38382453D01*
X77809500Y-38472228D01*
X77809500Y-38857772D01*
X77820364Y-38947547D01*
X77823344Y-38955075D01*
X77823345Y-38955077D01*
X77871664Y-39077117D01*
X77878143Y-39147817D01*
X77845370Y-39210797D01*
X77783751Y-39246061D01*
X77754512Y-39249500D01*
X76731000Y-39249500D01*
X76719360Y-39248951D01*
X76711704Y-39247240D01*
X76703781Y-39247489D01*
X76641770Y-39249438D01*
X76637812Y-39249500D01*
X76609075Y-39249500D01*
X76604804Y-39250039D01*
X76592976Y-39250971D01*
X76547431Y-39252403D01*
X76539817Y-39254615D01*
X76539812Y-39254616D01*
X76527208Y-39258278D01*
X76507844Y-39262289D01*
X76486942Y-39264929D01*
X76479571Y-39267848D01*
X76479569Y-39267848D01*
X76444580Y-39281702D01*
X76433369Y-39285541D01*
X76389602Y-39298256D01*
X76371467Y-39308981D01*
X76353719Y-39317676D01*
X76334129Y-39325432D01*
X76297262Y-39352218D01*
X76287354Y-39358725D01*
X76254958Y-39377883D01*
X76254953Y-39377887D01*
X76248135Y-39381919D01*
X76233242Y-39396812D01*
X76218208Y-39409653D01*
X76201163Y-39422037D01*
X76196110Y-39428145D01*
X76172121Y-39457143D01*
X76164131Y-39465923D01*
X75418934Y-40211120D01*
X75356622Y-40245146D01*
X75285807Y-40240081D01*
X75228971Y-40197534D01*
X75204160Y-40131014D01*
X75204530Y-40108850D01*
X75204770Y-40106567D01*
X75204770Y-40106565D01*
X75205460Y-40100000D01*
X75185674Y-39911744D01*
X75127179Y-39731716D01*
X75118815Y-39717228D01*
X75035836Y-39573505D01*
X75032533Y-39567784D01*
X75019966Y-39553827D01*
X74910286Y-39432015D01*
X74910284Y-39432014D01*
X74905871Y-39427112D01*
X74900533Y-39423234D01*
X74900530Y-39423231D01*
X74873822Y-39403827D01*
X74866648Y-39398615D01*
X74823294Y-39342395D01*
X74817217Y-39271658D01*
X74850407Y-39209831D01*
X74852922Y-39207922D01*
X74944113Y-39087783D01*
X74984694Y-38985286D01*
X74996655Y-38955077D01*
X74996656Y-38955075D01*
X74999636Y-38947547D01*
X75010500Y-38857772D01*
X75010500Y-38472228D01*
X74999636Y-38382453D01*
X74994207Y-38368739D01*
X74962341Y-38288256D01*
X74944113Y-38242217D01*
X74852922Y-38122078D01*
X74847796Y-38118187D01*
X74814266Y-38056783D01*
X74819331Y-37985968D01*
X74847625Y-37941942D01*
X74852922Y-37937922D01*
X74944113Y-37817783D01*
X74975701Y-37738001D01*
X74996655Y-37685077D01*
X74996656Y-37685075D01*
X74999636Y-37677547D01*
X75010500Y-37587772D01*
X75010500Y-37202228D01*
X74999636Y-37112453D01*
X74980964Y-37065291D01*
X74957694Y-37006519D01*
X74944113Y-36972217D01*
X74852922Y-36852078D01*
X74847796Y-36848187D01*
X74814266Y-36786783D01*
X74819331Y-36715968D01*
X74847625Y-36671942D01*
X74852922Y-36667922D01*
X74944113Y-36547783D01*
X74992087Y-36426614D01*
X74996655Y-36415077D01*
X74996656Y-36415075D01*
X74999636Y-36407547D01*
X75010500Y-36317772D01*
X75010500Y-35932228D01*
X74999636Y-35842453D01*
X74944113Y-35702217D01*
X74852922Y-35582078D01*
X74847796Y-35578187D01*
X74814266Y-35516783D01*
X74819331Y-35445968D01*
X74847625Y-35401942D01*
X74852922Y-35397922D01*
X74944113Y-35277783D01*
X74999636Y-35137547D01*
X75010500Y-35047772D01*
X75010500Y-34662228D01*
X74999636Y-34572453D01*
X74990918Y-34550432D01*
X74953671Y-34456358D01*
X74944113Y-34432217D01*
X74881033Y-34349112D01*
X74868560Y-34332680D01*
X74843307Y-34266326D01*
X74857935Y-34196853D01*
X74907802Y-34146317D01*
X74968923Y-34130500D01*
X76105007Y-34130500D01*
X76110284Y-34130611D01*
X76172294Y-34133210D01*
X76183848Y-34130500D01*
X76214662Y-34123273D01*
X76226333Y-34121110D01*
X76241229Y-34119069D01*
X76269432Y-34115206D01*
X76283230Y-34109235D01*
X76304499Y-34102201D01*
X76310775Y-34100729D01*
X76319136Y-34098768D01*
X76326661Y-34094631D01*
X76326664Y-34094630D01*
X76357268Y-34077805D01*
X76367913Y-34072589D01*
X76407855Y-34055305D01*
X76419541Y-34045842D01*
X76438126Y-34033354D01*
X76451308Y-34026107D01*
X76459422Y-34019103D01*
X76483958Y-33994567D01*
X76493759Y-33985742D01*
X76518392Y-33965794D01*
X76518393Y-33965793D01*
X76525070Y-33960386D01*
X76530043Y-33953388D01*
X76530048Y-33953383D01*
X76535968Y-33945052D01*
X76549579Y-33928946D01*
X78381120Y-32097405D01*
X78443432Y-32063379D01*
X78470215Y-32060500D01*
X78702772Y-32060500D01*
X78792547Y-32049636D01*
X78800075Y-32046656D01*
X78800077Y-32046655D01*
X78875181Y-32016919D01*
X78932783Y-31994113D01*
X79052922Y-31902922D01*
X79144113Y-31782783D01*
X79179564Y-31693244D01*
X79196655Y-31650077D01*
X79196656Y-31650075D01*
X79199636Y-31642547D01*
X79210500Y-31552772D01*
X79210500Y-30167228D01*
X79199636Y-30077453D01*
X79176507Y-30019034D01*
X79147275Y-29945204D01*
X79144113Y-29937217D01*
X79052922Y-29817078D01*
X78932783Y-29725887D01*
X78858544Y-29696494D01*
X78800077Y-29673345D01*
X78800075Y-29673344D01*
X78792547Y-29670364D01*
X78702772Y-29659500D01*
X78317228Y-29659500D01*
X78227453Y-29670364D01*
X78219925Y-29673344D01*
X78219923Y-29673345D01*
X78161456Y-29696494D01*
X78087217Y-29725887D01*
X78080377Y-29731079D01*
X78080372Y-29731082D01*
X78042680Y-29759692D01*
X77976327Y-29784946D01*
X77906854Y-29770318D01*
X77856318Y-29720452D01*
X77840500Y-29659330D01*
X77840500Y-29487619D01*
X77841578Y-29471173D01*
X77844604Y-29448188D01*
X77845682Y-29440000D01*
X77825044Y-29283238D01*
X77764536Y-29137159D01*
X77746635Y-29113830D01*
X77668282Y-29011718D01*
X77643328Y-28992570D01*
X77630938Y-28981703D01*
X76458297Y-27809062D01*
X76447429Y-27796671D01*
X76433305Y-27778264D01*
X76428282Y-27771718D01*
X76302841Y-27675464D01*
X76156762Y-27614956D01*
X76107154Y-27608425D01*
X76000000Y-27594318D01*
X75991812Y-27595396D01*
X75968827Y-27598422D01*
X75952381Y-27599500D01*
X75387249Y-27599500D01*
X75319128Y-27579498D01*
X75272635Y-27525842D01*
X75262531Y-27455568D01*
X75269461Y-27428756D01*
X75277757Y-27406918D01*
X75277758Y-27406916D01*
X75280257Y-27400336D01*
X75281982Y-27388062D01*
X75304700Y-27226416D01*
X75304700Y-27226411D01*
X75305251Y-27222493D01*
X75305565Y-27200000D01*
X75285546Y-27021528D01*
X75226485Y-26851927D01*
X75199598Y-26808898D01*
X75135049Y-26705599D01*
X75131316Y-26699625D01*
X75031959Y-26599572D01*
X75009733Y-26577190D01*
X75009729Y-26577187D01*
X75004770Y-26572193D01*
X74993761Y-26565206D01*
X74937497Y-26529500D01*
X74853136Y-26475963D01*
X74823352Y-26465357D01*
X74690586Y-26418081D01*
X74690581Y-26418080D01*
X74683951Y-26415719D01*
X74676965Y-26414886D01*
X74676961Y-26414885D01*
X74549177Y-26399648D01*
X74505624Y-26394455D01*
X74498621Y-26395191D01*
X74498620Y-26395191D01*
X74334025Y-26412490D01*
X74334021Y-26412491D01*
X74327017Y-26413227D01*
X74320346Y-26415498D01*
X74163677Y-26468832D01*
X74163674Y-26468833D01*
X74157007Y-26471103D01*
X74151009Y-26474793D01*
X74151007Y-26474794D01*
X74122072Y-26492595D01*
X74004045Y-26565206D01*
X73999010Y-26570136D01*
X73995615Y-26572789D01*
X73929621Y-26598967D01*
X73918041Y-26599500D01*
X73617619Y-26599500D01*
X73601173Y-26598422D01*
X73578188Y-26595396D01*
X73570000Y-26594318D01*
X73530639Y-26599500D01*
X73413238Y-26614956D01*
X73267159Y-26675464D01*
X73141718Y-26771718D01*
X73136695Y-26778264D01*
X73122571Y-26796671D01*
X73111703Y-26809062D01*
X72993844Y-26926921D01*
X72948978Y-26955808D01*
X72941024Y-26958790D01*
X72867176Y-26986474D01*
X72859997Y-26991854D01*
X72859994Y-26991856D01*
X72759635Y-27067072D01*
X72752454Y-27072454D01*
X72747072Y-27079635D01*
X72671856Y-27179994D01*
X72671854Y-27179997D01*
X72666474Y-27187176D01*
X72616149Y-27321420D01*
X72609500Y-27382623D01*
X72609500Y-27512380D01*
X72608422Y-27528825D01*
X72604318Y-27560000D01*
X72605396Y-27568187D01*
X72608423Y-27591177D01*
X72609501Y-27607625D01*
X72609501Y-27737376D01*
X72609870Y-27740770D01*
X72609870Y-27740776D01*
X72614775Y-27785927D01*
X72616149Y-27798580D01*
X72630092Y-27835775D01*
X72635274Y-27906580D01*
X72630095Y-27924218D01*
X72616149Y-27961420D01*
X72609500Y-28022623D01*
X72609500Y-28152380D01*
X72608422Y-28168825D01*
X72604318Y-28200000D01*
X72605396Y-28208187D01*
X72608423Y-28231177D01*
X72609501Y-28247625D01*
X72609501Y-28377376D01*
X72609870Y-28380770D01*
X72609870Y-28380776D01*
X72614121Y-28419907D01*
X72616149Y-28438580D01*
X72666474Y-28572824D01*
X72671854Y-28580003D01*
X72671856Y-28580006D01*
X72742000Y-28673598D01*
X72752454Y-28687546D01*
X72759635Y-28692928D01*
X72859994Y-28768144D01*
X72859997Y-28768146D01*
X72867176Y-28773526D01*
X72956561Y-28807034D01*
X72994025Y-28821079D01*
X72994027Y-28821079D01*
X73001420Y-28823851D01*
X73009270Y-28824704D01*
X73009271Y-28824704D01*
X73059217Y-28830130D01*
X73062623Y-28830500D01*
X73209956Y-28830500D01*
X73357376Y-28830499D01*
X73360770Y-28830130D01*
X73360776Y-28830130D01*
X73410722Y-28824705D01*
X73410726Y-28824704D01*
X73418580Y-28823851D01*
X73425980Y-28821077D01*
X73425984Y-28821076D01*
X73459483Y-28808518D01*
X73503711Y-28800500D01*
X75699075Y-28800500D01*
X75767196Y-28820502D01*
X75788170Y-28837405D01*
X76432485Y-29481720D01*
X76466511Y-29544032D01*
X76461446Y-29614847D01*
X76418899Y-29671683D01*
X76352379Y-29696494D01*
X76297008Y-29687967D01*
X76267160Y-29676150D01*
X76260074Y-29673344D01*
X76260073Y-29673344D01*
X76252547Y-29670364D01*
X76162772Y-29659500D01*
X75777228Y-29659500D01*
X75687453Y-29670364D01*
X75679925Y-29673344D01*
X75679923Y-29673345D01*
X75621456Y-29696494D01*
X75547217Y-29725887D01*
X75427078Y-29817078D01*
X75335887Y-29937217D01*
X75332725Y-29945204D01*
X75303494Y-30019034D01*
X75280364Y-30077453D01*
X75269500Y-30167228D01*
X75269500Y-31529075D01*
X75249498Y-31597196D01*
X75232595Y-31618170D01*
X75058170Y-31792595D01*
X74995858Y-31826621D01*
X74969075Y-31829500D01*
X73829675Y-31829500D01*
X73761554Y-31809498D01*
X73715061Y-31755842D01*
X73706162Y-31696446D01*
X73704604Y-31696446D01*
X73704604Y-31688188D01*
X73705682Y-31680000D01*
X73701577Y-31648820D01*
X73700499Y-31632375D01*
X73700499Y-31502624D01*
X73700130Y-31499224D01*
X73694705Y-31449278D01*
X73694704Y-31449274D01*
X73693851Y-31441420D01*
X73643526Y-31307176D01*
X73638146Y-31299997D01*
X73638144Y-31299994D01*
X73562928Y-31199635D01*
X73557546Y-31192454D01*
X73535494Y-31175927D01*
X73450006Y-31111856D01*
X73450003Y-31111854D01*
X73442824Y-31106474D01*
X73318546Y-31059885D01*
X73315975Y-31058921D01*
X73315973Y-31058921D01*
X73308580Y-31056149D01*
X73300730Y-31055296D01*
X73300729Y-31055296D01*
X73250774Y-31049869D01*
X73250773Y-31049869D01*
X73247377Y-31049500D01*
X73100044Y-31049500D01*
X72952624Y-31049501D01*
X72949230Y-31049870D01*
X72949224Y-31049870D01*
X72899278Y-31055295D01*
X72899274Y-31055296D01*
X72891420Y-31056149D01*
X72884020Y-31058923D01*
X72884016Y-31058924D01*
X72850517Y-31071482D01*
X72806289Y-31079500D01*
X72538647Y-31079500D01*
X72471133Y-31059885D01*
X72463901Y-31055295D01*
X72445996Y-31043932D01*
X72329090Y-30969741D01*
X72329086Y-30969739D01*
X72323136Y-30965963D01*
X72293352Y-30955357D01*
X72160586Y-30908081D01*
X72160581Y-30908080D01*
X72153951Y-30905719D01*
X72146965Y-30904886D01*
X72146961Y-30904885D01*
X72019177Y-30889648D01*
X71975624Y-30884455D01*
X71968621Y-30885191D01*
X71968620Y-30885191D01*
X71804025Y-30902490D01*
X71804021Y-30902491D01*
X71797017Y-30903227D01*
X71790346Y-30905498D01*
X71633677Y-30958832D01*
X71633674Y-30958833D01*
X71627007Y-30961103D01*
X71621009Y-30964793D01*
X71621007Y-30964794D01*
X71612966Y-30969741D01*
X71474045Y-31055206D01*
X71469014Y-31060132D01*
X71469011Y-31060135D01*
X71424908Y-31103324D01*
X71345732Y-31180859D01*
X71341913Y-31186784D01*
X71341912Y-31186786D01*
X71262748Y-31309625D01*
X71248446Y-31331817D01*
X71246035Y-31338440D01*
X71242904Y-31344748D01*
X71240912Y-31343759D01*
X71205118Y-31392370D01*
X71138796Y-31417705D01*
X71069305Y-31403162D01*
X71039720Y-31381196D01*
X70304882Y-30646358D01*
X70301229Y-30642549D01*
X70272136Y-30610911D01*
X70259201Y-30596844D01*
X70222198Y-30573901D01*
X70212448Y-30567200D01*
X70177783Y-30540888D01*
X70176696Y-30540458D01*
X70129662Y-30492155D01*
X70115495Y-30422587D01*
X70141188Y-30356402D01*
X70198584Y-30314615D01*
X70228941Y-30307860D01*
X70237294Y-30308210D01*
X70255184Y-30304014D01*
X70279662Y-30298273D01*
X70291333Y-30296110D01*
X70306229Y-30294069D01*
X70334432Y-30290206D01*
X70348230Y-30284235D01*
X70369499Y-30277201D01*
X70375775Y-30275729D01*
X70384136Y-30273768D01*
X70391661Y-30269631D01*
X70391664Y-30269630D01*
X70422268Y-30252805D01*
X70432913Y-30247589D01*
X70472855Y-30230305D01*
X70484541Y-30220842D01*
X70503126Y-30208354D01*
X70510518Y-30204290D01*
X70516308Y-30201107D01*
X70524422Y-30194103D01*
X70548958Y-30169567D01*
X70558759Y-30160742D01*
X70583392Y-30140794D01*
X70583393Y-30140793D01*
X70590070Y-30135386D01*
X70595043Y-30128388D01*
X70595048Y-30128383D01*
X70600968Y-30120052D01*
X70614579Y-30103946D01*
X70655121Y-30063404D01*
X70717433Y-30029378D01*
X70732776Y-30027020D01*
X70811864Y-30019823D01*
X70866943Y-30001927D01*
X70965298Y-29969970D01*
X70965301Y-29969969D01*
X70971997Y-29967793D01*
X71116623Y-29881578D01*
X71121717Y-29876727D01*
X71121721Y-29876724D01*
X71233454Y-29770322D01*
X71233455Y-29770320D01*
X71238554Y-29765465D01*
X71331731Y-29625223D01*
X71335673Y-29614847D01*
X71358040Y-29555964D01*
X71391521Y-29467823D01*
X71407920Y-29351145D01*
X71414404Y-29305010D01*
X71414404Y-29305006D01*
X71414955Y-29301088D01*
X71415249Y-29280000D01*
X71414809Y-29276077D01*
X71397266Y-29119672D01*
X71397265Y-29119669D01*
X71396481Y-29112676D01*
X71353644Y-28989665D01*
X71343424Y-28960318D01*
X71343423Y-28960316D01*
X71341108Y-28953668D01*
X71337377Y-28947697D01*
X71334932Y-28942594D01*
X71323537Y-28872518D01*
X71351837Y-28807405D01*
X71359468Y-28799057D01*
X71898655Y-28259870D01*
X71902464Y-28256217D01*
X71941833Y-28220015D01*
X71948156Y-28214201D01*
X71971095Y-28177203D01*
X71977797Y-28167452D01*
X72004112Y-28132784D01*
X72009649Y-28118799D01*
X72019713Y-28098791D01*
X72023108Y-28093315D01*
X72027635Y-28086014D01*
X72039775Y-28044228D01*
X72043620Y-28032999D01*
X72056473Y-28000535D01*
X72056473Y-28000533D01*
X72059635Y-27992548D01*
X72061207Y-27977593D01*
X72065518Y-27955624D01*
X72067873Y-27947518D01*
X72067874Y-27947512D01*
X72069715Y-27941175D01*
X72070500Y-27930485D01*
X72070500Y-27895781D01*
X72071190Y-27882610D01*
X72074503Y-27851088D01*
X72075401Y-27842546D01*
X72073969Y-27834081D01*
X72073969Y-27834072D01*
X72072265Y-27824000D01*
X72070500Y-27802987D01*
X72070500Y-24793782D01*
X72090502Y-24725661D01*
X72144158Y-24679168D01*
X72214432Y-24669064D01*
X72244717Y-24677373D01*
X72255605Y-24681883D01*
X72255610Y-24681884D01*
X72263238Y-24685044D01*
X72271426Y-24686122D01*
X72326435Y-24693364D01*
X72420000Y-24705682D01*
X72428188Y-24704604D01*
X72451173Y-24701578D01*
X72467619Y-24700500D01*
X72629361Y-24700500D01*
X72629364Y-24700499D01*
X72767376Y-24700499D01*
X72770770Y-24700130D01*
X72770776Y-24700130D01*
X72820721Y-24694705D01*
X72820724Y-24694704D01*
X72828580Y-24693851D01*
X72865775Y-24679908D01*
X72936580Y-24674726D01*
X72954218Y-24679905D01*
X72991420Y-24693851D01*
X73052623Y-24700500D01*
X73732146Y-24700500D01*
X73800267Y-24720502D01*
X73846760Y-24774158D01*
X73851704Y-24786728D01*
X73866502Y-24831212D01*
X73866504Y-24831216D01*
X73868726Y-24837896D01*
X73872373Y-24843918D01*
X73957896Y-24985133D01*
X73961759Y-24991512D01*
X73966648Y-24996575D01*
X73966649Y-24996576D01*
X74016840Y-25048550D01*
X74086514Y-25120699D01*
X74236789Y-25219036D01*
X74405116Y-25281636D01*
X74412097Y-25282567D01*
X74412099Y-25282568D01*
X74576149Y-25304457D01*
X74576153Y-25304457D01*
X74583130Y-25305388D01*
X74590142Y-25304750D01*
X74590146Y-25304750D01*
X74754960Y-25289751D01*
X74754961Y-25289751D01*
X74761981Y-25289112D01*
X74932782Y-25233615D01*
X75004594Y-25190807D01*
X75080992Y-25145265D01*
X75080994Y-25145264D01*
X75087044Y-25141657D01*
X75217099Y-25017807D01*
X75232790Y-24994191D01*
X75312582Y-24874093D01*
X75316483Y-24868222D01*
X75372597Y-24720502D01*
X75377757Y-24706919D01*
X75377758Y-24706914D01*
X75380257Y-24700336D01*
X75382406Y-24685044D01*
X75404700Y-24526416D01*
X75404700Y-24526411D01*
X75405251Y-24522493D01*
X75405565Y-24500000D01*
X75385546Y-24321528D01*
X75326485Y-24151927D01*
X75296673Y-24104217D01*
X75235049Y-24005599D01*
X75231316Y-23999625D01*
X75226352Y-23994626D01*
X75143555Y-23911249D01*
X75109748Y-23848818D01*
X75115060Y-23778021D01*
X75156781Y-23722102D01*
X75241087Y-23658110D01*
X75247922Y-23652922D01*
X75251813Y-23647796D01*
X75313217Y-23614266D01*
X75384032Y-23619331D01*
X75428058Y-23647625D01*
X75432078Y-23652922D01*
X75552217Y-23744113D01*
X75604204Y-23764696D01*
X75684923Y-23796655D01*
X75684925Y-23796656D01*
X75692453Y-23799636D01*
X75782228Y-23810500D01*
X76167772Y-23810500D01*
X76257547Y-23799636D01*
X76265075Y-23796656D01*
X76265077Y-23796655D01*
X76345796Y-23764696D01*
X76397783Y-23744113D01*
X76517922Y-23652922D01*
X76609113Y-23532783D01*
X76651454Y-23425842D01*
X76661655Y-23400077D01*
X76661656Y-23400075D01*
X76664636Y-23392547D01*
X76675500Y-23302772D01*
X76675500Y-21917228D01*
X76664636Y-21827453D01*
X76609113Y-21687217D01*
X76517922Y-21567078D01*
X76397783Y-21475887D01*
X76257547Y-21420364D01*
X76252770Y-21419786D01*
X76196064Y-21387540D01*
X75489881Y-20681357D01*
X75486228Y-20677548D01*
X75460991Y-20650103D01*
X75444201Y-20631844D01*
X75407198Y-20608901D01*
X75397448Y-20602200D01*
X75362783Y-20575888D01*
X75348804Y-20570354D01*
X75328801Y-20560293D01*
X75316014Y-20552365D01*
X75307763Y-20549968D01*
X75307761Y-20549967D01*
X75274228Y-20540225D01*
X75262995Y-20536379D01*
X75242353Y-20528206D01*
X75222547Y-20520364D01*
X75214006Y-20519466D01*
X75214005Y-20519466D01*
X75207592Y-20518792D01*
X75185617Y-20514480D01*
X75171175Y-20510285D01*
X75163692Y-20509735D01*
X75162792Y-20509669D01*
X75162781Y-20509669D01*
X75160485Y-20509500D01*
X75125783Y-20509500D01*
X75112613Y-20508810D01*
X75102384Y-20507735D01*
X75072546Y-20504599D01*
X75064081Y-20506031D01*
X75064072Y-20506031D01*
X75054000Y-20507735D01*
X75032987Y-20509500D01*
X73754993Y-20509500D01*
X73749717Y-20509389D01*
X73745310Y-20509204D01*
X73687706Y-20506790D01*
X73679341Y-20508752D01*
X73645338Y-20516727D01*
X73633667Y-20518890D01*
X73622907Y-20520364D01*
X73590568Y-20524794D01*
X73582684Y-20528206D01*
X73582683Y-20528206D01*
X73576770Y-20530765D01*
X73555501Y-20537799D01*
X73549228Y-20539270D01*
X73549226Y-20539271D01*
X73540864Y-20541232D01*
X73533336Y-20545371D01*
X73533335Y-20545371D01*
X73502735Y-20562194D01*
X73492073Y-20567417D01*
X73460027Y-20581284D01*
X73460026Y-20581285D01*
X73452145Y-20584695D01*
X73445472Y-20590099D01*
X73440459Y-20594158D01*
X73421871Y-20606649D01*
X73408692Y-20613894D01*
X73400578Y-20620898D01*
X73376043Y-20645433D01*
X73366242Y-20654258D01*
X73334930Y-20679614D01*
X73329954Y-20686616D01*
X73329952Y-20686618D01*
X73324032Y-20694949D01*
X73310421Y-20711055D01*
X73148881Y-20872595D01*
X73086569Y-20906621D01*
X73059786Y-20909500D01*
X72567062Y-20909500D01*
X72522833Y-20901482D01*
X72435975Y-20868921D01*
X72435973Y-20868921D01*
X72428580Y-20866149D01*
X72420730Y-20865296D01*
X72420729Y-20865296D01*
X72370774Y-20859869D01*
X72370773Y-20859869D01*
X72367377Y-20859500D01*
X72190052Y-20859500D01*
X72012624Y-20859501D01*
X72009230Y-20859870D01*
X72009224Y-20859870D01*
X71959279Y-20865295D01*
X71959276Y-20865296D01*
X71951420Y-20866149D01*
X71914225Y-20880092D01*
X71843420Y-20885274D01*
X71825782Y-20880095D01*
X71788580Y-20866149D01*
X71727377Y-20859500D01*
X71550052Y-20859500D01*
X71372624Y-20859501D01*
X71369230Y-20859870D01*
X71369224Y-20859870D01*
X71319278Y-20865295D01*
X71319274Y-20865296D01*
X71311420Y-20866149D01*
X71177176Y-20916474D01*
X71169997Y-20921854D01*
X71169994Y-20921856D01*
X71069635Y-20997072D01*
X71062454Y-21002454D01*
X71057072Y-21009635D01*
X70981856Y-21109994D01*
X70981854Y-21109997D01*
X70976474Y-21117176D01*
X70973324Y-21125580D01*
X70945808Y-21198978D01*
X70916921Y-21243844D01*
X70730895Y-21429870D01*
X70668583Y-21463896D01*
X70654972Y-21466085D01*
X70629346Y-21468778D01*
X70594018Y-21472491D01*
X70594017Y-21472491D01*
X70587017Y-21473227D01*
X70497545Y-21503686D01*
X70423677Y-21528832D01*
X70423674Y-21528833D01*
X70417007Y-21531103D01*
X70411009Y-21534793D01*
X70411007Y-21534794D01*
X70347420Y-21573913D01*
X70264045Y-21625206D01*
X70259014Y-21630132D01*
X70259011Y-21630135D01*
X70207706Y-21680377D01*
X70135732Y-21750859D01*
X70131913Y-21756784D01*
X70131912Y-21756786D01*
X70091223Y-21819923D01*
X70038446Y-21901817D01*
X70036037Y-21908437D01*
X70036035Y-21908440D01*
X70026914Y-21933500D01*
X69977022Y-22070578D01*
X69954514Y-22248753D01*
X69972039Y-22427486D01*
X69974262Y-22434168D01*
X69974262Y-22434169D01*
X69994169Y-22494011D01*
X70028726Y-22597896D01*
X70121759Y-22751512D01*
X70246514Y-22880699D01*
X70396789Y-22979036D01*
X70565116Y-23041636D01*
X70572097Y-23042567D01*
X70572099Y-23042568D01*
X70621146Y-23049112D01*
X70678317Y-23056740D01*
X70743194Y-23085575D01*
X70782182Y-23144909D01*
X70782903Y-23215902D01*
X70750748Y-23270728D01*
X70281358Y-23740118D01*
X70277549Y-23743771D01*
X70231844Y-23785799D01*
X70208901Y-23822802D01*
X70202200Y-23832552D01*
X70175888Y-23867217D01*
X70170354Y-23881195D01*
X70160293Y-23901199D01*
X70152365Y-23913986D01*
X70149968Y-23922237D01*
X70149967Y-23922239D01*
X70140225Y-23955772D01*
X70136380Y-23967002D01*
X70120364Y-24007453D01*
X70119466Y-24015994D01*
X70119466Y-24015995D01*
X70118792Y-24022408D01*
X70114480Y-24044383D01*
X70110285Y-24058825D01*
X70109500Y-24069515D01*
X70109500Y-24104217D01*
X70108810Y-24117387D01*
X70104599Y-24157454D01*
X70106031Y-24165919D01*
X70106031Y-24165928D01*
X70107735Y-24176000D01*
X70109500Y-24197013D01*
X70109500Y-26642413D01*
X70089498Y-26710534D01*
X70035842Y-26757027D01*
X69965568Y-26767131D01*
X69900988Y-26737637D01*
X69883137Y-26718592D01*
X69861691Y-26690338D01*
X69861688Y-26690335D01*
X69856500Y-26683500D01*
X69739089Y-26594380D01*
X69673516Y-26568418D01*
X69609568Y-26543099D01*
X69609566Y-26543098D01*
X69602038Y-26540118D01*
X69514297Y-26529500D01*
X69101636Y-26529500D01*
X69033515Y-26509498D01*
X69012541Y-26492595D01*
X67717248Y-25197302D01*
X67709407Y-25188685D01*
X67705202Y-25182060D01*
X67654183Y-25134150D01*
X67651342Y-25131396D01*
X67631035Y-25111089D01*
X67627904Y-25108660D01*
X67627898Y-25108655D01*
X67627623Y-25108442D01*
X67618610Y-25100745D01*
X67585393Y-25069552D01*
X67576071Y-25064427D01*
X67566934Y-25059404D01*
X67550410Y-25048550D01*
X67540027Y-25040496D01*
X67540026Y-25040495D01*
X67533764Y-25035638D01*
X67491952Y-25017545D01*
X67481307Y-25012330D01*
X67441368Y-24990373D01*
X67433689Y-24988402D01*
X67433688Y-24988401D01*
X67420959Y-24985133D01*
X67402250Y-24978727D01*
X67390200Y-24973512D01*
X67390195Y-24973510D01*
X67382926Y-24970365D01*
X67337930Y-24963238D01*
X67326310Y-24960831D01*
X67289860Y-24951472D01*
X67289855Y-24951471D01*
X67282177Y-24949500D01*
X67261116Y-24949500D01*
X67241404Y-24947949D01*
X67240098Y-24947742D01*
X67220595Y-24944653D01*
X67212704Y-24945399D01*
X67175235Y-24948941D01*
X67163377Y-24949500D01*
X63946500Y-24949500D01*
X63878379Y-24929498D01*
X63831886Y-24875842D01*
X63820500Y-24823500D01*
X63820500Y-24133737D01*
X63828518Y-24089508D01*
X63871079Y-23975975D01*
X63871079Y-23975973D01*
X63873851Y-23968580D01*
X63875243Y-23955772D01*
X63880131Y-23910774D01*
X63880131Y-23910773D01*
X63880500Y-23907377D01*
X63880499Y-23612624D01*
X63880130Y-23609224D01*
X63874705Y-23559278D01*
X63874704Y-23559274D01*
X63873851Y-23551420D01*
X63823526Y-23417176D01*
X63818146Y-23409997D01*
X63818144Y-23409994D01*
X63742928Y-23309635D01*
X63737546Y-23302454D01*
X63716259Y-23286500D01*
X63630006Y-23221856D01*
X63630003Y-23221854D01*
X63622824Y-23216474D01*
X63525774Y-23180092D01*
X63495975Y-23168921D01*
X63495973Y-23168921D01*
X63488580Y-23166149D01*
X63480730Y-23165296D01*
X63480729Y-23165296D01*
X63430774Y-23159869D01*
X63430773Y-23159869D01*
X63427377Y-23159500D01*
X63250052Y-23159500D01*
X63072624Y-23159501D01*
X63069230Y-23159870D01*
X63069224Y-23159870D01*
X63019279Y-23165295D01*
X63019276Y-23165296D01*
X63011420Y-23166149D01*
X62974225Y-23180092D01*
X62903420Y-23185274D01*
X62885782Y-23180095D01*
X62848580Y-23166149D01*
X62787377Y-23159500D01*
X61974197Y-23159500D01*
X61906076Y-23139498D01*
X61884792Y-23122285D01*
X61879733Y-23117191D01*
X61874770Y-23112193D01*
X61863761Y-23105206D01*
X61775370Y-23049112D01*
X61723136Y-23015963D01*
X61693352Y-23005357D01*
X61560586Y-22958081D01*
X61560581Y-22958080D01*
X61553951Y-22955719D01*
X61546965Y-22954886D01*
X61546961Y-22954885D01*
X61419177Y-22939648D01*
X61375624Y-22934455D01*
X61368621Y-22935191D01*
X61368620Y-22935191D01*
X61204025Y-22952490D01*
X61204021Y-22952491D01*
X61197017Y-22953227D01*
X61190346Y-22955498D01*
X61033677Y-23008832D01*
X61033674Y-23008833D01*
X61027007Y-23011103D01*
X61021009Y-23014793D01*
X61021007Y-23014794D01*
X61004642Y-23024862D01*
X60874045Y-23105206D01*
X60869014Y-23110132D01*
X60869011Y-23110135D01*
X60812684Y-23165295D01*
X60745732Y-23230859D01*
X60741913Y-23236784D01*
X60741912Y-23236786D01*
X60701829Y-23298983D01*
X60648446Y-23381817D01*
X60646037Y-23388437D01*
X60646035Y-23388440D01*
X60632422Y-23425842D01*
X60587022Y-23550578D01*
X60564514Y-23728753D01*
X60565201Y-23735760D01*
X60565201Y-23735763D01*
X60567172Y-23755863D01*
X60582039Y-23907486D01*
X60584262Y-23914168D01*
X60584262Y-23914169D01*
X60635171Y-24067208D01*
X60638726Y-24077896D01*
X60642373Y-24083918D01*
X60710866Y-24197013D01*
X60731759Y-24231512D01*
X60856514Y-24360699D01*
X61006789Y-24459036D01*
X61175116Y-24521636D01*
X61182097Y-24522567D01*
X61182099Y-24522568D01*
X61346149Y-24544457D01*
X61346153Y-24544457D01*
X61353130Y-24545388D01*
X61360142Y-24544750D01*
X61360146Y-24544750D01*
X61524960Y-24529751D01*
X61524961Y-24529751D01*
X61531981Y-24529112D01*
X61702782Y-24473615D01*
X61857044Y-24381657D01*
X61857889Y-24383074D01*
X61916197Y-24360884D01*
X61926022Y-24360500D01*
X62493500Y-24360500D01*
X62561621Y-24380502D01*
X62608114Y-24434158D01*
X62619500Y-24486500D01*
X62619500Y-24823500D01*
X62599498Y-24891621D01*
X62545842Y-24938114D01*
X62493500Y-24949500D01*
X60326499Y-24949500D01*
X60258378Y-24929498D01*
X60211885Y-24875842D01*
X60200499Y-24823500D01*
X60200499Y-23858482D01*
X60198969Y-23848818D01*
X60187198Y-23774494D01*
X60187197Y-23774492D01*
X60185646Y-23764696D01*
X60128050Y-23651658D01*
X60038342Y-23561950D01*
X59925304Y-23504354D01*
X59915515Y-23502804D01*
X59915513Y-23502803D01*
X59888151Y-23498470D01*
X59831519Y-23489500D01*
X58750219Y-23489500D01*
X57668482Y-23489501D01*
X57663589Y-23490276D01*
X57663588Y-23490276D01*
X57584494Y-23502802D01*
X57584492Y-23502803D01*
X57574696Y-23504354D01*
X57461658Y-23561950D01*
X57371950Y-23651658D01*
X57314354Y-23764696D01*
X57312804Y-23774485D01*
X57312803Y-23774487D01*
X57309856Y-23793095D01*
X57299500Y-23858481D01*
X57299501Y-29001518D01*
X57300276Y-29006411D01*
X57300276Y-29006412D01*
X57312310Y-29082396D01*
X57314354Y-29095304D01*
X57318857Y-29104141D01*
X57318857Y-29104142D01*
X57326770Y-29119672D01*
X57371950Y-29208342D01*
X57461658Y-29298050D01*
X57574696Y-29355646D01*
X57584485Y-29357196D01*
X57584487Y-29357197D01*
X57611849Y-29361530D01*
X57668481Y-29370500D01*
X57682044Y-29370500D01*
X57750165Y-29390502D01*
X57796658Y-29444158D01*
X57806762Y-29514432D01*
X57777268Y-29579012D01*
X57722651Y-29615777D01*
X57707007Y-29621103D01*
X57609943Y-29680818D01*
X57543922Y-29699500D01*
X55911267Y-29699500D01*
X55843146Y-29679498D01*
X55796653Y-29625842D01*
X55786493Y-29555964D01*
X55804700Y-29426416D01*
X55804700Y-29426411D01*
X55805251Y-29422493D01*
X55805565Y-29400000D01*
X55785546Y-29221528D01*
X55726485Y-29051927D01*
X55705455Y-29018271D01*
X55635049Y-28905599D01*
X55631316Y-28899625D01*
X55541819Y-28809501D01*
X55509733Y-28777190D01*
X55509729Y-28777187D01*
X55504770Y-28772193D01*
X55493761Y-28765206D01*
X55444583Y-28733997D01*
X55353136Y-28675963D01*
X55292288Y-28654296D01*
X55190586Y-28618081D01*
X55190581Y-28618080D01*
X55183951Y-28615719D01*
X55176965Y-28614886D01*
X55176961Y-28614885D01*
X55049177Y-28599648D01*
X55005624Y-28594455D01*
X54998621Y-28595191D01*
X54998620Y-28595191D01*
X54834025Y-28612490D01*
X54834021Y-28612491D01*
X54827017Y-28613227D01*
X54820346Y-28615498D01*
X54663677Y-28668832D01*
X54663674Y-28668833D01*
X54657007Y-28671103D01*
X54651009Y-28674793D01*
X54651007Y-28674794D01*
X54641952Y-28680365D01*
X54504045Y-28765206D01*
X54499010Y-28770136D01*
X54495615Y-28772789D01*
X54429621Y-28798967D01*
X54418041Y-28799500D01*
X52407619Y-28799500D01*
X52391173Y-28798422D01*
X52368188Y-28795396D01*
X52360000Y-28794318D01*
X52244673Y-28809501D01*
X52203238Y-28814956D01*
X52057159Y-28875464D01*
X51931718Y-28971718D01*
X51926695Y-28978264D01*
X51912571Y-28996671D01*
X51901703Y-29009062D01*
X46689062Y-34221703D01*
X46676672Y-34232570D01*
X46651718Y-34251718D01*
X46646695Y-34258264D01*
X46646692Y-34258267D01*
X46573654Y-34353453D01*
X46573653Y-34353455D01*
X46555464Y-34377159D01*
X46552305Y-34384785D01*
X46552304Y-34384787D01*
X46498116Y-34515609D01*
X46494956Y-34523238D01*
X46474318Y-34680000D01*
X46475396Y-34688188D01*
X46478422Y-34711173D01*
X46479500Y-34727619D01*
X46479500Y-40532381D01*
X46478422Y-40548827D01*
X46474318Y-40580000D01*
X46484675Y-40658668D01*
X46494956Y-40736762D01*
X46555464Y-40882841D01*
X46611473Y-40955833D01*
X46643749Y-40997896D01*
X46651718Y-41008282D01*
X46658264Y-41013305D01*
X46676671Y-41027429D01*
X46689062Y-41038297D01*
X48022595Y-42371830D01*
X48056621Y-42434142D01*
X48059500Y-42460925D01*
X48059500Y-42952772D01*
X48070364Y-43042547D01*
X48073344Y-43050075D01*
X48073345Y-43050077D01*
X48122723Y-43174793D01*
X48122725Y-43174796D01*
X48125887Y-43182783D01*
X48131084Y-43189629D01*
X48134042Y-43194879D01*
X48150058Y-43264046D01*
X48126137Y-43330891D01*
X48098333Y-43358669D01*
X48004129Y-43427112D01*
X47999716Y-43432014D01*
X47999714Y-43432015D01*
X47897110Y-43545968D01*
X47877467Y-43567784D01*
X47782821Y-43731716D01*
X47724326Y-43911744D01*
X47704540Y-44100000D01*
X47724326Y-44288256D01*
X47782821Y-44468284D01*
X47877467Y-44632216D01*
X48004129Y-44772888D01*
X48157270Y-44884151D01*
X48330197Y-44961144D01*
X48428212Y-44981978D01*
X48508897Y-44999128D01*
X48508901Y-44999128D01*
X48515354Y-45000500D01*
X48704646Y-45000500D01*
X48711099Y-44999128D01*
X48711103Y-44999128D01*
X48791788Y-44981978D01*
X48889803Y-44961144D01*
X49062730Y-44884151D01*
X49215871Y-44772888D01*
X49342533Y-44632216D01*
X49416847Y-44503500D01*
X49468229Y-44454507D01*
X49525966Y-44440500D01*
X49716289Y-44440500D01*
X49760517Y-44448518D01*
X49794022Y-44461078D01*
X49794024Y-44461079D01*
X49801420Y-44463851D01*
X49809270Y-44464704D01*
X49809271Y-44464704D01*
X49842225Y-44468284D01*
X49862623Y-44470500D01*
X50009956Y-44470500D01*
X50157376Y-44470499D01*
X50160770Y-44470130D01*
X50160776Y-44470130D01*
X50210722Y-44464705D01*
X50210726Y-44464704D01*
X50218580Y-44463851D01*
X50352824Y-44413526D01*
X50360003Y-44408146D01*
X50360006Y-44408144D01*
X50460365Y-44332928D01*
X50467546Y-44327546D01*
X50491493Y-44295594D01*
X50548144Y-44220006D01*
X50548146Y-44220003D01*
X50553526Y-44212824D01*
X50603851Y-44078580D01*
X50610500Y-44017377D01*
X50610500Y-43887619D01*
X50611578Y-43871173D01*
X50614604Y-43848188D01*
X50615682Y-43840000D01*
X50611578Y-43808827D01*
X50610500Y-43792381D01*
X50610500Y-43445489D01*
X50630502Y-43377368D01*
X50684158Y-43330875D01*
X50754432Y-43320771D01*
X50812680Y-43345127D01*
X50870372Y-43388918D01*
X50870375Y-43388920D01*
X50877217Y-43394113D01*
X50909675Y-43406964D01*
X51009923Y-43446655D01*
X51009925Y-43446656D01*
X51017453Y-43449636D01*
X51107228Y-43460500D01*
X51492772Y-43460500D01*
X51582547Y-43449636D01*
X51590075Y-43446656D01*
X51590077Y-43446655D01*
X51690325Y-43406964D01*
X51722783Y-43394113D01*
X51729625Y-43388920D01*
X51729628Y-43388918D01*
X51829136Y-43313387D01*
X51895489Y-43288133D01*
X51964963Y-43302761D01*
X52015498Y-43352628D01*
X52021725Y-43365530D01*
X52045464Y-43422841D01*
X52141718Y-43548282D01*
X52148264Y-43553305D01*
X52166671Y-43567429D01*
X52179062Y-43578297D01*
X54451703Y-45850938D01*
X54462570Y-45863328D01*
X54481718Y-45888282D01*
X54595986Y-45975963D01*
X54607159Y-45984536D01*
X54614786Y-45987695D01*
X54614789Y-45987697D01*
X54696796Y-46021665D01*
X54753238Y-46045044D01*
X54910000Y-46065682D01*
X54918188Y-46064604D01*
X54941173Y-46061578D01*
X54957619Y-46060500D01*
X61128085Y-46060500D01*
X61197078Y-46081068D01*
X61346789Y-46179036D01*
X61515116Y-46241636D01*
X61522097Y-46242567D01*
X61522099Y-46242568D01*
X61686149Y-46264457D01*
X61686153Y-46264457D01*
X61693130Y-46265388D01*
X61700142Y-46264750D01*
X61700146Y-46264750D01*
X61864960Y-46249751D01*
X61864961Y-46249751D01*
X61871981Y-46249112D01*
X62042782Y-46193615D01*
X62073714Y-46175176D01*
X62190992Y-46105265D01*
X62190994Y-46105264D01*
X62197044Y-46101657D01*
X62327099Y-45977807D01*
X62370496Y-45912490D01*
X62407507Y-45856783D01*
X62426483Y-45828222D01*
X62441168Y-45789564D01*
X62487757Y-45666919D01*
X62487758Y-45666914D01*
X62490257Y-45660336D01*
X62515251Y-45482493D01*
X62515565Y-45460000D01*
X62502166Y-45340545D01*
X62514450Y-45270619D01*
X62562589Y-45218435D01*
X62627381Y-45200500D01*
X70452381Y-45200500D01*
X70468827Y-45201578D01*
X70500000Y-45205682D01*
X70508188Y-45204604D01*
X70539361Y-45200500D01*
X70648574Y-45186122D01*
X70656762Y-45185044D01*
X70802841Y-45124536D01*
X70928282Y-45028282D01*
X70947430Y-45003328D01*
X70958297Y-44990938D01*
X72252678Y-43696557D01*
X72314990Y-43662531D01*
X72358437Y-43660759D01*
X72386149Y-43664457D01*
X72386153Y-43664457D01*
X72393130Y-43665388D01*
X72400142Y-43664750D01*
X72400146Y-43664750D01*
X72564960Y-43649751D01*
X72564961Y-43649751D01*
X72571981Y-43649112D01*
X72742782Y-43593615D01*
X72748833Y-43590008D01*
X72890992Y-43505265D01*
X72890994Y-43505264D01*
X72897044Y-43501657D01*
X73027099Y-43377807D01*
X73034103Y-43367266D01*
X73102535Y-43264266D01*
X73126483Y-43228222D01*
X73147540Y-43172789D01*
X73187757Y-43066919D01*
X73187758Y-43066914D01*
X73190257Y-43060336D01*
X73196196Y-43018081D01*
X73214700Y-42886416D01*
X73214700Y-42886411D01*
X73215251Y-42882493D01*
X73215403Y-42871576D01*
X73215510Y-42863963D01*
X73215510Y-42863958D01*
X73215565Y-42860000D01*
X73206139Y-42775963D01*
X73203288Y-42750545D01*
X73215572Y-42680619D01*
X73263711Y-42628435D01*
X73328503Y-42610500D01*
X74436075Y-42610500D01*
X74504196Y-42630502D01*
X74550689Y-42684158D01*
X74560793Y-42754432D01*
X74531299Y-42819012D01*
X74525170Y-42825595D01*
X71547508Y-45803257D01*
X71485196Y-45837283D01*
X71477142Y-45838686D01*
X71476424Y-45838878D01*
X71468238Y-45839956D01*
X71322159Y-45900464D01*
X71302278Y-45915719D01*
X71218842Y-45979742D01*
X71196718Y-45996718D01*
X71177568Y-46021675D01*
X71166708Y-46034057D01*
X71138170Y-46062595D01*
X71075858Y-46096621D01*
X71049075Y-46099500D01*
X70781851Y-46099500D01*
X70713730Y-46079498D01*
X70707740Y-46075183D01*
X70704770Y-46072193D01*
X70698822Y-46068419D01*
X70698818Y-46068415D01*
X70613432Y-46014228D01*
X70553136Y-45975963D01*
X70523352Y-45965357D01*
X70390586Y-45918081D01*
X70390581Y-45918080D01*
X70383951Y-45915719D01*
X70376965Y-45914886D01*
X70376961Y-45914885D01*
X70249177Y-45899648D01*
X70205624Y-45894455D01*
X70198621Y-45895191D01*
X70198620Y-45895191D01*
X70034025Y-45912490D01*
X70034021Y-45912491D01*
X70027017Y-45913227D01*
X70020346Y-45915498D01*
X69863677Y-45968832D01*
X69863674Y-45968833D01*
X69857007Y-45971103D01*
X69851009Y-45974793D01*
X69851007Y-45974794D01*
X69835172Y-45984536D01*
X69704045Y-46065206D01*
X69699014Y-46070132D01*
X69699011Y-46070135D01*
X69687847Y-46081068D01*
X69575732Y-46190859D01*
X69571913Y-46196784D01*
X69571912Y-46196786D01*
X69528301Y-46264457D01*
X69478446Y-46341817D01*
X69417022Y-46510578D01*
X69394514Y-46688753D01*
X69412039Y-46867486D01*
X69414262Y-46874168D01*
X69414262Y-46874169D01*
X69415869Y-46878999D01*
X69461072Y-47014885D01*
X69467340Y-47033729D01*
X69469862Y-47104680D01*
X69433625Y-47165733D01*
X69370133Y-47197502D01*
X69347781Y-47199500D01*
X52431851Y-47199500D01*
X52363730Y-47179498D01*
X52357740Y-47175183D01*
X52354770Y-47172193D01*
X52348822Y-47168419D01*
X52348818Y-47168415D01*
X52263432Y-47114228D01*
X52203136Y-47075963D01*
X52145860Y-47055568D01*
X52040586Y-47018081D01*
X52040581Y-47018080D01*
X52033951Y-47015719D01*
X52026965Y-47014886D01*
X52026961Y-47014885D01*
X51875256Y-46996796D01*
X51855624Y-46994455D01*
X51848621Y-46995191D01*
X51848620Y-46995191D01*
X51684025Y-47012490D01*
X51684021Y-47012491D01*
X51677017Y-47013227D01*
X51670346Y-47015498D01*
X51513677Y-47068832D01*
X51513674Y-47068833D01*
X51507007Y-47071103D01*
X51501009Y-47074793D01*
X51501007Y-47074794D01*
X51452428Y-47104680D01*
X51354045Y-47165206D01*
X51349014Y-47170132D01*
X51349011Y-47170135D01*
X51295852Y-47222193D01*
X51225732Y-47290859D01*
X51128446Y-47441817D01*
X51067022Y-47610578D01*
X51044514Y-47788753D01*
X51062039Y-47967486D01*
X51064262Y-47974168D01*
X51064262Y-47974169D01*
X51092557Y-48059229D01*
X51095079Y-48130181D01*
X51058841Y-48191233D01*
X50995349Y-48223002D01*
X50972998Y-48225000D01*
X44201000Y-48225000D01*
X44132879Y-48204998D01*
X44086386Y-48151342D01*
X44075000Y-48099000D01*
X44075000Y-20261000D01*
X44095002Y-20192879D01*
X44148658Y-20146386D01*
X44201000Y-20135000D01*
X87909000Y-20135000D01*
X87977121Y-20155002D01*
G37*
%TD.AperFunction*%
%TA.AperFunction,Conductor*%
G36*
X75505904Y-43647497D02*
G01*
X75562740Y-43690044D01*
X75581430Y-43725782D01*
X75616501Y-43831209D01*
X75616503Y-43831213D01*
X75618726Y-43837896D01*
X75622373Y-43843918D01*
X75675083Y-43930952D01*
X75711759Y-43991512D01*
X75716648Y-43996575D01*
X75716649Y-43996576D01*
X75740017Y-44020774D01*
X75836514Y-44120699D01*
X75986789Y-44219036D01*
X76155116Y-44281636D01*
X76162097Y-44282567D01*
X76162099Y-44282568D01*
X76259726Y-44295594D01*
X76324603Y-44324430D01*
X76332157Y-44331392D01*
X78877217Y-46876452D01*
X78911243Y-46938764D01*
X78906178Y-47009579D01*
X78863631Y-47066415D01*
X78854154Y-47072858D01*
X78704045Y-47165206D01*
X78699012Y-47170135D01*
X78695615Y-47172789D01*
X78629621Y-47198967D01*
X78618041Y-47199500D01*
X72196588Y-47199500D01*
X72128467Y-47179498D01*
X72081974Y-47125842D01*
X72071870Y-47055568D01*
X72096625Y-46996796D01*
X72098421Y-46994455D01*
X72149536Y-46927841D01*
X72156847Y-46910191D01*
X72191619Y-46864875D01*
X72190892Y-46864147D01*
X72196417Y-46858622D01*
X72196553Y-46858445D01*
X72203282Y-46853282D01*
X72222430Y-46828328D01*
X72233297Y-46815938D01*
X75372777Y-43676458D01*
X75435089Y-43642432D01*
X75505904Y-43647497D01*
G37*
%TD.AperFunction*%
%TA.AperFunction,Conductor*%
G36*
X68472584Y-42109860D02*
G01*
X68521773Y-42161055D01*
X68527149Y-42172828D01*
X68550887Y-42232783D01*
X68642078Y-42352922D01*
X68762217Y-42444113D01*
X68786813Y-42453851D01*
X68894923Y-42496655D01*
X68894925Y-42496656D01*
X68902453Y-42499636D01*
X68992228Y-42510500D01*
X69432279Y-42510500D01*
X69480495Y-42520090D01*
X69540738Y-42545044D01*
X69697500Y-42565682D01*
X69705688Y-42564604D01*
X69728673Y-42561578D01*
X69745119Y-42560500D01*
X71016289Y-42560500D01*
X71060517Y-42568518D01*
X71094022Y-42581078D01*
X71094024Y-42581079D01*
X71101420Y-42583851D01*
X71109270Y-42584704D01*
X71109271Y-42584704D01*
X71134272Y-42587420D01*
X71162623Y-42590500D01*
X71172238Y-42590500D01*
X71356076Y-42590499D01*
X71424196Y-42610501D01*
X71470689Y-42664156D01*
X71480794Y-42734430D01*
X71451301Y-42799011D01*
X71445171Y-42805594D01*
X70288170Y-43962595D01*
X70225858Y-43996621D01*
X70199075Y-43999500D01*
X69025321Y-43999500D01*
X68957200Y-43979498D01*
X68910707Y-43925842D01*
X68900547Y-43855964D01*
X68904700Y-43826416D01*
X68904700Y-43826411D01*
X68905251Y-43822493D01*
X68905565Y-43800000D01*
X68885546Y-43621528D01*
X68872533Y-43584158D01*
X68829470Y-43460500D01*
X68826485Y-43451927D01*
X68805195Y-43417855D01*
X68735049Y-43305599D01*
X68731316Y-43299625D01*
X68666240Y-43234093D01*
X68609733Y-43177190D01*
X68609729Y-43177187D01*
X68604770Y-43172193D01*
X68593761Y-43165206D01*
X68546860Y-43135442D01*
X68453136Y-43075963D01*
X68409250Y-43060336D01*
X68290586Y-43018081D01*
X68290581Y-43018080D01*
X68283951Y-43015719D01*
X68276965Y-43014886D01*
X68276961Y-43014885D01*
X68148981Y-42999625D01*
X68105624Y-42994455D01*
X68098621Y-42995191D01*
X68098620Y-42995191D01*
X67934025Y-43012490D01*
X67934021Y-43012491D01*
X67927017Y-43013227D01*
X67920346Y-43015498D01*
X67763677Y-43068832D01*
X67763674Y-43068833D01*
X67757007Y-43071103D01*
X67751009Y-43074793D01*
X67751007Y-43074794D01*
X67680526Y-43118154D01*
X67604045Y-43165206D01*
X67599010Y-43170136D01*
X67595615Y-43172789D01*
X67529621Y-43198967D01*
X67518041Y-43199500D01*
X65915645Y-43199500D01*
X65847524Y-43179498D01*
X65801031Y-43125842D01*
X65790871Y-43055964D01*
X65791237Y-43053364D01*
X65815251Y-42882493D01*
X65815403Y-42871576D01*
X65815510Y-42863963D01*
X65815510Y-42863958D01*
X65815565Y-42860000D01*
X65795546Y-42681528D01*
X65789497Y-42664156D01*
X65774855Y-42622112D01*
X65762774Y-42587419D01*
X65759260Y-42516511D01*
X65794641Y-42454958D01*
X65837534Y-42428002D01*
X65862836Y-42418517D01*
X65907062Y-42410500D01*
X66400530Y-42410500D01*
X66468651Y-42430502D01*
X66476706Y-42436134D01*
X66487217Y-42444113D01*
X66511813Y-42453851D01*
X66619923Y-42496655D01*
X66619925Y-42496656D01*
X66627453Y-42499636D01*
X66717228Y-42510500D01*
X67827772Y-42510500D01*
X67917547Y-42499636D01*
X67925075Y-42496656D01*
X67925077Y-42496655D01*
X68033187Y-42453851D01*
X68057783Y-42444113D01*
X68177922Y-42352922D01*
X68269113Y-42232783D01*
X68292849Y-42172833D01*
X68336522Y-42116861D01*
X68403525Y-42093384D01*
X68472584Y-42109860D01*
G37*
%TD.AperFunction*%
%TA.AperFunction,Conductor*%
G36*
X67569778Y-36216021D02*
G01*
X67608012Y-36275842D01*
X67612115Y-36295899D01*
X67620118Y-36362038D01*
X67623096Y-36369561D01*
X67623097Y-36369563D01*
X67639447Y-36410858D01*
X67674380Y-36499089D01*
X67763500Y-36616500D01*
X67880911Y-36705620D01*
X67928630Y-36724513D01*
X68010432Y-36756901D01*
X68010434Y-36756902D01*
X68017962Y-36759882D01*
X68105703Y-36770500D01*
X68809535Y-36770500D01*
X69514296Y-36770499D01*
X69518054Y-36770044D01*
X69518059Y-36770044D01*
X69594005Y-36760854D01*
X69602038Y-36759882D01*
X69609561Y-36756904D01*
X69609563Y-36756903D01*
X69662928Y-36735774D01*
X69739089Y-36705620D01*
X69745930Y-36700427D01*
X69753415Y-36696210D01*
X69754214Y-36697628D01*
X69811347Y-36675884D01*
X69821174Y-36675500D01*
X71279302Y-36675500D01*
X71347423Y-36695502D01*
X71393916Y-36749158D01*
X71404224Y-36817945D01*
X71394394Y-36892611D01*
X71412999Y-37061135D01*
X71439849Y-37134506D01*
X71466019Y-37206017D01*
X71471266Y-37220356D01*
X71565830Y-37361083D01*
X71571442Y-37366190D01*
X71571445Y-37366193D01*
X71685612Y-37470077D01*
X71685616Y-37470080D01*
X71691233Y-37475191D01*
X71697906Y-37478814D01*
X71697910Y-37478817D01*
X71833558Y-37552467D01*
X71833560Y-37552468D01*
X71840235Y-37556092D01*
X71847584Y-37558020D01*
X71996883Y-37597188D01*
X71996885Y-37597188D01*
X72004233Y-37599116D01*
X72011833Y-37599235D01*
X72019352Y-37600265D01*
X72018945Y-37603238D01*
X72073562Y-37620222D01*
X72092860Y-37636029D01*
X72213195Y-37756364D01*
X72216848Y-37760173D01*
X72242633Y-37788214D01*
X72274019Y-37851896D01*
X72265993Y-37922438D01*
X72221104Y-37977442D01*
X72149885Y-37999500D01*
X71980639Y-37999500D01*
X71980636Y-37999501D01*
X71842624Y-37999501D01*
X71839230Y-37999870D01*
X71839224Y-37999870D01*
X71789278Y-38005295D01*
X71789274Y-38005296D01*
X71781420Y-38006149D01*
X71647176Y-38056474D01*
X71639997Y-38061854D01*
X71639994Y-38061856D01*
X71539635Y-38137072D01*
X71532454Y-38142454D01*
X71527072Y-38149635D01*
X71451856Y-38249994D01*
X71451854Y-38249997D01*
X71446474Y-38257176D01*
X71426143Y-38311409D01*
X71399511Y-38382453D01*
X71396149Y-38391420D01*
X71395296Y-38399270D01*
X71395296Y-38399271D01*
X71392231Y-38427486D01*
X71389500Y-38452623D01*
X71389501Y-38747376D01*
X71389870Y-38750770D01*
X71389870Y-38750776D01*
X71395282Y-38800594D01*
X71396149Y-38808580D01*
X71446474Y-38942824D01*
X71451854Y-38950003D01*
X71451856Y-38950006D01*
X71523341Y-39045387D01*
X71532454Y-39057546D01*
X71539635Y-39062928D01*
X71639994Y-39138144D01*
X71639997Y-39138146D01*
X71647176Y-39143526D01*
X71724719Y-39172595D01*
X71774025Y-39191079D01*
X71774027Y-39191079D01*
X71781420Y-39193851D01*
X71789270Y-39194704D01*
X71789271Y-39194704D01*
X71839226Y-39200131D01*
X71842623Y-39200500D01*
X72664895Y-39200500D01*
X72733016Y-39220502D01*
X72741075Y-39226137D01*
X72773794Y-39250972D01*
X72837217Y-39299113D01*
X72896319Y-39322513D01*
X72969923Y-39351655D01*
X72969925Y-39351656D01*
X72977453Y-39354636D01*
X72986262Y-39355702D01*
X73063458Y-39365044D01*
X73063462Y-39365044D01*
X73066762Y-39365444D01*
X73066763Y-39365444D01*
X73067228Y-39365500D01*
X73067215Y-39365607D01*
X73132886Y-39389275D01*
X73176060Y-39445635D01*
X73184500Y-39490974D01*
X73184500Y-39537381D01*
X73183422Y-39553827D01*
X73179318Y-39585000D01*
X73187827Y-39649631D01*
X73199956Y-39741762D01*
X73260464Y-39887841D01*
X73356718Y-40013282D01*
X73359405Y-40015344D01*
X73392351Y-40075678D01*
X73394750Y-40097999D01*
X73394540Y-40100000D01*
X73395230Y-40106565D01*
X73411126Y-40257805D01*
X73414326Y-40288256D01*
X73472821Y-40468284D01*
X73476124Y-40474006D01*
X73476125Y-40474007D01*
X73530643Y-40568435D01*
X73567467Y-40632216D01*
X73571885Y-40637123D01*
X73571886Y-40637124D01*
X73675689Y-40752408D01*
X73694129Y-40772888D01*
X73699468Y-40776767D01*
X73787633Y-40840822D01*
X73847270Y-40884151D01*
X74020197Y-40961144D01*
X74118212Y-40981978D01*
X74198897Y-40999128D01*
X74198901Y-40999128D01*
X74205354Y-41000500D01*
X74325364Y-41000500D01*
X74393485Y-41020502D01*
X74439978Y-41074158D01*
X74450082Y-41144432D01*
X74420588Y-41209012D01*
X74414459Y-41215595D01*
X74357459Y-41272595D01*
X74295147Y-41306621D01*
X74268364Y-41309500D01*
X71969075Y-41309500D01*
X71913870Y-41316474D01*
X71854807Y-41323935D01*
X71854804Y-41323936D01*
X71846942Y-41324929D01*
X71839576Y-41327846D01*
X71839574Y-41327846D01*
X71781973Y-41350652D01*
X71735589Y-41359500D01*
X71603711Y-41359500D01*
X71559483Y-41351482D01*
X71525978Y-41338922D01*
X71525976Y-41338921D01*
X71518580Y-41336149D01*
X71510730Y-41335296D01*
X71510729Y-41335296D01*
X71460774Y-41329869D01*
X71460773Y-41329869D01*
X71457377Y-41329500D01*
X71310044Y-41329500D01*
X71162624Y-41329501D01*
X71159230Y-41329870D01*
X71159224Y-41329870D01*
X71109278Y-41335295D01*
X71109274Y-41335296D01*
X71101420Y-41336149D01*
X71094020Y-41338923D01*
X71094016Y-41338924D01*
X71060517Y-41351482D01*
X71016289Y-41359500D01*
X70699142Y-41359500D01*
X70631021Y-41339498D01*
X70584528Y-41285842D01*
X70574424Y-41215568D01*
X70581990Y-41187117D01*
X70596655Y-41150077D01*
X70596656Y-41150075D01*
X70599636Y-41142547D01*
X70610500Y-41052772D01*
X70610500Y-40667228D01*
X70599636Y-40577453D01*
X70589870Y-40552785D01*
X70563459Y-40486079D01*
X70544113Y-40437217D01*
X70452922Y-40317078D01*
X70332783Y-40225887D01*
X70203163Y-40174567D01*
X70200077Y-40173345D01*
X70200075Y-40173344D01*
X70192547Y-40170364D01*
X70102772Y-40159500D01*
X68992228Y-40159500D01*
X68902453Y-40170364D01*
X68894925Y-40173344D01*
X68894923Y-40173345D01*
X68891837Y-40174567D01*
X68762217Y-40225887D01*
X68642078Y-40317078D01*
X68550887Y-40437217D01*
X68531541Y-40486079D01*
X68505131Y-40552785D01*
X68495364Y-40577453D01*
X68484500Y-40667228D01*
X68484500Y-41052772D01*
X68495364Y-41142547D01*
X68498344Y-41150075D01*
X68498345Y-41150077D01*
X68550887Y-41282783D01*
X68549183Y-41283458D01*
X68562809Y-41342318D01*
X68549757Y-41386770D01*
X68550887Y-41387218D01*
X68527152Y-41447166D01*
X68483478Y-41503139D01*
X68416475Y-41526616D01*
X68347416Y-41510140D01*
X68298227Y-41458945D01*
X68292848Y-41447166D01*
X68292096Y-41445265D01*
X68269113Y-41387217D01*
X68177922Y-41267078D01*
X68057783Y-41175887D01*
X67953266Y-41134506D01*
X67925077Y-41123345D01*
X67925075Y-41123344D01*
X67917547Y-41120364D01*
X67827772Y-41109500D01*
X66717228Y-41109500D01*
X66627453Y-41120364D01*
X66619925Y-41123344D01*
X66619923Y-41123345D01*
X66591734Y-41134506D01*
X66487217Y-41175887D01*
X66476708Y-41183864D01*
X66410354Y-41209116D01*
X66400530Y-41209500D01*
X65627619Y-41209500D01*
X65611173Y-41208422D01*
X65588188Y-41205396D01*
X65580000Y-41204318D01*
X65571812Y-41205396D01*
X65540639Y-41209500D01*
X65494548Y-41215568D01*
X65423238Y-41224956D01*
X65351964Y-41254479D01*
X65317355Y-41263332D01*
X65313087Y-41263795D01*
X65299278Y-41265295D01*
X65299275Y-41265296D01*
X65291420Y-41266149D01*
X65284022Y-41268922D01*
X65284019Y-41268923D01*
X65238888Y-41285842D01*
X65157176Y-41316474D01*
X65149997Y-41321854D01*
X65149994Y-41321856D01*
X65049635Y-41397072D01*
X65042454Y-41402454D01*
X65037072Y-41409635D01*
X64961856Y-41509994D01*
X64961854Y-41509997D01*
X64956474Y-41517176D01*
X64941697Y-41556594D01*
X64910670Y-41639361D01*
X64906149Y-41651420D01*
X64905296Y-41659270D01*
X64905296Y-41659271D01*
X64904974Y-41662239D01*
X64899500Y-41712623D01*
X64899500Y-41716039D01*
X64899501Y-41961748D01*
X64879499Y-42029869D01*
X64825844Y-42076362D01*
X64814114Y-42081024D01*
X64770818Y-42095763D01*
X64673677Y-42128832D01*
X64673674Y-42128833D01*
X64667007Y-42131103D01*
X64514045Y-42225206D01*
X64509014Y-42230132D01*
X64509011Y-42230135D01*
X64401067Y-42335842D01*
X64385732Y-42350859D01*
X64381916Y-42356780D01*
X64377463Y-42362240D01*
X64375178Y-42360376D01*
X64331447Y-42398177D01*
X64279243Y-42409500D01*
X63609862Y-42409500D01*
X63541741Y-42389498D01*
X63495248Y-42335842D01*
X63485088Y-42265964D01*
X63495870Y-42189245D01*
X63525158Y-42124571D01*
X63531549Y-42117686D01*
X63590938Y-42058297D01*
X63603329Y-42047429D01*
X63621736Y-42033305D01*
X63628282Y-42028282D01*
X63724536Y-41902841D01*
X63785044Y-41756762D01*
X63800500Y-41639361D01*
X63805682Y-41600000D01*
X63801578Y-41568827D01*
X63800500Y-41552381D01*
X63800500Y-39865000D01*
X65094318Y-39865000D01*
X65095396Y-39873187D01*
X65098423Y-39896177D01*
X65099501Y-39912625D01*
X65099501Y-40042376D01*
X65099870Y-40045770D01*
X65099870Y-40045776D01*
X65100234Y-40049122D01*
X65106149Y-40103580D01*
X65156474Y-40237824D01*
X65161854Y-40245003D01*
X65161856Y-40245006D01*
X65232769Y-40339623D01*
X65242454Y-40352546D01*
X65249635Y-40357928D01*
X65349994Y-40433144D01*
X65349997Y-40433146D01*
X65357176Y-40438526D01*
X65430803Y-40466127D01*
X65484025Y-40486079D01*
X65484027Y-40486079D01*
X65491420Y-40488851D01*
X65499270Y-40489704D01*
X65499271Y-40489704D01*
X65512471Y-40491138D01*
X65552623Y-40495500D01*
X65699956Y-40495500D01*
X65847376Y-40495499D01*
X65850770Y-40495130D01*
X65850776Y-40495130D01*
X65900722Y-40489705D01*
X65900726Y-40489704D01*
X65908580Y-40488851D01*
X65915980Y-40486077D01*
X65915984Y-40486076D01*
X65949483Y-40473518D01*
X65993711Y-40465500D01*
X66341246Y-40465500D01*
X66409367Y-40485502D01*
X66417420Y-40491134D01*
X66487217Y-40544113D01*
X66521870Y-40557833D01*
X66619923Y-40596655D01*
X66619925Y-40596656D01*
X66627453Y-40599636D01*
X66717228Y-40610500D01*
X67827772Y-40610500D01*
X67917547Y-40599636D01*
X67925075Y-40596656D01*
X67925077Y-40596655D01*
X68023130Y-40557833D01*
X68057783Y-40544113D01*
X68177922Y-40452922D01*
X68269113Y-40332783D01*
X68316398Y-40213354D01*
X68321655Y-40200077D01*
X68321656Y-40200075D01*
X68324636Y-40192547D01*
X68335500Y-40102772D01*
X68335500Y-39717228D01*
X68324636Y-39627453D01*
X68269113Y-39487217D01*
X68177922Y-39367078D01*
X68057783Y-39275887D01*
X67980115Y-39245136D01*
X67924143Y-39201463D01*
X67900500Y-39127985D01*
X67900500Y-38827220D01*
X67920502Y-38759099D01*
X67932864Y-38742909D01*
X67971928Y-38699525D01*
X68005537Y-38662198D01*
X68028114Y-38637124D01*
X68028115Y-38637123D01*
X68032533Y-38632216D01*
X68085467Y-38540531D01*
X68123875Y-38474007D01*
X68123876Y-38474006D01*
X68127179Y-38468284D01*
X68185674Y-38288256D01*
X68189674Y-38250204D01*
X68204770Y-38106565D01*
X68205460Y-38100000D01*
X68194936Y-37999870D01*
X68186364Y-37918307D01*
X68186364Y-37918305D01*
X68185674Y-37911744D01*
X68127179Y-37731716D01*
X68072605Y-37637190D01*
X68035836Y-37573505D01*
X68032533Y-37567784D01*
X68028114Y-37562876D01*
X67910286Y-37432015D01*
X67910284Y-37432014D01*
X67905871Y-37427112D01*
X67843547Y-37381831D01*
X67758072Y-37319730D01*
X67758071Y-37319729D01*
X67752730Y-37315849D01*
X67579803Y-37238856D01*
X67481788Y-37218022D01*
X67401103Y-37200872D01*
X67401099Y-37200872D01*
X67394646Y-37199500D01*
X67205354Y-37199500D01*
X67198901Y-37200872D01*
X67198897Y-37200872D01*
X67118212Y-37218022D01*
X67020197Y-37238856D01*
X66847270Y-37315849D01*
X66841929Y-37319729D01*
X66841928Y-37319730D01*
X66756453Y-37381831D01*
X66694129Y-37427112D01*
X66689716Y-37432014D01*
X66689714Y-37432015D01*
X66571886Y-37562876D01*
X66567467Y-37567784D01*
X66564164Y-37573505D01*
X66527396Y-37637190D01*
X66472821Y-37731716D01*
X66414326Y-37911744D01*
X66413636Y-37918305D01*
X66413636Y-37918307D01*
X66405064Y-37999870D01*
X66394540Y-38100000D01*
X66395230Y-38106565D01*
X66410327Y-38250204D01*
X66414326Y-38288256D01*
X66472821Y-38468284D01*
X66476124Y-38474006D01*
X66476125Y-38474007D01*
X66514533Y-38540531D01*
X66567467Y-38632216D01*
X66571885Y-38637123D01*
X66571886Y-38637124D01*
X66594463Y-38662198D01*
X66628073Y-38699525D01*
X66667136Y-38742909D01*
X66697853Y-38806917D01*
X66699500Y-38827220D01*
X66699500Y-39106209D01*
X66679498Y-39174330D01*
X66619885Y-39223361D01*
X66538324Y-39255652D01*
X66491942Y-39264500D01*
X65993711Y-39264500D01*
X65949483Y-39256482D01*
X65915978Y-39243922D01*
X65915976Y-39243921D01*
X65908580Y-39241149D01*
X65900730Y-39240296D01*
X65900729Y-39240296D01*
X65850774Y-39234869D01*
X65850773Y-39234869D01*
X65847377Y-39234500D01*
X65700044Y-39234500D01*
X65552624Y-39234501D01*
X65549230Y-39234870D01*
X65549224Y-39234870D01*
X65499278Y-39240295D01*
X65499274Y-39240296D01*
X65491420Y-39241149D01*
X65357176Y-39291474D01*
X65349997Y-39296854D01*
X65349994Y-39296856D01*
X65249635Y-39372072D01*
X65242454Y-39377454D01*
X65237072Y-39384635D01*
X65161856Y-39484994D01*
X65161854Y-39484997D01*
X65156474Y-39492176D01*
X65106149Y-39626420D01*
X65099500Y-39687623D01*
X65099500Y-39817380D01*
X65098422Y-39833825D01*
X65094318Y-39865000D01*
X63800500Y-39865000D01*
X63800500Y-38985286D01*
X63820502Y-38917165D01*
X63874158Y-38870672D01*
X63944432Y-38860568D01*
X63995020Y-38882983D01*
X63996514Y-38880699D01*
X64146789Y-38979036D01*
X64315116Y-39041636D01*
X64322097Y-39042567D01*
X64322099Y-39042568D01*
X64486149Y-39064457D01*
X64486153Y-39064457D01*
X64493130Y-39065388D01*
X64500142Y-39064750D01*
X64500146Y-39064750D01*
X64664960Y-39049751D01*
X64664961Y-39049751D01*
X64671981Y-39049112D01*
X64842782Y-38993615D01*
X64907431Y-38955077D01*
X64990992Y-38905265D01*
X64990994Y-38905264D01*
X64997044Y-38901657D01*
X65127099Y-38777807D01*
X65136572Y-38763550D01*
X65203909Y-38662198D01*
X65226483Y-38628222D01*
X65259794Y-38540531D01*
X65287757Y-38466919D01*
X65287758Y-38466914D01*
X65290257Y-38460336D01*
X65291341Y-38452623D01*
X65314700Y-38286416D01*
X65314700Y-38286411D01*
X65315251Y-38282493D01*
X65315565Y-38260000D01*
X65295546Y-38081528D01*
X65286598Y-38055831D01*
X65259300Y-37977442D01*
X65236485Y-37911927D01*
X65208014Y-37866363D01*
X65145049Y-37765599D01*
X65141316Y-37759625D01*
X65038927Y-37656519D01*
X65019733Y-37637190D01*
X65019729Y-37637187D01*
X65014770Y-37632193D01*
X64937073Y-37582885D01*
X64890274Y-37529496D01*
X64879769Y-37459281D01*
X64908893Y-37394533D01*
X64968399Y-37355809D01*
X65004587Y-37350500D01*
X65085007Y-37350500D01*
X65090284Y-37350611D01*
X65152294Y-37353210D01*
X65163848Y-37350500D01*
X65194662Y-37343273D01*
X65206333Y-37341110D01*
X65221229Y-37339069D01*
X65249432Y-37335206D01*
X65263230Y-37329235D01*
X65284499Y-37322201D01*
X65290775Y-37320729D01*
X65299136Y-37318768D01*
X65306661Y-37314631D01*
X65306664Y-37314630D01*
X65337268Y-37297805D01*
X65347913Y-37292589D01*
X65387855Y-37275305D01*
X65399541Y-37265842D01*
X65418126Y-37253354D01*
X65425518Y-37249290D01*
X65431308Y-37246107D01*
X65439422Y-37239103D01*
X65463958Y-37214567D01*
X65473759Y-37205742D01*
X65498392Y-37185794D01*
X65498393Y-37185793D01*
X65505070Y-37180386D01*
X65510043Y-37173388D01*
X65510048Y-37173383D01*
X65515968Y-37165052D01*
X65529579Y-37148946D01*
X65939884Y-36738641D01*
X66002196Y-36704615D01*
X66017560Y-36702255D01*
X66154960Y-36689751D01*
X66154961Y-36689751D01*
X66161981Y-36689112D01*
X66332782Y-36633615D01*
X66372959Y-36609665D01*
X66480992Y-36545265D01*
X66480994Y-36545264D01*
X66487044Y-36541657D01*
X66617099Y-36417807D01*
X66622543Y-36409614D01*
X66714737Y-36270850D01*
X66769095Y-36225179D01*
X66839514Y-36216147D01*
X66863606Y-36222480D01*
X66908511Y-36239180D01*
X66908514Y-36239181D01*
X66915116Y-36241636D01*
X66922097Y-36242567D01*
X66922099Y-36242568D01*
X67086149Y-36264457D01*
X67086153Y-36264457D01*
X67093130Y-36265388D01*
X67100142Y-36264750D01*
X67100146Y-36264750D01*
X67264960Y-36249751D01*
X67264961Y-36249751D01*
X67271981Y-36249112D01*
X67442782Y-36193615D01*
X67443272Y-36195123D01*
X67505271Y-36186367D01*
X67569778Y-36216021D01*
G37*
%TD.AperFunction*%
%TA.AperFunction,Conductor*%
G36*
X55285076Y-31720502D02*
G01*
X55307592Y-31738973D01*
X55386514Y-31820699D01*
X55536789Y-31919036D01*
X55543397Y-31921493D01*
X55543396Y-31921493D01*
X55560533Y-31927867D01*
X55617408Y-31970361D01*
X55642281Y-32036858D01*
X55627255Y-32106246D01*
X55605706Y-32135059D01*
X54724062Y-33016703D01*
X54711672Y-33027570D01*
X54686718Y-33046718D01*
X54681695Y-33053264D01*
X54669678Y-33068925D01*
X54613794Y-33141755D01*
X54590464Y-33172159D01*
X54529956Y-33318238D01*
X54509318Y-33475000D01*
X54510396Y-33483188D01*
X54513422Y-33506173D01*
X54514500Y-33522619D01*
X54514500Y-35350530D01*
X54494498Y-35418651D01*
X54488866Y-35426706D01*
X54480887Y-35437217D01*
X54471867Y-35460000D01*
X54439158Y-35542614D01*
X54425364Y-35577453D01*
X54414500Y-35667228D01*
X54414500Y-37052772D01*
X54425364Y-37142547D01*
X54428344Y-37150075D01*
X54428345Y-37150077D01*
X54450493Y-37206017D01*
X54480887Y-37282783D01*
X54572078Y-37402922D01*
X54692217Y-37494113D01*
X54755832Y-37519300D01*
X54824923Y-37546655D01*
X54824925Y-37546656D01*
X54832453Y-37549636D01*
X54922228Y-37560500D01*
X55307772Y-37560500D01*
X55313226Y-37559840D01*
X55313677Y-37559915D01*
X55315323Y-37559816D01*
X55315346Y-37560193D01*
X55383256Y-37571517D01*
X55435856Y-37619201D01*
X55454325Y-37687753D01*
X55432801Y-37755408D01*
X55417452Y-37774023D01*
X55171084Y-38020391D01*
X55108772Y-38054417D01*
X55095160Y-38056606D01*
X55071526Y-38059090D01*
X54944025Y-38072490D01*
X54944021Y-38072491D01*
X54937017Y-38073227D01*
X54930346Y-38075498D01*
X54773677Y-38128832D01*
X54773674Y-38128833D01*
X54767007Y-38131103D01*
X54761009Y-38134793D01*
X54761007Y-38134794D01*
X54690526Y-38178154D01*
X54614045Y-38225206D01*
X54609014Y-38230132D01*
X54609011Y-38230135D01*
X54572816Y-38265580D01*
X54485732Y-38350859D01*
X54481913Y-38356784D01*
X54481912Y-38356786D01*
X54409941Y-38468463D01*
X54388446Y-38501817D01*
X54386037Y-38508437D01*
X54386035Y-38508440D01*
X54374355Y-38540531D01*
X54327022Y-38670578D01*
X54304514Y-38848753D01*
X54305201Y-38855760D01*
X54305201Y-38855763D01*
X54308515Y-38889561D01*
X54322039Y-39027486D01*
X54324262Y-39034169D01*
X54324263Y-39034173D01*
X54327442Y-39043730D01*
X54329964Y-39114682D01*
X54293725Y-39175734D01*
X54230233Y-39207502D01*
X54207883Y-39209500D01*
X52424993Y-39209500D01*
X52419717Y-39209389D01*
X52415310Y-39209204D01*
X52357706Y-39206790D01*
X52349341Y-39208752D01*
X52315338Y-39216727D01*
X52303667Y-39218890D01*
X52292907Y-39220364D01*
X52260568Y-39224794D01*
X52252684Y-39228206D01*
X52252683Y-39228206D01*
X52246770Y-39230765D01*
X52225501Y-39237799D01*
X52210864Y-39241232D01*
X52203339Y-39245369D01*
X52203336Y-39245370D01*
X52172732Y-39262195D01*
X52162087Y-39267411D01*
X52122145Y-39284695D01*
X52110459Y-39294158D01*
X52091875Y-39306645D01*
X52078692Y-39313893D01*
X52070578Y-39320897D01*
X52046042Y-39345433D01*
X52036241Y-39354258D01*
X52011970Y-39373913D01*
X52004930Y-39379614D01*
X51999957Y-39386612D01*
X51999952Y-39386617D01*
X51994032Y-39394948D01*
X51980421Y-39411054D01*
X50921355Y-40470120D01*
X50917548Y-40473771D01*
X50871844Y-40515799D01*
X50848901Y-40552802D01*
X50842200Y-40562552D01*
X50815888Y-40597217D01*
X50810810Y-40610044D01*
X50810354Y-40611195D01*
X50800293Y-40631199D01*
X50792365Y-40643986D01*
X50789968Y-40652237D01*
X50789967Y-40652239D01*
X50780225Y-40685772D01*
X50776380Y-40697002D01*
X50760364Y-40737453D01*
X50759466Y-40745994D01*
X50759466Y-40745995D01*
X50758792Y-40752408D01*
X50754480Y-40774383D01*
X50750285Y-40788825D01*
X50749500Y-40799515D01*
X50749500Y-40834217D01*
X50748810Y-40847387D01*
X50744599Y-40887454D01*
X50746031Y-40895919D01*
X50746031Y-40895928D01*
X50747735Y-40906000D01*
X50749500Y-40927013D01*
X50749500Y-41097282D01*
X50729498Y-41165403D01*
X50675842Y-41211896D01*
X50605568Y-41222000D01*
X50547320Y-41197645D01*
X50477215Y-41144432D01*
X50452783Y-41125887D01*
X50322130Y-41074158D01*
X50320077Y-41073345D01*
X50320075Y-41073344D01*
X50312547Y-41070364D01*
X50222772Y-41059500D01*
X49837228Y-41059500D01*
X49747453Y-41070364D01*
X49739925Y-41073344D01*
X49739923Y-41073345D01*
X49737870Y-41074158D01*
X49607217Y-41125887D01*
X49487078Y-41217078D01*
X49483187Y-41222204D01*
X49421783Y-41255734D01*
X49350968Y-41250669D01*
X49306942Y-41222375D01*
X49302922Y-41217078D01*
X49182783Y-41125887D01*
X49052130Y-41074158D01*
X49050077Y-41073345D01*
X49050075Y-41073344D01*
X49042547Y-41070364D01*
X48952772Y-41059500D01*
X48567228Y-41059500D01*
X48486718Y-41069243D01*
X48416688Y-41057570D01*
X48382486Y-41033251D01*
X47717405Y-40368170D01*
X47683379Y-40305858D01*
X47680500Y-40279075D01*
X47680500Y-34980925D01*
X47700502Y-34912804D01*
X47717405Y-34891830D01*
X47949405Y-34659830D01*
X48011717Y-34625804D01*
X48082532Y-34630869D01*
X48139368Y-34673416D01*
X48164179Y-34739936D01*
X48164500Y-34748925D01*
X48164500Y-35350530D01*
X48144498Y-35418651D01*
X48138866Y-35426706D01*
X48130887Y-35437217D01*
X48121867Y-35460000D01*
X48089158Y-35542614D01*
X48075364Y-35577453D01*
X48064500Y-35667228D01*
X48064500Y-37052772D01*
X48075364Y-37142547D01*
X48078344Y-37150075D01*
X48078345Y-37150077D01*
X48100493Y-37206017D01*
X48130887Y-37282783D01*
X48222078Y-37402922D01*
X48342217Y-37494113D01*
X48405832Y-37519300D01*
X48474923Y-37546655D01*
X48474925Y-37546656D01*
X48482453Y-37549636D01*
X48572228Y-37560500D01*
X48957772Y-37560500D01*
X49047547Y-37549636D01*
X49055075Y-37546656D01*
X49055077Y-37546655D01*
X49124168Y-37519300D01*
X49187783Y-37494113D01*
X49307922Y-37402922D01*
X49313110Y-37396087D01*
X49319190Y-37390007D01*
X49320430Y-37391247D01*
X49369256Y-37355202D01*
X49440104Y-37350610D01*
X49502188Y-37385050D01*
X49510850Y-37395047D01*
X49511890Y-37396087D01*
X49517078Y-37402922D01*
X49637217Y-37494113D01*
X49700832Y-37519300D01*
X49769923Y-37546655D01*
X49769925Y-37546656D01*
X49777453Y-37549636D01*
X49867228Y-37560500D01*
X50252772Y-37560500D01*
X50342547Y-37549636D01*
X50350075Y-37546656D01*
X50350077Y-37546655D01*
X50419168Y-37519300D01*
X50482783Y-37494113D01*
X50602922Y-37402922D01*
X50604356Y-37404812D01*
X50655717Y-37376766D01*
X50726532Y-37381831D01*
X50761183Y-37404101D01*
X50762078Y-37402922D01*
X50882217Y-37494113D01*
X50945832Y-37519300D01*
X51014923Y-37546655D01*
X51014925Y-37546656D01*
X51022453Y-37549636D01*
X51112228Y-37560500D01*
X51497772Y-37560500D01*
X51587547Y-37549636D01*
X51595075Y-37546656D01*
X51595077Y-37546655D01*
X51664168Y-37519300D01*
X51727783Y-37494113D01*
X51847922Y-37402922D01*
X51851813Y-37397796D01*
X51913217Y-37364266D01*
X51984032Y-37369331D01*
X52028058Y-37397625D01*
X52032078Y-37402922D01*
X52152217Y-37494113D01*
X52215832Y-37519300D01*
X52284923Y-37546655D01*
X52284925Y-37546656D01*
X52292453Y-37549636D01*
X52382228Y-37560500D01*
X52767772Y-37560500D01*
X52857547Y-37549636D01*
X52865075Y-37546656D01*
X52865077Y-37546655D01*
X52934168Y-37519300D01*
X52997783Y-37494113D01*
X53117922Y-37402922D01*
X53209113Y-37282783D01*
X53239507Y-37206017D01*
X53261655Y-37150077D01*
X53261656Y-37150075D01*
X53264636Y-37142547D01*
X53275500Y-37052772D01*
X53275500Y-35667228D01*
X53264636Y-35577453D01*
X53250843Y-35542614D01*
X53218133Y-35460000D01*
X53209113Y-35437217D01*
X53201136Y-35426708D01*
X53175884Y-35360354D01*
X53175500Y-35350530D01*
X53175500Y-33225925D01*
X53195502Y-33157804D01*
X53212405Y-33136830D01*
X53617672Y-32731563D01*
X53679984Y-32697537D01*
X53695347Y-32695177D01*
X53754960Y-32689752D01*
X53754970Y-32689750D01*
X53761981Y-32689112D01*
X53932782Y-32633615D01*
X53938833Y-32630008D01*
X54080992Y-32545265D01*
X54080994Y-32545264D01*
X54087044Y-32541657D01*
X54217099Y-32417807D01*
X54221933Y-32410532D01*
X54273036Y-32333615D01*
X54316483Y-32268222D01*
X54334535Y-32220699D01*
X54377757Y-32106919D01*
X54377758Y-32106914D01*
X54380257Y-32100336D01*
X54385920Y-32060044D01*
X54404700Y-31926416D01*
X54404700Y-31926411D01*
X54405251Y-31922493D01*
X54405565Y-31900000D01*
X54398896Y-31840545D01*
X54411180Y-31770619D01*
X54459319Y-31718435D01*
X54524111Y-31700500D01*
X55216955Y-31700500D01*
X55285076Y-31720502D01*
G37*
%TD.AperFunction*%
%TA.AperFunction,Conductor*%
G36*
X62279063Y-35045352D02*
G01*
X62324206Y-35102364D01*
X62374380Y-35229089D01*
X62463500Y-35346500D01*
X62580911Y-35435620D01*
X62639058Y-35458642D01*
X62710432Y-35486901D01*
X62710434Y-35486902D01*
X62717962Y-35489882D01*
X62805703Y-35500500D01*
X63509535Y-35500500D01*
X64214296Y-35500499D01*
X64218054Y-35500044D01*
X64218059Y-35500044D01*
X64294005Y-35490854D01*
X64302038Y-35489882D01*
X64309561Y-35486904D01*
X64309563Y-35486903D01*
X64369035Y-35463356D01*
X64439089Y-35435620D01*
X64471346Y-35411136D01*
X64537697Y-35385884D01*
X64547523Y-35385500D01*
X65155394Y-35385500D01*
X65223515Y-35405502D01*
X65270008Y-35459158D01*
X65280112Y-35529432D01*
X65273795Y-35554594D01*
X65219433Y-35703952D01*
X65219432Y-35703957D01*
X65217022Y-35710578D01*
X65194514Y-35888753D01*
X65191533Y-35888376D01*
X65174496Y-35943439D01*
X65158590Y-35962886D01*
X64908881Y-36212595D01*
X64846569Y-36246621D01*
X64819786Y-36249500D01*
X59384993Y-36249500D01*
X59379717Y-36249389D01*
X59375310Y-36249204D01*
X59317706Y-36246790D01*
X59309341Y-36248752D01*
X59275338Y-36256727D01*
X59263667Y-36258890D01*
X59248771Y-36260931D01*
X59220568Y-36264794D01*
X59212684Y-36268206D01*
X59212683Y-36268206D01*
X59206770Y-36270765D01*
X59185501Y-36277799D01*
X59170864Y-36281232D01*
X59163339Y-36285369D01*
X59163336Y-36285370D01*
X59132732Y-36302195D01*
X59122087Y-36307411D01*
X59082145Y-36324695D01*
X59070459Y-36334158D01*
X59051875Y-36346645D01*
X59038692Y-36353893D01*
X59030578Y-36360897D01*
X59006042Y-36385433D01*
X58996241Y-36394258D01*
X58971608Y-36414206D01*
X58964930Y-36419614D01*
X58959956Y-36426613D01*
X58959955Y-36426614D01*
X58954034Y-36434946D01*
X58940424Y-36451051D01*
X58655702Y-36735774D01*
X58575596Y-36815880D01*
X58513283Y-36849905D01*
X58442468Y-36844841D01*
X58385632Y-36802294D01*
X58360821Y-36735774D01*
X58360500Y-36726785D01*
X58360500Y-35667228D01*
X58349636Y-35577453D01*
X58335843Y-35542614D01*
X58303133Y-35460000D01*
X58294113Y-35437217D01*
X58286309Y-35426936D01*
X58284911Y-35423264D01*
X58284702Y-35422892D01*
X58284758Y-35422860D01*
X58261054Y-35360585D01*
X58275681Y-35291112D01*
X58297575Y-35261660D01*
X58493627Y-35065608D01*
X58555939Y-35031582D01*
X58626754Y-35036647D01*
X58683590Y-35079194D01*
X58685906Y-35082626D01*
X58688113Y-35085492D01*
X58691759Y-35091512D01*
X58696650Y-35096577D01*
X58696651Y-35096578D01*
X58736215Y-35137547D01*
X58816514Y-35220699D01*
X58966789Y-35319036D01*
X59135116Y-35381636D01*
X59142097Y-35382567D01*
X59142099Y-35382568D01*
X59306149Y-35404457D01*
X59306153Y-35404457D01*
X59313130Y-35405388D01*
X59320142Y-35404750D01*
X59320146Y-35404750D01*
X59403776Y-35397139D01*
X59473429Y-35410885D01*
X59504290Y-35433525D01*
X59716703Y-35645938D01*
X59727570Y-35658328D01*
X59746718Y-35683282D01*
X59753264Y-35688305D01*
X59771395Y-35702217D01*
X59839443Y-35754432D01*
X59872159Y-35779536D01*
X60018238Y-35840044D01*
X60026426Y-35841122D01*
X60065081Y-35846211D01*
X60092864Y-35853151D01*
X60154025Y-35876079D01*
X60154027Y-35876079D01*
X60161420Y-35878851D01*
X60169270Y-35879704D01*
X60169271Y-35879704D01*
X60219217Y-35885130D01*
X60222623Y-35885500D01*
X60369956Y-35885500D01*
X60517376Y-35885499D01*
X60520770Y-35885130D01*
X60520776Y-35885130D01*
X60570729Y-35879704D01*
X60570731Y-35879704D01*
X60578580Y-35878851D01*
X60585970Y-35876081D01*
X60585973Y-35876080D01*
X60620075Y-35863296D01*
X60647850Y-35856358D01*
X60654357Y-35855501D01*
X60654363Y-35855500D01*
X60763574Y-35841122D01*
X60771762Y-35840044D01*
X60917841Y-35779536D01*
X61018605Y-35702217D01*
X61036736Y-35688305D01*
X61043282Y-35683282D01*
X61062430Y-35658328D01*
X61073297Y-35645938D01*
X61581830Y-35137405D01*
X61644142Y-35103379D01*
X61670925Y-35100500D01*
X61918937Y-35100499D01*
X61933162Y-35100499D01*
X61951854Y-35099028D01*
X61962209Y-35098214D01*
X61962210Y-35098214D01*
X61968627Y-35097709D01*
X61974807Y-35095914D01*
X61974810Y-35095913D01*
X62112777Y-35055830D01*
X62112779Y-35055829D01*
X62120390Y-35053618D01*
X62142917Y-35040295D01*
X62211731Y-35022836D01*
X62279063Y-35045352D01*
G37*
%TD.AperFunction*%
%TD*%
M02*
