%TF.GenerationSoftware,KiCad,Pcbnew,(6.0.1)*%
%TF.CreationDate,2022-09-04T12:14:09+08:00*%
%TF.ProjectId,Digital Clock,44696769-7461-46c2-9043-6c6f636b2e6b,_____*%
%TF.SameCoordinates,Original*%
%TF.FileFunction,Copper,L2,Inr*%
%TF.FilePolarity,Positive*%
%FSLAX46Y46*%
G04 Gerber Fmt 4.6, Leading zero omitted, Abs format (unit mm)*
G04 Created by KiCad (PCBNEW (6.0.1)) date 2022-09-04 12:14:09*
%MOMM*%
%LPD*%
G01*
G04 APERTURE LIST*
%TA.AperFunction,Profile*%
%ADD10C,0.100000*%
%TD*%
%TA.AperFunction,ComponentPad*%
%ADD11C,0.650000*%
%TD*%
%TA.AperFunction,ComponentPad*%
%ADD12O,2.090000X0.930000*%
%TD*%
%TA.AperFunction,ComponentPad*%
%ADD13C,1.000000*%
%TD*%
%TA.AperFunction,ViaPad*%
%ADD14C,0.800000*%
%TD*%
%TA.AperFunction,ViaPad*%
%ADD15C,1.200000*%
%TD*%
%TA.AperFunction,ViaPad*%
%ADD16C,2.000000*%
%TD*%
%TA.AperFunction,ViaPad*%
%ADD17C,1.000000*%
%TD*%
%TA.AperFunction,ViaPad*%
%ADD18C,0.700000*%
%TD*%
%TA.AperFunction,ViaPad*%
%ADD19C,0.600000*%
%TD*%
G04 APERTURE END LIST*
D10*
X43410000Y-19400000D02*
X88800000Y-19400000D01*
X88800000Y-19400000D02*
X88800000Y-48900000D01*
X88800000Y-48900000D02*
X43410000Y-48900000D01*
X43410000Y-48900000D02*
X43410000Y-19400000D01*
D11*
%TO.N,GND*%
%TO.C,J1*%
X84237500Y-34760000D03*
X84237500Y-38760000D03*
D12*
X86337500Y-39590000D03*
X86337500Y-33910000D03*
%TD*%
D13*
%TO.N,GND*%
%TO.C,SW2*%
X50910000Y-46680000D03*
X52610000Y-46680000D03*
%TD*%
%TO.N,GND*%
%TO.C,SW5*%
X74810000Y-46700000D03*
X76510000Y-46700000D03*
%TD*%
%TO.N,GND*%
%TO.C,SW1*%
X83170000Y-46700000D03*
X81470000Y-46700000D03*
%TD*%
%TO.N,GND*%
%TO.C,SW3*%
X67620000Y-46700000D03*
X65920000Y-46700000D03*
%TD*%
D14*
%TO.N,GND*%
X72110000Y-30460000D03*
X63300000Y-46750000D03*
X85400000Y-22650000D03*
D15*
X68900000Y-37900000D03*
D14*
X70200000Y-38100000D03*
X70400000Y-43200000D03*
D16*
X86900000Y-21199999D03*
D14*
X45550000Y-30410000D03*
X48450000Y-47000000D03*
D15*
X79000000Y-33100000D03*
D17*
X81900000Y-35400000D03*
D14*
X79100000Y-44550000D03*
X85700000Y-44900000D03*
X63900000Y-42100000D03*
X48600000Y-45300000D03*
D15*
X86350000Y-32000000D03*
X86337907Y-41700667D03*
D16*
X45100000Y-46700000D03*
D17*
X65700000Y-38000000D03*
D14*
X59450000Y-35890000D03*
X73130000Y-29320000D03*
D16*
X86900000Y-46700000D03*
X45100000Y-21200000D03*
D14*
X53810000Y-34000000D03*
X85400000Y-30850000D03*
X77250000Y-20850000D03*
D17*
%TO.N,VCC*%
X48610000Y-44100000D03*
D14*
X72110000Y-34360000D03*
X74500000Y-27200000D03*
X59330000Y-34600000D03*
X71970000Y-31690000D03*
X70760000Y-22260000D03*
D17*
X67300000Y-38100000D03*
D14*
X74600000Y-24500000D03*
D17*
X74300000Y-40100000D03*
D14*
X61370000Y-23740000D03*
%TO.N,/DIG1*%
X59290000Y-33420000D03*
%TO.N,/DIG4*%
X55900000Y-31200000D03*
%TO.N,/DIG2*%
X53600000Y-31900000D03*
%TO.N,/DIG3*%
X51290000Y-34370000D03*
%TO.N,/A*%
X58050000Y-30350000D03*
%TO.N,/B*%
X55000000Y-29400000D03*
%TO.N,/C*%
X64510000Y-38260000D03*
%TO.N,/D*%
X61710000Y-45460000D03*
%TO.N,/E*%
X72410000Y-42860000D03*
%TO.N,/F*%
X66000000Y-28300000D03*
X66000000Y-31600000D03*
X55110000Y-38860000D03*
X55110000Y-40660000D03*
X66000000Y-35900000D03*
%TO.N,/G*%
X60410000Y-43760000D03*
%TO.N,/DP*%
X65010000Y-42860000D03*
D18*
%TO.N,/UD+*%
X82110000Y-36760000D03*
X80840000Y-38010000D03*
%TO.N,/P3.7*%
X70660000Y-29280000D03*
X70660000Y-27680000D03*
D14*
%TO.N,/P3.2*%
X77250000Y-40800000D03*
X51850000Y-47800000D03*
D19*
X70510000Y-33560000D03*
D14*
X79200000Y-47800000D03*
X70200000Y-46700000D03*
%TO.N,/P1.4*%
X59210000Y-42160000D03*
X60310000Y-33560000D03*
X59910000Y-38260000D03*
%TO.N,/P1.5*%
X61470000Y-38270000D03*
X60510000Y-42160000D03*
X61110000Y-32760000D03*
%TO.N,/P5.4*%
X62500000Y-38100000D03*
X62130000Y-33000000D03*
X68100000Y-43800000D03*
X63400000Y-43800000D03*
X62700000Y-42100000D03*
D19*
%TO.N,/TX*%
X71710000Y-35360000D03*
X72100000Y-36900000D03*
%TO.N,/P1.3*%
X59980000Y-30730000D03*
D14*
X56780000Y-31810000D03*
%TO.N,/P5.5*%
X67110000Y-35460000D03*
X82250000Y-47850000D03*
X76350000Y-43500000D03*
%TD*%
%TA.AperFunction,Conductor*%
%TO.N,GND*%
G36*
X87977121Y-20155002D02*
G01*
X88023614Y-20208658D01*
X88035000Y-20261000D01*
X88035000Y-48099000D01*
X88014998Y-48167121D01*
X87961342Y-48213614D01*
X87909000Y-48225000D01*
X83146556Y-48225000D01*
X83078435Y-48204998D01*
X83031942Y-48151342D01*
X83021838Y-48081068D01*
X83026296Y-48063819D01*
X83026004Y-48063744D01*
X83027757Y-48056918D01*
X83030257Y-48050336D01*
X83035859Y-48010476D01*
X83054700Y-47876416D01*
X83054700Y-47876411D01*
X83055251Y-47872493D01*
X83055565Y-47850000D01*
X83035546Y-47671528D01*
X83029427Y-47653955D01*
X82978803Y-47508584D01*
X82976485Y-47501927D01*
X82968478Y-47489112D01*
X82885049Y-47355599D01*
X82881316Y-47349625D01*
X82817771Y-47285635D01*
X82759733Y-47227190D01*
X82759729Y-47227187D01*
X82754770Y-47222193D01*
X82743761Y-47215206D01*
X82659157Y-47161515D01*
X82603136Y-47125963D01*
X82573352Y-47115357D01*
X82440586Y-47068081D01*
X82440581Y-47068080D01*
X82433951Y-47065719D01*
X82426965Y-47064886D01*
X82426961Y-47064885D01*
X82299177Y-47049648D01*
X82255624Y-47044455D01*
X82248621Y-47045191D01*
X82248620Y-47045191D01*
X82084025Y-47062490D01*
X82084021Y-47062491D01*
X82077017Y-47063227D01*
X82070346Y-47065498D01*
X81913677Y-47118832D01*
X81913674Y-47118833D01*
X81907007Y-47121103D01*
X81901009Y-47124793D01*
X81901007Y-47124794D01*
X81841318Y-47161515D01*
X81754045Y-47215206D01*
X81749014Y-47220132D01*
X81749011Y-47220135D01*
X81741807Y-47227190D01*
X81625732Y-47340859D01*
X81621913Y-47346784D01*
X81621912Y-47346786D01*
X81577838Y-47415176D01*
X81528446Y-47491817D01*
X81526037Y-47498437D01*
X81526035Y-47498440D01*
X81522343Y-47508584D01*
X81467022Y-47660578D01*
X81444514Y-47838753D01*
X81445201Y-47845760D01*
X81445201Y-47845763D01*
X81446005Y-47853963D01*
X81462039Y-48017486D01*
X81464262Y-48024168D01*
X81464263Y-48024174D01*
X81475924Y-48059228D01*
X81478447Y-48130180D01*
X81442210Y-48191232D01*
X81378718Y-48223002D01*
X81356366Y-48225000D01*
X80077563Y-48225000D01*
X80009442Y-48204998D01*
X79962949Y-48151342D01*
X79952845Y-48081068D01*
X79959775Y-48054257D01*
X79977756Y-48006922D01*
X79977758Y-48006916D01*
X79980257Y-48000336D01*
X79998781Y-47868532D01*
X80004700Y-47826416D01*
X80004700Y-47826411D01*
X80005251Y-47822493D01*
X80005565Y-47800000D01*
X79985546Y-47621528D01*
X79979427Y-47603955D01*
X79928803Y-47458584D01*
X79926485Y-47451927D01*
X79915043Y-47433615D01*
X79835049Y-47305599D01*
X79831316Y-47299625D01*
X79754892Y-47222666D01*
X79709733Y-47177190D01*
X79709729Y-47177187D01*
X79704770Y-47172193D01*
X79693761Y-47165206D01*
X79630081Y-47124794D01*
X79553136Y-47075963D01*
X79512898Y-47061635D01*
X79390586Y-47018081D01*
X79390581Y-47018080D01*
X79383951Y-47015719D01*
X79376965Y-47014886D01*
X79376961Y-47014885D01*
X79249177Y-46999648D01*
X79205624Y-46994455D01*
X79198621Y-46995191D01*
X79198620Y-46995191D01*
X79034025Y-47012490D01*
X79034021Y-47012491D01*
X79027017Y-47013227D01*
X79020346Y-47015498D01*
X78863677Y-47068832D01*
X78863674Y-47068833D01*
X78857007Y-47071103D01*
X78851009Y-47074793D01*
X78851007Y-47074794D01*
X78780526Y-47118154D01*
X78704045Y-47165206D01*
X78699014Y-47170132D01*
X78699011Y-47170135D01*
X78647953Y-47220135D01*
X78575732Y-47290859D01*
X78571913Y-47296784D01*
X78571912Y-47296786D01*
X78539689Y-47346786D01*
X78478446Y-47441817D01*
X78476037Y-47448437D01*
X78476035Y-47448440D01*
X78463953Y-47481636D01*
X78417022Y-47610578D01*
X78394514Y-47788753D01*
X78395201Y-47795760D01*
X78395201Y-47795763D01*
X78400104Y-47845763D01*
X78412039Y-47967486D01*
X78414262Y-47974168D01*
X78414262Y-47974169D01*
X78442557Y-48059229D01*
X78445079Y-48130181D01*
X78408841Y-48191233D01*
X78345349Y-48223002D01*
X78322998Y-48225000D01*
X52727563Y-48225000D01*
X52659442Y-48204998D01*
X52612949Y-48151342D01*
X52602845Y-48081068D01*
X52609775Y-48054257D01*
X52627756Y-48006922D01*
X52627758Y-48006916D01*
X52630257Y-48000336D01*
X52648781Y-47868532D01*
X52654700Y-47826416D01*
X52654700Y-47826411D01*
X52655251Y-47822493D01*
X52655565Y-47800000D01*
X52635546Y-47621528D01*
X52629427Y-47603955D01*
X52578803Y-47458584D01*
X52576485Y-47451927D01*
X52565043Y-47433615D01*
X52485049Y-47305599D01*
X52481316Y-47299625D01*
X52404892Y-47222666D01*
X52359733Y-47177190D01*
X52359729Y-47177187D01*
X52354770Y-47172193D01*
X52343761Y-47165206D01*
X52280081Y-47124794D01*
X52203136Y-47075963D01*
X52162898Y-47061635D01*
X52040586Y-47018081D01*
X52040581Y-47018080D01*
X52033951Y-47015719D01*
X52026965Y-47014886D01*
X52026961Y-47014885D01*
X51899177Y-46999648D01*
X51855624Y-46994455D01*
X51848621Y-46995191D01*
X51848620Y-46995191D01*
X51684025Y-47012490D01*
X51684021Y-47012491D01*
X51677017Y-47013227D01*
X51670346Y-47015498D01*
X51513677Y-47068832D01*
X51513674Y-47068833D01*
X51507007Y-47071103D01*
X51501009Y-47074793D01*
X51501007Y-47074794D01*
X51430526Y-47118155D01*
X51354045Y-47165206D01*
X51349014Y-47170132D01*
X51349011Y-47170135D01*
X51297953Y-47220135D01*
X51225732Y-47290859D01*
X51221913Y-47296784D01*
X51221912Y-47296786D01*
X51189689Y-47346786D01*
X51128446Y-47441817D01*
X51126037Y-47448437D01*
X51126035Y-47448440D01*
X51113953Y-47481636D01*
X51067022Y-47610578D01*
X51044514Y-47788753D01*
X51045201Y-47795760D01*
X51045201Y-47795763D01*
X51050104Y-47845763D01*
X51062039Y-47967486D01*
X51064262Y-47974168D01*
X51064262Y-47974169D01*
X51092557Y-48059229D01*
X51095079Y-48130181D01*
X51058841Y-48191233D01*
X50995349Y-48223002D01*
X50972998Y-48225000D01*
X44201000Y-48225000D01*
X44132879Y-48204998D01*
X44086386Y-48151342D01*
X44075000Y-48099000D01*
X44075000Y-46688753D01*
X69394514Y-46688753D01*
X69395201Y-46695760D01*
X69395201Y-46695763D01*
X69396005Y-46703963D01*
X69412039Y-46867486D01*
X69414262Y-46874168D01*
X69414262Y-46874169D01*
X69462135Y-47018081D01*
X69468726Y-47037896D01*
X69472373Y-47043918D01*
X69548813Y-47170135D01*
X69561759Y-47191512D01*
X69686514Y-47320699D01*
X69836789Y-47419036D01*
X70005116Y-47481636D01*
X70012097Y-47482567D01*
X70012099Y-47482568D01*
X70176149Y-47504457D01*
X70176153Y-47504457D01*
X70183130Y-47505388D01*
X70190142Y-47504750D01*
X70190146Y-47504750D01*
X70354960Y-47489751D01*
X70354961Y-47489751D01*
X70361981Y-47489112D01*
X70532782Y-47433615D01*
X70663656Y-47355599D01*
X70680992Y-47345265D01*
X70680994Y-47345264D01*
X70687044Y-47341657D01*
X70817099Y-47217807D01*
X70821280Y-47211515D01*
X70911340Y-47075963D01*
X70916483Y-47068222D01*
X70944225Y-46995191D01*
X70977757Y-46906919D01*
X70977758Y-46906914D01*
X70980257Y-46900336D01*
X71005251Y-46722493D01*
X71005565Y-46700000D01*
X70985546Y-46521528D01*
X70979427Y-46503955D01*
X70928803Y-46358584D01*
X70926485Y-46351927D01*
X70857568Y-46241636D01*
X70835049Y-46205599D01*
X70831316Y-46199625D01*
X70737612Y-46105265D01*
X70709733Y-46077190D01*
X70709729Y-46077187D01*
X70704770Y-46072193D01*
X70693761Y-46065206D01*
X70563698Y-45982666D01*
X70553136Y-45975963D01*
X70484470Y-45951512D01*
X70390586Y-45918081D01*
X70390581Y-45918080D01*
X70383951Y-45915719D01*
X70376965Y-45914886D01*
X70376961Y-45914885D01*
X70249177Y-45899648D01*
X70205624Y-45894455D01*
X70198621Y-45895191D01*
X70198620Y-45895191D01*
X70034025Y-45912490D01*
X70034021Y-45912491D01*
X70027017Y-45913227D01*
X70020346Y-45915498D01*
X69863677Y-45968832D01*
X69863674Y-45968833D01*
X69857007Y-45971103D01*
X69851009Y-45974793D01*
X69851007Y-45974794D01*
X69780526Y-46018155D01*
X69704045Y-46065206D01*
X69699014Y-46070132D01*
X69699011Y-46070135D01*
X69684284Y-46084557D01*
X69575732Y-46190859D01*
X69571913Y-46196784D01*
X69571912Y-46196786D01*
X69528301Y-46264457D01*
X69478446Y-46341817D01*
X69417022Y-46510578D01*
X69394514Y-46688753D01*
X44075000Y-46688753D01*
X44075000Y-45448753D01*
X60904514Y-45448753D01*
X60905201Y-45455760D01*
X60905201Y-45455763D01*
X60906005Y-45463963D01*
X60922039Y-45627486D01*
X60924262Y-45634168D01*
X60924262Y-45634169D01*
X60932967Y-45660336D01*
X60978726Y-45797896D01*
X60982373Y-45803918D01*
X61051513Y-45918081D01*
X61071759Y-45951512D01*
X61076648Y-45956575D01*
X61076649Y-45956576D01*
X61101844Y-45982666D01*
X61196514Y-46080699D01*
X61346789Y-46179036D01*
X61515116Y-46241636D01*
X61522097Y-46242567D01*
X61522099Y-46242568D01*
X61686149Y-46264457D01*
X61686153Y-46264457D01*
X61693130Y-46265388D01*
X61700142Y-46264750D01*
X61700146Y-46264750D01*
X61864960Y-46249751D01*
X61864961Y-46249751D01*
X61871981Y-46249112D01*
X62042782Y-46193615D01*
X62073714Y-46175176D01*
X62190992Y-46105265D01*
X62190994Y-46105264D01*
X62197044Y-46101657D01*
X62327099Y-45977807D01*
X62344570Y-45951512D01*
X62422582Y-45834093D01*
X62426483Y-45828222D01*
X62441168Y-45789564D01*
X62487757Y-45666919D01*
X62487758Y-45666914D01*
X62490257Y-45660336D01*
X62515251Y-45482493D01*
X62515565Y-45460000D01*
X62495546Y-45281528D01*
X62489427Y-45263955D01*
X62438803Y-45118584D01*
X62436485Y-45111927D01*
X62341316Y-44959625D01*
X62262513Y-44880270D01*
X62219733Y-44837190D01*
X62219729Y-44837187D01*
X62214770Y-44832193D01*
X62203761Y-44825206D01*
X62156860Y-44795442D01*
X62063136Y-44735963D01*
X62033352Y-44725357D01*
X61900586Y-44678081D01*
X61900581Y-44678080D01*
X61893951Y-44675719D01*
X61886965Y-44674886D01*
X61886961Y-44674885D01*
X61759177Y-44659648D01*
X61715624Y-44654455D01*
X61708621Y-44655191D01*
X61708620Y-44655191D01*
X61544025Y-44672490D01*
X61544021Y-44672491D01*
X61537017Y-44673227D01*
X61530346Y-44675498D01*
X61373677Y-44728832D01*
X61373674Y-44728833D01*
X61367007Y-44731103D01*
X61361009Y-44734793D01*
X61361007Y-44734794D01*
X61307056Y-44767985D01*
X61214045Y-44825206D01*
X61209014Y-44830132D01*
X61209011Y-44830135D01*
X61201807Y-44837190D01*
X61085732Y-44950859D01*
X61081913Y-44956784D01*
X61081912Y-44956786D01*
X61053740Y-45000500D01*
X60988446Y-45101817D01*
X60927022Y-45270578D01*
X60904514Y-45448753D01*
X44075000Y-45448753D01*
X44075000Y-44100000D01*
X47704540Y-44100000D01*
X47724326Y-44288256D01*
X47782821Y-44468284D01*
X47786124Y-44474006D01*
X47786125Y-44474007D01*
X47829487Y-44549112D01*
X47877467Y-44632216D01*
X47881885Y-44637123D01*
X47881886Y-44637124D01*
X47966506Y-44731103D01*
X48004129Y-44772888D01*
X48009468Y-44776767D01*
X48071059Y-44821515D01*
X48157270Y-44884151D01*
X48330197Y-44961144D01*
X48428212Y-44981978D01*
X48508897Y-44999128D01*
X48508901Y-44999128D01*
X48515354Y-45000500D01*
X48704646Y-45000500D01*
X48711099Y-44999128D01*
X48711103Y-44999128D01*
X48791788Y-44981978D01*
X48889803Y-44961144D01*
X49062730Y-44884151D01*
X49148942Y-44821515D01*
X49210532Y-44776767D01*
X49215871Y-44772888D01*
X49253495Y-44731103D01*
X49338114Y-44637124D01*
X49338115Y-44637123D01*
X49342533Y-44632216D01*
X49390513Y-44549112D01*
X49433875Y-44474007D01*
X49433876Y-44474006D01*
X49437179Y-44468284D01*
X49495674Y-44288256D01*
X49515460Y-44100000D01*
X49504590Y-43996576D01*
X49496364Y-43918307D01*
X49496364Y-43918305D01*
X49495674Y-43911744D01*
X49437179Y-43731716D01*
X49422863Y-43706919D01*
X49345836Y-43573505D01*
X49342533Y-43567784D01*
X49298186Y-43518532D01*
X49220286Y-43432015D01*
X49220284Y-43432014D01*
X49215871Y-43427112D01*
X49148008Y-43377807D01*
X49068072Y-43319730D01*
X49068071Y-43319729D01*
X49062730Y-43315849D01*
X48889803Y-43238856D01*
X48791788Y-43218022D01*
X48711103Y-43200872D01*
X48711099Y-43200872D01*
X48704646Y-43199500D01*
X48515354Y-43199500D01*
X48508901Y-43200872D01*
X48508897Y-43200872D01*
X48428212Y-43218022D01*
X48330197Y-43238856D01*
X48157270Y-43315849D01*
X48151929Y-43319729D01*
X48151928Y-43319730D01*
X48071992Y-43377807D01*
X48004129Y-43427112D01*
X47999716Y-43432014D01*
X47999714Y-43432015D01*
X47921814Y-43518532D01*
X47877467Y-43567784D01*
X47874164Y-43573505D01*
X47797138Y-43706919D01*
X47782821Y-43731716D01*
X47724326Y-43911744D01*
X47723636Y-43918305D01*
X47723636Y-43918307D01*
X47715410Y-43996576D01*
X47704540Y-44100000D01*
X44075000Y-44100000D01*
X44075000Y-42148753D01*
X58404514Y-42148753D01*
X58405201Y-42155760D01*
X58405201Y-42155763D01*
X58406005Y-42163963D01*
X58422039Y-42327486D01*
X58424262Y-42334168D01*
X58424262Y-42334169D01*
X58432967Y-42360336D01*
X58478726Y-42497896D01*
X58482373Y-42503918D01*
X58551347Y-42617807D01*
X58571759Y-42651512D01*
X58576648Y-42656575D01*
X58576649Y-42656576D01*
X58630645Y-42712490D01*
X58696514Y-42780699D01*
X58846789Y-42879036D01*
X59015116Y-42941636D01*
X59022097Y-42942567D01*
X59022099Y-42942568D01*
X59186149Y-42964457D01*
X59186153Y-42964457D01*
X59193130Y-42965388D01*
X59200142Y-42964750D01*
X59200146Y-42964750D01*
X59364960Y-42949751D01*
X59364961Y-42949751D01*
X59371981Y-42949112D01*
X59542782Y-42893615D01*
X59561314Y-42882568D01*
X59690992Y-42805265D01*
X59690994Y-42805264D01*
X59697044Y-42801657D01*
X59772982Y-42729342D01*
X59836107Y-42696850D01*
X59906778Y-42703643D01*
X59950511Y-42733062D01*
X59996514Y-42780699D01*
X60022805Y-42797903D01*
X60061771Y-42823402D01*
X60107820Y-42877439D01*
X60117343Y-42947794D01*
X60087318Y-43012129D01*
X60058800Y-43036152D01*
X59914045Y-43125206D01*
X59909014Y-43130132D01*
X59909011Y-43130135D01*
X59846883Y-43190976D01*
X59785732Y-43250859D01*
X59781913Y-43256784D01*
X59781912Y-43256786D01*
X59740189Y-43321528D01*
X59688446Y-43401817D01*
X59686037Y-43408437D01*
X59686035Y-43408440D01*
X59670207Y-43451927D01*
X59627022Y-43570578D01*
X59604514Y-43748753D01*
X59605201Y-43755760D01*
X59605201Y-43755763D01*
X59606005Y-43763963D01*
X59622039Y-43927486D01*
X59624262Y-43934168D01*
X59624262Y-43934169D01*
X59646273Y-44000336D01*
X59678726Y-44097896D01*
X59682373Y-44103918D01*
X59762239Y-44235792D01*
X59771759Y-44251512D01*
X59776648Y-44256575D01*
X59776649Y-44256576D01*
X59823787Y-44305388D01*
X59896514Y-44380699D01*
X60046789Y-44479036D01*
X60215116Y-44541636D01*
X60222097Y-44542567D01*
X60222099Y-44542568D01*
X60386149Y-44564457D01*
X60386153Y-44564457D01*
X60393130Y-44565388D01*
X60400142Y-44564750D01*
X60400146Y-44564750D01*
X60564960Y-44549751D01*
X60564961Y-44549751D01*
X60571981Y-44549112D01*
X60742782Y-44493615D01*
X60775675Y-44474007D01*
X60890992Y-44405265D01*
X60890994Y-44405264D01*
X60897044Y-44401657D01*
X61027099Y-44277807D01*
X61044570Y-44251512D01*
X61104283Y-44161635D01*
X61126483Y-44128222D01*
X61172562Y-44006919D01*
X61187757Y-43966919D01*
X61187758Y-43966914D01*
X61190257Y-43960336D01*
X61197086Y-43911744D01*
X61214700Y-43786416D01*
X61214700Y-43786411D01*
X61215251Y-43782493D01*
X61215565Y-43760000D01*
X61195546Y-43581528D01*
X61189427Y-43563955D01*
X61165680Y-43495763D01*
X61136485Y-43411927D01*
X61115165Y-43377807D01*
X61045049Y-43265599D01*
X61041316Y-43259625D01*
X60954492Y-43172193D01*
X60919733Y-43137190D01*
X60919729Y-43137187D01*
X60914770Y-43132193D01*
X60903761Y-43125206D01*
X60858979Y-43096787D01*
X60812180Y-43043398D01*
X60801675Y-42973183D01*
X60830799Y-42908435D01*
X60861976Y-42882173D01*
X60863119Y-42881492D01*
X60943434Y-42833615D01*
X60990992Y-42805265D01*
X60990994Y-42805264D01*
X60997044Y-42801657D01*
X61127099Y-42677807D01*
X61136303Y-42663955D01*
X61222582Y-42534093D01*
X61226483Y-42528222D01*
X61263332Y-42431217D01*
X61287757Y-42366919D01*
X61287758Y-42366914D01*
X61290257Y-42360336D01*
X61297764Y-42306919D01*
X61314700Y-42186416D01*
X61314700Y-42186411D01*
X61315251Y-42182493D01*
X61315565Y-42160000D01*
X61307573Y-42088753D01*
X61894514Y-42088753D01*
X61895201Y-42095760D01*
X61895201Y-42095763D01*
X61899712Y-42141766D01*
X61912039Y-42267486D01*
X61914262Y-42274168D01*
X61914262Y-42274169D01*
X61942926Y-42360336D01*
X61968726Y-42437896D01*
X61972373Y-42443918D01*
X62009942Y-42505951D01*
X62061759Y-42591512D01*
X62186514Y-42720699D01*
X62336789Y-42819036D01*
X62505116Y-42881636D01*
X62512097Y-42882567D01*
X62512099Y-42882568D01*
X62676149Y-42904457D01*
X62676153Y-42904457D01*
X62683130Y-42905388D01*
X62690142Y-42904750D01*
X62690146Y-42904750D01*
X62854960Y-42889751D01*
X62854961Y-42889751D01*
X62861981Y-42889112D01*
X62871601Y-42885986D01*
X62897293Y-42877639D01*
X62968260Y-42875612D01*
X63029058Y-42912275D01*
X63060383Y-42975987D01*
X63052289Y-43046521D01*
X63002250Y-43104790D01*
X62904045Y-43165206D01*
X62899014Y-43170132D01*
X62899011Y-43170135D01*
X62891807Y-43177190D01*
X62775732Y-43290859D01*
X62771913Y-43296784D01*
X62771912Y-43296786D01*
X62740525Y-43345489D01*
X62678446Y-43441817D01*
X62676037Y-43448437D01*
X62676035Y-43448440D01*
X62658811Y-43495763D01*
X62617022Y-43610578D01*
X62594514Y-43788753D01*
X62595201Y-43795760D01*
X62595201Y-43795763D01*
X62599923Y-43843918D01*
X62612039Y-43967486D01*
X62614262Y-43974168D01*
X62614262Y-43974169D01*
X62661320Y-44115631D01*
X62668726Y-44137896D01*
X62672373Y-44143918D01*
X62756402Y-44282666D01*
X62761759Y-44291512D01*
X62886514Y-44420699D01*
X63036789Y-44519036D01*
X63205116Y-44581636D01*
X63212097Y-44582567D01*
X63212099Y-44582568D01*
X63376149Y-44604457D01*
X63376153Y-44604457D01*
X63383130Y-44605388D01*
X63390142Y-44604750D01*
X63390146Y-44604750D01*
X63554960Y-44589751D01*
X63554961Y-44589751D01*
X63561981Y-44589112D01*
X63732782Y-44533615D01*
X63832776Y-44474007D01*
X63880992Y-44445265D01*
X63880994Y-44445264D01*
X63887044Y-44441657D01*
X64017099Y-44317807D01*
X64034570Y-44291512D01*
X64075432Y-44230008D01*
X64116483Y-44168222D01*
X64134535Y-44120699D01*
X64177757Y-44006919D01*
X64177758Y-44006914D01*
X64180257Y-44000336D01*
X64184874Y-43967486D01*
X64204700Y-43826416D01*
X64204700Y-43826411D01*
X64205251Y-43822493D01*
X64205565Y-43800000D01*
X64204303Y-43788753D01*
X67294514Y-43788753D01*
X67295201Y-43795760D01*
X67295201Y-43795763D01*
X67299923Y-43843918D01*
X67312039Y-43967486D01*
X67314262Y-43974168D01*
X67314262Y-43974169D01*
X67361320Y-44115631D01*
X67368726Y-44137896D01*
X67372373Y-44143918D01*
X67456402Y-44282666D01*
X67461759Y-44291512D01*
X67586514Y-44420699D01*
X67736789Y-44519036D01*
X67905116Y-44581636D01*
X67912097Y-44582567D01*
X67912099Y-44582568D01*
X68076149Y-44604457D01*
X68076153Y-44604457D01*
X68083130Y-44605388D01*
X68090142Y-44604750D01*
X68090146Y-44604750D01*
X68254960Y-44589751D01*
X68254961Y-44589751D01*
X68261981Y-44589112D01*
X68432782Y-44533615D01*
X68532776Y-44474007D01*
X68580992Y-44445265D01*
X68580994Y-44445264D01*
X68587044Y-44441657D01*
X68717099Y-44317807D01*
X68734570Y-44291512D01*
X68775432Y-44230008D01*
X68816483Y-44168222D01*
X68834535Y-44120699D01*
X68877757Y-44006919D01*
X68877758Y-44006914D01*
X68880257Y-44000336D01*
X68884874Y-43967486D01*
X68904700Y-43826416D01*
X68904700Y-43826411D01*
X68905251Y-43822493D01*
X68905565Y-43800000D01*
X68885546Y-43621528D01*
X68879427Y-43603955D01*
X68852425Y-43526416D01*
X68826485Y-43451927D01*
X68739776Y-43313163D01*
X68735049Y-43305599D01*
X68731316Y-43299625D01*
X68666240Y-43234093D01*
X68609733Y-43177190D01*
X68609729Y-43177187D01*
X68604770Y-43172193D01*
X68593761Y-43165206D01*
X68485949Y-43096787D01*
X68453136Y-43075963D01*
X68389671Y-43053364D01*
X68290586Y-43018081D01*
X68290581Y-43018080D01*
X68283951Y-43015719D01*
X68276965Y-43014886D01*
X68276961Y-43014885D01*
X68148981Y-42999625D01*
X68105624Y-42994455D01*
X68098621Y-42995191D01*
X68098620Y-42995191D01*
X67934025Y-43012490D01*
X67934021Y-43012491D01*
X67927017Y-43013227D01*
X67920346Y-43015498D01*
X67763677Y-43068832D01*
X67763674Y-43068833D01*
X67757007Y-43071103D01*
X67751009Y-43074793D01*
X67751007Y-43074794D01*
X67715258Y-43096787D01*
X67604045Y-43165206D01*
X67599014Y-43170132D01*
X67599011Y-43170135D01*
X67591807Y-43177190D01*
X67475732Y-43290859D01*
X67471913Y-43296784D01*
X67471912Y-43296786D01*
X67440525Y-43345489D01*
X67378446Y-43441817D01*
X67376037Y-43448437D01*
X67376035Y-43448440D01*
X67358811Y-43495763D01*
X67317022Y-43610578D01*
X67294514Y-43788753D01*
X64204303Y-43788753D01*
X64185546Y-43621528D01*
X64179427Y-43603955D01*
X64152425Y-43526416D01*
X64126485Y-43451927D01*
X64039776Y-43313163D01*
X64035049Y-43305599D01*
X64031316Y-43299625D01*
X63966240Y-43234093D01*
X63909733Y-43177190D01*
X63909729Y-43177187D01*
X63904770Y-43172193D01*
X63893761Y-43165206D01*
X63785949Y-43096787D01*
X63753136Y-43075963D01*
X63689671Y-43053364D01*
X63590586Y-43018081D01*
X63590581Y-43018080D01*
X63583951Y-43015719D01*
X63576965Y-43014886D01*
X63576961Y-43014885D01*
X63448981Y-42999625D01*
X63405624Y-42994455D01*
X63398621Y-42995191D01*
X63398620Y-42995191D01*
X63234025Y-43012490D01*
X63234021Y-43012491D01*
X63227017Y-43013227D01*
X63220350Y-43015497D01*
X63220344Y-43015498D01*
X63206578Y-43020185D01*
X63135646Y-43023204D01*
X63074341Y-42987395D01*
X63042129Y-42924127D01*
X63049235Y-42853487D01*
X63052997Y-42848753D01*
X64204514Y-42848753D01*
X64205201Y-42855760D01*
X64205201Y-42855763D01*
X64213277Y-42938120D01*
X64222039Y-43027486D01*
X64224262Y-43034168D01*
X64224262Y-43034169D01*
X64267852Y-43165206D01*
X64278726Y-43197896D01*
X64282373Y-43203918D01*
X64350161Y-43315849D01*
X64371759Y-43351512D01*
X64496514Y-43480699D01*
X64646789Y-43579036D01*
X64815116Y-43641636D01*
X64822097Y-43642567D01*
X64822099Y-43642568D01*
X64986149Y-43664457D01*
X64986153Y-43664457D01*
X64993130Y-43665388D01*
X65000142Y-43664750D01*
X65000146Y-43664750D01*
X65164960Y-43649751D01*
X65164961Y-43649751D01*
X65171981Y-43649112D01*
X65342782Y-43593615D01*
X65386114Y-43567784D01*
X65490992Y-43505265D01*
X65490994Y-43505264D01*
X65497044Y-43501657D01*
X65627099Y-43377807D01*
X65644570Y-43351512D01*
X65707505Y-43256786D01*
X65726483Y-43228222D01*
X65745868Y-43177190D01*
X65787757Y-43066919D01*
X65787758Y-43066914D01*
X65790257Y-43060336D01*
X65792199Y-43046521D01*
X65814700Y-42886416D01*
X65814700Y-42886411D01*
X65815251Y-42882493D01*
X65815424Y-42870135D01*
X65815510Y-42863963D01*
X65815510Y-42863958D01*
X65815565Y-42860000D01*
X65814303Y-42848753D01*
X71604514Y-42848753D01*
X71605201Y-42855760D01*
X71605201Y-42855763D01*
X71613277Y-42938120D01*
X71622039Y-43027486D01*
X71624262Y-43034168D01*
X71624262Y-43034169D01*
X71667852Y-43165206D01*
X71678726Y-43197896D01*
X71682373Y-43203918D01*
X71750161Y-43315849D01*
X71771759Y-43351512D01*
X71896514Y-43480699D01*
X72046789Y-43579036D01*
X72215116Y-43641636D01*
X72222097Y-43642567D01*
X72222099Y-43642568D01*
X72386149Y-43664457D01*
X72386153Y-43664457D01*
X72393130Y-43665388D01*
X72400142Y-43664750D01*
X72400146Y-43664750D01*
X72564960Y-43649751D01*
X72564961Y-43649751D01*
X72571981Y-43649112D01*
X72742782Y-43593615D01*
X72786114Y-43567784D01*
X72890992Y-43505265D01*
X72890994Y-43505264D01*
X72897044Y-43501657D01*
X72910595Y-43488753D01*
X75544514Y-43488753D01*
X75545201Y-43495760D01*
X75545201Y-43495763D01*
X75545779Y-43501657D01*
X75562039Y-43667486D01*
X75564262Y-43674168D01*
X75564262Y-43674169D01*
X75612285Y-43818532D01*
X75618726Y-43837896D01*
X75622373Y-43843918D01*
X75701256Y-43974169D01*
X75711759Y-43991512D01*
X75836514Y-44120699D01*
X75986789Y-44219036D01*
X76155116Y-44281636D01*
X76162097Y-44282567D01*
X76162099Y-44282568D01*
X76326149Y-44304457D01*
X76326153Y-44304457D01*
X76333130Y-44305388D01*
X76340142Y-44304750D01*
X76340146Y-44304750D01*
X76504960Y-44289751D01*
X76504961Y-44289751D01*
X76511981Y-44289112D01*
X76682782Y-44233615D01*
X76792481Y-44168222D01*
X76830992Y-44145265D01*
X76830994Y-44145264D01*
X76837044Y-44141657D01*
X76967099Y-44017807D01*
X76984570Y-43991512D01*
X77027108Y-43927486D01*
X77066483Y-43868222D01*
X77083854Y-43822493D01*
X77127757Y-43706919D01*
X77127758Y-43706914D01*
X77130257Y-43700336D01*
X77135258Y-43664750D01*
X77154700Y-43526416D01*
X77154700Y-43526411D01*
X77155251Y-43522493D01*
X77155565Y-43500000D01*
X77135546Y-43321528D01*
X77129427Y-43303955D01*
X77093529Y-43200872D01*
X77076485Y-43151927D01*
X77057482Y-43121515D01*
X76985049Y-43005599D01*
X76981316Y-42999625D01*
X76906343Y-42924127D01*
X76859733Y-42877190D01*
X76859729Y-42877187D01*
X76854770Y-42872193D01*
X76843761Y-42865206D01*
X76771008Y-42819036D01*
X76703136Y-42775963D01*
X76673352Y-42765357D01*
X76540586Y-42718081D01*
X76540581Y-42718080D01*
X76533951Y-42715719D01*
X76526965Y-42714886D01*
X76526961Y-42714885D01*
X76399177Y-42699648D01*
X76355624Y-42694455D01*
X76348621Y-42695191D01*
X76348620Y-42695191D01*
X76184025Y-42712490D01*
X76184021Y-42712491D01*
X76177017Y-42713227D01*
X76170346Y-42715498D01*
X76013677Y-42768832D01*
X76013674Y-42768833D01*
X76007007Y-42771103D01*
X76001009Y-42774793D01*
X76001007Y-42774794D01*
X75935367Y-42815176D01*
X75854045Y-42865206D01*
X75849014Y-42870132D01*
X75849011Y-42870135D01*
X75793877Y-42924127D01*
X75725732Y-42990859D01*
X75721913Y-42996784D01*
X75721912Y-42996786D01*
X75634648Y-43132193D01*
X75628446Y-43141817D01*
X75626037Y-43148437D01*
X75626035Y-43148440D01*
X75619933Y-43165206D01*
X75567022Y-43310578D01*
X75544514Y-43488753D01*
X72910595Y-43488753D01*
X73027099Y-43377807D01*
X73044570Y-43351512D01*
X73107505Y-43256786D01*
X73126483Y-43228222D01*
X73145868Y-43177190D01*
X73187757Y-43066919D01*
X73187758Y-43066914D01*
X73190257Y-43060336D01*
X73192199Y-43046521D01*
X73214700Y-42886416D01*
X73214700Y-42886411D01*
X73215251Y-42882493D01*
X73215424Y-42870135D01*
X73215510Y-42863963D01*
X73215510Y-42863958D01*
X73215565Y-42860000D01*
X73195546Y-42681528D01*
X73189427Y-42663955D01*
X73142159Y-42528222D01*
X73136485Y-42511927D01*
X73131481Y-42503918D01*
X73045049Y-42365599D01*
X73041316Y-42359625D01*
X72949818Y-42267486D01*
X72919733Y-42237190D01*
X72919729Y-42237187D01*
X72914770Y-42232193D01*
X72903761Y-42225206D01*
X72830214Y-42178532D01*
X72763136Y-42135963D01*
X72714184Y-42118532D01*
X72600586Y-42078081D01*
X72600581Y-42078080D01*
X72593951Y-42075719D01*
X72586965Y-42074886D01*
X72586961Y-42074885D01*
X72459177Y-42059648D01*
X72415624Y-42054455D01*
X72408621Y-42055191D01*
X72408620Y-42055191D01*
X72244025Y-42072490D01*
X72244021Y-42072491D01*
X72237017Y-42073227D01*
X72230346Y-42075498D01*
X72073677Y-42128832D01*
X72073674Y-42128833D01*
X72067007Y-42131103D01*
X72061009Y-42134793D01*
X72061007Y-42134794D01*
X72038317Y-42148753D01*
X71914045Y-42225206D01*
X71909014Y-42230132D01*
X71909011Y-42230135D01*
X71901807Y-42237190D01*
X71785732Y-42350859D01*
X71781913Y-42356784D01*
X71781912Y-42356786D01*
X71706313Y-42474093D01*
X71688446Y-42501817D01*
X71686037Y-42508437D01*
X71686035Y-42508440D01*
X71678835Y-42528222D01*
X71627022Y-42670578D01*
X71604514Y-42848753D01*
X65814303Y-42848753D01*
X65795546Y-42681528D01*
X65789427Y-42663955D01*
X65742159Y-42528222D01*
X65736485Y-42511927D01*
X65731481Y-42503918D01*
X65645049Y-42365599D01*
X65641316Y-42359625D01*
X65549818Y-42267486D01*
X65519733Y-42237190D01*
X65519729Y-42237187D01*
X65514770Y-42232193D01*
X65503761Y-42225206D01*
X65430214Y-42178532D01*
X65363136Y-42135963D01*
X65314184Y-42118532D01*
X65200586Y-42078081D01*
X65200581Y-42078080D01*
X65193951Y-42075719D01*
X65186965Y-42074886D01*
X65186961Y-42074885D01*
X65059177Y-42059648D01*
X65015624Y-42054455D01*
X65008621Y-42055191D01*
X65008620Y-42055191D01*
X64844025Y-42072490D01*
X64844021Y-42072491D01*
X64837017Y-42073227D01*
X64830346Y-42075498D01*
X64673677Y-42128832D01*
X64673674Y-42128833D01*
X64667007Y-42131103D01*
X64661009Y-42134793D01*
X64661007Y-42134794D01*
X64638317Y-42148753D01*
X64514045Y-42225206D01*
X64509014Y-42230132D01*
X64509011Y-42230135D01*
X64501807Y-42237190D01*
X64385732Y-42350859D01*
X64381913Y-42356784D01*
X64381912Y-42356786D01*
X64306313Y-42474093D01*
X64288446Y-42501817D01*
X64286037Y-42508437D01*
X64286035Y-42508440D01*
X64278835Y-42528222D01*
X64227022Y-42670578D01*
X64204514Y-42848753D01*
X63052997Y-42848753D01*
X63093404Y-42797903D01*
X63101453Y-42792679D01*
X63115078Y-42784557D01*
X63187044Y-42741657D01*
X63317099Y-42617807D01*
X63334570Y-42591512D01*
X63376619Y-42528222D01*
X63416483Y-42468222D01*
X63431168Y-42429564D01*
X63477757Y-42306919D01*
X63477758Y-42306914D01*
X63480257Y-42300336D01*
X63490123Y-42230135D01*
X63504700Y-42126416D01*
X63504700Y-42126411D01*
X63505251Y-42122493D01*
X63505565Y-42100000D01*
X63485546Y-41921528D01*
X63479427Y-41903955D01*
X63428803Y-41758584D01*
X63426485Y-41751927D01*
X63387893Y-41690166D01*
X63335049Y-41605599D01*
X63331316Y-41599625D01*
X63260604Y-41528418D01*
X63209733Y-41477190D01*
X63209729Y-41477187D01*
X63204770Y-41472193D01*
X63193761Y-41465206D01*
X63129708Y-41424557D01*
X63053136Y-41375963D01*
X62995077Y-41355289D01*
X62890586Y-41318081D01*
X62890581Y-41318080D01*
X62883951Y-41315719D01*
X62876965Y-41314886D01*
X62876961Y-41314885D01*
X62749177Y-41299648D01*
X62705624Y-41294455D01*
X62698621Y-41295191D01*
X62698620Y-41295191D01*
X62534025Y-41312490D01*
X62534021Y-41312491D01*
X62527017Y-41313227D01*
X62520346Y-41315498D01*
X62363677Y-41368832D01*
X62363674Y-41368833D01*
X62357007Y-41371103D01*
X62351009Y-41374793D01*
X62351007Y-41374794D01*
X62284628Y-41415631D01*
X62204045Y-41465206D01*
X62199014Y-41470132D01*
X62199011Y-41470135D01*
X62191807Y-41477190D01*
X62075732Y-41590859D01*
X62071913Y-41596784D01*
X62071912Y-41596786D01*
X62034636Y-41654627D01*
X61978446Y-41741817D01*
X61917022Y-41910578D01*
X61894514Y-42088753D01*
X61307573Y-42088753D01*
X61295546Y-41981528D01*
X61289427Y-41963955D01*
X61238803Y-41818584D01*
X61236485Y-41811927D01*
X61141316Y-41659625D01*
X61070634Y-41588448D01*
X61019733Y-41537190D01*
X61019729Y-41537187D01*
X61014770Y-41532193D01*
X61003761Y-41525206D01*
X60916982Y-41470135D01*
X60863136Y-41435963D01*
X60806037Y-41415631D01*
X60700586Y-41378081D01*
X60700581Y-41378080D01*
X60693951Y-41375719D01*
X60686965Y-41374886D01*
X60686961Y-41374885D01*
X60559177Y-41359648D01*
X60515624Y-41354455D01*
X60508621Y-41355191D01*
X60508620Y-41355191D01*
X60344025Y-41372490D01*
X60344021Y-41372491D01*
X60337017Y-41373227D01*
X60330346Y-41375498D01*
X60173677Y-41428832D01*
X60173674Y-41428833D01*
X60167007Y-41431103D01*
X60161009Y-41434793D01*
X60161007Y-41434794D01*
X60148371Y-41442568D01*
X60014045Y-41525206D01*
X60009014Y-41530132D01*
X60009011Y-41530135D01*
X59948197Y-41589689D01*
X59885532Y-41623059D01*
X59814774Y-41617253D01*
X59770634Y-41588448D01*
X59719737Y-41537194D01*
X59719732Y-41537190D01*
X59714770Y-41532193D01*
X59703761Y-41525206D01*
X59616982Y-41470135D01*
X59563136Y-41435963D01*
X59506037Y-41415631D01*
X59400586Y-41378081D01*
X59400581Y-41378080D01*
X59393951Y-41375719D01*
X59386965Y-41374886D01*
X59386961Y-41374885D01*
X59259177Y-41359648D01*
X59215624Y-41354455D01*
X59208621Y-41355191D01*
X59208620Y-41355191D01*
X59044025Y-41372490D01*
X59044021Y-41372491D01*
X59037017Y-41373227D01*
X59030346Y-41375498D01*
X58873677Y-41428832D01*
X58873674Y-41428833D01*
X58867007Y-41431103D01*
X58861009Y-41434793D01*
X58861007Y-41434794D01*
X58848371Y-41442568D01*
X58714045Y-41525206D01*
X58709014Y-41530132D01*
X58709011Y-41530135D01*
X58701807Y-41537190D01*
X58585732Y-41650859D01*
X58581913Y-41656784D01*
X58581912Y-41656786D01*
X58560400Y-41690166D01*
X58488446Y-41801817D01*
X58427022Y-41970578D01*
X58404514Y-42148753D01*
X44075000Y-42148753D01*
X44075000Y-40648753D01*
X54304514Y-40648753D01*
X54305201Y-40655760D01*
X54305201Y-40655763D01*
X54306005Y-40663963D01*
X54322039Y-40827486D01*
X54324262Y-40834168D01*
X54324262Y-40834169D01*
X54339598Y-40880270D01*
X54378726Y-40997896D01*
X54382373Y-41003918D01*
X54384191Y-41006919D01*
X54471759Y-41151512D01*
X54476648Y-41156575D01*
X54476649Y-41156576D01*
X54487896Y-41168222D01*
X54596514Y-41280699D01*
X54746789Y-41379036D01*
X54915116Y-41441636D01*
X54922097Y-41442567D01*
X54922099Y-41442568D01*
X55086149Y-41464457D01*
X55086153Y-41464457D01*
X55093130Y-41465388D01*
X55100142Y-41464750D01*
X55100146Y-41464750D01*
X55264960Y-41449751D01*
X55264961Y-41449751D01*
X55271981Y-41449112D01*
X55442782Y-41393615D01*
X55463119Y-41381492D01*
X55590992Y-41305265D01*
X55590994Y-41305264D01*
X55597044Y-41301657D01*
X55727099Y-41177807D01*
X55733468Y-41168222D01*
X55822582Y-41034093D01*
X55826483Y-41028222D01*
X55847016Y-40974169D01*
X55887757Y-40866919D01*
X55887758Y-40866914D01*
X55890257Y-40860336D01*
X55895024Y-40826416D01*
X55914700Y-40686416D01*
X55914700Y-40686411D01*
X55915251Y-40682493D01*
X55915565Y-40660000D01*
X55895546Y-40481528D01*
X55889427Y-40463955D01*
X55838803Y-40318584D01*
X55836485Y-40311927D01*
X55820239Y-40285927D01*
X55745049Y-40165599D01*
X55741316Y-40159625D01*
X55682105Y-40100000D01*
X73394540Y-40100000D01*
X73395230Y-40106565D01*
X73401435Y-40165599D01*
X73414326Y-40288256D01*
X73472821Y-40468284D01*
X73567467Y-40632216D01*
X73694129Y-40772888D01*
X73699468Y-40776767D01*
X73759629Y-40820476D01*
X73847270Y-40884151D01*
X74020197Y-40961144D01*
X74118212Y-40981978D01*
X74198897Y-40999128D01*
X74198901Y-40999128D01*
X74205354Y-41000500D01*
X74394646Y-41000500D01*
X74401099Y-40999128D01*
X74401103Y-40999128D01*
X74481788Y-40981978D01*
X74579803Y-40961144D01*
X74752730Y-40884151D01*
X74840372Y-40820476D01*
X74884035Y-40788753D01*
X76444514Y-40788753D01*
X76445201Y-40795760D01*
X76445201Y-40795763D01*
X76446005Y-40803963D01*
X76462039Y-40967486D01*
X76464262Y-40974168D01*
X76464262Y-40974169D01*
X76472967Y-41000336D01*
X76518726Y-41137896D01*
X76611759Y-41291512D01*
X76616648Y-41296575D01*
X76616649Y-41296576D01*
X76641844Y-41322666D01*
X76736514Y-41420699D01*
X76886789Y-41519036D01*
X77055116Y-41581636D01*
X77062097Y-41582567D01*
X77062099Y-41582568D01*
X77226149Y-41604457D01*
X77226153Y-41604457D01*
X77233130Y-41605388D01*
X77240142Y-41604750D01*
X77240146Y-41604750D01*
X77404960Y-41589751D01*
X77404961Y-41589751D01*
X77411981Y-41589112D01*
X77582782Y-41533615D01*
X77591500Y-41528418D01*
X77730992Y-41445265D01*
X77730994Y-41445264D01*
X77737044Y-41441657D01*
X77867099Y-41317807D01*
X77884570Y-41291512D01*
X77956886Y-41182666D01*
X77966483Y-41168222D01*
X78017434Y-41034093D01*
X78027757Y-41006919D01*
X78027758Y-41006914D01*
X78030257Y-41000336D01*
X78047131Y-40880270D01*
X78054700Y-40826416D01*
X78054700Y-40826411D01*
X78055251Y-40822493D01*
X78055565Y-40800000D01*
X78035546Y-40621528D01*
X78029427Y-40603955D01*
X77982181Y-40468284D01*
X77976485Y-40451927D01*
X77881316Y-40299625D01*
X77817771Y-40235635D01*
X77759733Y-40177190D01*
X77759729Y-40177187D01*
X77754770Y-40172193D01*
X77743761Y-40165206D01*
X77630667Y-40093435D01*
X77603136Y-40075963D01*
X77573352Y-40065357D01*
X77440586Y-40018081D01*
X77440581Y-40018080D01*
X77433951Y-40015719D01*
X77426965Y-40014886D01*
X77426961Y-40014885D01*
X77299177Y-39999648D01*
X77255624Y-39994455D01*
X77248621Y-39995191D01*
X77248620Y-39995191D01*
X77084025Y-40012490D01*
X77084021Y-40012491D01*
X77077017Y-40013227D01*
X77070346Y-40015498D01*
X76913677Y-40068832D01*
X76913674Y-40068833D01*
X76907007Y-40071103D01*
X76901009Y-40074793D01*
X76901007Y-40074794D01*
X76870707Y-40093435D01*
X76754045Y-40165206D01*
X76749014Y-40170132D01*
X76749011Y-40170135D01*
X76741807Y-40177190D01*
X76625732Y-40290859D01*
X76621913Y-40296784D01*
X76621912Y-40296786D01*
X76607864Y-40318584D01*
X76528446Y-40441817D01*
X76526037Y-40448437D01*
X76526035Y-40448440D01*
X76517978Y-40470578D01*
X76467022Y-40610578D01*
X76444514Y-40788753D01*
X74884035Y-40788753D01*
X74900532Y-40776767D01*
X74905871Y-40772888D01*
X75032533Y-40632216D01*
X75127179Y-40468284D01*
X75185674Y-40288256D01*
X75198566Y-40165599D01*
X75204770Y-40106565D01*
X75205460Y-40100000D01*
X75194455Y-39995289D01*
X75186364Y-39918307D01*
X75186364Y-39918305D01*
X75185674Y-39911744D01*
X75127179Y-39731716D01*
X75109000Y-39700228D01*
X75035836Y-39573505D01*
X75032533Y-39567784D01*
X75028114Y-39562876D01*
X74910286Y-39432015D01*
X74910284Y-39432014D01*
X74905871Y-39427112D01*
X74838008Y-39377807D01*
X74758072Y-39319730D01*
X74758071Y-39319729D01*
X74752730Y-39315849D01*
X74579803Y-39238856D01*
X74481788Y-39218022D01*
X74401103Y-39200872D01*
X74401099Y-39200872D01*
X74394646Y-39199500D01*
X74205354Y-39199500D01*
X74198901Y-39200872D01*
X74198897Y-39200872D01*
X74118212Y-39218022D01*
X74020197Y-39238856D01*
X73847270Y-39315849D01*
X73841929Y-39319729D01*
X73841928Y-39319730D01*
X73761992Y-39377807D01*
X73694129Y-39427112D01*
X73689716Y-39432014D01*
X73689714Y-39432015D01*
X73571886Y-39562876D01*
X73567467Y-39567784D01*
X73564164Y-39573505D01*
X73491001Y-39700228D01*
X73472821Y-39731716D01*
X73414326Y-39911744D01*
X73413636Y-39918305D01*
X73413636Y-39918307D01*
X73405545Y-39995289D01*
X73394540Y-40100000D01*
X55682105Y-40100000D01*
X55675586Y-40093435D01*
X55619733Y-40037190D01*
X55619729Y-40037187D01*
X55614770Y-40032193D01*
X55603761Y-40025206D01*
X55556464Y-39995191D01*
X55463136Y-39935963D01*
X55299389Y-39877655D01*
X55241926Y-39835962D01*
X55216126Y-39769819D01*
X55230181Y-39700228D01*
X55279629Y-39649282D01*
X55302721Y-39639124D01*
X55436082Y-39595792D01*
X55442782Y-39593615D01*
X55486114Y-39567784D01*
X55590992Y-39505265D01*
X55590994Y-39505264D01*
X55597044Y-39501657D01*
X55727099Y-39377807D01*
X55744570Y-39351512D01*
X55817631Y-39241545D01*
X55826483Y-39228222D01*
X55841168Y-39189564D01*
X55887757Y-39066919D01*
X55887758Y-39066914D01*
X55890257Y-39060336D01*
X55891825Y-39049181D01*
X55914700Y-38886416D01*
X55914700Y-38886411D01*
X55915251Y-38882493D01*
X55915565Y-38860000D01*
X55895546Y-38681528D01*
X55891982Y-38671292D01*
X55838803Y-38518584D01*
X55836485Y-38511927D01*
X55829234Y-38500322D01*
X55745049Y-38365599D01*
X55741316Y-38359625D01*
X55660787Y-38278532D01*
X55631215Y-38248753D01*
X59104514Y-38248753D01*
X59105201Y-38255760D01*
X59105201Y-38255763D01*
X59106005Y-38263963D01*
X59122039Y-38427486D01*
X59124262Y-38434168D01*
X59124262Y-38434169D01*
X59132967Y-38460336D01*
X59178726Y-38597896D01*
X59182373Y-38603918D01*
X59267976Y-38745265D01*
X59271759Y-38751512D01*
X59276648Y-38756575D01*
X59276649Y-38756576D01*
X59306809Y-38787807D01*
X59396514Y-38880699D01*
X59546789Y-38979036D01*
X59715116Y-39041636D01*
X59722097Y-39042567D01*
X59722099Y-39042568D01*
X59886149Y-39064457D01*
X59886153Y-39064457D01*
X59893130Y-39065388D01*
X59900142Y-39064750D01*
X59900146Y-39064750D01*
X60064960Y-39049751D01*
X60064961Y-39049751D01*
X60071981Y-39049112D01*
X60242782Y-38993615D01*
X60248833Y-38990008D01*
X60390992Y-38905265D01*
X60390994Y-38905264D01*
X60397044Y-38901657D01*
X60527099Y-38777807D01*
X60537926Y-38761512D01*
X60581769Y-38695522D01*
X60636126Y-38649851D01*
X60706546Y-38640819D01*
X60770670Y-38671292D01*
X60794493Y-38699978D01*
X60825703Y-38751512D01*
X60831759Y-38761512D01*
X60836648Y-38766575D01*
X60836649Y-38766576D01*
X60892509Y-38824420D01*
X60956514Y-38890699D01*
X61106789Y-38989036D01*
X61275116Y-39051636D01*
X61282097Y-39052567D01*
X61282099Y-39052568D01*
X61446149Y-39074457D01*
X61446153Y-39074457D01*
X61453130Y-39075388D01*
X61460142Y-39074750D01*
X61460146Y-39074750D01*
X61624960Y-39059751D01*
X61624961Y-39059751D01*
X61631981Y-39059112D01*
X61802782Y-39003615D01*
X61871725Y-38962517D01*
X61950992Y-38915265D01*
X61950994Y-38915264D01*
X61957044Y-38911657D01*
X61963627Y-38905388D01*
X62020454Y-38851273D01*
X62083578Y-38818780D01*
X62151266Y-38824420D01*
X62305116Y-38881636D01*
X62312097Y-38882567D01*
X62312099Y-38882568D01*
X62476149Y-38904457D01*
X62476153Y-38904457D01*
X62483130Y-38905388D01*
X62490142Y-38904750D01*
X62490146Y-38904750D01*
X62654960Y-38889751D01*
X62654961Y-38889751D01*
X62661981Y-38889112D01*
X62832782Y-38833615D01*
X62911131Y-38786910D01*
X62980992Y-38745265D01*
X62980994Y-38745264D01*
X62987044Y-38741657D01*
X63117099Y-38617807D01*
X63131729Y-38595788D01*
X63166791Y-38543014D01*
X63216483Y-38468222D01*
X63257181Y-38361085D01*
X63277757Y-38306919D01*
X63277758Y-38306914D01*
X63280257Y-38300336D01*
X63282877Y-38281693D01*
X63287506Y-38248753D01*
X63704514Y-38248753D01*
X63705201Y-38255760D01*
X63705201Y-38255763D01*
X63706005Y-38263963D01*
X63722039Y-38427486D01*
X63724262Y-38434168D01*
X63724262Y-38434169D01*
X63732967Y-38460336D01*
X63778726Y-38597896D01*
X63782373Y-38603918D01*
X63867976Y-38745265D01*
X63871759Y-38751512D01*
X63876648Y-38756575D01*
X63876649Y-38756576D01*
X63906809Y-38787807D01*
X63996514Y-38880699D01*
X64146789Y-38979036D01*
X64315116Y-39041636D01*
X64322097Y-39042567D01*
X64322099Y-39042568D01*
X64486149Y-39064457D01*
X64486153Y-39064457D01*
X64493130Y-39065388D01*
X64500142Y-39064750D01*
X64500146Y-39064750D01*
X64664960Y-39049751D01*
X64664961Y-39049751D01*
X64671981Y-39049112D01*
X64842782Y-38993615D01*
X64848833Y-38990008D01*
X64990992Y-38905265D01*
X64990994Y-38905264D01*
X64997044Y-38901657D01*
X65127099Y-38777807D01*
X65137926Y-38761512D01*
X65189341Y-38684125D01*
X65226483Y-38628222D01*
X65268131Y-38518584D01*
X65287757Y-38466919D01*
X65287758Y-38466914D01*
X65290257Y-38460336D01*
X65295859Y-38420476D01*
X65314700Y-38286416D01*
X65314700Y-38286411D01*
X65315251Y-38282493D01*
X65315565Y-38260000D01*
X65297618Y-38100000D01*
X66394540Y-38100000D01*
X66395230Y-38106565D01*
X66405514Y-38204409D01*
X66414326Y-38288256D01*
X66472821Y-38468284D01*
X66567467Y-38632216D01*
X66571885Y-38637123D01*
X66571886Y-38637124D01*
X66688446Y-38766576D01*
X66694129Y-38772888D01*
X66699468Y-38776767D01*
X66808609Y-38856062D01*
X66847270Y-38884151D01*
X67020197Y-38961144D01*
X67104373Y-38979036D01*
X67198897Y-38999128D01*
X67198901Y-38999128D01*
X67205354Y-39000500D01*
X67394646Y-39000500D01*
X67401099Y-38999128D01*
X67401103Y-38999128D01*
X67495627Y-38979036D01*
X67579803Y-38961144D01*
X67752730Y-38884151D01*
X67791392Y-38856062D01*
X67900532Y-38776767D01*
X67905871Y-38772888D01*
X67911555Y-38766576D01*
X68028114Y-38637124D01*
X68028115Y-38637123D01*
X68032533Y-38632216D01*
X68127179Y-38468284D01*
X68185674Y-38288256D01*
X68194487Y-38204409D01*
X68204770Y-38106565D01*
X68205460Y-38100000D01*
X68200673Y-38054455D01*
X68194893Y-37999455D01*
X80084825Y-37999455D01*
X80085512Y-38006462D01*
X80085512Y-38006465D01*
X80091986Y-38072490D01*
X80101255Y-38167025D01*
X80154402Y-38326791D01*
X80158049Y-38332813D01*
X80158050Y-38332815D01*
X80236287Y-38461999D01*
X80241624Y-38470812D01*
X80246513Y-38475875D01*
X80246514Y-38475876D01*
X80287757Y-38518584D01*
X80358586Y-38591929D01*
X80364483Y-38595788D01*
X80493577Y-38680266D01*
X80493581Y-38680268D01*
X80499475Y-38684125D01*
X80657289Y-38742815D01*
X80664270Y-38743746D01*
X80664272Y-38743747D01*
X80709812Y-38749823D01*
X80824183Y-38765083D01*
X80831194Y-38764445D01*
X80831198Y-38764445D01*
X80984843Y-38750462D01*
X80991864Y-38749823D01*
X80998566Y-38747645D01*
X80998568Y-38747645D01*
X81145298Y-38699970D01*
X81145301Y-38699969D01*
X81151997Y-38697793D01*
X81296623Y-38611578D01*
X81301717Y-38606727D01*
X81301721Y-38606724D01*
X81413454Y-38500322D01*
X81413455Y-38500320D01*
X81418554Y-38495465D01*
X81434934Y-38470812D01*
X81507836Y-38361085D01*
X81511731Y-38355223D01*
X81571521Y-38197823D01*
X81588713Y-38075498D01*
X81594404Y-38035010D01*
X81594404Y-38035006D01*
X81594955Y-38031088D01*
X81595249Y-38010000D01*
X81586111Y-37928527D01*
X81577266Y-37849672D01*
X81577265Y-37849669D01*
X81576481Y-37842676D01*
X81521108Y-37683668D01*
X81431884Y-37540879D01*
X81426920Y-37535880D01*
X81318205Y-37426403D01*
X81318201Y-37426400D01*
X81313242Y-37421406D01*
X81171079Y-37331187D01*
X81012462Y-37274706D01*
X81005474Y-37273873D01*
X81005471Y-37273872D01*
X80912300Y-37262762D01*
X80845273Y-37254769D01*
X80838270Y-37255505D01*
X80838269Y-37255505D01*
X80792712Y-37260293D01*
X80677821Y-37272369D01*
X80671155Y-37274638D01*
X80671152Y-37274639D01*
X80525098Y-37324360D01*
X80525095Y-37324361D01*
X80518431Y-37326630D01*
X80512436Y-37330318D01*
X80512432Y-37330320D01*
X80381021Y-37411165D01*
X80381019Y-37411167D01*
X80375022Y-37414856D01*
X80323522Y-37465289D01*
X80273626Y-37514151D01*
X80254724Y-37532661D01*
X80163515Y-37674190D01*
X80105927Y-37832409D01*
X80084825Y-37999455D01*
X68194893Y-37999455D01*
X68186364Y-37918307D01*
X68186364Y-37918305D01*
X68185674Y-37911744D01*
X68127179Y-37731716D01*
X68093967Y-37674190D01*
X68035836Y-37573505D01*
X68032533Y-37567784D01*
X68025989Y-37560516D01*
X67910286Y-37432015D01*
X67910284Y-37432014D01*
X67905871Y-37427112D01*
X67781651Y-37336861D01*
X67758072Y-37319730D01*
X67758071Y-37319729D01*
X67752730Y-37315849D01*
X67579803Y-37238856D01*
X67466576Y-37214789D01*
X67401103Y-37200872D01*
X67401099Y-37200872D01*
X67394646Y-37199500D01*
X67205354Y-37199500D01*
X67198901Y-37200872D01*
X67198897Y-37200872D01*
X67133424Y-37214789D01*
X67020197Y-37238856D01*
X66847270Y-37315849D01*
X66841929Y-37319729D01*
X66841928Y-37319730D01*
X66818349Y-37336861D01*
X66694129Y-37427112D01*
X66689716Y-37432014D01*
X66689714Y-37432015D01*
X66574011Y-37560516D01*
X66567467Y-37567784D01*
X66564164Y-37573505D01*
X66506034Y-37674190D01*
X66472821Y-37731716D01*
X66414326Y-37911744D01*
X66413636Y-37918305D01*
X66413636Y-37918307D01*
X66399327Y-38054455D01*
X66394540Y-38100000D01*
X65297618Y-38100000D01*
X65295546Y-38081528D01*
X65289427Y-38063955D01*
X65238803Y-37918584D01*
X65236485Y-37911927D01*
X65222551Y-37889627D01*
X65145049Y-37765599D01*
X65141316Y-37759625D01*
X65056475Y-37674190D01*
X65019733Y-37637190D01*
X65019729Y-37637187D01*
X65014770Y-37632193D01*
X65003761Y-37625206D01*
X64938625Y-37583870D01*
X64863136Y-37535963D01*
X64804498Y-37515083D01*
X64700586Y-37478081D01*
X64700581Y-37478080D01*
X64693951Y-37475719D01*
X64686965Y-37474886D01*
X64686961Y-37474885D01*
X64559177Y-37459648D01*
X64515624Y-37454455D01*
X64508621Y-37455191D01*
X64508620Y-37455191D01*
X64344025Y-37472490D01*
X64344021Y-37472491D01*
X64337017Y-37473227D01*
X64330346Y-37475498D01*
X64173677Y-37528832D01*
X64173674Y-37528833D01*
X64167007Y-37531103D01*
X64161009Y-37534793D01*
X64161007Y-37534794D01*
X64143998Y-37545258D01*
X64014045Y-37625206D01*
X64009014Y-37630132D01*
X64009011Y-37630135D01*
X63970075Y-37668264D01*
X63885732Y-37750859D01*
X63881913Y-37756784D01*
X63881912Y-37756786D01*
X63837445Y-37825786D01*
X63788446Y-37901817D01*
X63786037Y-37908437D01*
X63786035Y-37908440D01*
X63778724Y-37928527D01*
X63727022Y-38070578D01*
X63704514Y-38248753D01*
X63287506Y-38248753D01*
X63304700Y-38126416D01*
X63304700Y-38126411D01*
X63305251Y-38122493D01*
X63305403Y-38111576D01*
X63305510Y-38103963D01*
X63305510Y-38103958D01*
X63305565Y-38100000D01*
X63285546Y-37921528D01*
X63226485Y-37751927D01*
X63180099Y-37677693D01*
X63135049Y-37605599D01*
X63131316Y-37599625D01*
X63059924Y-37527733D01*
X63009733Y-37477190D01*
X63009729Y-37477187D01*
X63004770Y-37472193D01*
X62993761Y-37465206D01*
X62946860Y-37435442D01*
X62853136Y-37375963D01*
X62768395Y-37345788D01*
X62690586Y-37318081D01*
X62690581Y-37318080D01*
X62683951Y-37315719D01*
X62676965Y-37314886D01*
X62676961Y-37314885D01*
X62549177Y-37299648D01*
X62505624Y-37294455D01*
X62498621Y-37295191D01*
X62498620Y-37295191D01*
X62334025Y-37312490D01*
X62334021Y-37312491D01*
X62327017Y-37313227D01*
X62320346Y-37315498D01*
X62163677Y-37368832D01*
X62163674Y-37368833D01*
X62157007Y-37371103D01*
X62151009Y-37374793D01*
X62151007Y-37374794D01*
X62138377Y-37382564D01*
X62004045Y-37465206D01*
X61953763Y-37514445D01*
X61951580Y-37516583D01*
X61888915Y-37549953D01*
X61821156Y-37545258D01*
X61660586Y-37488081D01*
X61660581Y-37488080D01*
X61653951Y-37485719D01*
X61646965Y-37484886D01*
X61646961Y-37484885D01*
X61508859Y-37468418D01*
X61475624Y-37464455D01*
X61468621Y-37465191D01*
X61468620Y-37465191D01*
X61304025Y-37482490D01*
X61304021Y-37482491D01*
X61297017Y-37483227D01*
X61290346Y-37485498D01*
X61133677Y-37538832D01*
X61133674Y-37538833D01*
X61127007Y-37541103D01*
X61121009Y-37544793D01*
X61121007Y-37544794D01*
X61087150Y-37565623D01*
X60974045Y-37635206D01*
X60969014Y-37640132D01*
X60969011Y-37640135D01*
X60924557Y-37683668D01*
X60845732Y-37760859D01*
X60799118Y-37833190D01*
X60745406Y-37879612D01*
X60675119Y-37889627D01*
X60610576Y-37860052D01*
X60586355Y-37831702D01*
X60545049Y-37765599D01*
X60541316Y-37759625D01*
X60456475Y-37674190D01*
X60419733Y-37637190D01*
X60419729Y-37637187D01*
X60414770Y-37632193D01*
X60403761Y-37625206D01*
X60338625Y-37583870D01*
X60263136Y-37535963D01*
X60204498Y-37515083D01*
X60100586Y-37478081D01*
X60100581Y-37478080D01*
X60093951Y-37475719D01*
X60086965Y-37474886D01*
X60086961Y-37474885D01*
X59959177Y-37459648D01*
X59915624Y-37454455D01*
X59908621Y-37455191D01*
X59908620Y-37455191D01*
X59744025Y-37472490D01*
X59744021Y-37472491D01*
X59737017Y-37473227D01*
X59730346Y-37475498D01*
X59573677Y-37528832D01*
X59573674Y-37528833D01*
X59567007Y-37531103D01*
X59561009Y-37534793D01*
X59561007Y-37534794D01*
X59543998Y-37545258D01*
X59414045Y-37625206D01*
X59409014Y-37630132D01*
X59409011Y-37630135D01*
X59370075Y-37668264D01*
X59285732Y-37750859D01*
X59281913Y-37756784D01*
X59281912Y-37756786D01*
X59237445Y-37825786D01*
X59188446Y-37901817D01*
X59186037Y-37908437D01*
X59186035Y-37908440D01*
X59178724Y-37928527D01*
X59127022Y-38070578D01*
X59104514Y-38248753D01*
X55631215Y-38248753D01*
X55619733Y-38237190D01*
X55619729Y-38237187D01*
X55614770Y-38232193D01*
X55603761Y-38225206D01*
X55549621Y-38190848D01*
X55463136Y-38135963D01*
X55380577Y-38106565D01*
X55300586Y-38078081D01*
X55300581Y-38078080D01*
X55293951Y-38075719D01*
X55286965Y-38074886D01*
X55286961Y-38074885D01*
X55159177Y-38059648D01*
X55115624Y-38054455D01*
X55108621Y-38055191D01*
X55108620Y-38055191D01*
X54944025Y-38072490D01*
X54944021Y-38072491D01*
X54937017Y-38073227D01*
X54930346Y-38075498D01*
X54773677Y-38128832D01*
X54773674Y-38128833D01*
X54767007Y-38131103D01*
X54761009Y-38134793D01*
X54761007Y-38134794D01*
X54720010Y-38160016D01*
X54614045Y-38225206D01*
X54609014Y-38230132D01*
X54609011Y-38230135D01*
X54559590Y-38278532D01*
X54485732Y-38350859D01*
X54481913Y-38356784D01*
X54481912Y-38356786D01*
X54408427Y-38470812D01*
X54388446Y-38501817D01*
X54327022Y-38670578D01*
X54304514Y-38848753D01*
X54305201Y-38855760D01*
X54305201Y-38855763D01*
X54313276Y-38938119D01*
X54322039Y-39027486D01*
X54324262Y-39034168D01*
X54324262Y-39034169D01*
X54337974Y-39075388D01*
X54378726Y-39197896D01*
X54382373Y-39203918D01*
X54450161Y-39315849D01*
X54471759Y-39351512D01*
X54596514Y-39480699D01*
X54746789Y-39579036D01*
X54753393Y-39581492D01*
X54915116Y-39641636D01*
X54914469Y-39643375D01*
X54967674Y-39674537D01*
X54999812Y-39737843D01*
X54992623Y-39808475D01*
X54948389Y-39864007D01*
X54916550Y-39880195D01*
X54767007Y-39931103D01*
X54761009Y-39934793D01*
X54761007Y-39934794D01*
X54690526Y-39978155D01*
X54614045Y-40025206D01*
X54609014Y-40030132D01*
X54609011Y-40030135D01*
X54546883Y-40090976D01*
X54485732Y-40150859D01*
X54481913Y-40156784D01*
X54481912Y-40156786D01*
X54474416Y-40168418D01*
X54388446Y-40301817D01*
X54327022Y-40470578D01*
X54304514Y-40648753D01*
X44075000Y-40648753D01*
X44075000Y-35888753D01*
X65194514Y-35888753D01*
X65212039Y-36067486D01*
X65214262Y-36074168D01*
X65214262Y-36074169D01*
X65264496Y-36225179D01*
X65268726Y-36237896D01*
X65272373Y-36243918D01*
X65321849Y-36325612D01*
X65361759Y-36391512D01*
X65486514Y-36520699D01*
X65636789Y-36619036D01*
X65805116Y-36681636D01*
X65812097Y-36682567D01*
X65812099Y-36682568D01*
X65976149Y-36704457D01*
X65976153Y-36704457D01*
X65983130Y-36705388D01*
X65990142Y-36704750D01*
X65990146Y-36704750D01*
X66154960Y-36689751D01*
X66154961Y-36689751D01*
X66161981Y-36689112D01*
X66332782Y-36633615D01*
X66363714Y-36615176D01*
X66480992Y-36545265D01*
X66480994Y-36545264D01*
X66487044Y-36541657D01*
X66617099Y-36417807D01*
X66634570Y-36391512D01*
X66714737Y-36270850D01*
X66769095Y-36225179D01*
X66839514Y-36216147D01*
X66863606Y-36222480D01*
X66908511Y-36239180D01*
X66908514Y-36239181D01*
X66915116Y-36241636D01*
X66922097Y-36242567D01*
X66922099Y-36242568D01*
X67086149Y-36264457D01*
X67086153Y-36264457D01*
X67093130Y-36265388D01*
X67100142Y-36264750D01*
X67100146Y-36264750D01*
X67264960Y-36249751D01*
X67264961Y-36249751D01*
X67271981Y-36249112D01*
X67442782Y-36193615D01*
X67480038Y-36171406D01*
X67590992Y-36105265D01*
X67590994Y-36105264D01*
X67597044Y-36101657D01*
X67727099Y-35977807D01*
X67738233Y-35961050D01*
X67816954Y-35842564D01*
X67826483Y-35828222D01*
X67841168Y-35789564D01*
X67887757Y-35666919D01*
X67887758Y-35666914D01*
X67890257Y-35660336D01*
X67906914Y-35541817D01*
X67914700Y-35486416D01*
X67914700Y-35486411D01*
X67915251Y-35482493D01*
X67915565Y-35460000D01*
X67903519Y-35352611D01*
X71004394Y-35352611D01*
X71022999Y-35521135D01*
X71033448Y-35549687D01*
X71076349Y-35666919D01*
X71081266Y-35680356D01*
X71085502Y-35686659D01*
X71085502Y-35686660D01*
X71097124Y-35703955D01*
X71175830Y-35821083D01*
X71181442Y-35826190D01*
X71181445Y-35826193D01*
X71295612Y-35930077D01*
X71295616Y-35930080D01*
X71301233Y-35935191D01*
X71307906Y-35938814D01*
X71307910Y-35938817D01*
X71443558Y-36012467D01*
X71443560Y-36012468D01*
X71450235Y-36016092D01*
X71457584Y-36018020D01*
X71606883Y-36057188D01*
X71606885Y-36057188D01*
X71614233Y-36059116D01*
X71682879Y-36060194D01*
X71750677Y-36081263D01*
X71796321Y-36135642D01*
X71805321Y-36206066D01*
X71774817Y-36270175D01*
X71738691Y-36298143D01*
X71710120Y-36312890D01*
X71710117Y-36312892D01*
X71703369Y-36316375D01*
X71575604Y-36427831D01*
X71478113Y-36566547D01*
X71416524Y-36724513D01*
X71415532Y-36732046D01*
X71415532Y-36732047D01*
X71408560Y-36785010D01*
X71394394Y-36892611D01*
X71412999Y-37061135D01*
X71420867Y-37082634D01*
X71463634Y-37199500D01*
X71471266Y-37220356D01*
X71475502Y-37226659D01*
X71475502Y-37226660D01*
X71485504Y-37241545D01*
X71565830Y-37361083D01*
X71571442Y-37366190D01*
X71571445Y-37366193D01*
X71685612Y-37470077D01*
X71685616Y-37470080D01*
X71691233Y-37475191D01*
X71697906Y-37478814D01*
X71697910Y-37478817D01*
X71833558Y-37552467D01*
X71833560Y-37552468D01*
X71840235Y-37556092D01*
X71847584Y-37558020D01*
X71996883Y-37597188D01*
X71996885Y-37597188D01*
X72004233Y-37599116D01*
X72090609Y-37600473D01*
X72166161Y-37601660D01*
X72166164Y-37601660D01*
X72173760Y-37601779D01*
X72181165Y-37600083D01*
X72181166Y-37600083D01*
X72251956Y-37583870D01*
X72339029Y-37563928D01*
X72490498Y-37487747D01*
X72575842Y-37414856D01*
X72613651Y-37382564D01*
X72613652Y-37382563D01*
X72619423Y-37377634D01*
X72718361Y-37239947D01*
X72728475Y-37214789D01*
X72778766Y-37089687D01*
X72778767Y-37089685D01*
X72781601Y-37082634D01*
X72805490Y-36914778D01*
X72805645Y-36900000D01*
X72803840Y-36885080D01*
X72801004Y-36861653D01*
X72787427Y-36749455D01*
X81354825Y-36749455D01*
X81355512Y-36756462D01*
X81355512Y-36756465D01*
X81358311Y-36785010D01*
X81371255Y-36917025D01*
X81424402Y-37076791D01*
X81511624Y-37220812D01*
X81516513Y-37225875D01*
X81516514Y-37225876D01*
X81561412Y-37272369D01*
X81628586Y-37341929D01*
X81634483Y-37345788D01*
X81763577Y-37430266D01*
X81763581Y-37430268D01*
X81769475Y-37434125D01*
X81927289Y-37492815D01*
X81934270Y-37493746D01*
X81934272Y-37493747D01*
X81979812Y-37499823D01*
X82094183Y-37515083D01*
X82101194Y-37514445D01*
X82101198Y-37514445D01*
X82254843Y-37500462D01*
X82261864Y-37499823D01*
X82268566Y-37497645D01*
X82268568Y-37497645D01*
X82415298Y-37449970D01*
X82415301Y-37449969D01*
X82421997Y-37447793D01*
X82566623Y-37361578D01*
X82571717Y-37356727D01*
X82571721Y-37356724D01*
X82683454Y-37250322D01*
X82683455Y-37250320D01*
X82688554Y-37245465D01*
X82693858Y-37237483D01*
X82777836Y-37111085D01*
X82781731Y-37105223D01*
X82793171Y-37075108D01*
X82839019Y-36954409D01*
X82841521Y-36947823D01*
X82864955Y-36781088D01*
X82865249Y-36760000D01*
X82862114Y-36732047D01*
X82847266Y-36599672D01*
X82847265Y-36599669D01*
X82846481Y-36592676D01*
X82791108Y-36433668D01*
X82701884Y-36290879D01*
X82693723Y-36282661D01*
X82588205Y-36176403D01*
X82588201Y-36176400D01*
X82583242Y-36171406D01*
X82441079Y-36081187D01*
X82282462Y-36024706D01*
X82275474Y-36023873D01*
X82275471Y-36023872D01*
X82179827Y-36012467D01*
X82115273Y-36004769D01*
X82108270Y-36005505D01*
X82108269Y-36005505D01*
X82062712Y-36010293D01*
X81947821Y-36022369D01*
X81941155Y-36024638D01*
X81941152Y-36024639D01*
X81795098Y-36074360D01*
X81795095Y-36074361D01*
X81788431Y-36076630D01*
X81782436Y-36080318D01*
X81782432Y-36080320D01*
X81651021Y-36161165D01*
X81651019Y-36161167D01*
X81645022Y-36164856D01*
X81609258Y-36199879D01*
X81539469Y-36268222D01*
X81524724Y-36282661D01*
X81433515Y-36424190D01*
X81375927Y-36582409D01*
X81354825Y-36749455D01*
X72787427Y-36749455D01*
X72785276Y-36731680D01*
X72725345Y-36573077D01*
X72706230Y-36545265D01*
X72633614Y-36439608D01*
X72633613Y-36439607D01*
X72629312Y-36433349D01*
X72622964Y-36427693D01*
X72508392Y-36325612D01*
X72508388Y-36325610D01*
X72502721Y-36320560D01*
X72352881Y-36241224D01*
X72188441Y-36199919D01*
X72180843Y-36199879D01*
X72180841Y-36199879D01*
X72144163Y-36199687D01*
X72130002Y-36199613D01*
X72061987Y-36179255D01*
X72015776Y-36125356D01*
X72006040Y-36055031D01*
X72035871Y-35990605D01*
X72074048Y-35961050D01*
X72093714Y-35951159D01*
X72100498Y-35947747D01*
X72229423Y-35837634D01*
X72328361Y-35699947D01*
X72336237Y-35680356D01*
X72388766Y-35549687D01*
X72388767Y-35549685D01*
X72391601Y-35542634D01*
X72411134Y-35405388D01*
X72414909Y-35378862D01*
X72414909Y-35378859D01*
X72415490Y-35374778D01*
X72415645Y-35360000D01*
X72414751Y-35352611D01*
X72397253Y-35208015D01*
X72408926Y-35137985D01*
X72457823Y-35084649D01*
X72590992Y-35005265D01*
X72590994Y-35005264D01*
X72597044Y-35001657D01*
X72727099Y-34877807D01*
X72737926Y-34861512D01*
X72783203Y-34793364D01*
X72826483Y-34728222D01*
X72854225Y-34655191D01*
X72887757Y-34566919D01*
X72887758Y-34566914D01*
X72890257Y-34560336D01*
X72892529Y-34544169D01*
X72914700Y-34386416D01*
X72914700Y-34386411D01*
X72915251Y-34382493D01*
X72915425Y-34370000D01*
X72915510Y-34363963D01*
X72915510Y-34363958D01*
X72915565Y-34360000D01*
X72895546Y-34181528D01*
X72889427Y-34163955D01*
X72845437Y-34037634D01*
X72836485Y-34011927D01*
X72832714Y-34005891D01*
X72745049Y-33865599D01*
X72741316Y-33859625D01*
X72671293Y-33789112D01*
X72619733Y-33737190D01*
X72619729Y-33737187D01*
X72614770Y-33732193D01*
X72603761Y-33725206D01*
X72478893Y-33645963D01*
X72463136Y-33635963D01*
X72406037Y-33615631D01*
X72300586Y-33578081D01*
X72300581Y-33578080D01*
X72293951Y-33575719D01*
X72286965Y-33574886D01*
X72286961Y-33574885D01*
X72151853Y-33558775D01*
X72115624Y-33554455D01*
X72108621Y-33555191D01*
X72108620Y-33555191D01*
X71944025Y-33572490D01*
X71944021Y-33572491D01*
X71937017Y-33573227D01*
X71930346Y-33575498D01*
X71773677Y-33628832D01*
X71773674Y-33628833D01*
X71767007Y-33631103D01*
X71761009Y-33634793D01*
X71761007Y-33634794D01*
X71743987Y-33645265D01*
X71614045Y-33725206D01*
X71609014Y-33730132D01*
X71609011Y-33730135D01*
X71587483Y-33751217D01*
X71485732Y-33850859D01*
X71481913Y-33856784D01*
X71481912Y-33856786D01*
X71473638Y-33869625D01*
X71388446Y-34001817D01*
X71386037Y-34008437D01*
X71386035Y-34008440D01*
X71359019Y-34082666D01*
X71327022Y-34170578D01*
X71304514Y-34348753D01*
X71305201Y-34355760D01*
X71305201Y-34355763D01*
X71310576Y-34410578D01*
X71322039Y-34527486D01*
X71324262Y-34534168D01*
X71324263Y-34534174D01*
X71358188Y-34636156D01*
X71360711Y-34707108D01*
X71324474Y-34768160D01*
X71315650Y-34775198D01*
X71313369Y-34776375D01*
X71185604Y-34887831D01*
X71088113Y-35026547D01*
X71026524Y-35184513D01*
X71025532Y-35192046D01*
X71025532Y-35192047D01*
X71006895Y-35333615D01*
X71004394Y-35352611D01*
X67903519Y-35352611D01*
X67895546Y-35281528D01*
X67836485Y-35111927D01*
X67832652Y-35105792D01*
X67745049Y-34965599D01*
X67741316Y-34959625D01*
X67648914Y-34866576D01*
X67619733Y-34837190D01*
X67619729Y-34837187D01*
X67614770Y-34832193D01*
X67603761Y-34825206D01*
X67501762Y-34760476D01*
X67463136Y-34735963D01*
X67422898Y-34721635D01*
X67300586Y-34678081D01*
X67300581Y-34678080D01*
X67293951Y-34675719D01*
X67286965Y-34674886D01*
X67286961Y-34674885D01*
X67159177Y-34659648D01*
X67115624Y-34654455D01*
X67108621Y-34655191D01*
X67108620Y-34655191D01*
X66944025Y-34672490D01*
X66944021Y-34672491D01*
X66937017Y-34673227D01*
X66930346Y-34675498D01*
X66773677Y-34728832D01*
X66773674Y-34728833D01*
X66767007Y-34731103D01*
X66761009Y-34734793D01*
X66761007Y-34734794D01*
X66745892Y-34744093D01*
X66614045Y-34825206D01*
X66609014Y-34830132D01*
X66609011Y-34830135D01*
X66601807Y-34837190D01*
X66485732Y-34950859D01*
X66481913Y-34956784D01*
X66481912Y-34956786D01*
X66452995Y-35001657D01*
X66399171Y-35085176D01*
X66397089Y-35088406D01*
X66343375Y-35134831D01*
X66273088Y-35144846D01*
X66248911Y-35138850D01*
X66190586Y-35118081D01*
X66190581Y-35118080D01*
X66183951Y-35115719D01*
X66176965Y-35114886D01*
X66176961Y-35114885D01*
X66023411Y-35096576D01*
X66005624Y-35094455D01*
X65998621Y-35095191D01*
X65998620Y-35095191D01*
X65834025Y-35112490D01*
X65834021Y-35112491D01*
X65827017Y-35113227D01*
X65820346Y-35115498D01*
X65663677Y-35168832D01*
X65663674Y-35168833D01*
X65657007Y-35171103D01*
X65651009Y-35174793D01*
X65651007Y-35174794D01*
X65622963Y-35192047D01*
X65504045Y-35265206D01*
X65499014Y-35270132D01*
X65499011Y-35270135D01*
X65494172Y-35274874D01*
X65375732Y-35390859D01*
X65371913Y-35396784D01*
X65371912Y-35396786D01*
X65296640Y-35513586D01*
X65278446Y-35541817D01*
X65276037Y-35548437D01*
X65276035Y-35548440D01*
X65247734Y-35626197D01*
X65217022Y-35710578D01*
X65194514Y-35888753D01*
X44075000Y-35888753D01*
X44075000Y-34358753D01*
X50484514Y-34358753D01*
X50485201Y-34365760D01*
X50485201Y-34365763D01*
X50490281Y-34417569D01*
X50502039Y-34537486D01*
X50504262Y-34544168D01*
X50504262Y-34544169D01*
X50541194Y-34655191D01*
X50558726Y-34707896D01*
X50562373Y-34713918D01*
X50631717Y-34828418D01*
X50651759Y-34861512D01*
X50656648Y-34866575D01*
X50656649Y-34866576D01*
X50731338Y-34943918D01*
X50776514Y-34990699D01*
X50926789Y-35089036D01*
X51095116Y-35151636D01*
X51102097Y-35152567D01*
X51102099Y-35152568D01*
X51266149Y-35174457D01*
X51266153Y-35174457D01*
X51273130Y-35175388D01*
X51280142Y-35174750D01*
X51280146Y-35174750D01*
X51444960Y-35159751D01*
X51444961Y-35159751D01*
X51451981Y-35159112D01*
X51597173Y-35111936D01*
X51616082Y-35105792D01*
X51622782Y-35103615D01*
X51636749Y-35095289D01*
X51770992Y-35015265D01*
X51770994Y-35015264D01*
X51777044Y-35011657D01*
X51907099Y-34887807D01*
X51924570Y-34861512D01*
X51969847Y-34793364D01*
X52006483Y-34738222D01*
X52021801Y-34697896D01*
X52067757Y-34576919D01*
X52067758Y-34576914D01*
X52070257Y-34570336D01*
X52071237Y-34563364D01*
X52094700Y-34396416D01*
X52094700Y-34396411D01*
X52095251Y-34392493D01*
X52095403Y-34381576D01*
X52095510Y-34373963D01*
X52095510Y-34373958D01*
X52095565Y-34370000D01*
X52075546Y-34191528D01*
X52069747Y-34174874D01*
X52043937Y-34100760D01*
X52016485Y-34021927D01*
X52010237Y-34011927D01*
X51925049Y-33875599D01*
X51921316Y-33869625D01*
X51856601Y-33804457D01*
X51799733Y-33747190D01*
X51799729Y-33747187D01*
X51794770Y-33742193D01*
X51783761Y-33735206D01*
X51736860Y-33705442D01*
X51643136Y-33645963D01*
X51583021Y-33624557D01*
X51480586Y-33588081D01*
X51480581Y-33588080D01*
X51473951Y-33585719D01*
X51466965Y-33584886D01*
X51466961Y-33584885D01*
X51339177Y-33569648D01*
X51295624Y-33564455D01*
X51288621Y-33565191D01*
X51288620Y-33565191D01*
X51124025Y-33582490D01*
X51124021Y-33582491D01*
X51117017Y-33583227D01*
X51110346Y-33585498D01*
X50953677Y-33638832D01*
X50953674Y-33638833D01*
X50947007Y-33641103D01*
X50941009Y-33644793D01*
X50941007Y-33644794D01*
X50870526Y-33688154D01*
X50794045Y-33735206D01*
X50789014Y-33740132D01*
X50789011Y-33740135D01*
X50749139Y-33779181D01*
X50665732Y-33860859D01*
X50661913Y-33866784D01*
X50661912Y-33866786D01*
X50626564Y-33921635D01*
X50568446Y-34011817D01*
X50566037Y-34018437D01*
X50566035Y-34018440D01*
X50544142Y-34078591D01*
X50507022Y-34180578D01*
X50484514Y-34358753D01*
X44075000Y-34358753D01*
X44075000Y-33408753D01*
X58484514Y-33408753D01*
X58502039Y-33587486D01*
X58504262Y-33594168D01*
X58504262Y-33594169D01*
X58555165Y-33747190D01*
X58558726Y-33757896D01*
X58562373Y-33763918D01*
X58621083Y-33860859D01*
X58651759Y-33911512D01*
X58656649Y-33916575D01*
X58656653Y-33916581D01*
X58684076Y-33944978D01*
X58717009Y-34007874D01*
X58710709Y-34078591D01*
X58699351Y-34100760D01*
X58634327Y-34201657D01*
X58608446Y-34241817D01*
X58606037Y-34248437D01*
X58606035Y-34248440D01*
X58601180Y-34261779D01*
X58547022Y-34410578D01*
X58524514Y-34588753D01*
X58525201Y-34595760D01*
X58525201Y-34595763D01*
X58532797Y-34673227D01*
X58542039Y-34767486D01*
X58544262Y-34774168D01*
X58544262Y-34774169D01*
X58580411Y-34882837D01*
X58598726Y-34937896D01*
X58602373Y-34943918D01*
X58687922Y-35085176D01*
X58691759Y-35091512D01*
X58696648Y-35096575D01*
X58696649Y-35096576D01*
X58749820Y-35151636D01*
X58816514Y-35220699D01*
X58966789Y-35319036D01*
X59135116Y-35381636D01*
X59142097Y-35382567D01*
X59142099Y-35382568D01*
X59306149Y-35404457D01*
X59306153Y-35404457D01*
X59313130Y-35405388D01*
X59320142Y-35404750D01*
X59320146Y-35404750D01*
X59484960Y-35389751D01*
X59484961Y-35389751D01*
X59491981Y-35389112D01*
X59662782Y-35333615D01*
X59693714Y-35315176D01*
X59810992Y-35245265D01*
X59810994Y-35245264D01*
X59817044Y-35241657D01*
X59947099Y-35117807D01*
X59964570Y-35091512D01*
X60007732Y-35026547D01*
X60046483Y-34968222D01*
X60079260Y-34881936D01*
X60107757Y-34806919D01*
X60107758Y-34806914D01*
X60110257Y-34800336D01*
X60111237Y-34793364D01*
X60134700Y-34626416D01*
X60134700Y-34626411D01*
X60135251Y-34622493D01*
X60135565Y-34600000D01*
X60124432Y-34500748D01*
X60136716Y-34430822D01*
X60184855Y-34378638D01*
X60253565Y-34360764D01*
X60266309Y-34361810D01*
X60285925Y-34364427D01*
X60293130Y-34365388D01*
X60300142Y-34364750D01*
X60300146Y-34364750D01*
X60464960Y-34349751D01*
X60464961Y-34349751D01*
X60471981Y-34349112D01*
X60642782Y-34293615D01*
X60696188Y-34261779D01*
X60790992Y-34205265D01*
X60790994Y-34205264D01*
X60797044Y-34201657D01*
X60927099Y-34077807D01*
X60950515Y-34042564D01*
X61022582Y-33934093D01*
X61026483Y-33928222D01*
X61048742Y-33869625D01*
X61087757Y-33766919D01*
X61087758Y-33766914D01*
X61090257Y-33760336D01*
X61093707Y-33735792D01*
X61104074Y-33662022D01*
X61133362Y-33597348D01*
X61192966Y-33558775D01*
X61217428Y-33554077D01*
X61264959Y-33549751D01*
X61271981Y-33549112D01*
X61278683Y-33546934D01*
X61278685Y-33546934D01*
X61406728Y-33505330D01*
X61477695Y-33503302D01*
X61536300Y-33537636D01*
X61616514Y-33620699D01*
X61766789Y-33719036D01*
X61935116Y-33781636D01*
X61942097Y-33782567D01*
X61942099Y-33782568D01*
X62106149Y-33804457D01*
X62106153Y-33804457D01*
X62113130Y-33805388D01*
X62120142Y-33804750D01*
X62120146Y-33804750D01*
X62284960Y-33789751D01*
X62284961Y-33789751D01*
X62291981Y-33789112D01*
X62462782Y-33733615D01*
X62471755Y-33728266D01*
X62610992Y-33645265D01*
X62610994Y-33645264D01*
X62617044Y-33641657D01*
X62710551Y-33552611D01*
X69804394Y-33552611D01*
X69822999Y-33721135D01*
X69847078Y-33786934D01*
X69875866Y-33865599D01*
X69881266Y-33880356D01*
X69885502Y-33886659D01*
X69885502Y-33886660D01*
X69898155Y-33905489D01*
X69975830Y-34021083D01*
X69981442Y-34026190D01*
X69981445Y-34026193D01*
X70095612Y-34130077D01*
X70095616Y-34130080D01*
X70101233Y-34135191D01*
X70107906Y-34138814D01*
X70107910Y-34138817D01*
X70243558Y-34212467D01*
X70243560Y-34212468D01*
X70250235Y-34216092D01*
X70257584Y-34218020D01*
X70406883Y-34257188D01*
X70406885Y-34257188D01*
X70414233Y-34259116D01*
X70500609Y-34260473D01*
X70576161Y-34261660D01*
X70576164Y-34261660D01*
X70583760Y-34261779D01*
X70591165Y-34260083D01*
X70591166Y-34260083D01*
X70670920Y-34241817D01*
X70749029Y-34223928D01*
X70900498Y-34147747D01*
X71029423Y-34037634D01*
X71128361Y-33899947D01*
X71138149Y-33875599D01*
X71188766Y-33749687D01*
X71188767Y-33749685D01*
X71191601Y-33742634D01*
X71205458Y-33645265D01*
X71214909Y-33578862D01*
X71214909Y-33578859D01*
X71215490Y-33574778D01*
X71215591Y-33565191D01*
X71215602Y-33564135D01*
X71215602Y-33564129D01*
X71215645Y-33560000D01*
X71214328Y-33549112D01*
X71208784Y-33503302D01*
X71195276Y-33391680D01*
X71135345Y-33233077D01*
X71039312Y-33093349D01*
X71011355Y-33068440D01*
X70918392Y-32985612D01*
X70918388Y-32985610D01*
X70912721Y-32980560D01*
X70762881Y-32901224D01*
X70598441Y-32859919D01*
X70590843Y-32859879D01*
X70590841Y-32859879D01*
X70513668Y-32859475D01*
X70428895Y-32859031D01*
X70421508Y-32860805D01*
X70421504Y-32860805D01*
X70278162Y-32895220D01*
X70264032Y-32898612D01*
X70257288Y-32902093D01*
X70257285Y-32902094D01*
X70120117Y-32972892D01*
X70113369Y-32976375D01*
X69985604Y-33087831D01*
X69981237Y-33094045D01*
X69901908Y-33206919D01*
X69888113Y-33226547D01*
X69826524Y-33384513D01*
X69825532Y-33392046D01*
X69825532Y-33392047D01*
X69809749Y-33511936D01*
X69804394Y-33552611D01*
X62710551Y-33552611D01*
X62747099Y-33517807D01*
X62764570Y-33491512D01*
X62825888Y-33399220D01*
X62846483Y-33368222D01*
X62895122Y-33240180D01*
X62907757Y-33206919D01*
X62907758Y-33206914D01*
X62910257Y-33200336D01*
X62911237Y-33193364D01*
X62934700Y-33026416D01*
X62934700Y-33026411D01*
X62935251Y-33022493D01*
X62935565Y-33000000D01*
X62915546Y-32821528D01*
X62912045Y-32811473D01*
X62869434Y-32689112D01*
X62856485Y-32651927D01*
X62845043Y-32633615D01*
X62765049Y-32505599D01*
X62761316Y-32499625D01*
X62687996Y-32425792D01*
X62639733Y-32377190D01*
X62639729Y-32377187D01*
X62634770Y-32372193D01*
X62483136Y-32275963D01*
X62429281Y-32256786D01*
X62320586Y-32218081D01*
X62320581Y-32218080D01*
X62313951Y-32215719D01*
X62306965Y-32214886D01*
X62306961Y-32214885D01*
X62179177Y-32199648D01*
X62135624Y-32194455D01*
X62128621Y-32195191D01*
X62128620Y-32195191D01*
X61964025Y-32212490D01*
X61964021Y-32212491D01*
X61957017Y-32213227D01*
X61835910Y-32254455D01*
X61764979Y-32257473D01*
X61705900Y-32223961D01*
X61619733Y-32137190D01*
X61619729Y-32137187D01*
X61614770Y-32132193D01*
X61603761Y-32125206D01*
X61512808Y-32067486D01*
X61463136Y-32035963D01*
X61433352Y-32025357D01*
X61300586Y-31978081D01*
X61300581Y-31978080D01*
X61293951Y-31975719D01*
X61286965Y-31974886D01*
X61286961Y-31974885D01*
X61159177Y-31959648D01*
X61115624Y-31954455D01*
X61108621Y-31955191D01*
X61108620Y-31955191D01*
X60944025Y-31972490D01*
X60944021Y-31972491D01*
X60937017Y-31973227D01*
X60930346Y-31975498D01*
X60773677Y-32028832D01*
X60773674Y-32028833D01*
X60767007Y-32031103D01*
X60761009Y-32034793D01*
X60761007Y-32034794D01*
X60708716Y-32066964D01*
X60614045Y-32125206D01*
X60609014Y-32130132D01*
X60609011Y-32130135D01*
X60559907Y-32178222D01*
X60485732Y-32250859D01*
X60481913Y-32256784D01*
X60481912Y-32256786D01*
X60444681Y-32314557D01*
X60388446Y-32401817D01*
X60386037Y-32408437D01*
X60386035Y-32408440D01*
X60363034Y-32471636D01*
X60327022Y-32570578D01*
X60317501Y-32645951D01*
X60316151Y-32656635D01*
X60287769Y-32721712D01*
X60228709Y-32761114D01*
X60204314Y-32766154D01*
X60144025Y-32772490D01*
X60144021Y-32772491D01*
X60137017Y-32773227D01*
X59967007Y-32831103D01*
X59961011Y-32834792D01*
X59956966Y-32836695D01*
X59886812Y-32847600D01*
X59821899Y-32818845D01*
X59813917Y-32811473D01*
X59799734Y-32797192D01*
X59794770Y-32792193D01*
X59783761Y-32785206D01*
X59726320Y-32748753D01*
X59643136Y-32695963D01*
X59613352Y-32685357D01*
X59480586Y-32638081D01*
X59480581Y-32638080D01*
X59473951Y-32635719D01*
X59466965Y-32634886D01*
X59466961Y-32634885D01*
X59334042Y-32619036D01*
X59295624Y-32614455D01*
X59288621Y-32615191D01*
X59288620Y-32615191D01*
X59124025Y-32632490D01*
X59124021Y-32632491D01*
X59117017Y-32633227D01*
X59110346Y-32635498D01*
X58953677Y-32688832D01*
X58953674Y-32688833D01*
X58947007Y-32691103D01*
X58941009Y-32694793D01*
X58941007Y-32694794D01*
X58925300Y-32704457D01*
X58794045Y-32785206D01*
X58789014Y-32790132D01*
X58789011Y-32790135D01*
X58781805Y-32797192D01*
X58665732Y-32910859D01*
X58661913Y-32916784D01*
X58661912Y-32916786D01*
X58620292Y-32981368D01*
X58568446Y-33061817D01*
X58566037Y-33068437D01*
X58566035Y-33068440D01*
X58558808Y-33088296D01*
X58507022Y-33230578D01*
X58484514Y-33408753D01*
X44075000Y-33408753D01*
X44075000Y-31888753D01*
X52794514Y-31888753D01*
X52795201Y-31895760D01*
X52795201Y-31895763D01*
X52802797Y-31973227D01*
X52812039Y-32067486D01*
X52814262Y-32074168D01*
X52814262Y-32074169D01*
X52864091Y-32223961D01*
X52868726Y-32237896D01*
X52872373Y-32243918D01*
X52947773Y-32368418D01*
X52961759Y-32391512D01*
X52966648Y-32396575D01*
X52966649Y-32396576D01*
X53003327Y-32434557D01*
X53086514Y-32520699D01*
X53236789Y-32619036D01*
X53405116Y-32681636D01*
X53412097Y-32682567D01*
X53412099Y-32682568D01*
X53576149Y-32704457D01*
X53576153Y-32704457D01*
X53583130Y-32705388D01*
X53590142Y-32704750D01*
X53590146Y-32704750D01*
X53754960Y-32689751D01*
X53754961Y-32689751D01*
X53761981Y-32689112D01*
X53932782Y-32633615D01*
X53957239Y-32619036D01*
X54080992Y-32545265D01*
X54080994Y-32545264D01*
X54087044Y-32541657D01*
X54217099Y-32417807D01*
X54222927Y-32409036D01*
X54273036Y-32333615D01*
X54316483Y-32268222D01*
X54336427Y-32215719D01*
X54377757Y-32106919D01*
X54377758Y-32106914D01*
X54380257Y-32100336D01*
X54386176Y-32058222D01*
X54404700Y-31926416D01*
X54404700Y-31926411D01*
X54405251Y-31922493D01*
X54405565Y-31900000D01*
X54385546Y-31721528D01*
X54379427Y-31703955D01*
X54351888Y-31624874D01*
X54326485Y-31551927D01*
X54321481Y-31543918D01*
X54235049Y-31405599D01*
X54231316Y-31399625D01*
X54153396Y-31321159D01*
X54109733Y-31277190D01*
X54109729Y-31277187D01*
X54104770Y-31272193D01*
X54093761Y-31265206D01*
X54003041Y-31207634D01*
X53973290Y-31188753D01*
X55094514Y-31188753D01*
X55095201Y-31195760D01*
X55095201Y-31195763D01*
X55099136Y-31235891D01*
X55112039Y-31367486D01*
X55114262Y-31374168D01*
X55114262Y-31374169D01*
X55159955Y-31511528D01*
X55168726Y-31537896D01*
X55172373Y-31543918D01*
X55222336Y-31626416D01*
X55261759Y-31691512D01*
X55266648Y-31696575D01*
X55266649Y-31696576D01*
X55286922Y-31717569D01*
X55386514Y-31820699D01*
X55536789Y-31919036D01*
X55705116Y-31981636D01*
X55712097Y-31982567D01*
X55712099Y-31982568D01*
X55767283Y-31989931D01*
X55883130Y-32005388D01*
X55890141Y-32004750D01*
X55890144Y-32004750D01*
X55894722Y-32004333D01*
X55898391Y-32003999D01*
X55968043Y-32017744D01*
X56019208Y-32066964D01*
X56029370Y-32089709D01*
X56045165Y-32137190D01*
X56048726Y-32147896D01*
X56052373Y-32153918D01*
X56128575Y-32279742D01*
X56141759Y-32301512D01*
X56146648Y-32306575D01*
X56146649Y-32306576D01*
X56174354Y-32335265D01*
X56266514Y-32430699D01*
X56416789Y-32529036D01*
X56585116Y-32591636D01*
X56592097Y-32592567D01*
X56592099Y-32592568D01*
X56756149Y-32614457D01*
X56756153Y-32614457D01*
X56763130Y-32615388D01*
X56770142Y-32614750D01*
X56770146Y-32614750D01*
X56934960Y-32599751D01*
X56934961Y-32599751D01*
X56941981Y-32599112D01*
X57112782Y-32543615D01*
X57143714Y-32525176D01*
X57260992Y-32455265D01*
X57260994Y-32455264D01*
X57267044Y-32451657D01*
X57397099Y-32327807D01*
X57402927Y-32319036D01*
X57456836Y-32237896D01*
X57496483Y-32178222D01*
X57526069Y-32100336D01*
X57557757Y-32016919D01*
X57557758Y-32016914D01*
X57560257Y-32010336D01*
X57564160Y-31982568D01*
X57584700Y-31836416D01*
X57584700Y-31836411D01*
X57585251Y-31832493D01*
X57585416Y-31820699D01*
X57585510Y-31813963D01*
X57585510Y-31813958D01*
X57585565Y-31810000D01*
X57565546Y-31631528D01*
X57553196Y-31596062D01*
X57550651Y-31588753D01*
X65194514Y-31588753D01*
X65195201Y-31595760D01*
X65195201Y-31595763D01*
X65198207Y-31626416D01*
X65212039Y-31767486D01*
X65214262Y-31774168D01*
X65214262Y-31774169D01*
X65262285Y-31918532D01*
X65268726Y-31937896D01*
X65272373Y-31943918D01*
X65351256Y-32074169D01*
X65361759Y-32091512D01*
X65486514Y-32220699D01*
X65636789Y-32319036D01*
X65805116Y-32381636D01*
X65812097Y-32382567D01*
X65812099Y-32382568D01*
X65976149Y-32404457D01*
X65976153Y-32404457D01*
X65983130Y-32405388D01*
X65990142Y-32404750D01*
X65990146Y-32404750D01*
X66154960Y-32389751D01*
X66154961Y-32389751D01*
X66161981Y-32389112D01*
X66332782Y-32333615D01*
X66363714Y-32315176D01*
X66480992Y-32245265D01*
X66480994Y-32245264D01*
X66487044Y-32241657D01*
X66617099Y-32117807D01*
X66634570Y-32091512D01*
X66684129Y-32016919D01*
X66716483Y-31968222D01*
X66735167Y-31919036D01*
X66777757Y-31806919D01*
X66777758Y-31806914D01*
X66780257Y-31800336D01*
X66792268Y-31714874D01*
X66797344Y-31678753D01*
X71164514Y-31678753D01*
X71165201Y-31685760D01*
X71165201Y-31685763D01*
X71168207Y-31716416D01*
X71182039Y-31857486D01*
X71184262Y-31864168D01*
X71184262Y-31864169D01*
X71232885Y-32010336D01*
X71238726Y-32027896D01*
X71242373Y-32033918D01*
X71315048Y-32153918D01*
X71331759Y-32181512D01*
X71336648Y-32186575D01*
X71336649Y-32186576D01*
X71372752Y-32223961D01*
X71456514Y-32310699D01*
X71606789Y-32409036D01*
X71775116Y-32471636D01*
X71782097Y-32472567D01*
X71782099Y-32472568D01*
X71946149Y-32494457D01*
X71946153Y-32494457D01*
X71953130Y-32495388D01*
X71960142Y-32494750D01*
X71960146Y-32494750D01*
X72124960Y-32479751D01*
X72124961Y-32479751D01*
X72131981Y-32479112D01*
X72302782Y-32423615D01*
X72327239Y-32409036D01*
X72450992Y-32335265D01*
X72450994Y-32335264D01*
X72457044Y-32331657D01*
X72587099Y-32207807D01*
X72604570Y-32181512D01*
X72641979Y-32125206D01*
X72686483Y-32058222D01*
X72715221Y-31982568D01*
X72747757Y-31896919D01*
X72747758Y-31896914D01*
X72750257Y-31890336D01*
X72751237Y-31883364D01*
X72774700Y-31716416D01*
X72774700Y-31716411D01*
X72775251Y-31712493D01*
X72775565Y-31690000D01*
X72755546Y-31511528D01*
X72749427Y-31493955D01*
X72714837Y-31394627D01*
X72696485Y-31341927D01*
X72680034Y-31315599D01*
X72605049Y-31195599D01*
X72601316Y-31189625D01*
X72537771Y-31125635D01*
X72479733Y-31067190D01*
X72479729Y-31067187D01*
X72474770Y-31062193D01*
X72466052Y-31056660D01*
X72384872Y-31005142D01*
X72323136Y-30965963D01*
X72260019Y-30943488D01*
X72160586Y-30908081D01*
X72160581Y-30908080D01*
X72153951Y-30905719D01*
X72146965Y-30904886D01*
X72146961Y-30904885D01*
X72019177Y-30889648D01*
X71975624Y-30884455D01*
X71968621Y-30885191D01*
X71968620Y-30885191D01*
X71804025Y-30902490D01*
X71804021Y-30902491D01*
X71797017Y-30903227D01*
X71790346Y-30905498D01*
X71633677Y-30958832D01*
X71633674Y-30958833D01*
X71627007Y-30961103D01*
X71621009Y-30964793D01*
X71621007Y-30964794D01*
X71559324Y-31002742D01*
X71474045Y-31055206D01*
X71469014Y-31060132D01*
X71469011Y-31060135D01*
X71422585Y-31105599D01*
X71345732Y-31180859D01*
X71341913Y-31186784D01*
X71341912Y-31186786D01*
X71255315Y-31321159D01*
X71248446Y-31331817D01*
X71246037Y-31338437D01*
X71246035Y-31338440D01*
X71219779Y-31410578D01*
X71187022Y-31500578D01*
X71164514Y-31678753D01*
X66797344Y-31678753D01*
X66804700Y-31626416D01*
X66804700Y-31626411D01*
X66805251Y-31622493D01*
X66805565Y-31600000D01*
X66785546Y-31421528D01*
X66779427Y-31403955D01*
X66744837Y-31304627D01*
X66726485Y-31251927D01*
X66691659Y-31196193D01*
X66635049Y-31105599D01*
X66631316Y-31099625D01*
X66567771Y-31035635D01*
X66509733Y-30977190D01*
X66509729Y-30977187D01*
X66504770Y-30972193D01*
X66494954Y-30965963D01*
X66446860Y-30935442D01*
X66353136Y-30875963D01*
X66313744Y-30861936D01*
X66190586Y-30818081D01*
X66190581Y-30818080D01*
X66183951Y-30815719D01*
X66176965Y-30814886D01*
X66176961Y-30814885D01*
X66049177Y-30799648D01*
X66005624Y-30794455D01*
X65998621Y-30795191D01*
X65998620Y-30795191D01*
X65834025Y-30812490D01*
X65834021Y-30812491D01*
X65827017Y-30813227D01*
X65820346Y-30815498D01*
X65663677Y-30868832D01*
X65663674Y-30868833D01*
X65657007Y-30871103D01*
X65651009Y-30874793D01*
X65651007Y-30874794D01*
X65596900Y-30908081D01*
X65504045Y-30965206D01*
X65499014Y-30970132D01*
X65499011Y-30970135D01*
X65443103Y-31024885D01*
X65375732Y-31090859D01*
X65371913Y-31096784D01*
X65371912Y-31096786D01*
X65308126Y-31195763D01*
X65278446Y-31241817D01*
X65276037Y-31248437D01*
X65276035Y-31248440D01*
X65250810Y-31317747D01*
X65217022Y-31410578D01*
X65194514Y-31588753D01*
X57550651Y-31588753D01*
X57508803Y-31468584D01*
X57506485Y-31461927D01*
X57487647Y-31431779D01*
X57415049Y-31315599D01*
X57411316Y-31309625D01*
X57314930Y-31212564D01*
X57289733Y-31187190D01*
X57289729Y-31187187D01*
X57284770Y-31182193D01*
X57274954Y-31175963D01*
X57213453Y-31136934D01*
X57133136Y-31085963D01*
X57088158Y-31069947D01*
X56970586Y-31028081D01*
X56970581Y-31028080D01*
X56963951Y-31025719D01*
X56956965Y-31024886D01*
X56956961Y-31024885D01*
X56829177Y-31009648D01*
X56785624Y-31004455D01*
X56778619Y-31005191D01*
X56771574Y-31005142D01*
X56771591Y-31002742D01*
X56712821Y-30991992D01*
X56660976Y-30943488D01*
X56650501Y-30920892D01*
X56628801Y-30858577D01*
X56628800Y-30858575D01*
X56626485Y-30851927D01*
X56590573Y-30794455D01*
X56535049Y-30705599D01*
X56531316Y-30699625D01*
X56467771Y-30635635D01*
X56409733Y-30577190D01*
X56409729Y-30577187D01*
X56404770Y-30572193D01*
X56393761Y-30565206D01*
X56329096Y-30524169D01*
X56253136Y-30475963D01*
X56223352Y-30465357D01*
X56090586Y-30418081D01*
X56090581Y-30418080D01*
X56083951Y-30415719D01*
X56076965Y-30414886D01*
X56076961Y-30414885D01*
X55925449Y-30396819D01*
X55905624Y-30394455D01*
X55898621Y-30395191D01*
X55898620Y-30395191D01*
X55734025Y-30412490D01*
X55734021Y-30412491D01*
X55727017Y-30413227D01*
X55720346Y-30415498D01*
X55563677Y-30468832D01*
X55563674Y-30468833D01*
X55557007Y-30471103D01*
X55551009Y-30474793D01*
X55551007Y-30474794D01*
X55493007Y-30510476D01*
X55404045Y-30565206D01*
X55399014Y-30570132D01*
X55399011Y-30570135D01*
X55391807Y-30577190D01*
X55275732Y-30690859D01*
X55271913Y-30696784D01*
X55271912Y-30696786D01*
X55195407Y-30815498D01*
X55178446Y-30841817D01*
X55176037Y-30848437D01*
X55176035Y-30848440D01*
X55154328Y-30908081D01*
X55117022Y-31010578D01*
X55094514Y-31188753D01*
X53973290Y-31188753D01*
X53953136Y-31175963D01*
X53892740Y-31154457D01*
X53790586Y-31118081D01*
X53790581Y-31118080D01*
X53783951Y-31115719D01*
X53776965Y-31114886D01*
X53776961Y-31114885D01*
X53648981Y-31099625D01*
X53605624Y-31094455D01*
X53598621Y-31095191D01*
X53598620Y-31095191D01*
X53434025Y-31112490D01*
X53434021Y-31112491D01*
X53427017Y-31113227D01*
X53420346Y-31115498D01*
X53263677Y-31168832D01*
X53263674Y-31168833D01*
X53257007Y-31171103D01*
X53251009Y-31174793D01*
X53251007Y-31174794D01*
X53230858Y-31187190D01*
X53104045Y-31265206D01*
X53099014Y-31270132D01*
X53099011Y-31270135D01*
X53042075Y-31325891D01*
X52975732Y-31390859D01*
X52971913Y-31396784D01*
X52971912Y-31396786D01*
X52909291Y-31493955D01*
X52878446Y-31541817D01*
X52876037Y-31548437D01*
X52876035Y-31548440D01*
X52858811Y-31595763D01*
X52817022Y-31710578D01*
X52794514Y-31888753D01*
X44075000Y-31888753D01*
X44075000Y-30338753D01*
X57244514Y-30338753D01*
X57245201Y-30345760D01*
X57245201Y-30345763D01*
X57251744Y-30412490D01*
X57262039Y-30517486D01*
X57264262Y-30524168D01*
X57264262Y-30524169D01*
X57281900Y-30577190D01*
X57318726Y-30687896D01*
X57322373Y-30693918D01*
X57397569Y-30818081D01*
X57411759Y-30841512D01*
X57416648Y-30846575D01*
X57416649Y-30846576D01*
X57466566Y-30898266D01*
X57536514Y-30970699D01*
X57686789Y-31069036D01*
X57855116Y-31131636D01*
X57862097Y-31132567D01*
X57862099Y-31132568D01*
X58026149Y-31154457D01*
X58026153Y-31154457D01*
X58033130Y-31155388D01*
X58040142Y-31154750D01*
X58040146Y-31154750D01*
X58204960Y-31139751D01*
X58204961Y-31139751D01*
X58211981Y-31139112D01*
X58375556Y-31085963D01*
X58376082Y-31085792D01*
X58382782Y-31083615D01*
X58403119Y-31071492D01*
X58530992Y-30995265D01*
X58530994Y-30995264D01*
X58537044Y-30991657D01*
X58667099Y-30867807D01*
X58673232Y-30858577D01*
X58755910Y-30734135D01*
X58763567Y-30722611D01*
X59274394Y-30722611D01*
X59292999Y-30891135D01*
X59322662Y-30972193D01*
X59339268Y-31017569D01*
X59351266Y-31050356D01*
X59355502Y-31056659D01*
X59355502Y-31056660D01*
X59365469Y-31071492D01*
X59445830Y-31191083D01*
X59451442Y-31196190D01*
X59451445Y-31196193D01*
X59565612Y-31300077D01*
X59565616Y-31300080D01*
X59571233Y-31305191D01*
X59577906Y-31308814D01*
X59577910Y-31308817D01*
X59713558Y-31382467D01*
X59713560Y-31382468D01*
X59720235Y-31386092D01*
X59727584Y-31388020D01*
X59876883Y-31427188D01*
X59876885Y-31427188D01*
X59884233Y-31429116D01*
X59970609Y-31430473D01*
X60046161Y-31431660D01*
X60046164Y-31431660D01*
X60053760Y-31431779D01*
X60061165Y-31430083D01*
X60061166Y-31430083D01*
X60146330Y-31410578D01*
X60219029Y-31393928D01*
X60370498Y-31317747D01*
X60459400Y-31241817D01*
X60493651Y-31212564D01*
X60493652Y-31212563D01*
X60499423Y-31207634D01*
X60598361Y-31069947D01*
X60601478Y-31062193D01*
X60658766Y-30919687D01*
X60658767Y-30919685D01*
X60661601Y-30912634D01*
X60675425Y-30815498D01*
X60684909Y-30748862D01*
X60684909Y-30748859D01*
X60685490Y-30744778D01*
X60685645Y-30730000D01*
X60683840Y-30715080D01*
X60666188Y-30569220D01*
X60665276Y-30561680D01*
X60610122Y-30415719D01*
X60608029Y-30410180D01*
X60605345Y-30403077D01*
X60568866Y-30350000D01*
X60513614Y-30269608D01*
X60513613Y-30269607D01*
X60509312Y-30263349D01*
X60497514Y-30252837D01*
X60388392Y-30155612D01*
X60388388Y-30155610D01*
X60382721Y-30150560D01*
X60350718Y-30133615D01*
X60315080Y-30114746D01*
X60232881Y-30071224D01*
X60068441Y-30029919D01*
X60060843Y-30029879D01*
X60060841Y-30029879D01*
X59983668Y-30029475D01*
X59898895Y-30029031D01*
X59891508Y-30030805D01*
X59891504Y-30030805D01*
X59748162Y-30065220D01*
X59734032Y-30068612D01*
X59727288Y-30072093D01*
X59727285Y-30072094D01*
X59722089Y-30074776D01*
X59583369Y-30146375D01*
X59577647Y-30151367D01*
X59577645Y-30151368D01*
X59542948Y-30181636D01*
X59455604Y-30257831D01*
X59451237Y-30264045D01*
X59393805Y-30345763D01*
X59358113Y-30396547D01*
X59296524Y-30554513D01*
X59295532Y-30562046D01*
X59295532Y-30562047D01*
X59276634Y-30705599D01*
X59274394Y-30722611D01*
X58763567Y-30722611D01*
X58766483Y-30718222D01*
X58781168Y-30679564D01*
X58827757Y-30556919D01*
X58827758Y-30556914D01*
X58830257Y-30550336D01*
X58840178Y-30479742D01*
X58854700Y-30376416D01*
X58854700Y-30376411D01*
X58855251Y-30372493D01*
X58855565Y-30350000D01*
X58835546Y-30171528D01*
X58830004Y-30155612D01*
X58787809Y-30034445D01*
X58776485Y-30001927D01*
X58752903Y-29964187D01*
X58685049Y-29855599D01*
X58681316Y-29849625D01*
X58606309Y-29774093D01*
X58559733Y-29727190D01*
X58559729Y-29727187D01*
X58554770Y-29722193D01*
X58543761Y-29715206D01*
X58496860Y-29685442D01*
X58403136Y-29625963D01*
X58331167Y-29600336D01*
X58240586Y-29568081D01*
X58240581Y-29568080D01*
X58233951Y-29565719D01*
X58226965Y-29564886D01*
X58226961Y-29564885D01*
X58099177Y-29549648D01*
X58055624Y-29544455D01*
X58048621Y-29545191D01*
X58048620Y-29545191D01*
X57884025Y-29562490D01*
X57884021Y-29562491D01*
X57877017Y-29563227D01*
X57870346Y-29565498D01*
X57713677Y-29618832D01*
X57713674Y-29618833D01*
X57707007Y-29621103D01*
X57701009Y-29624793D01*
X57701007Y-29624794D01*
X57630526Y-29668154D01*
X57554045Y-29715206D01*
X57549014Y-29720132D01*
X57549011Y-29720135D01*
X57508711Y-29759600D01*
X57425732Y-29840859D01*
X57421913Y-29846784D01*
X57421912Y-29846786D01*
X57396970Y-29885489D01*
X57328446Y-29991817D01*
X57326037Y-29998437D01*
X57326035Y-29998440D01*
X57301140Y-30066839D01*
X57267022Y-30160578D01*
X57244514Y-30338753D01*
X44075000Y-30338753D01*
X44075000Y-29388753D01*
X54194514Y-29388753D01*
X54195201Y-29395760D01*
X54195201Y-29395763D01*
X54201583Y-29460848D01*
X54212039Y-29567486D01*
X54214262Y-29574168D01*
X54214262Y-29574169D01*
X54265165Y-29727190D01*
X54268726Y-29737896D01*
X54272373Y-29743918D01*
X54355743Y-29881578D01*
X54361759Y-29891512D01*
X54486514Y-30020699D01*
X54636789Y-30119036D01*
X54805116Y-30181636D01*
X54812097Y-30182567D01*
X54812099Y-30182568D01*
X54976149Y-30204457D01*
X54976153Y-30204457D01*
X54983130Y-30205388D01*
X54990142Y-30204750D01*
X54990146Y-30204750D01*
X55154960Y-30189751D01*
X55154961Y-30189751D01*
X55161981Y-30189112D01*
X55332782Y-30133615D01*
X55431486Y-30074776D01*
X55480992Y-30045265D01*
X55480994Y-30045264D01*
X55487044Y-30041657D01*
X55617099Y-29917807D01*
X55634570Y-29891512D01*
X55712582Y-29774093D01*
X55716483Y-29768222D01*
X55769087Y-29629742D01*
X55777757Y-29606919D01*
X55777758Y-29606914D01*
X55780257Y-29600336D01*
X55781237Y-29593364D01*
X55804700Y-29426416D01*
X55804700Y-29426411D01*
X55805251Y-29422493D01*
X55805565Y-29400000D01*
X55790922Y-29269455D01*
X69904825Y-29269455D01*
X69905512Y-29276462D01*
X69905512Y-29276465D01*
X69908311Y-29305010D01*
X69921255Y-29437025D01*
X69974402Y-29596791D01*
X69978049Y-29602813D01*
X69978050Y-29602815D01*
X70049102Y-29720135D01*
X70061624Y-29740812D01*
X70066513Y-29745875D01*
X70066514Y-29745876D01*
X70093763Y-29774093D01*
X70178586Y-29861929D01*
X70184483Y-29865788D01*
X70313577Y-29950266D01*
X70313581Y-29950268D01*
X70319475Y-29954125D01*
X70477289Y-30012815D01*
X70484270Y-30013746D01*
X70484272Y-30013747D01*
X70529812Y-30019823D01*
X70644183Y-30035083D01*
X70651194Y-30034445D01*
X70651198Y-30034445D01*
X70804843Y-30020462D01*
X70811864Y-30019823D01*
X70818566Y-30017645D01*
X70818568Y-30017645D01*
X70965298Y-29969970D01*
X70965301Y-29969969D01*
X70971997Y-29967793D01*
X71116623Y-29881578D01*
X71121717Y-29876727D01*
X71121721Y-29876724D01*
X71233454Y-29770322D01*
X71233455Y-29770320D01*
X71238554Y-29765465D01*
X71254934Y-29740812D01*
X71327836Y-29631085D01*
X71331731Y-29625223D01*
X71391521Y-29467823D01*
X71414955Y-29301088D01*
X71415249Y-29280000D01*
X71413283Y-29262468D01*
X71397266Y-29119672D01*
X71397265Y-29119669D01*
X71396481Y-29112676D01*
X71341108Y-28953668D01*
X71251884Y-28810879D01*
X71243723Y-28802661D01*
X71138205Y-28696403D01*
X71138201Y-28696400D01*
X71133242Y-28691406D01*
X71114863Y-28679742D01*
X71077953Y-28656319D01*
X70991079Y-28601187D01*
X70984435Y-28598821D01*
X70978110Y-28595736D01*
X70978710Y-28594506D01*
X70927408Y-28557286D01*
X70901606Y-28491144D01*
X70915658Y-28421552D01*
X70965104Y-28370605D01*
X70968223Y-28369019D01*
X70971997Y-28367793D01*
X70990804Y-28356582D01*
X71047988Y-28322493D01*
X71116623Y-28281578D01*
X71121717Y-28276727D01*
X71121721Y-28276724D01*
X71233454Y-28170322D01*
X71233455Y-28170320D01*
X71238554Y-28165465D01*
X71254934Y-28140812D01*
X71327836Y-28031085D01*
X71331731Y-28025223D01*
X71346276Y-27986934D01*
X71354373Y-27965618D01*
X71391521Y-27867823D01*
X71412605Y-27717807D01*
X71414404Y-27705010D01*
X71414404Y-27705006D01*
X71414955Y-27701088D01*
X71415249Y-27680000D01*
X71414373Y-27672193D01*
X71397266Y-27519672D01*
X71397265Y-27519669D01*
X71396481Y-27512676D01*
X71341108Y-27353668D01*
X71251884Y-27210879D01*
X71241081Y-27200000D01*
X71229912Y-27188753D01*
X73694514Y-27188753D01*
X73695201Y-27195760D01*
X73695201Y-27195763D01*
X73696005Y-27203963D01*
X73712039Y-27367486D01*
X73714262Y-27374168D01*
X73714262Y-27374169D01*
X73762135Y-27518081D01*
X73768726Y-27537896D01*
X73772373Y-27543918D01*
X73848813Y-27670135D01*
X73861759Y-27691512D01*
X73986514Y-27820699D01*
X74136789Y-27919036D01*
X74305116Y-27981636D01*
X74312097Y-27982567D01*
X74312099Y-27982568D01*
X74476149Y-28004457D01*
X74476153Y-28004457D01*
X74483130Y-28005388D01*
X74490142Y-28004750D01*
X74490146Y-28004750D01*
X74654960Y-27989751D01*
X74654961Y-27989751D01*
X74661981Y-27989112D01*
X74832782Y-27933615D01*
X74954851Y-27860848D01*
X74980992Y-27845265D01*
X74980994Y-27845264D01*
X74987044Y-27841657D01*
X75117099Y-27717807D01*
X75125602Y-27705010D01*
X75211340Y-27575963D01*
X75216483Y-27568222D01*
X75237654Y-27512490D01*
X75277757Y-27406919D01*
X75277758Y-27406914D01*
X75280257Y-27400336D01*
X75287217Y-27350813D01*
X75304700Y-27226416D01*
X75304700Y-27226411D01*
X75305251Y-27222493D01*
X75305565Y-27200000D01*
X75285546Y-27021528D01*
X75279427Y-27003955D01*
X75228803Y-26858584D01*
X75226485Y-26851927D01*
X75131316Y-26699625D01*
X75067771Y-26635635D01*
X75009733Y-26577190D01*
X75009729Y-26577187D01*
X75004770Y-26572193D01*
X74993761Y-26565206D01*
X74946860Y-26535442D01*
X74853136Y-26475963D01*
X74823352Y-26465357D01*
X74690586Y-26418081D01*
X74690581Y-26418080D01*
X74683951Y-26415719D01*
X74676965Y-26414886D01*
X74676961Y-26414885D01*
X74549177Y-26399648D01*
X74505624Y-26394455D01*
X74498621Y-26395191D01*
X74498620Y-26395191D01*
X74334025Y-26412490D01*
X74334021Y-26412491D01*
X74327017Y-26413227D01*
X74320346Y-26415498D01*
X74163677Y-26468832D01*
X74163674Y-26468833D01*
X74157007Y-26471103D01*
X74151009Y-26474793D01*
X74151007Y-26474794D01*
X74080526Y-26518154D01*
X74004045Y-26565206D01*
X73999014Y-26570132D01*
X73999011Y-26570135D01*
X73991807Y-26577190D01*
X73875732Y-26690859D01*
X73871913Y-26696784D01*
X73871912Y-26696786D01*
X73782265Y-26835891D01*
X73778446Y-26841817D01*
X73717022Y-27010578D01*
X73694514Y-27188753D01*
X71229912Y-27188753D01*
X71138205Y-27096403D01*
X71138201Y-27096400D01*
X71133242Y-27091406D01*
X70991079Y-27001187D01*
X70832462Y-26944706D01*
X70825474Y-26943873D01*
X70825471Y-26943872D01*
X70732300Y-26932762D01*
X70665273Y-26924769D01*
X70658270Y-26925505D01*
X70658269Y-26925505D01*
X70612712Y-26930293D01*
X70497821Y-26942369D01*
X70491155Y-26944638D01*
X70491152Y-26944639D01*
X70345098Y-26994360D01*
X70345095Y-26994361D01*
X70338431Y-26996630D01*
X70332436Y-27000318D01*
X70332432Y-27000320D01*
X70201021Y-27081165D01*
X70201019Y-27081167D01*
X70195022Y-27084856D01*
X70183231Y-27096403D01*
X70081463Y-27196062D01*
X70074724Y-27202661D01*
X69983515Y-27344190D01*
X69925927Y-27502409D01*
X69904825Y-27669455D01*
X69905512Y-27676462D01*
X69905512Y-27676465D01*
X69908311Y-27705010D01*
X69921255Y-27837025D01*
X69974402Y-27996791D01*
X69978049Y-28002813D01*
X69978050Y-28002815D01*
X70047548Y-28117569D01*
X70061624Y-28140812D01*
X70066513Y-28145875D01*
X70066514Y-28145876D01*
X70137825Y-28219720D01*
X70178586Y-28261929D01*
X70184483Y-28265788D01*
X70313577Y-28350266D01*
X70313581Y-28350268D01*
X70319475Y-28354125D01*
X70326079Y-28356581D01*
X70326081Y-28356582D01*
X70338001Y-28361015D01*
X70394878Y-28403507D01*
X70419752Y-28470004D01*
X70404727Y-28539392D01*
X70354573Y-28589643D01*
X70347732Y-28593120D01*
X70345092Y-28594362D01*
X70338431Y-28596630D01*
X70303563Y-28618081D01*
X70201021Y-28681165D01*
X70201019Y-28681167D01*
X70195022Y-28684856D01*
X70183231Y-28696403D01*
X70080938Y-28796576D01*
X70074724Y-28802661D01*
X69983515Y-28944190D01*
X69925927Y-29102409D01*
X69904825Y-29269455D01*
X55790922Y-29269455D01*
X55785546Y-29221528D01*
X55779427Y-29203955D01*
X55744778Y-29104457D01*
X55726485Y-29051927D01*
X55715043Y-29033615D01*
X55635049Y-28905599D01*
X55631316Y-28899625D01*
X55550067Y-28817807D01*
X55509733Y-28777190D01*
X55509729Y-28777187D01*
X55504770Y-28772193D01*
X55493761Y-28765206D01*
X55377470Y-28691406D01*
X55353136Y-28675963D01*
X55312898Y-28661635D01*
X55190586Y-28618081D01*
X55190581Y-28618080D01*
X55183951Y-28615719D01*
X55176965Y-28614886D01*
X55176961Y-28614885D01*
X55049177Y-28599648D01*
X55005624Y-28594455D01*
X54998621Y-28595191D01*
X54998620Y-28595191D01*
X54834025Y-28612490D01*
X54834021Y-28612491D01*
X54827017Y-28613227D01*
X54820346Y-28615498D01*
X54663677Y-28668832D01*
X54663674Y-28668833D01*
X54657007Y-28671103D01*
X54651009Y-28674793D01*
X54651007Y-28674794D01*
X54580526Y-28718154D01*
X54504045Y-28765206D01*
X54499014Y-28770132D01*
X54499011Y-28770135D01*
X54457405Y-28810879D01*
X54375732Y-28890859D01*
X54371913Y-28896784D01*
X54371912Y-28896786D01*
X54339105Y-28947693D01*
X54278446Y-29041817D01*
X54276037Y-29048437D01*
X54276035Y-29048440D01*
X54263953Y-29081636D01*
X54217022Y-29210578D01*
X54194514Y-29388753D01*
X44075000Y-29388753D01*
X44075000Y-28288753D01*
X65194514Y-28288753D01*
X65195201Y-28295760D01*
X65195201Y-28295763D01*
X65196005Y-28303963D01*
X65212039Y-28467486D01*
X65214262Y-28474168D01*
X65214262Y-28474169D01*
X65262135Y-28618081D01*
X65268726Y-28637896D01*
X65272373Y-28643918D01*
X65348813Y-28770135D01*
X65361759Y-28791512D01*
X65366648Y-28796575D01*
X65366649Y-28796576D01*
X65387152Y-28817807D01*
X65486514Y-28920699D01*
X65636789Y-29019036D01*
X65805116Y-29081636D01*
X65812097Y-29082567D01*
X65812099Y-29082568D01*
X65976149Y-29104457D01*
X65976153Y-29104457D01*
X65983130Y-29105388D01*
X65990142Y-29104750D01*
X65990146Y-29104750D01*
X66154960Y-29089751D01*
X66154961Y-29089751D01*
X66161981Y-29089112D01*
X66332782Y-29033615D01*
X66455733Y-28960322D01*
X66480992Y-28945265D01*
X66480994Y-28945264D01*
X66487044Y-28941657D01*
X66617099Y-28817807D01*
X66623228Y-28808583D01*
X66666791Y-28743014D01*
X66716483Y-28668222D01*
X66741947Y-28601187D01*
X66777757Y-28506919D01*
X66777758Y-28506914D01*
X66780257Y-28500336D01*
X66789428Y-28435083D01*
X66804700Y-28326416D01*
X66804700Y-28326411D01*
X66805251Y-28322493D01*
X66805565Y-28300000D01*
X66785546Y-28121528D01*
X66779427Y-28103955D01*
X66728803Y-27958584D01*
X66726485Y-27951927D01*
X66715043Y-27933615D01*
X66635049Y-27805599D01*
X66631316Y-27799625D01*
X66537359Y-27705010D01*
X66509733Y-27677190D01*
X66509729Y-27677187D01*
X66504770Y-27672193D01*
X66493761Y-27665206D01*
X66446860Y-27635442D01*
X66353136Y-27575963D01*
X66312898Y-27561635D01*
X66190586Y-27518081D01*
X66190581Y-27518080D01*
X66183951Y-27515719D01*
X66176965Y-27514886D01*
X66176961Y-27514885D01*
X66049177Y-27499648D01*
X66005624Y-27494455D01*
X65998621Y-27495191D01*
X65998620Y-27495191D01*
X65834025Y-27512490D01*
X65834021Y-27512491D01*
X65827017Y-27513227D01*
X65820346Y-27515498D01*
X65663677Y-27568832D01*
X65663674Y-27568833D01*
X65657007Y-27571103D01*
X65651009Y-27574793D01*
X65651007Y-27574794D01*
X65580526Y-27618155D01*
X65504045Y-27665206D01*
X65499014Y-27670132D01*
X65499011Y-27670135D01*
X65477182Y-27691512D01*
X65375732Y-27790859D01*
X65371913Y-27796784D01*
X65371912Y-27796786D01*
X65295615Y-27915176D01*
X65278446Y-27941817D01*
X65276037Y-27948437D01*
X65276035Y-27948440D01*
X65255647Y-28004457D01*
X65217022Y-28110578D01*
X65194514Y-28288753D01*
X44075000Y-28288753D01*
X44075000Y-23728753D01*
X60564514Y-23728753D01*
X60565201Y-23735760D01*
X60565201Y-23735763D01*
X60573276Y-23818119D01*
X60582039Y-23907486D01*
X60584262Y-23914168D01*
X60584262Y-23914169D01*
X60611027Y-23994627D01*
X60638726Y-24077896D01*
X60642373Y-24083918D01*
X60679942Y-24145951D01*
X60731759Y-24231512D01*
X60856514Y-24360699D01*
X61006789Y-24459036D01*
X61175116Y-24521636D01*
X61182097Y-24522567D01*
X61182099Y-24522568D01*
X61346149Y-24544457D01*
X61346153Y-24544457D01*
X61353130Y-24545388D01*
X61360142Y-24544750D01*
X61360146Y-24544750D01*
X61524960Y-24529751D01*
X61524961Y-24529751D01*
X61531981Y-24529112D01*
X61656192Y-24488753D01*
X73794514Y-24488753D01*
X73795201Y-24495760D01*
X73795201Y-24495763D01*
X73800067Y-24545388D01*
X73812039Y-24667486D01*
X73814262Y-24674168D01*
X73814262Y-24674169D01*
X73822967Y-24700336D01*
X73868726Y-24837896D01*
X73961759Y-24991512D01*
X74086514Y-25120699D01*
X74236789Y-25219036D01*
X74405116Y-25281636D01*
X74412097Y-25282567D01*
X74412099Y-25282568D01*
X74576149Y-25304457D01*
X74576153Y-25304457D01*
X74583130Y-25305388D01*
X74590142Y-25304750D01*
X74590146Y-25304750D01*
X74754960Y-25289751D01*
X74754961Y-25289751D01*
X74761981Y-25289112D01*
X74932782Y-25233615D01*
X74963714Y-25215176D01*
X75080992Y-25145265D01*
X75080994Y-25145264D01*
X75087044Y-25141657D01*
X75217099Y-25017807D01*
X75234570Y-24991512D01*
X75312582Y-24874093D01*
X75316483Y-24868222D01*
X75331168Y-24829564D01*
X75377757Y-24706919D01*
X75377758Y-24706914D01*
X75380257Y-24700336D01*
X75385859Y-24660476D01*
X75404700Y-24526416D01*
X75404700Y-24526411D01*
X75405251Y-24522493D01*
X75405565Y-24500000D01*
X75385546Y-24321528D01*
X75379427Y-24303955D01*
X75328803Y-24158584D01*
X75326485Y-24151927D01*
X75231316Y-23999625D01*
X75139818Y-23907486D01*
X75109733Y-23877190D01*
X75109729Y-23877187D01*
X75104770Y-23872193D01*
X75093761Y-23865206D01*
X75046860Y-23835442D01*
X74953136Y-23775963D01*
X74904184Y-23758532D01*
X74790586Y-23718081D01*
X74790581Y-23718080D01*
X74783951Y-23715719D01*
X74776965Y-23714886D01*
X74776961Y-23714885D01*
X74649177Y-23699648D01*
X74605624Y-23694455D01*
X74598621Y-23695191D01*
X74598620Y-23695191D01*
X74434025Y-23712490D01*
X74434021Y-23712491D01*
X74427017Y-23713227D01*
X74420346Y-23715498D01*
X74263677Y-23768832D01*
X74263674Y-23768833D01*
X74257007Y-23771103D01*
X74251009Y-23774793D01*
X74251007Y-23774794D01*
X74180526Y-23818154D01*
X74104045Y-23865206D01*
X74099014Y-23870132D01*
X74099011Y-23870135D01*
X74091807Y-23877190D01*
X73975732Y-23990859D01*
X73971913Y-23996784D01*
X73971912Y-23996786D01*
X73896313Y-24114093D01*
X73878446Y-24141817D01*
X73817022Y-24310578D01*
X73794514Y-24488753D01*
X61656192Y-24488753D01*
X61702782Y-24473615D01*
X61733714Y-24455176D01*
X61850992Y-24385265D01*
X61850994Y-24385264D01*
X61857044Y-24381657D01*
X61987099Y-24257807D01*
X62004570Y-24231512D01*
X62036791Y-24183014D01*
X62086483Y-24108222D01*
X62125466Y-24005599D01*
X62147757Y-23946919D01*
X62147758Y-23946914D01*
X62150257Y-23940336D01*
X62160123Y-23870135D01*
X62174700Y-23766416D01*
X62174700Y-23766411D01*
X62175251Y-23762493D01*
X62175565Y-23740000D01*
X62155546Y-23561528D01*
X62149427Y-23543955D01*
X62098803Y-23398584D01*
X62096485Y-23391927D01*
X62001316Y-23239625D01*
X61937771Y-23175635D01*
X61879733Y-23117190D01*
X61879729Y-23117187D01*
X61874770Y-23112193D01*
X61863761Y-23105206D01*
X61771938Y-23046934D01*
X61723136Y-23015963D01*
X61693352Y-23005357D01*
X61560586Y-22958081D01*
X61560581Y-22958080D01*
X61553951Y-22955719D01*
X61546965Y-22954886D01*
X61546961Y-22954885D01*
X61419177Y-22939648D01*
X61375624Y-22934455D01*
X61368621Y-22935191D01*
X61368620Y-22935191D01*
X61204025Y-22952490D01*
X61204021Y-22952491D01*
X61197017Y-22953227D01*
X61190346Y-22955498D01*
X61033677Y-23008832D01*
X61033674Y-23008833D01*
X61027007Y-23011103D01*
X61021009Y-23014793D01*
X61021007Y-23014794D01*
X60981367Y-23039181D01*
X60874045Y-23105206D01*
X60869014Y-23110132D01*
X60869011Y-23110135D01*
X60861807Y-23117190D01*
X60745732Y-23230859D01*
X60741913Y-23236784D01*
X60741912Y-23236786D01*
X60652265Y-23375891D01*
X60648446Y-23381817D01*
X60587022Y-23550578D01*
X60564514Y-23728753D01*
X44075000Y-23728753D01*
X44075000Y-22248753D01*
X69954514Y-22248753D01*
X69955201Y-22255760D01*
X69955201Y-22255763D01*
X69956005Y-22263963D01*
X69972039Y-22427486D01*
X69974262Y-22434168D01*
X69974262Y-22434169D01*
X69982967Y-22460336D01*
X70028726Y-22597896D01*
X70121759Y-22751512D01*
X70246514Y-22880699D01*
X70396789Y-22979036D01*
X70565116Y-23041636D01*
X70572097Y-23042567D01*
X70572099Y-23042568D01*
X70736149Y-23064457D01*
X70736153Y-23064457D01*
X70743130Y-23065388D01*
X70750142Y-23064750D01*
X70750146Y-23064750D01*
X70914960Y-23049751D01*
X70914961Y-23049751D01*
X70921981Y-23049112D01*
X71092782Y-22993615D01*
X71123714Y-22975176D01*
X71240992Y-22905265D01*
X71240994Y-22905264D01*
X71247044Y-22901657D01*
X71377099Y-22777807D01*
X71394570Y-22751512D01*
X71472582Y-22634093D01*
X71476483Y-22628222D01*
X71491168Y-22589564D01*
X71537757Y-22466919D01*
X71537758Y-22466914D01*
X71540257Y-22460336D01*
X71565251Y-22282493D01*
X71565565Y-22260000D01*
X71545546Y-22081528D01*
X71539427Y-22063955D01*
X71488803Y-21918584D01*
X71486485Y-21911927D01*
X71391316Y-21759625D01*
X71327771Y-21695635D01*
X71269733Y-21637190D01*
X71269729Y-21637187D01*
X71264770Y-21632193D01*
X71253761Y-21625206D01*
X71206860Y-21595442D01*
X71113136Y-21535963D01*
X71083352Y-21525357D01*
X70950586Y-21478081D01*
X70950581Y-21478080D01*
X70943951Y-21475719D01*
X70936965Y-21474886D01*
X70936961Y-21474885D01*
X70809177Y-21459648D01*
X70765624Y-21454455D01*
X70758621Y-21455191D01*
X70758620Y-21455191D01*
X70594025Y-21472490D01*
X70594021Y-21472491D01*
X70587017Y-21473227D01*
X70580346Y-21475498D01*
X70423677Y-21528832D01*
X70423674Y-21528833D01*
X70417007Y-21531103D01*
X70411009Y-21534793D01*
X70411007Y-21534794D01*
X70340526Y-21578154D01*
X70264045Y-21625206D01*
X70259014Y-21630132D01*
X70259011Y-21630135D01*
X70251807Y-21637190D01*
X70135732Y-21750859D01*
X70131913Y-21756784D01*
X70131912Y-21756786D01*
X70042265Y-21895891D01*
X70038446Y-21901817D01*
X69977022Y-22070578D01*
X69954514Y-22248753D01*
X44075000Y-22248753D01*
X44075000Y-20261000D01*
X44095002Y-20192879D01*
X44148658Y-20146386D01*
X44201000Y-20135000D01*
X87909000Y-20135000D01*
X87977121Y-20155002D01*
G37*
%TD.AperFunction*%
%TD*%
M02*
