M48
; DRILL file {KiCad (6.0.1)} date Sun Sep  4 12:14:16 2022
; FORMAT={-:-/ absolute / inch / decimal}
; #@! TF.CreationDate,2022-09-04T12:14:16+08:00
; #@! TF.GenerationSoftware,Kicad,Pcbnew,(6.0.1)
; #@! TF.FileFunction,Plated,1,4,PTH
FMAT,2
INCH
; #@! TA.AperFunction,Plated,PTH,ViaDrill
T1C0.0118
; #@! TA.AperFunction,Plated,PTH,ViaDrill
T2C0.0157
; #@! TA.AperFunction,Plated,PTH,ComponentDrill
T3C0.0157
; #@! TA.AperFunction,Plated,PTH,ComponentDrill
T4C0.0177
; #@! TA.AperFunction,Plated,PTH,ViaDrill
T5C0.0197
; #@! TA.AperFunction,Plated,PTH,ViaDrill
T6C0.0236
; #@! TA.AperFunction,Plated,PTH,ViaDrill
T7C0.0276
; #@! TA.AperFunction,Plated,PTH,ComponentDrill
T8C0.0295
; #@! TA.AperFunction,Plated,PTH,ViaDrill
T9C0.0315
; #@! TA.AperFunction,Plated,PTH,ViaDrill
T10C0.0433
%
G90
G05
T1
X2.3614Y-1.2098
X2.776Y-1.3213
X2.7819Y-1.0898
X2.7819Y-1.1528
X2.8232Y-1.3921
X2.8386Y-1.4528
T2
X1.7933Y-1.1972
X1.9075Y-1.8504
X1.9134Y-1.7835
X2.0193Y-1.3531
X2.0413Y-1.8819
X2.1102Y-1.2559
X2.1185Y-1.3386
X2.1654Y-1.1575
X2.1697Y-1.5299
X2.1697Y-1.6008
X2.2008Y-1.2283
X2.2354Y-1.2524
X2.2854Y-1.1949
X2.3311Y-1.6598
X2.3343Y-1.3157
X2.3587Y-1.5063
X2.3744Y-1.3213
X2.3783Y-1.7228
X2.3823Y-1.6598
X2.4059Y-1.2898
X2.4161Y-0.9346
X2.4201Y-1.5067
X2.4295Y-1.7898
X2.4461Y-1.2992
X2.4606Y-1.5
X2.4685Y-1.6575
X2.4921Y-1.8406
X2.4961Y-1.7244
X2.5157Y-1.6575
X2.5398Y-1.5063
X2.5594Y-1.6874
X2.5984Y-1.1142
X2.5984Y-1.2441
X2.5984Y-1.4134
X2.6421Y-1.3961
X2.6811Y-1.7244
X2.7638Y-1.8386
X2.7717Y-1.7008
X2.7858Y-0.8764
X2.839Y-1.3528
X2.8508Y-1.6874
X2.9331Y-1.0709
X2.937Y-0.9646
X3.0059Y-1.7126
X3.0413Y-0.8209
X3.0413Y-1.6063
X3.1142Y-1.7539
X3.1181Y-1.8819
X3.1827Y-1.4965
X3.2327Y-1.4472
X3.2382Y-1.8839
X3.3622Y-0.8917
X3.3622Y-1.2146
X3.374Y-1.7677
T3
X3.3164Y-1.3685
X3.3164Y-1.526
T5
X2.3358Y-1.3622
X2.3406Y-1.413
X2.7638Y-1.5
X2.8335Y-1.2476
X2.839Y-1.1992
X2.8791Y-1.1543
T6
X1.9138Y-1.7362
X2.6496Y-1.5
X2.9252Y-1.5787
X3.2244Y-1.3937
T7
X2.5866Y-1.4961
X3.1102Y-1.3031
X3.3991Y-1.6418
X3.3996Y-1.2598
T8
X2.0043Y-1.8378
X2.0713Y-1.8378
X2.5953Y-1.8386
X2.6622Y-1.8386
X2.9453Y-1.8386
X3.0122Y-1.8386
X3.2075Y-1.8386
X3.2744Y-1.8386
T9
X2.7126Y-1.4921
T10
X1.7756Y-0.8346
X1.7756Y-1.8386
X3.4213Y-0.8346
X3.4213Y-1.8386
T4
G00X3.3775Y-1.335
M15
G01X3.4208Y-1.335
M16
G05
G00X3.3775Y-1.5587
M15
G01X3.4208Y-1.5587
M16
G05
T0
M30
