%TF.GenerationSoftware,KiCad,Pcbnew,(6.0.1)*%
%TF.CreationDate,2022-09-04T12:14:09+08:00*%
%TF.ProjectId,Digital Clock,44696769-7461-46c2-9043-6c6f636b2e6b,_____*%
%TF.SameCoordinates,Original*%
%TF.FileFunction,Copper,L3,Inr*%
%TF.FilePolarity,Positive*%
%FSLAX46Y46*%
G04 Gerber Fmt 4.6, Leading zero omitted, Abs format (unit mm)*
G04 Created by KiCad (PCBNEW (6.0.1)) date 2022-09-04 12:14:09*
%MOMM*%
%LPD*%
G01*
G04 APERTURE LIST*
%TA.AperFunction,Profile*%
%ADD10C,0.100000*%
%TD*%
%TA.AperFunction,ComponentPad*%
%ADD11C,0.650000*%
%TD*%
%TA.AperFunction,ComponentPad*%
%ADD12O,2.090000X0.930000*%
%TD*%
%TA.AperFunction,ComponentPad*%
%ADD13C,1.000000*%
%TD*%
%TA.AperFunction,ViaPad*%
%ADD14C,0.800000*%
%TD*%
%TA.AperFunction,ViaPad*%
%ADD15C,1.200000*%
%TD*%
%TA.AperFunction,ViaPad*%
%ADD16C,2.000000*%
%TD*%
%TA.AperFunction,ViaPad*%
%ADD17C,1.000000*%
%TD*%
%TA.AperFunction,ViaPad*%
%ADD18C,0.700000*%
%TD*%
%TA.AperFunction,ViaPad*%
%ADD19C,0.600000*%
%TD*%
G04 APERTURE END LIST*
D10*
X43410000Y-19400000D02*
X88800000Y-19400000D01*
X88800000Y-19400000D02*
X88800000Y-48900000D01*
X88800000Y-48900000D02*
X43410000Y-48900000D01*
X43410000Y-48900000D02*
X43410000Y-19400000D01*
D11*
%TO.N,GND*%
%TO.C,J1*%
X84237500Y-34760000D03*
X84237500Y-38760000D03*
D12*
X86337500Y-39590000D03*
X86337500Y-33910000D03*
%TD*%
D13*
%TO.N,GND*%
%TO.C,SW2*%
X50910000Y-46680000D03*
X52610000Y-46680000D03*
%TD*%
%TO.N,GND*%
%TO.C,SW5*%
X74810000Y-46700000D03*
X76510000Y-46700000D03*
%TD*%
%TO.N,GND*%
%TO.C,SW1*%
X83170000Y-46700000D03*
X81470000Y-46700000D03*
%TD*%
%TO.N,GND*%
%TO.C,SW3*%
X67620000Y-46700000D03*
X65920000Y-46700000D03*
%TD*%
D14*
%TO.N,GND*%
X72110000Y-30460000D03*
X63300000Y-46750000D03*
X85400000Y-22650000D03*
D15*
X68900000Y-37900000D03*
D14*
X70200000Y-38100000D03*
X70400000Y-43200000D03*
D16*
X86900000Y-21199999D03*
D14*
X45550000Y-30410000D03*
X48450000Y-47000000D03*
D15*
X79000000Y-33100000D03*
D17*
X81900000Y-35400000D03*
D14*
X79100000Y-44550000D03*
X85700000Y-44900000D03*
X63900000Y-42100000D03*
X48600000Y-45300000D03*
D15*
X86350000Y-32000000D03*
X86337907Y-41700667D03*
D16*
X45100000Y-46700000D03*
D17*
X65700000Y-38000000D03*
D14*
X59450000Y-35890000D03*
X73130000Y-29320000D03*
D16*
X86900000Y-46700000D03*
X45100000Y-21200000D03*
D14*
X53810000Y-34000000D03*
X85400000Y-30850000D03*
X77250000Y-20850000D03*
D17*
%TO.N,VCC*%
X48610000Y-44100000D03*
D14*
X72110000Y-34360000D03*
X74500000Y-27200000D03*
X59330000Y-34600000D03*
X71970000Y-31690000D03*
X70760000Y-22260000D03*
D17*
X67300000Y-38100000D03*
D14*
X74600000Y-24500000D03*
D17*
X74300000Y-40100000D03*
D14*
X61370000Y-23740000D03*
%TO.N,/DIG1*%
X59290000Y-33420000D03*
%TO.N,/DIG4*%
X55900000Y-31200000D03*
%TO.N,/DIG2*%
X53600000Y-31900000D03*
%TO.N,/DIG3*%
X51290000Y-34370000D03*
%TO.N,/A*%
X58050000Y-30350000D03*
%TO.N,/B*%
X55000000Y-29400000D03*
%TO.N,/C*%
X64510000Y-38260000D03*
%TO.N,/D*%
X61710000Y-45460000D03*
%TO.N,/E*%
X72410000Y-42860000D03*
%TO.N,/F*%
X66000000Y-28300000D03*
X66000000Y-31600000D03*
X55110000Y-38860000D03*
X55110000Y-40660000D03*
X66000000Y-35900000D03*
%TO.N,/G*%
X60410000Y-43760000D03*
%TO.N,/DP*%
X65010000Y-42860000D03*
D18*
%TO.N,/UD+*%
X82110000Y-36760000D03*
X80840000Y-38010000D03*
%TO.N,/P3.7*%
X70660000Y-29280000D03*
X70660000Y-27680000D03*
D14*
%TO.N,/P3.2*%
X77250000Y-40800000D03*
X51850000Y-47800000D03*
D19*
X70510000Y-33560000D03*
D14*
X79200000Y-47800000D03*
X70200000Y-46700000D03*
%TO.N,/P1.4*%
X59210000Y-42160000D03*
X60310000Y-33560000D03*
X59910000Y-38260000D03*
%TO.N,/P1.5*%
X61470000Y-38270000D03*
X60510000Y-42160000D03*
X61110000Y-32760000D03*
%TO.N,/P5.4*%
X62500000Y-38100000D03*
X62130000Y-33000000D03*
X68100000Y-43800000D03*
X63400000Y-43800000D03*
X62700000Y-42100000D03*
D19*
%TO.N,/TX*%
X71710000Y-35360000D03*
X72100000Y-36900000D03*
%TO.N,/P1.3*%
X59980000Y-30730000D03*
D14*
X56780000Y-31810000D03*
%TO.N,/P5.5*%
X67110000Y-35460000D03*
X82250000Y-47850000D03*
X76350000Y-43500000D03*
%TD*%
%TA.AperFunction,Conductor*%
%TO.N,VCC*%
G36*
X75842121Y-21180002D02*
G01*
X75888614Y-21233658D01*
X75900000Y-21286000D01*
X75900000Y-42768844D01*
X75879998Y-42836965D01*
X75854497Y-42864928D01*
X75854045Y-42865206D01*
X75725732Y-42990859D01*
X75721913Y-42996784D01*
X75721912Y-42996786D01*
X75634648Y-43132193D01*
X75628446Y-43141817D01*
X75626037Y-43148437D01*
X75626035Y-43148440D01*
X75610466Y-43191217D01*
X75567022Y-43310578D01*
X75544514Y-43488753D01*
X75545201Y-43495760D01*
X75545201Y-43495763D01*
X75549923Y-43543918D01*
X75562039Y-43667486D01*
X75564262Y-43674168D01*
X75564262Y-43674169D01*
X75612285Y-43818532D01*
X75618726Y-43837896D01*
X75622373Y-43843918D01*
X75701256Y-43974169D01*
X75711759Y-43991512D01*
X75836514Y-44120699D01*
X75842409Y-44124557D01*
X75842412Y-44124559D01*
X75842996Y-44124941D01*
X75843287Y-44125283D01*
X75847835Y-44129045D01*
X75847174Y-44129844D01*
X75889043Y-44178979D01*
X75900000Y-44230371D01*
X75900000Y-44934000D01*
X75879998Y-45002121D01*
X75826342Y-45048614D01*
X75774000Y-45060000D01*
X62473880Y-45060000D01*
X62405759Y-45039998D01*
X62367026Y-45000769D01*
X62345052Y-44965603D01*
X62345050Y-44965600D01*
X62341316Y-44959625D01*
X62277771Y-44895635D01*
X62219733Y-44837190D01*
X62219729Y-44837187D01*
X62214770Y-44832193D01*
X62203761Y-44825206D01*
X62149638Y-44790859D01*
X62063136Y-44735963D01*
X62033352Y-44725357D01*
X61900586Y-44678081D01*
X61900581Y-44678080D01*
X61893951Y-44675719D01*
X61886965Y-44674886D01*
X61886961Y-44674885D01*
X61759177Y-44659648D01*
X61715624Y-44654455D01*
X61708621Y-44655191D01*
X61708620Y-44655191D01*
X61544025Y-44672490D01*
X61544021Y-44672491D01*
X61537017Y-44673227D01*
X61530346Y-44675498D01*
X61373677Y-44728832D01*
X61373674Y-44728833D01*
X61367007Y-44731103D01*
X61361009Y-44734793D01*
X61361007Y-44734794D01*
X61290526Y-44778155D01*
X61214045Y-44825206D01*
X61209014Y-44830132D01*
X61209011Y-44830135D01*
X61094965Y-44941817D01*
X61085732Y-44950859D01*
X61081916Y-44956781D01*
X61081913Y-44956784D01*
X61052609Y-45002255D01*
X60998895Y-45048680D01*
X60946698Y-45060000D01*
X49453663Y-45060000D01*
X49385542Y-45039998D01*
X49339049Y-44986342D01*
X49334672Y-44975437D01*
X49328803Y-44958584D01*
X49326485Y-44951927D01*
X49231316Y-44799625D01*
X49161015Y-44728832D01*
X49109733Y-44677190D01*
X49109729Y-44677187D01*
X49104770Y-44672193D01*
X49093761Y-44665206D01*
X48973855Y-44589112D01*
X48953136Y-44575963D01*
X48920823Y-44564457D01*
X48790586Y-44518081D01*
X48790581Y-44518080D01*
X48783951Y-44515719D01*
X48776965Y-44514886D01*
X48776961Y-44514885D01*
X48649177Y-44499648D01*
X48605624Y-44494455D01*
X48598621Y-44495191D01*
X48598620Y-44495191D01*
X48434025Y-44512490D01*
X48434021Y-44512491D01*
X48427017Y-44513227D01*
X48420346Y-44515498D01*
X48263677Y-44568832D01*
X48263674Y-44568833D01*
X48257007Y-44571103D01*
X48251009Y-44574793D01*
X48251007Y-44574794D01*
X48239886Y-44581636D01*
X48104045Y-44665206D01*
X48099014Y-44670132D01*
X48099011Y-44670135D01*
X48093535Y-44675498D01*
X47975732Y-44790859D01*
X47971913Y-44796784D01*
X47971912Y-44796786D01*
X47953597Y-44825206D01*
X47878446Y-44941817D01*
X47865606Y-44977095D01*
X47823511Y-45034266D01*
X47757190Y-45059604D01*
X47747205Y-45060000D01*
X46826000Y-45060000D01*
X46757879Y-45039998D01*
X46711386Y-44986342D01*
X46700000Y-44934000D01*
X46700000Y-42148753D01*
X58404514Y-42148753D01*
X58405201Y-42155760D01*
X58405201Y-42155763D01*
X58406005Y-42163963D01*
X58422039Y-42327486D01*
X58424262Y-42334168D01*
X58424262Y-42334169D01*
X58450316Y-42412490D01*
X58478726Y-42497896D01*
X58482373Y-42503918D01*
X58560344Y-42632663D01*
X58571759Y-42651512D01*
X58576648Y-42656575D01*
X58576649Y-42656576D01*
X58623990Y-42705599D01*
X58696514Y-42780699D01*
X58846789Y-42879036D01*
X59015116Y-42941636D01*
X59022097Y-42942567D01*
X59022099Y-42942568D01*
X59186149Y-42964457D01*
X59186153Y-42964457D01*
X59193130Y-42965388D01*
X59200142Y-42964750D01*
X59200146Y-42964750D01*
X59364960Y-42949751D01*
X59364961Y-42949751D01*
X59371981Y-42949112D01*
X59542782Y-42893615D01*
X59550336Y-42889112D01*
X59690992Y-42805265D01*
X59690994Y-42805264D01*
X59697044Y-42801657D01*
X59772982Y-42729342D01*
X59836107Y-42696850D01*
X59906778Y-42703643D01*
X59950511Y-42733062D01*
X59980914Y-42764545D01*
X59996514Y-42780699D01*
X60022805Y-42797903D01*
X60061771Y-42823402D01*
X60107820Y-42877439D01*
X60117343Y-42947794D01*
X60087318Y-43012129D01*
X60058800Y-43036152D01*
X59914045Y-43125206D01*
X59909014Y-43130132D01*
X59909011Y-43130135D01*
X59856288Y-43181766D01*
X59785732Y-43250859D01*
X59781913Y-43256784D01*
X59781912Y-43256786D01*
X59710571Y-43367486D01*
X59688446Y-43401817D01*
X59686037Y-43408437D01*
X59686035Y-43408440D01*
X59670207Y-43451927D01*
X59627022Y-43570578D01*
X59604514Y-43748753D01*
X59605201Y-43755760D01*
X59605201Y-43755763D01*
X59606005Y-43763963D01*
X59622039Y-43927486D01*
X59624262Y-43934168D01*
X59624262Y-43934169D01*
X59646273Y-44000336D01*
X59678726Y-44097896D01*
X59682373Y-44103918D01*
X59758956Y-44230371D01*
X59771759Y-44251512D01*
X59776648Y-44256575D01*
X59776649Y-44256576D01*
X59801844Y-44282666D01*
X59896514Y-44380699D01*
X60046789Y-44479036D01*
X60215116Y-44541636D01*
X60222097Y-44542567D01*
X60222099Y-44542568D01*
X60386149Y-44564457D01*
X60386153Y-44564457D01*
X60393130Y-44565388D01*
X60400142Y-44564750D01*
X60400146Y-44564750D01*
X60564960Y-44549751D01*
X60564961Y-44549751D01*
X60571981Y-44549112D01*
X60742782Y-44493615D01*
X60773714Y-44475176D01*
X60890992Y-44405265D01*
X60890994Y-44405264D01*
X60897044Y-44401657D01*
X61027099Y-44277807D01*
X61044570Y-44251512D01*
X61104283Y-44161635D01*
X61126483Y-44128222D01*
X61172562Y-44006919D01*
X61187757Y-43966919D01*
X61187758Y-43966914D01*
X61190257Y-43960336D01*
X61191237Y-43953364D01*
X61214700Y-43786416D01*
X61214700Y-43786411D01*
X61215251Y-43782493D01*
X61215565Y-43760000D01*
X61195546Y-43581528D01*
X61190913Y-43568222D01*
X61165680Y-43495763D01*
X61136485Y-43411927D01*
X61115165Y-43377807D01*
X61045049Y-43265599D01*
X61041316Y-43259625D01*
X60970937Y-43188753D01*
X60919733Y-43137190D01*
X60919729Y-43137187D01*
X60914770Y-43132193D01*
X60903761Y-43125206D01*
X60858979Y-43096787D01*
X60812180Y-43043398D01*
X60801675Y-42973183D01*
X60830799Y-42908435D01*
X60861976Y-42882173D01*
X60863119Y-42881492D01*
X60943434Y-42833615D01*
X60990992Y-42805265D01*
X60990994Y-42805264D01*
X60997044Y-42801657D01*
X61127099Y-42677807D01*
X61136303Y-42663955D01*
X61222582Y-42534093D01*
X61226483Y-42528222D01*
X61246334Y-42475963D01*
X61287757Y-42366919D01*
X61287758Y-42366914D01*
X61290257Y-42360336D01*
X61303306Y-42267486D01*
X61314700Y-42186416D01*
X61314700Y-42186411D01*
X61315251Y-42182493D01*
X61315565Y-42160000D01*
X61307573Y-42088753D01*
X61894514Y-42088753D01*
X61895201Y-42095760D01*
X61895201Y-42095763D01*
X61899712Y-42141766D01*
X61912039Y-42267486D01*
X61914262Y-42274168D01*
X61914262Y-42274169D01*
X61962135Y-42418081D01*
X61968726Y-42437896D01*
X61972373Y-42443918D01*
X62048813Y-42570135D01*
X62061759Y-42591512D01*
X62186514Y-42720699D01*
X62336789Y-42819036D01*
X62505116Y-42881636D01*
X62512097Y-42882567D01*
X62512099Y-42882568D01*
X62676149Y-42904457D01*
X62676153Y-42904457D01*
X62683130Y-42905388D01*
X62690142Y-42904750D01*
X62690146Y-42904750D01*
X62854960Y-42889751D01*
X62854961Y-42889751D01*
X62861981Y-42889112D01*
X62871601Y-42885986D01*
X62897293Y-42877639D01*
X62968260Y-42875612D01*
X63029058Y-42912275D01*
X63060383Y-42975987D01*
X63052289Y-43046521D01*
X63002250Y-43104790D01*
X62904045Y-43165206D01*
X62899014Y-43170132D01*
X62899011Y-43170135D01*
X62849590Y-43218532D01*
X62775732Y-43290859D01*
X62771913Y-43296784D01*
X62771912Y-43296786D01*
X62755967Y-43321528D01*
X62678446Y-43441817D01*
X62676037Y-43448437D01*
X62676035Y-43448440D01*
X62658811Y-43495763D01*
X62617022Y-43610578D01*
X62594514Y-43788753D01*
X62595201Y-43795760D01*
X62595201Y-43795763D01*
X62599701Y-43841657D01*
X62612039Y-43967486D01*
X62614262Y-43974168D01*
X62614262Y-43974169D01*
X62665782Y-44129045D01*
X62668726Y-44137896D01*
X62672373Y-44143918D01*
X62756402Y-44282666D01*
X62761759Y-44291512D01*
X62886514Y-44420699D01*
X63036789Y-44519036D01*
X63205116Y-44581636D01*
X63212097Y-44582567D01*
X63212099Y-44582568D01*
X63376149Y-44604457D01*
X63376153Y-44604457D01*
X63383130Y-44605388D01*
X63390142Y-44604750D01*
X63390146Y-44604750D01*
X63554960Y-44589751D01*
X63554961Y-44589751D01*
X63561981Y-44589112D01*
X63732782Y-44533615D01*
X63764202Y-44514885D01*
X63880992Y-44445265D01*
X63880994Y-44445264D01*
X63887044Y-44441657D01*
X64017099Y-44317807D01*
X64034570Y-44291512D01*
X64112582Y-44174093D01*
X64116483Y-44168222D01*
X64134535Y-44120699D01*
X64177757Y-44006919D01*
X64177758Y-44006914D01*
X64180257Y-44000336D01*
X64181745Y-43989751D01*
X64204700Y-43826416D01*
X64204700Y-43826411D01*
X64205251Y-43822493D01*
X64205565Y-43800000D01*
X64204303Y-43788753D01*
X67294514Y-43788753D01*
X67295201Y-43795760D01*
X67295201Y-43795763D01*
X67299701Y-43841657D01*
X67312039Y-43967486D01*
X67314262Y-43974168D01*
X67314262Y-43974169D01*
X67365782Y-44129045D01*
X67368726Y-44137896D01*
X67372373Y-44143918D01*
X67456402Y-44282666D01*
X67461759Y-44291512D01*
X67586514Y-44420699D01*
X67736789Y-44519036D01*
X67905116Y-44581636D01*
X67912097Y-44582567D01*
X67912099Y-44582568D01*
X68076149Y-44604457D01*
X68076153Y-44604457D01*
X68083130Y-44605388D01*
X68090142Y-44604750D01*
X68090146Y-44604750D01*
X68254960Y-44589751D01*
X68254961Y-44589751D01*
X68261981Y-44589112D01*
X68432782Y-44533615D01*
X68464202Y-44514885D01*
X68580992Y-44445265D01*
X68580994Y-44445264D01*
X68587044Y-44441657D01*
X68717099Y-44317807D01*
X68734570Y-44291512D01*
X68812582Y-44174093D01*
X68816483Y-44168222D01*
X68834535Y-44120699D01*
X68877757Y-44006919D01*
X68877758Y-44006914D01*
X68880257Y-44000336D01*
X68881745Y-43989751D01*
X68904700Y-43826416D01*
X68904700Y-43826411D01*
X68905251Y-43822493D01*
X68905565Y-43800000D01*
X68885546Y-43621528D01*
X68879427Y-43603955D01*
X68854097Y-43531217D01*
X68826485Y-43451927D01*
X68731316Y-43299625D01*
X68666240Y-43234093D01*
X68621216Y-43188753D01*
X69594514Y-43188753D01*
X69595201Y-43195760D01*
X69595201Y-43195763D01*
X69600973Y-43254627D01*
X69612039Y-43367486D01*
X69614262Y-43374168D01*
X69614262Y-43374169D01*
X69652379Y-43488753D01*
X69668726Y-43537896D01*
X69672373Y-43543918D01*
X69751256Y-43674169D01*
X69761759Y-43691512D01*
X69886514Y-43820699D01*
X70036789Y-43919036D01*
X70205116Y-43981636D01*
X70212097Y-43982567D01*
X70212099Y-43982568D01*
X70376149Y-44004457D01*
X70376153Y-44004457D01*
X70383130Y-44005388D01*
X70390142Y-44004750D01*
X70390146Y-44004750D01*
X70554960Y-43989751D01*
X70554961Y-43989751D01*
X70561981Y-43989112D01*
X70732782Y-43933615D01*
X70842481Y-43868222D01*
X70880992Y-43845265D01*
X70880994Y-43845264D01*
X70887044Y-43841657D01*
X71017099Y-43717807D01*
X71034570Y-43691512D01*
X71076416Y-43628527D01*
X71116483Y-43568222D01*
X71144008Y-43495763D01*
X71177757Y-43406919D01*
X71177758Y-43406914D01*
X71180257Y-43400336D01*
X71181237Y-43393364D01*
X71204700Y-43226416D01*
X71204700Y-43226411D01*
X71205251Y-43222493D01*
X71205565Y-43200000D01*
X71185546Y-43021528D01*
X71179427Y-43003955D01*
X71136831Y-42881636D01*
X71126485Y-42851927D01*
X71124502Y-42848753D01*
X71604514Y-42848753D01*
X71605201Y-42855760D01*
X71605201Y-42855763D01*
X71613078Y-42936097D01*
X71622039Y-43027486D01*
X71624262Y-43034168D01*
X71624262Y-43034169D01*
X71675685Y-43188753D01*
X71678726Y-43197896D01*
X71682373Y-43203918D01*
X71746969Y-43310578D01*
X71771759Y-43351512D01*
X71776648Y-43356575D01*
X71776649Y-43356576D01*
X71797152Y-43377807D01*
X71896514Y-43480699D01*
X72046789Y-43579036D01*
X72215116Y-43641636D01*
X72222097Y-43642567D01*
X72222099Y-43642568D01*
X72386149Y-43664457D01*
X72386153Y-43664457D01*
X72393130Y-43665388D01*
X72400142Y-43664750D01*
X72400146Y-43664750D01*
X72564960Y-43649751D01*
X72564961Y-43649751D01*
X72571981Y-43649112D01*
X72742782Y-43593615D01*
X72781427Y-43570578D01*
X72890992Y-43505265D01*
X72890994Y-43505264D01*
X72897044Y-43501657D01*
X73027099Y-43377807D01*
X73033957Y-43367486D01*
X73107505Y-43256786D01*
X73126483Y-43228222D01*
X73145868Y-43177190D01*
X73187757Y-43066919D01*
X73187758Y-43066914D01*
X73190257Y-43060336D01*
X73192199Y-43046521D01*
X73214700Y-42886416D01*
X73214700Y-42886411D01*
X73215251Y-42882493D01*
X73215424Y-42870134D01*
X73215510Y-42863963D01*
X73215510Y-42863958D01*
X73215565Y-42860000D01*
X73195546Y-42681528D01*
X73189427Y-42663955D01*
X73142159Y-42528222D01*
X73136485Y-42511927D01*
X73131481Y-42503918D01*
X73045049Y-42365599D01*
X73041316Y-42359625D01*
X72949818Y-42267486D01*
X72919733Y-42237190D01*
X72919729Y-42237187D01*
X72914770Y-42232193D01*
X72903761Y-42225206D01*
X72830214Y-42178532D01*
X72763136Y-42135963D01*
X72712867Y-42118063D01*
X72600586Y-42078081D01*
X72600581Y-42078080D01*
X72593951Y-42075719D01*
X72586965Y-42074886D01*
X72586961Y-42074885D01*
X72459177Y-42059648D01*
X72415624Y-42054455D01*
X72408621Y-42055191D01*
X72408620Y-42055191D01*
X72244025Y-42072490D01*
X72244021Y-42072491D01*
X72237017Y-42073227D01*
X72230346Y-42075498D01*
X72073677Y-42128832D01*
X72073674Y-42128833D01*
X72067007Y-42131103D01*
X72061009Y-42134793D01*
X72061007Y-42134794D01*
X72038317Y-42148753D01*
X71914045Y-42225206D01*
X71909014Y-42230132D01*
X71909011Y-42230135D01*
X71901807Y-42237190D01*
X71785732Y-42350859D01*
X71781913Y-42356784D01*
X71781912Y-42356786D01*
X71775382Y-42366919D01*
X71688446Y-42501817D01*
X71686037Y-42508437D01*
X71686035Y-42508440D01*
X71678835Y-42528222D01*
X71627022Y-42670578D01*
X71604514Y-42848753D01*
X71124502Y-42848753D01*
X71120623Y-42842545D01*
X71035049Y-42705599D01*
X71031316Y-42699625D01*
X70962277Y-42630103D01*
X70909733Y-42577190D01*
X70909729Y-42577187D01*
X70904770Y-42572193D01*
X70893761Y-42565206D01*
X70793875Y-42501817D01*
X70753136Y-42475963D01*
X70723352Y-42465357D01*
X70590586Y-42418081D01*
X70590581Y-42418080D01*
X70583951Y-42415719D01*
X70576965Y-42414886D01*
X70576961Y-42414885D01*
X70449177Y-42399648D01*
X70405624Y-42394455D01*
X70398621Y-42395191D01*
X70398620Y-42395191D01*
X70234025Y-42412490D01*
X70234021Y-42412491D01*
X70227017Y-42413227D01*
X70220346Y-42415498D01*
X70063677Y-42468832D01*
X70063674Y-42468833D01*
X70057007Y-42471103D01*
X70051009Y-42474793D01*
X70051007Y-42474794D01*
X70007082Y-42501817D01*
X69904045Y-42565206D01*
X69899014Y-42570132D01*
X69899011Y-42570135D01*
X69877182Y-42591512D01*
X69775732Y-42690859D01*
X69771913Y-42696784D01*
X69771912Y-42696786D01*
X69710113Y-42792679D01*
X69678446Y-42841817D01*
X69676037Y-42848437D01*
X69676035Y-42848440D01*
X69654199Y-42908435D01*
X69617022Y-43010578D01*
X69594514Y-43188753D01*
X68621216Y-43188753D01*
X68609733Y-43177190D01*
X68609729Y-43177187D01*
X68604770Y-43172193D01*
X68593761Y-43165206D01*
X68462743Y-43082060D01*
X68453136Y-43075963D01*
X68389671Y-43053364D01*
X68290586Y-43018081D01*
X68290581Y-43018080D01*
X68283951Y-43015719D01*
X68276965Y-43014886D01*
X68276961Y-43014885D01*
X68148981Y-42999625D01*
X68105624Y-42994455D01*
X68098621Y-42995191D01*
X68098620Y-42995191D01*
X67934025Y-43012490D01*
X67934021Y-43012491D01*
X67927017Y-43013227D01*
X67920346Y-43015498D01*
X67763677Y-43068832D01*
X67763674Y-43068833D01*
X67757007Y-43071103D01*
X67751009Y-43074793D01*
X67751007Y-43074794D01*
X67715258Y-43096787D01*
X67604045Y-43165206D01*
X67599014Y-43170132D01*
X67599011Y-43170135D01*
X67549590Y-43218532D01*
X67475732Y-43290859D01*
X67471913Y-43296784D01*
X67471912Y-43296786D01*
X67455967Y-43321528D01*
X67378446Y-43441817D01*
X67376037Y-43448437D01*
X67376035Y-43448440D01*
X67358811Y-43495763D01*
X67317022Y-43610578D01*
X67294514Y-43788753D01*
X64204303Y-43788753D01*
X64185546Y-43621528D01*
X64179427Y-43603955D01*
X64154097Y-43531217D01*
X64126485Y-43451927D01*
X64031316Y-43299625D01*
X63966240Y-43234093D01*
X63909733Y-43177190D01*
X63909729Y-43177187D01*
X63904770Y-43172193D01*
X63893761Y-43165206D01*
X63846871Y-43135449D01*
X63800072Y-43082060D01*
X63789567Y-43011845D01*
X63818691Y-42947097D01*
X63878197Y-42908373D01*
X63902966Y-42903583D01*
X64054963Y-42889751D01*
X64054966Y-42889750D01*
X64061981Y-42889112D01*
X64068502Y-42886993D01*
X64139179Y-42892885D01*
X64195511Y-42936097D01*
X64219159Y-42998119D01*
X64222039Y-43027486D01*
X64224262Y-43034168D01*
X64224262Y-43034169D01*
X64275685Y-43188753D01*
X64278726Y-43197896D01*
X64282373Y-43203918D01*
X64346969Y-43310578D01*
X64371759Y-43351512D01*
X64376648Y-43356575D01*
X64376649Y-43356576D01*
X64397152Y-43377807D01*
X64496514Y-43480699D01*
X64646789Y-43579036D01*
X64815116Y-43641636D01*
X64822097Y-43642567D01*
X64822099Y-43642568D01*
X64986149Y-43664457D01*
X64986153Y-43664457D01*
X64993130Y-43665388D01*
X65000142Y-43664750D01*
X65000146Y-43664750D01*
X65164960Y-43649751D01*
X65164961Y-43649751D01*
X65171981Y-43649112D01*
X65342782Y-43593615D01*
X65381427Y-43570578D01*
X65490992Y-43505265D01*
X65490994Y-43505264D01*
X65497044Y-43501657D01*
X65627099Y-43377807D01*
X65633957Y-43367486D01*
X65707505Y-43256786D01*
X65726483Y-43228222D01*
X65745868Y-43177190D01*
X65787757Y-43066919D01*
X65787758Y-43066914D01*
X65790257Y-43060336D01*
X65792199Y-43046521D01*
X65814700Y-42886416D01*
X65814700Y-42886411D01*
X65815251Y-42882493D01*
X65815424Y-42870134D01*
X65815510Y-42863963D01*
X65815510Y-42863958D01*
X65815565Y-42860000D01*
X65795546Y-42681528D01*
X65789427Y-42663955D01*
X65742159Y-42528222D01*
X65736485Y-42511927D01*
X65731481Y-42503918D01*
X65645049Y-42365599D01*
X65641316Y-42359625D01*
X65549818Y-42267486D01*
X65519733Y-42237190D01*
X65519729Y-42237187D01*
X65514770Y-42232193D01*
X65503761Y-42225206D01*
X65430214Y-42178532D01*
X65363136Y-42135963D01*
X65312867Y-42118063D01*
X65200586Y-42078081D01*
X65200581Y-42078080D01*
X65193951Y-42075719D01*
X65186965Y-42074886D01*
X65186961Y-42074885D01*
X65059177Y-42059648D01*
X65015624Y-42054455D01*
X65008621Y-42055191D01*
X65008620Y-42055191D01*
X64970467Y-42059201D01*
X64841602Y-42072745D01*
X64841600Y-42072745D01*
X64837017Y-42073227D01*
X64836932Y-42072422D01*
X64771735Y-42067906D01*
X64714804Y-42025488D01*
X64690287Y-41963796D01*
X64686331Y-41928527D01*
X64685546Y-41921528D01*
X64679427Y-41903955D01*
X64628803Y-41758584D01*
X64626485Y-41751927D01*
X64587893Y-41690166D01*
X64535049Y-41605599D01*
X64531316Y-41599625D01*
X64460604Y-41528418D01*
X64409733Y-41477190D01*
X64409729Y-41477187D01*
X64404770Y-41472193D01*
X64393761Y-41465206D01*
X64261848Y-41381492D01*
X64253136Y-41375963D01*
X64195077Y-41355289D01*
X64090586Y-41318081D01*
X64090581Y-41318080D01*
X64083951Y-41315719D01*
X64076965Y-41314886D01*
X64076961Y-41314885D01*
X63949177Y-41299648D01*
X63905624Y-41294455D01*
X63898621Y-41295191D01*
X63898620Y-41295191D01*
X63734025Y-41312490D01*
X63734021Y-41312491D01*
X63727017Y-41313227D01*
X63720346Y-41315498D01*
X63563677Y-41368832D01*
X63563674Y-41368833D01*
X63557007Y-41371103D01*
X63551009Y-41374793D01*
X63551007Y-41374794D01*
X63410046Y-41461514D01*
X63404045Y-41465206D01*
X63399012Y-41470135D01*
X63388896Y-41480041D01*
X63326230Y-41513411D01*
X63255472Y-41507605D01*
X63215366Y-41481433D01*
X63215226Y-41481607D01*
X63213476Y-41480200D01*
X63211332Y-41478801D01*
X63209732Y-41477190D01*
X63204770Y-41472193D01*
X63193761Y-41465206D01*
X63061848Y-41381492D01*
X63053136Y-41375963D01*
X62995077Y-41355289D01*
X62890586Y-41318081D01*
X62890581Y-41318080D01*
X62883951Y-41315719D01*
X62876965Y-41314886D01*
X62876961Y-41314885D01*
X62749177Y-41299648D01*
X62705624Y-41294455D01*
X62698621Y-41295191D01*
X62698620Y-41295191D01*
X62534025Y-41312490D01*
X62534021Y-41312491D01*
X62527017Y-41313227D01*
X62520346Y-41315498D01*
X62363677Y-41368832D01*
X62363674Y-41368833D01*
X62357007Y-41371103D01*
X62351009Y-41374793D01*
X62351007Y-41374794D01*
X62280526Y-41418155D01*
X62204045Y-41465206D01*
X62199014Y-41470132D01*
X62199011Y-41470135D01*
X62146544Y-41521515D01*
X62075732Y-41590859D01*
X62071913Y-41596784D01*
X62071912Y-41596786D01*
X62034636Y-41654627D01*
X61978446Y-41741817D01*
X61917022Y-41910578D01*
X61894514Y-42088753D01*
X61307573Y-42088753D01*
X61295546Y-41981528D01*
X61289427Y-41963955D01*
X61238803Y-41818584D01*
X61236485Y-41811927D01*
X61141316Y-41659625D01*
X61070634Y-41588448D01*
X61019733Y-41537190D01*
X61019729Y-41537187D01*
X61014770Y-41532193D01*
X61003761Y-41525206D01*
X60916982Y-41470135D01*
X60863136Y-41435963D01*
X60833352Y-41425357D01*
X60700586Y-41378081D01*
X60700581Y-41378080D01*
X60693951Y-41375719D01*
X60686965Y-41374886D01*
X60686961Y-41374885D01*
X60559177Y-41359648D01*
X60515624Y-41354455D01*
X60508621Y-41355191D01*
X60508620Y-41355191D01*
X60344025Y-41372490D01*
X60344021Y-41372491D01*
X60337017Y-41373227D01*
X60330346Y-41375498D01*
X60173677Y-41428832D01*
X60173674Y-41428833D01*
X60167007Y-41431103D01*
X60161009Y-41434793D01*
X60161007Y-41434794D01*
X60149886Y-41441636D01*
X60014045Y-41525206D01*
X60009014Y-41530132D01*
X60009011Y-41530135D01*
X59948197Y-41589689D01*
X59885532Y-41623059D01*
X59814774Y-41617253D01*
X59770634Y-41588448D01*
X59719737Y-41537194D01*
X59719732Y-41537190D01*
X59714770Y-41532193D01*
X59703761Y-41525206D01*
X59616982Y-41470135D01*
X59563136Y-41435963D01*
X59533352Y-41425357D01*
X59400586Y-41378081D01*
X59400581Y-41378080D01*
X59393951Y-41375719D01*
X59386965Y-41374886D01*
X59386961Y-41374885D01*
X59259177Y-41359648D01*
X59215624Y-41354455D01*
X59208621Y-41355191D01*
X59208620Y-41355191D01*
X59044025Y-41372490D01*
X59044021Y-41372491D01*
X59037017Y-41373227D01*
X59030346Y-41375498D01*
X58873677Y-41428832D01*
X58873674Y-41428833D01*
X58867007Y-41431103D01*
X58861009Y-41434793D01*
X58861007Y-41434794D01*
X58849886Y-41441636D01*
X58714045Y-41525206D01*
X58709014Y-41530132D01*
X58709011Y-41530135D01*
X58701807Y-41537190D01*
X58585732Y-41650859D01*
X58581913Y-41656784D01*
X58581912Y-41656786D01*
X58560400Y-41690166D01*
X58488446Y-41801817D01*
X58427022Y-41970578D01*
X58404514Y-42148753D01*
X46700000Y-42148753D01*
X46700000Y-40648753D01*
X54304514Y-40648753D01*
X54305201Y-40655760D01*
X54305201Y-40655763D01*
X54306005Y-40663963D01*
X54322039Y-40827486D01*
X54324262Y-40834168D01*
X54324262Y-40834169D01*
X54332967Y-40860336D01*
X54378726Y-40997896D01*
X54471759Y-41151512D01*
X54596514Y-41280699D01*
X54746789Y-41379036D01*
X54915116Y-41441636D01*
X54922097Y-41442567D01*
X54922099Y-41442568D01*
X55086149Y-41464457D01*
X55086153Y-41464457D01*
X55093130Y-41465388D01*
X55100142Y-41464750D01*
X55100146Y-41464750D01*
X55264960Y-41449751D01*
X55264961Y-41449751D01*
X55271981Y-41449112D01*
X55442782Y-41393615D01*
X55463119Y-41381492D01*
X55590992Y-41305265D01*
X55590994Y-41305264D01*
X55597044Y-41301657D01*
X55727099Y-41177807D01*
X55744570Y-41151512D01*
X55822582Y-41034093D01*
X55826483Y-41028222D01*
X55841168Y-40989564D01*
X55887757Y-40866919D01*
X55887758Y-40866914D01*
X55890257Y-40860336D01*
X55915251Y-40682493D01*
X55915565Y-40660000D01*
X55895546Y-40481528D01*
X55889427Y-40463955D01*
X55838803Y-40318584D01*
X55836485Y-40311927D01*
X55741316Y-40159625D01*
X55677771Y-40095635D01*
X55619733Y-40037190D01*
X55619729Y-40037187D01*
X55614770Y-40032193D01*
X55603761Y-40025206D01*
X55556860Y-39995442D01*
X55463136Y-39935963D01*
X55299389Y-39877655D01*
X55241926Y-39835962D01*
X55216126Y-39769819D01*
X55230181Y-39700228D01*
X55279629Y-39649282D01*
X55302721Y-39639124D01*
X55436082Y-39595792D01*
X55442782Y-39593615D01*
X55473714Y-39575176D01*
X55590992Y-39505265D01*
X55590994Y-39505264D01*
X55597044Y-39501657D01*
X55727099Y-39377807D01*
X55744570Y-39351512D01*
X55822582Y-39234093D01*
X55826483Y-39228222D01*
X55841168Y-39189564D01*
X55887757Y-39066919D01*
X55887758Y-39066914D01*
X55890257Y-39060336D01*
X55891825Y-39049181D01*
X55914700Y-38886416D01*
X55914700Y-38886411D01*
X55915251Y-38882493D01*
X55915565Y-38860000D01*
X55895546Y-38681528D01*
X55891982Y-38671292D01*
X55838803Y-38518584D01*
X55836485Y-38511927D01*
X55804789Y-38461202D01*
X55745049Y-38365599D01*
X55741316Y-38359625D01*
X55675516Y-38293364D01*
X55631216Y-38248753D01*
X59104514Y-38248753D01*
X59105201Y-38255760D01*
X59105201Y-38255763D01*
X59106606Y-38270091D01*
X59122039Y-38427486D01*
X59124262Y-38434168D01*
X59124262Y-38434169D01*
X59156878Y-38532216D01*
X59178726Y-38597896D01*
X59182373Y-38603918D01*
X59267976Y-38745265D01*
X59271759Y-38751512D01*
X59276648Y-38756575D01*
X59276649Y-38756576D01*
X59306809Y-38787807D01*
X59396514Y-38880699D01*
X59546789Y-38979036D01*
X59715116Y-39041636D01*
X59722097Y-39042567D01*
X59722099Y-39042568D01*
X59886149Y-39064457D01*
X59886153Y-39064457D01*
X59893130Y-39065388D01*
X59900142Y-39064750D01*
X59900146Y-39064750D01*
X60064960Y-39049751D01*
X60064961Y-39049751D01*
X60071981Y-39049112D01*
X60242782Y-38993615D01*
X60248833Y-38990008D01*
X60390992Y-38905265D01*
X60390994Y-38905264D01*
X60397044Y-38901657D01*
X60527099Y-38777807D01*
X60537926Y-38761512D01*
X60581769Y-38695522D01*
X60636126Y-38649851D01*
X60706546Y-38640819D01*
X60770670Y-38671292D01*
X60794493Y-38699978D01*
X60825703Y-38751512D01*
X60831759Y-38761512D01*
X60836648Y-38766575D01*
X60836649Y-38766576D01*
X60889454Y-38821257D01*
X60956514Y-38890699D01*
X61106789Y-38989036D01*
X61275116Y-39051636D01*
X61282097Y-39052567D01*
X61282099Y-39052568D01*
X61446149Y-39074457D01*
X61446153Y-39074457D01*
X61453130Y-39075388D01*
X61460142Y-39074750D01*
X61460146Y-39074750D01*
X61624960Y-39059751D01*
X61624961Y-39059751D01*
X61631981Y-39059112D01*
X61802782Y-39003615D01*
X61850489Y-38975176D01*
X61950992Y-38915265D01*
X61950994Y-38915264D01*
X61957044Y-38911657D01*
X61963627Y-38905388D01*
X62020454Y-38851273D01*
X62083578Y-38818780D01*
X62151266Y-38824420D01*
X62305116Y-38881636D01*
X62312097Y-38882567D01*
X62312099Y-38882568D01*
X62476149Y-38904457D01*
X62476153Y-38904457D01*
X62483130Y-38905388D01*
X62490142Y-38904750D01*
X62490146Y-38904750D01*
X62654960Y-38889751D01*
X62654961Y-38889751D01*
X62661981Y-38889112D01*
X62832782Y-38833615D01*
X62863714Y-38815176D01*
X62980992Y-38745265D01*
X62980994Y-38745264D01*
X62987044Y-38741657D01*
X63117099Y-38617807D01*
X63127360Y-38602364D01*
X63170705Y-38537124D01*
X63216483Y-38468222D01*
X63255466Y-38365599D01*
X63277757Y-38306919D01*
X63277758Y-38306914D01*
X63280257Y-38300336D01*
X63286521Y-38255763D01*
X63287506Y-38248753D01*
X63704514Y-38248753D01*
X63705201Y-38255760D01*
X63705201Y-38255763D01*
X63706606Y-38270091D01*
X63722039Y-38427486D01*
X63724262Y-38434168D01*
X63724262Y-38434169D01*
X63756878Y-38532216D01*
X63778726Y-38597896D01*
X63782373Y-38603918D01*
X63867976Y-38745265D01*
X63871759Y-38751512D01*
X63876648Y-38756575D01*
X63876649Y-38756576D01*
X63906809Y-38787807D01*
X63996514Y-38880699D01*
X64146789Y-38979036D01*
X64315116Y-39041636D01*
X64322097Y-39042567D01*
X64322099Y-39042568D01*
X64486149Y-39064457D01*
X64486153Y-39064457D01*
X64493130Y-39065388D01*
X64500142Y-39064750D01*
X64500146Y-39064750D01*
X64664960Y-39049751D01*
X64664961Y-39049751D01*
X64671981Y-39049112D01*
X64842782Y-38993615D01*
X64848833Y-38990008D01*
X64990992Y-38905265D01*
X64990994Y-38905264D01*
X64997044Y-38901657D01*
X65017037Y-38882618D01*
X65100570Y-38803071D01*
X65163695Y-38770578D01*
X65234365Y-38777371D01*
X65245164Y-38782621D01*
X65247270Y-38784151D01*
X65253301Y-38786836D01*
X65253304Y-38786838D01*
X65350265Y-38830008D01*
X65420197Y-38861144D01*
X65488354Y-38875631D01*
X65598897Y-38899128D01*
X65598901Y-38899128D01*
X65605354Y-38900500D01*
X65794646Y-38900500D01*
X65801099Y-38899128D01*
X65801103Y-38899128D01*
X65911646Y-38875631D01*
X65979803Y-38861144D01*
X66152730Y-38784151D01*
X66234755Y-38724557D01*
X66300532Y-38676767D01*
X66305871Y-38672888D01*
X66313915Y-38663955D01*
X66428114Y-38537124D01*
X66428115Y-38537123D01*
X66432533Y-38532216D01*
X66480327Y-38449434D01*
X66523875Y-38374007D01*
X66523876Y-38374006D01*
X66527179Y-38368284D01*
X66585674Y-38188256D01*
X66592174Y-38126416D01*
X66604770Y-38006565D01*
X66605460Y-38000000D01*
X66597948Y-37928527D01*
X66593475Y-37885963D01*
X67894757Y-37885963D01*
X67911175Y-38081483D01*
X67965258Y-38270091D01*
X67968076Y-38275574D01*
X68052123Y-38439113D01*
X68052126Y-38439117D01*
X68054944Y-38444601D01*
X68176818Y-38598369D01*
X68181511Y-38602363D01*
X68181512Y-38602364D01*
X68320556Y-38720699D01*
X68326238Y-38725535D01*
X68331616Y-38728541D01*
X68331618Y-38728542D01*
X68406833Y-38770578D01*
X68497513Y-38821257D01*
X68684118Y-38881889D01*
X68878946Y-38905121D01*
X68885081Y-38904649D01*
X68885083Y-38904649D01*
X69068434Y-38890541D01*
X69068438Y-38890540D01*
X69074576Y-38890068D01*
X69263556Y-38837303D01*
X69438689Y-38748837D01*
X69443536Y-38745050D01*
X69443541Y-38745047D01*
X69506028Y-38696226D01*
X69572023Y-38670048D01*
X69641693Y-38683705D01*
X69674238Y-38707988D01*
X69681615Y-38715627D01*
X69681620Y-38715631D01*
X69686514Y-38720699D01*
X69836789Y-38819036D01*
X70005116Y-38881636D01*
X70012097Y-38882567D01*
X70012099Y-38882568D01*
X70176149Y-38904457D01*
X70176153Y-38904457D01*
X70183130Y-38905388D01*
X70190142Y-38904750D01*
X70190146Y-38904750D01*
X70354960Y-38889751D01*
X70354961Y-38889751D01*
X70361981Y-38889112D01*
X70532782Y-38833615D01*
X70563714Y-38815176D01*
X70680992Y-38745265D01*
X70680994Y-38745264D01*
X70687044Y-38741657D01*
X70817099Y-38617807D01*
X70827360Y-38602364D01*
X70870705Y-38537124D01*
X70916483Y-38468222D01*
X70955466Y-38365599D01*
X70977757Y-38306919D01*
X70977758Y-38306914D01*
X70980257Y-38300336D01*
X70986521Y-38255763D01*
X71004700Y-38126416D01*
X71004700Y-38126411D01*
X71005251Y-38122493D01*
X71005565Y-38100000D01*
X70985546Y-37921528D01*
X70926485Y-37751927D01*
X70892224Y-37697097D01*
X70835049Y-37605599D01*
X70831316Y-37599625D01*
X70751054Y-37518801D01*
X70709733Y-37477190D01*
X70709729Y-37477187D01*
X70704770Y-37472193D01*
X70693761Y-37465206D01*
X70563537Y-37382564D01*
X70553136Y-37375963D01*
X70493656Y-37354783D01*
X70390586Y-37318081D01*
X70390581Y-37318080D01*
X70383951Y-37315719D01*
X70376965Y-37314886D01*
X70376961Y-37314885D01*
X70249177Y-37299648D01*
X70205624Y-37294455D01*
X70198621Y-37295191D01*
X70198620Y-37295191D01*
X70034025Y-37312490D01*
X70034021Y-37312491D01*
X70027017Y-37313227D01*
X69971828Y-37332015D01*
X69863790Y-37368794D01*
X69792858Y-37371812D01*
X69731554Y-37336002D01*
X69725550Y-37329160D01*
X69613361Y-37191602D01*
X69462180Y-37066535D01*
X69289585Y-36973213D01*
X69195869Y-36944203D01*
X69108039Y-36917015D01*
X69108036Y-36917014D01*
X69102152Y-36915193D01*
X69096027Y-36914549D01*
X69096026Y-36914549D01*
X68913147Y-36895327D01*
X68913146Y-36895327D01*
X68907019Y-36894683D01*
X68803160Y-36904135D01*
X68717759Y-36911907D01*
X68717758Y-36911907D01*
X68711618Y-36912466D01*
X68705704Y-36914207D01*
X68705702Y-36914207D01*
X68689886Y-36918862D01*
X68523393Y-36967864D01*
X68517928Y-36970721D01*
X68354972Y-37055912D01*
X68354968Y-37055915D01*
X68349512Y-37058767D01*
X68344712Y-37062627D01*
X68344711Y-37062627D01*
X68329188Y-37075108D01*
X68196600Y-37181711D01*
X68070480Y-37332016D01*
X68067516Y-37337408D01*
X68067513Y-37337412D01*
X68045401Y-37377634D01*
X67975956Y-37503954D01*
X67974095Y-37509821D01*
X67974094Y-37509823D01*
X67963001Y-37544794D01*
X67916628Y-37690978D01*
X67894757Y-37885963D01*
X66593475Y-37885963D01*
X66586364Y-37818307D01*
X66586364Y-37818305D01*
X66585674Y-37811744D01*
X66527179Y-37631716D01*
X66523421Y-37625206D01*
X66435836Y-37473505D01*
X66432533Y-37467784D01*
X66428114Y-37462876D01*
X66310286Y-37332015D01*
X66310284Y-37332014D01*
X66305871Y-37327112D01*
X66167610Y-37226660D01*
X66158072Y-37219730D01*
X66158071Y-37219729D01*
X66152730Y-37215849D01*
X65979803Y-37138856D01*
X65881788Y-37118022D01*
X65801103Y-37100872D01*
X65801099Y-37100872D01*
X65794646Y-37099500D01*
X65605354Y-37099500D01*
X65598901Y-37100872D01*
X65598897Y-37100872D01*
X65518212Y-37118022D01*
X65420197Y-37138856D01*
X65247270Y-37215849D01*
X65241929Y-37219729D01*
X65241928Y-37219730D01*
X65232390Y-37226660D01*
X65094129Y-37327112D01*
X65089716Y-37332014D01*
X65089714Y-37332015D01*
X64971886Y-37462876D01*
X64967467Y-37467784D01*
X64964164Y-37473504D01*
X64962753Y-37475447D01*
X64906531Y-37518801D01*
X64835795Y-37524878D01*
X64818549Y-37520086D01*
X64700586Y-37478081D01*
X64700581Y-37478080D01*
X64693951Y-37475719D01*
X64686965Y-37474886D01*
X64686961Y-37474885D01*
X64559177Y-37459648D01*
X64515624Y-37454455D01*
X64508621Y-37455191D01*
X64508620Y-37455191D01*
X64344025Y-37472490D01*
X64344021Y-37472491D01*
X64337017Y-37473227D01*
X64330346Y-37475498D01*
X64173677Y-37528832D01*
X64173674Y-37528833D01*
X64167007Y-37531103D01*
X64161009Y-37534793D01*
X64161007Y-37534794D01*
X64143998Y-37545258D01*
X64014045Y-37625206D01*
X64009014Y-37630132D01*
X64009011Y-37630135D01*
X63952874Y-37685109D01*
X63885732Y-37750859D01*
X63881913Y-37756784D01*
X63881912Y-37756786D01*
X63798663Y-37885963D01*
X63788446Y-37901817D01*
X63786037Y-37908437D01*
X63786035Y-37908440D01*
X63778724Y-37928527D01*
X63727022Y-38070578D01*
X63704514Y-38248753D01*
X63287506Y-38248753D01*
X63304700Y-38126416D01*
X63304700Y-38126411D01*
X63305251Y-38122493D01*
X63305565Y-38100000D01*
X63285546Y-37921528D01*
X63226485Y-37751927D01*
X63192224Y-37697097D01*
X63135049Y-37605599D01*
X63131316Y-37599625D01*
X63051054Y-37518801D01*
X63009733Y-37477190D01*
X63009729Y-37477187D01*
X63004770Y-37472193D01*
X62993761Y-37465206D01*
X62863537Y-37382564D01*
X62853136Y-37375963D01*
X62793656Y-37354783D01*
X62690586Y-37318081D01*
X62690581Y-37318080D01*
X62683951Y-37315719D01*
X62676965Y-37314886D01*
X62676961Y-37314885D01*
X62549177Y-37299648D01*
X62505624Y-37294455D01*
X62498621Y-37295191D01*
X62498620Y-37295191D01*
X62334025Y-37312490D01*
X62334021Y-37312491D01*
X62327017Y-37313227D01*
X62320346Y-37315498D01*
X62163677Y-37368832D01*
X62163674Y-37368833D01*
X62157007Y-37371103D01*
X62151009Y-37374793D01*
X62151007Y-37374794D01*
X62138377Y-37382564D01*
X62004045Y-37465206D01*
X61958483Y-37509823D01*
X61951580Y-37516583D01*
X61888915Y-37549953D01*
X61821156Y-37545258D01*
X61660586Y-37488081D01*
X61660581Y-37488080D01*
X61653951Y-37485719D01*
X61646965Y-37484886D01*
X61646961Y-37484885D01*
X61503542Y-37467784D01*
X61475624Y-37464455D01*
X61468621Y-37465191D01*
X61468620Y-37465191D01*
X61304025Y-37482490D01*
X61304021Y-37482491D01*
X61297017Y-37483227D01*
X61290346Y-37485498D01*
X61133677Y-37538832D01*
X61133674Y-37538833D01*
X61127007Y-37541103D01*
X61121009Y-37544793D01*
X61121007Y-37544794D01*
X61087150Y-37565623D01*
X60974045Y-37635206D01*
X60969014Y-37640132D01*
X60969011Y-37640135D01*
X60917092Y-37690978D01*
X60845732Y-37760859D01*
X60799118Y-37833190D01*
X60745406Y-37879612D01*
X60675119Y-37889627D01*
X60610576Y-37860052D01*
X60586355Y-37831702D01*
X60545049Y-37765599D01*
X60541316Y-37759625D01*
X60420538Y-37638001D01*
X60419733Y-37637190D01*
X60419729Y-37637187D01*
X60414770Y-37632193D01*
X60405001Y-37625993D01*
X60338625Y-37583870D01*
X60263136Y-37535963D01*
X60218548Y-37520086D01*
X60100586Y-37478081D01*
X60100581Y-37478080D01*
X60093951Y-37475719D01*
X60086965Y-37474886D01*
X60086961Y-37474885D01*
X59959177Y-37459648D01*
X59915624Y-37454455D01*
X59908621Y-37455191D01*
X59908620Y-37455191D01*
X59744025Y-37472490D01*
X59744021Y-37472491D01*
X59737017Y-37473227D01*
X59730346Y-37475498D01*
X59573677Y-37528832D01*
X59573674Y-37528833D01*
X59567007Y-37531103D01*
X59561009Y-37534793D01*
X59561007Y-37534794D01*
X59543998Y-37545258D01*
X59414045Y-37625206D01*
X59409014Y-37630132D01*
X59409011Y-37630135D01*
X59352874Y-37685109D01*
X59285732Y-37750859D01*
X59281913Y-37756784D01*
X59281912Y-37756786D01*
X59198663Y-37885963D01*
X59188446Y-37901817D01*
X59186037Y-37908437D01*
X59186035Y-37908440D01*
X59178724Y-37928527D01*
X59127022Y-38070578D01*
X59104514Y-38248753D01*
X55631216Y-38248753D01*
X55619733Y-38237190D01*
X55619729Y-38237187D01*
X55614770Y-38232193D01*
X55603761Y-38225206D01*
X55535195Y-38181693D01*
X55463136Y-38135963D01*
X55414184Y-38118532D01*
X55300586Y-38078081D01*
X55300581Y-38078080D01*
X55293951Y-38075719D01*
X55286965Y-38074886D01*
X55286961Y-38074885D01*
X55159177Y-38059648D01*
X55115624Y-38054455D01*
X55108621Y-38055191D01*
X55108620Y-38055191D01*
X54944025Y-38072490D01*
X54944021Y-38072491D01*
X54937017Y-38073227D01*
X54930346Y-38075498D01*
X54773677Y-38128832D01*
X54773674Y-38128833D01*
X54767007Y-38131103D01*
X54761009Y-38134793D01*
X54761007Y-38134794D01*
X54690526Y-38178154D01*
X54614045Y-38225206D01*
X54609014Y-38230132D01*
X54609011Y-38230135D01*
X54582841Y-38255763D01*
X54485732Y-38350859D01*
X54481913Y-38356784D01*
X54481912Y-38356786D01*
X54406313Y-38474093D01*
X54388446Y-38501817D01*
X54386037Y-38508437D01*
X54386035Y-38508440D01*
X54375595Y-38537124D01*
X54327022Y-38670578D01*
X54304514Y-38848753D01*
X54305201Y-38855760D01*
X54305201Y-38855763D01*
X54313276Y-38938119D01*
X54322039Y-39027486D01*
X54324262Y-39034168D01*
X54324262Y-39034169D01*
X54337974Y-39075388D01*
X54378726Y-39197896D01*
X54471759Y-39351512D01*
X54596514Y-39480699D01*
X54746789Y-39579036D01*
X54753393Y-39581492D01*
X54915116Y-39641636D01*
X54914469Y-39643375D01*
X54967674Y-39674537D01*
X54999812Y-39737843D01*
X54992623Y-39808475D01*
X54948389Y-39864007D01*
X54916550Y-39880195D01*
X54767007Y-39931103D01*
X54761009Y-39934793D01*
X54761007Y-39934794D01*
X54690526Y-39978155D01*
X54614045Y-40025206D01*
X54609014Y-40030132D01*
X54609011Y-40030135D01*
X54601807Y-40037190D01*
X54485732Y-40150859D01*
X54481913Y-40156784D01*
X54481912Y-40156786D01*
X54392265Y-40295891D01*
X54388446Y-40301817D01*
X54327022Y-40470578D01*
X54304514Y-40648753D01*
X46700000Y-40648753D01*
X46700000Y-35878753D01*
X58644514Y-35878753D01*
X58645201Y-35885760D01*
X58645201Y-35885763D01*
X58652583Y-35961050D01*
X58662039Y-36057486D01*
X58664262Y-36064168D01*
X58664262Y-36064169D01*
X58714818Y-36216147D01*
X58718726Y-36227896D01*
X58722373Y-36233918D01*
X58775335Y-36321368D01*
X58811759Y-36381512D01*
X58936514Y-36510699D01*
X59086789Y-36609036D01*
X59255116Y-36671636D01*
X59262097Y-36672567D01*
X59262099Y-36672568D01*
X59426149Y-36694457D01*
X59426153Y-36694457D01*
X59433130Y-36695388D01*
X59440142Y-36694750D01*
X59440146Y-36694750D01*
X59604960Y-36679751D01*
X59604961Y-36679751D01*
X59611981Y-36679112D01*
X59782782Y-36623615D01*
X59788833Y-36620008D01*
X59930992Y-36535265D01*
X59930994Y-36535264D01*
X59937044Y-36531657D01*
X60067099Y-36407807D01*
X60077926Y-36391512D01*
X60130162Y-36312890D01*
X60166483Y-36258222D01*
X60188630Y-36199919D01*
X60227757Y-36096919D01*
X60227758Y-36096914D01*
X60230257Y-36090336D01*
X60232529Y-36074169D01*
X60254700Y-35916416D01*
X60254700Y-35916411D01*
X60255251Y-35912493D01*
X60255565Y-35890000D01*
X60255425Y-35888753D01*
X65194514Y-35888753D01*
X65195201Y-35895760D01*
X65195201Y-35895763D01*
X65197226Y-35916416D01*
X65212039Y-36067486D01*
X65214262Y-36074168D01*
X65214262Y-36074169D01*
X65264496Y-36225179D01*
X65268726Y-36237896D01*
X65272373Y-36243918D01*
X65355703Y-36381512D01*
X65361759Y-36391512D01*
X65486514Y-36520699D01*
X65636789Y-36619036D01*
X65805116Y-36681636D01*
X65812097Y-36682567D01*
X65812099Y-36682568D01*
X65976149Y-36704457D01*
X65976153Y-36704457D01*
X65983130Y-36705388D01*
X65990142Y-36704750D01*
X65990146Y-36704750D01*
X66154960Y-36689751D01*
X66154961Y-36689751D01*
X66161981Y-36689112D01*
X66332782Y-36633615D01*
X66422421Y-36580180D01*
X66480992Y-36545265D01*
X66480994Y-36545264D01*
X66487044Y-36541657D01*
X66617099Y-36417807D01*
X66634570Y-36391512D01*
X66714737Y-36270850D01*
X66769095Y-36225179D01*
X66839514Y-36216147D01*
X66863606Y-36222480D01*
X66908511Y-36239180D01*
X66908514Y-36239181D01*
X66915116Y-36241636D01*
X66922097Y-36242567D01*
X66922099Y-36242568D01*
X67086149Y-36264457D01*
X67086153Y-36264457D01*
X67093130Y-36265388D01*
X67100142Y-36264750D01*
X67100146Y-36264750D01*
X67264960Y-36249751D01*
X67264961Y-36249751D01*
X67271981Y-36249112D01*
X67442782Y-36193615D01*
X67466871Y-36179255D01*
X67590992Y-36105265D01*
X67590994Y-36105264D01*
X67597044Y-36101657D01*
X67727099Y-35977807D01*
X67738233Y-35961050D01*
X67816954Y-35842564D01*
X67826483Y-35828222D01*
X67841168Y-35789564D01*
X67887757Y-35666919D01*
X67887758Y-35666914D01*
X67890257Y-35660336D01*
X67906914Y-35541817D01*
X67914700Y-35486416D01*
X67914700Y-35486411D01*
X67915251Y-35482493D01*
X67915565Y-35460000D01*
X67903519Y-35352611D01*
X71004394Y-35352611D01*
X71022999Y-35521135D01*
X71033044Y-35548584D01*
X71076349Y-35666919D01*
X71081266Y-35680356D01*
X71085502Y-35686659D01*
X71085502Y-35686660D01*
X71097124Y-35703955D01*
X71175830Y-35821083D01*
X71181442Y-35826190D01*
X71181445Y-35826193D01*
X71295612Y-35930077D01*
X71295616Y-35930080D01*
X71301233Y-35935191D01*
X71307906Y-35938814D01*
X71307910Y-35938817D01*
X71443558Y-36012467D01*
X71443560Y-36012468D01*
X71450235Y-36016092D01*
X71457584Y-36018020D01*
X71606883Y-36057188D01*
X71606885Y-36057188D01*
X71614233Y-36059116D01*
X71682879Y-36060194D01*
X71750677Y-36081263D01*
X71796321Y-36135642D01*
X71805321Y-36206066D01*
X71774817Y-36270175D01*
X71738691Y-36298143D01*
X71710120Y-36312890D01*
X71710117Y-36312892D01*
X71703369Y-36316375D01*
X71575604Y-36427831D01*
X71571237Y-36434045D01*
X71517364Y-36510699D01*
X71478113Y-36566547D01*
X71416524Y-36724513D01*
X71394394Y-36892611D01*
X71412999Y-37061135D01*
X71420867Y-37082634D01*
X71468634Y-37213163D01*
X71471266Y-37220356D01*
X71475502Y-37226659D01*
X71475502Y-37226660D01*
X71488574Y-37246113D01*
X71565830Y-37361083D01*
X71571442Y-37366190D01*
X71571445Y-37366193D01*
X71685612Y-37470077D01*
X71685616Y-37470080D01*
X71691233Y-37475191D01*
X71697906Y-37478814D01*
X71697910Y-37478817D01*
X71833558Y-37552467D01*
X71833560Y-37552468D01*
X71840235Y-37556092D01*
X71847584Y-37558020D01*
X71996883Y-37597188D01*
X71996885Y-37597188D01*
X72004233Y-37599116D01*
X72090609Y-37600473D01*
X72166161Y-37601660D01*
X72166164Y-37601660D01*
X72173760Y-37601779D01*
X72181165Y-37600083D01*
X72181166Y-37600083D01*
X72251956Y-37583870D01*
X72339029Y-37563928D01*
X72490498Y-37487747D01*
X72619423Y-37377634D01*
X72718361Y-37239947D01*
X72726488Y-37219730D01*
X72778766Y-37089687D01*
X72778767Y-37089685D01*
X72781601Y-37082634D01*
X72805490Y-36914778D01*
X72805645Y-36900000D01*
X72803840Y-36885080D01*
X72786188Y-36739220D01*
X72785276Y-36731680D01*
X72725345Y-36573077D01*
X72706230Y-36545265D01*
X72633614Y-36439608D01*
X72633613Y-36439607D01*
X72629312Y-36433349D01*
X72617322Y-36422666D01*
X72508392Y-36325612D01*
X72508388Y-36325610D01*
X72502721Y-36320560D01*
X72352881Y-36241224D01*
X72188441Y-36199919D01*
X72180843Y-36199879D01*
X72180841Y-36199879D01*
X72144163Y-36199687D01*
X72130002Y-36199613D01*
X72061987Y-36179255D01*
X72015776Y-36125356D01*
X72006040Y-36055031D01*
X72035871Y-35990605D01*
X72074048Y-35961050D01*
X72093714Y-35951159D01*
X72100498Y-35947747D01*
X72229423Y-35837634D01*
X72328361Y-35699947D01*
X72336237Y-35680356D01*
X72388766Y-35549687D01*
X72388767Y-35549685D01*
X72391601Y-35542634D01*
X72412527Y-35395599D01*
X72414909Y-35378862D01*
X72414909Y-35378859D01*
X72415490Y-35374778D01*
X72415645Y-35360000D01*
X72413840Y-35345080D01*
X72406149Y-35281528D01*
X72395276Y-35191680D01*
X72335345Y-35033077D01*
X72302736Y-34985631D01*
X72243614Y-34899608D01*
X72243613Y-34899607D01*
X72239312Y-34893349D01*
X72227514Y-34882837D01*
X72118392Y-34785612D01*
X72118388Y-34785610D01*
X72112721Y-34780560D01*
X71962881Y-34701224D01*
X71798441Y-34659919D01*
X71790843Y-34659879D01*
X71790841Y-34659879D01*
X71713668Y-34659475D01*
X71628895Y-34659031D01*
X71621508Y-34660805D01*
X71621504Y-34660805D01*
X71478162Y-34695220D01*
X71464032Y-34698612D01*
X71457288Y-34702093D01*
X71457285Y-34702094D01*
X71387289Y-34738222D01*
X71313369Y-34776375D01*
X71307647Y-34781367D01*
X71307645Y-34781368D01*
X71261624Y-34821515D01*
X71185604Y-34887831D01*
X71088113Y-35026547D01*
X71026524Y-35184513D01*
X71025532Y-35192046D01*
X71025532Y-35192047D01*
X71012831Y-35288527D01*
X71004394Y-35352611D01*
X67903519Y-35352611D01*
X67895546Y-35281528D01*
X67885095Y-35251515D01*
X67852158Y-35156934D01*
X67836485Y-35111927D01*
X67832652Y-35105792D01*
X67745049Y-34965599D01*
X67741316Y-34959625D01*
X67648914Y-34866576D01*
X67619733Y-34837190D01*
X67619729Y-34837187D01*
X67614770Y-34832193D01*
X67603761Y-34825206D01*
X67541370Y-34785612D01*
X67463136Y-34735963D01*
X67422497Y-34721492D01*
X67300586Y-34678081D01*
X67300581Y-34678080D01*
X67293951Y-34675719D01*
X67286965Y-34674886D01*
X67286961Y-34674885D01*
X67154000Y-34659031D01*
X67115624Y-34654455D01*
X67108621Y-34655191D01*
X67108620Y-34655191D01*
X66944025Y-34672490D01*
X66944021Y-34672491D01*
X66937017Y-34673227D01*
X66930346Y-34675498D01*
X66773677Y-34728832D01*
X66773674Y-34728833D01*
X66767007Y-34731103D01*
X66761009Y-34734793D01*
X66761007Y-34734794D01*
X66745892Y-34744093D01*
X66614045Y-34825206D01*
X66609014Y-34830132D01*
X66609011Y-34830135D01*
X66601807Y-34837190D01*
X66485732Y-34950859D01*
X66481913Y-34956784D01*
X66481912Y-34956786D01*
X66449681Y-35006799D01*
X66399171Y-35085176D01*
X66397089Y-35088406D01*
X66343375Y-35134831D01*
X66273088Y-35144846D01*
X66248911Y-35138850D01*
X66190586Y-35118081D01*
X66190581Y-35118080D01*
X66183951Y-35115719D01*
X66176965Y-35114886D01*
X66176961Y-35114885D01*
X66049177Y-35099648D01*
X66005624Y-35094455D01*
X65998621Y-35095191D01*
X65998620Y-35095191D01*
X65834025Y-35112490D01*
X65834021Y-35112491D01*
X65827017Y-35113227D01*
X65820346Y-35115498D01*
X65663677Y-35168832D01*
X65663674Y-35168833D01*
X65657007Y-35171103D01*
X65651009Y-35174793D01*
X65651007Y-35174794D01*
X65580526Y-35218155D01*
X65504045Y-35265206D01*
X65499014Y-35270132D01*
X65499011Y-35270135D01*
X65494172Y-35274874D01*
X65375732Y-35390859D01*
X65371913Y-35396784D01*
X65371912Y-35396786D01*
X65296640Y-35513586D01*
X65278446Y-35541817D01*
X65276037Y-35548437D01*
X65276035Y-35548440D01*
X65247734Y-35626197D01*
X65217022Y-35710578D01*
X65194514Y-35888753D01*
X60255425Y-35888753D01*
X60235546Y-35711528D01*
X60229427Y-35693955D01*
X60178803Y-35548584D01*
X60176485Y-35541927D01*
X60172714Y-35535891D01*
X60085049Y-35395599D01*
X60081316Y-35389625D01*
X59962657Y-35270135D01*
X59959733Y-35267190D01*
X59959729Y-35267187D01*
X59954770Y-35262193D01*
X59943761Y-35255206D01*
X59896860Y-35225442D01*
X59803136Y-35165963D01*
X59773352Y-35155357D01*
X59640586Y-35108081D01*
X59640581Y-35108080D01*
X59633951Y-35105719D01*
X59626965Y-35104886D01*
X59626961Y-35104885D01*
X59488758Y-35088406D01*
X59455624Y-35084455D01*
X59448621Y-35085191D01*
X59448620Y-35085191D01*
X59284025Y-35102490D01*
X59284021Y-35102491D01*
X59277017Y-35103227D01*
X59270346Y-35105498D01*
X59113677Y-35158832D01*
X59113674Y-35158833D01*
X59107007Y-35161103D01*
X59101009Y-35164793D01*
X59101007Y-35164794D01*
X59057305Y-35191680D01*
X58954045Y-35255206D01*
X58949014Y-35260132D01*
X58949011Y-35260135D01*
X58886883Y-35320976D01*
X58825732Y-35380859D01*
X58821913Y-35386784D01*
X58821912Y-35386786D01*
X58777267Y-35456062D01*
X58728446Y-35531817D01*
X58726037Y-35538437D01*
X58726035Y-35538440D01*
X58697734Y-35616197D01*
X58667022Y-35700578D01*
X58644514Y-35878753D01*
X46700000Y-35878753D01*
X46700000Y-34358753D01*
X50484514Y-34358753D01*
X50485201Y-34365760D01*
X50485201Y-34365763D01*
X50486005Y-34373963D01*
X50502039Y-34537486D01*
X50504262Y-34544168D01*
X50504262Y-34544169D01*
X50555638Y-34698612D01*
X50558726Y-34707896D01*
X50562373Y-34713918D01*
X50631717Y-34828418D01*
X50651759Y-34861512D01*
X50776514Y-34990699D01*
X50926789Y-35089036D01*
X51095116Y-35151636D01*
X51102097Y-35152567D01*
X51102099Y-35152568D01*
X51266149Y-35174457D01*
X51266153Y-35174457D01*
X51273130Y-35175388D01*
X51280142Y-35174750D01*
X51280146Y-35174750D01*
X51444960Y-35159751D01*
X51444961Y-35159751D01*
X51451981Y-35159112D01*
X51595468Y-35112490D01*
X51616082Y-35105792D01*
X51622782Y-35103615D01*
X51636749Y-35095289D01*
X51770992Y-35015265D01*
X51770994Y-35015264D01*
X51777044Y-35011657D01*
X51907099Y-34887807D01*
X51924570Y-34861512D01*
X51974997Y-34785612D01*
X52006483Y-34738222D01*
X52022203Y-34696839D01*
X52067757Y-34576919D01*
X52067758Y-34576914D01*
X52070257Y-34570336D01*
X52076957Y-34522666D01*
X52094700Y-34396416D01*
X52094700Y-34396411D01*
X52095251Y-34392493D01*
X52095565Y-34370000D01*
X52075546Y-34191528D01*
X52073119Y-34184557D01*
X52033900Y-34071936D01*
X52016485Y-34021927D01*
X52002784Y-34000000D01*
X51995756Y-33988753D01*
X53004514Y-33988753D01*
X53005201Y-33995760D01*
X53005201Y-33995763D01*
X53006005Y-34003963D01*
X53022039Y-34167486D01*
X53024262Y-34174168D01*
X53024262Y-34174169D01*
X53053406Y-34261779D01*
X53078726Y-34337896D01*
X53171759Y-34491512D01*
X53176648Y-34496575D01*
X53176649Y-34496576D01*
X53241146Y-34563364D01*
X53296514Y-34620699D01*
X53446789Y-34719036D01*
X53615116Y-34781636D01*
X53622097Y-34782567D01*
X53622099Y-34782568D01*
X53786149Y-34804457D01*
X53786153Y-34804457D01*
X53793130Y-34805388D01*
X53800142Y-34804750D01*
X53800146Y-34804750D01*
X53964960Y-34789751D01*
X53964961Y-34789751D01*
X53971981Y-34789112D01*
X54142782Y-34733615D01*
X54175824Y-34713918D01*
X54290992Y-34645265D01*
X54290994Y-34645264D01*
X54297044Y-34641657D01*
X54427099Y-34517807D01*
X54444570Y-34491512D01*
X54522582Y-34374093D01*
X54526483Y-34368222D01*
X54566917Y-34261779D01*
X54587757Y-34206919D01*
X54587758Y-34206914D01*
X54590257Y-34200336D01*
X54596839Y-34153503D01*
X54614700Y-34026416D01*
X54614700Y-34026411D01*
X54615251Y-34022493D01*
X54615565Y-34000000D01*
X54595546Y-33821528D01*
X54589926Y-33805388D01*
X54564200Y-33731515D01*
X54536485Y-33651927D01*
X54531281Y-33643598D01*
X54445049Y-33505599D01*
X54441316Y-33499625D01*
X54351076Y-33408753D01*
X58484514Y-33408753D01*
X58502039Y-33587486D01*
X58504262Y-33594168D01*
X58504262Y-33594169D01*
X58555165Y-33747190D01*
X58558726Y-33757896D01*
X58562373Y-33763918D01*
X58621083Y-33860859D01*
X58651759Y-33911512D01*
X58656648Y-33916575D01*
X58656649Y-33916576D01*
X58667896Y-33928222D01*
X58776514Y-34040699D01*
X58926789Y-34139036D01*
X59095116Y-34201636D01*
X59102097Y-34202567D01*
X59102099Y-34202568D01*
X59266149Y-34224457D01*
X59266153Y-34224457D01*
X59273130Y-34225388D01*
X59280142Y-34224750D01*
X59280146Y-34224750D01*
X59444960Y-34209751D01*
X59444961Y-34209751D01*
X59451981Y-34209112D01*
X59622782Y-34153615D01*
X59630667Y-34148915D01*
X59631999Y-34148572D01*
X59635248Y-34147098D01*
X59635507Y-34147669D01*
X59699421Y-34131218D01*
X59766830Y-34153503D01*
X59785810Y-34169614D01*
X59796514Y-34180699D01*
X59946789Y-34279036D01*
X60115116Y-34341636D01*
X60122097Y-34342567D01*
X60122099Y-34342568D01*
X60286149Y-34364457D01*
X60286153Y-34364457D01*
X60293130Y-34365388D01*
X60300142Y-34364750D01*
X60300146Y-34364750D01*
X60464960Y-34349751D01*
X60464961Y-34349751D01*
X60471981Y-34349112D01*
X60642782Y-34293615D01*
X60696188Y-34261779D01*
X60790992Y-34205265D01*
X60790994Y-34205264D01*
X60797044Y-34201657D01*
X60927099Y-34077807D01*
X60950515Y-34042564D01*
X61022582Y-33934093D01*
X61026483Y-33928222D01*
X61048742Y-33869625D01*
X61087757Y-33766919D01*
X61087758Y-33766914D01*
X61090257Y-33760336D01*
X61093707Y-33735792D01*
X61104074Y-33662022D01*
X61133362Y-33597348D01*
X61192966Y-33558775D01*
X61217428Y-33554077D01*
X61264959Y-33549751D01*
X61271981Y-33549112D01*
X61278683Y-33546934D01*
X61278685Y-33546934D01*
X61406728Y-33505330D01*
X61477695Y-33503302D01*
X61536300Y-33537636D01*
X61616514Y-33620699D01*
X61766789Y-33719036D01*
X61935116Y-33781636D01*
X61942097Y-33782567D01*
X61942099Y-33782568D01*
X62106149Y-33804457D01*
X62106153Y-33804457D01*
X62113130Y-33805388D01*
X62120142Y-33804750D01*
X62120146Y-33804750D01*
X62284960Y-33789751D01*
X62284961Y-33789751D01*
X62291981Y-33789112D01*
X62462782Y-33733615D01*
X62496381Y-33713586D01*
X62610992Y-33645265D01*
X62610994Y-33645264D01*
X62617044Y-33641657D01*
X62710551Y-33552611D01*
X69804394Y-33552611D01*
X69822999Y-33721135D01*
X69881266Y-33880356D01*
X69885502Y-33886659D01*
X69885502Y-33886660D01*
X69898155Y-33905489D01*
X69975830Y-34021083D01*
X69981442Y-34026190D01*
X69981445Y-34026193D01*
X70095612Y-34130077D01*
X70095616Y-34130080D01*
X70101233Y-34135191D01*
X70107906Y-34138814D01*
X70107910Y-34138817D01*
X70243558Y-34212467D01*
X70243560Y-34212468D01*
X70250235Y-34216092D01*
X70257584Y-34218020D01*
X70406883Y-34257188D01*
X70406885Y-34257188D01*
X70414233Y-34259116D01*
X70500609Y-34260473D01*
X70576161Y-34261660D01*
X70576164Y-34261660D01*
X70583760Y-34261779D01*
X70591165Y-34260083D01*
X70591166Y-34260083D01*
X70651586Y-34246245D01*
X70749029Y-34223928D01*
X70900498Y-34147747D01*
X71029423Y-34037634D01*
X71128361Y-33899947D01*
X71138149Y-33875599D01*
X71188766Y-33749687D01*
X71188767Y-33749685D01*
X71191601Y-33742634D01*
X71205458Y-33645265D01*
X71214909Y-33578862D01*
X71214909Y-33578859D01*
X71215490Y-33574778D01*
X71215591Y-33565191D01*
X71215602Y-33564135D01*
X71215602Y-33564129D01*
X71215645Y-33560000D01*
X71214328Y-33549112D01*
X71207734Y-33494627D01*
X71195276Y-33391680D01*
X71135345Y-33233077D01*
X71126584Y-33220330D01*
X71043614Y-33099608D01*
X71043613Y-33099607D01*
X71039312Y-33093349D01*
X71011355Y-33068440D01*
X70918392Y-32985612D01*
X70918388Y-32985610D01*
X70912721Y-32980560D01*
X70762881Y-32901224D01*
X70598441Y-32859919D01*
X70590843Y-32859879D01*
X70590841Y-32859879D01*
X70513668Y-32859475D01*
X70428895Y-32859031D01*
X70421508Y-32860805D01*
X70421504Y-32860805D01*
X70278162Y-32895220D01*
X70264032Y-32898612D01*
X70257288Y-32902093D01*
X70257285Y-32902094D01*
X70120117Y-32972892D01*
X70113369Y-32976375D01*
X69985604Y-33087831D01*
X69981237Y-33094045D01*
X69901908Y-33206919D01*
X69888113Y-33226547D01*
X69826524Y-33384513D01*
X69825532Y-33392046D01*
X69825532Y-33392047D01*
X69809749Y-33511936D01*
X69804394Y-33552611D01*
X62710551Y-33552611D01*
X62747099Y-33517807D01*
X62761066Y-33496786D01*
X62825888Y-33399220D01*
X62846483Y-33368222D01*
X62861168Y-33329564D01*
X62907757Y-33206919D01*
X62907758Y-33206914D01*
X62910257Y-33200336D01*
X62911237Y-33193364D01*
X62934700Y-33026416D01*
X62934700Y-33026411D01*
X62935251Y-33022493D01*
X62935565Y-33000000D01*
X62915546Y-32821528D01*
X62912045Y-32811473D01*
X62869434Y-32689112D01*
X62856485Y-32651927D01*
X62845043Y-32633615D01*
X62765049Y-32505599D01*
X62761316Y-32499625D01*
X62692869Y-32430699D01*
X62639733Y-32377190D01*
X62639729Y-32377187D01*
X62634770Y-32372193D01*
X62483136Y-32275963D01*
X62429281Y-32256786D01*
X62320586Y-32218081D01*
X62320581Y-32218080D01*
X62313951Y-32215719D01*
X62306965Y-32214886D01*
X62306961Y-32214885D01*
X62179177Y-32199648D01*
X62135624Y-32194455D01*
X62128621Y-32195191D01*
X62128620Y-32195191D01*
X61964025Y-32212490D01*
X61964021Y-32212491D01*
X61957017Y-32213227D01*
X61835910Y-32254455D01*
X61764979Y-32257473D01*
X61705900Y-32223961D01*
X61619733Y-32137190D01*
X61619729Y-32137187D01*
X61614770Y-32132193D01*
X61603761Y-32125206D01*
X61512808Y-32067486D01*
X61463136Y-32035963D01*
X61391167Y-32010336D01*
X61300586Y-31978081D01*
X61300581Y-31978080D01*
X61293951Y-31975719D01*
X61286965Y-31974886D01*
X61286961Y-31974885D01*
X61159177Y-31959648D01*
X61115624Y-31954455D01*
X61108621Y-31955191D01*
X61108620Y-31955191D01*
X60944025Y-31972490D01*
X60944021Y-31972491D01*
X60937017Y-31973227D01*
X60930346Y-31975498D01*
X60773677Y-32028832D01*
X60773674Y-32028833D01*
X60767007Y-32031103D01*
X60761009Y-32034793D01*
X60761007Y-32034794D01*
X60719262Y-32060476D01*
X60614045Y-32125206D01*
X60609014Y-32130132D01*
X60609011Y-32130135D01*
X60584725Y-32153918D01*
X60485732Y-32250859D01*
X60481913Y-32256784D01*
X60481912Y-32256786D01*
X60467118Y-32279742D01*
X60388446Y-32401817D01*
X60386037Y-32408437D01*
X60386035Y-32408440D01*
X60357734Y-32486197D01*
X60327022Y-32570578D01*
X60317501Y-32645951D01*
X60316151Y-32656635D01*
X60287769Y-32721712D01*
X60228709Y-32761114D01*
X60204314Y-32766154D01*
X60144025Y-32772490D01*
X60144021Y-32772491D01*
X60137017Y-32773227D01*
X59967007Y-32831103D01*
X59961011Y-32834792D01*
X59956966Y-32836695D01*
X59886812Y-32847600D01*
X59821899Y-32818845D01*
X59813917Y-32811473D01*
X59799734Y-32797192D01*
X59794770Y-32792193D01*
X59783761Y-32785206D01*
X59726320Y-32748753D01*
X59643136Y-32695963D01*
X59613352Y-32685357D01*
X59480586Y-32638081D01*
X59480581Y-32638080D01*
X59473951Y-32635719D01*
X59466965Y-32634886D01*
X59466961Y-32634885D01*
X59334042Y-32619036D01*
X59295624Y-32614455D01*
X59288621Y-32615191D01*
X59288620Y-32615191D01*
X59124025Y-32632490D01*
X59124021Y-32632491D01*
X59117017Y-32633227D01*
X59110346Y-32635498D01*
X58953677Y-32688832D01*
X58953674Y-32688833D01*
X58947007Y-32691103D01*
X58941009Y-32694793D01*
X58941007Y-32694794D01*
X58925300Y-32704457D01*
X58794045Y-32785206D01*
X58789014Y-32790132D01*
X58789011Y-32790135D01*
X58781805Y-32797192D01*
X58665732Y-32910859D01*
X58661913Y-32916784D01*
X58661912Y-32916786D01*
X58620292Y-32981368D01*
X58568446Y-33061817D01*
X58566037Y-33068437D01*
X58566035Y-33068440D01*
X58558808Y-33088296D01*
X58507022Y-33230578D01*
X58484514Y-33408753D01*
X54351076Y-33408753D01*
X54319733Y-33377190D01*
X54319729Y-33377187D01*
X54314770Y-33372193D01*
X54303761Y-33365206D01*
X54256860Y-33335442D01*
X54163136Y-33275963D01*
X54062646Y-33240180D01*
X54000586Y-33218081D01*
X54000581Y-33218080D01*
X53993951Y-33215719D01*
X53986965Y-33214886D01*
X53986961Y-33214885D01*
X53859177Y-33199648D01*
X53815624Y-33194455D01*
X53808621Y-33195191D01*
X53808620Y-33195191D01*
X53644025Y-33212490D01*
X53644021Y-33212491D01*
X53637017Y-33213227D01*
X53630346Y-33215498D01*
X53473677Y-33268832D01*
X53473674Y-33268833D01*
X53467007Y-33271103D01*
X53461009Y-33274793D01*
X53461007Y-33274794D01*
X53390526Y-33318155D01*
X53314045Y-33365206D01*
X53309014Y-33370132D01*
X53309011Y-33370135D01*
X53279311Y-33399220D01*
X53185732Y-33490859D01*
X53181913Y-33496784D01*
X53181912Y-33496786D01*
X53119153Y-33594169D01*
X53088446Y-33641817D01*
X53086037Y-33648437D01*
X53086035Y-33648440D01*
X53084766Y-33651927D01*
X53027022Y-33810578D01*
X53004514Y-33988753D01*
X51995756Y-33988753D01*
X51925049Y-33875599D01*
X51921316Y-33869625D01*
X51856103Y-33803955D01*
X51799733Y-33747190D01*
X51799729Y-33747187D01*
X51794770Y-33742193D01*
X51783761Y-33735206D01*
X51736860Y-33705442D01*
X51643136Y-33645963D01*
X51583021Y-33624557D01*
X51480586Y-33588081D01*
X51480581Y-33588080D01*
X51473951Y-33585719D01*
X51466965Y-33584886D01*
X51466961Y-33584885D01*
X51339177Y-33569648D01*
X51295624Y-33564455D01*
X51288621Y-33565191D01*
X51288620Y-33565191D01*
X51124025Y-33582490D01*
X51124021Y-33582491D01*
X51117017Y-33583227D01*
X51110346Y-33585498D01*
X50953677Y-33638832D01*
X50953674Y-33638833D01*
X50947007Y-33641103D01*
X50941009Y-33644793D01*
X50941007Y-33644794D01*
X50870526Y-33688154D01*
X50794045Y-33735206D01*
X50789014Y-33740132D01*
X50789011Y-33740135D01*
X50749139Y-33779181D01*
X50665732Y-33860859D01*
X50661913Y-33866784D01*
X50661912Y-33866786D01*
X50573508Y-34003963D01*
X50568446Y-34011817D01*
X50566037Y-34018437D01*
X50566035Y-34018440D01*
X50542659Y-34082666D01*
X50507022Y-34180578D01*
X50484514Y-34358753D01*
X46700000Y-34358753D01*
X46700000Y-31888753D01*
X52794514Y-31888753D01*
X52795201Y-31895760D01*
X52795201Y-31895763D01*
X52802797Y-31973227D01*
X52812039Y-32067486D01*
X52814262Y-32074168D01*
X52814262Y-32074169D01*
X52864091Y-32223961D01*
X52868726Y-32237896D01*
X52872373Y-32243918D01*
X52947773Y-32368418D01*
X52961759Y-32391512D01*
X52966648Y-32396575D01*
X52966649Y-32396576D01*
X53003327Y-32434557D01*
X53086514Y-32520699D01*
X53236789Y-32619036D01*
X53405116Y-32681636D01*
X53412097Y-32682567D01*
X53412099Y-32682568D01*
X53576149Y-32704457D01*
X53576153Y-32704457D01*
X53583130Y-32705388D01*
X53590142Y-32704750D01*
X53590146Y-32704750D01*
X53754960Y-32689751D01*
X53754961Y-32689751D01*
X53761981Y-32689112D01*
X53932782Y-32633615D01*
X53957239Y-32619036D01*
X54080992Y-32545265D01*
X54080994Y-32545264D01*
X54087044Y-32541657D01*
X54217099Y-32417807D01*
X54223323Y-32408440D01*
X54273036Y-32333615D01*
X54316483Y-32268222D01*
X54336427Y-32215719D01*
X54377757Y-32106919D01*
X54377758Y-32106914D01*
X54380257Y-32100336D01*
X54389468Y-32034794D01*
X54404700Y-31926416D01*
X54404700Y-31926411D01*
X54405251Y-31922493D01*
X54405565Y-31900000D01*
X54385546Y-31721528D01*
X54379427Y-31703955D01*
X54351888Y-31624874D01*
X54326485Y-31551927D01*
X54321481Y-31543918D01*
X54235049Y-31405599D01*
X54231316Y-31399625D01*
X54153396Y-31321159D01*
X54109733Y-31277190D01*
X54109729Y-31277187D01*
X54104770Y-31272193D01*
X54093761Y-31265206D01*
X54003041Y-31207634D01*
X53973290Y-31188753D01*
X55094514Y-31188753D01*
X55095201Y-31195760D01*
X55095201Y-31195763D01*
X55100122Y-31245951D01*
X55112039Y-31367486D01*
X55114262Y-31374168D01*
X55114262Y-31374169D01*
X55133387Y-31431660D01*
X55168726Y-31537896D01*
X55172373Y-31543918D01*
X55222336Y-31626416D01*
X55261759Y-31691512D01*
X55266648Y-31696575D01*
X55266649Y-31696576D01*
X55286922Y-31717569D01*
X55386514Y-31820699D01*
X55536789Y-31919036D01*
X55705116Y-31981636D01*
X55712097Y-31982567D01*
X55712099Y-31982568D01*
X55767283Y-31989931D01*
X55883130Y-32005388D01*
X55890141Y-32004750D01*
X55890144Y-32004750D01*
X55894722Y-32004333D01*
X55898391Y-32003999D01*
X55968043Y-32017744D01*
X56019208Y-32066964D01*
X56029370Y-32089709D01*
X56045165Y-32137190D01*
X56048726Y-32147896D01*
X56052373Y-32153918D01*
X56128575Y-32279742D01*
X56141759Y-32301512D01*
X56146648Y-32306575D01*
X56146649Y-32306576D01*
X56174863Y-32335792D01*
X56266514Y-32430699D01*
X56416789Y-32529036D01*
X56585116Y-32591636D01*
X56592097Y-32592567D01*
X56592099Y-32592568D01*
X56756149Y-32614457D01*
X56756153Y-32614457D01*
X56763130Y-32615388D01*
X56770142Y-32614750D01*
X56770146Y-32614750D01*
X56934960Y-32599751D01*
X56934961Y-32599751D01*
X56941981Y-32599112D01*
X57112782Y-32543615D01*
X57143714Y-32525176D01*
X57260992Y-32455265D01*
X57260994Y-32455264D01*
X57267044Y-32451657D01*
X57397099Y-32327807D01*
X57402927Y-32319036D01*
X57456836Y-32237896D01*
X57496483Y-32178222D01*
X57526069Y-32100336D01*
X57557757Y-32016919D01*
X57557758Y-32016914D01*
X57560257Y-32010336D01*
X57564160Y-31982568D01*
X57584700Y-31836416D01*
X57584700Y-31836411D01*
X57585251Y-31832493D01*
X57585416Y-31820699D01*
X57585510Y-31813963D01*
X57585510Y-31813958D01*
X57585565Y-31810000D01*
X57565546Y-31631528D01*
X57553196Y-31596062D01*
X57550651Y-31588753D01*
X65194514Y-31588753D01*
X65195201Y-31595760D01*
X65195201Y-31595763D01*
X65198207Y-31626416D01*
X65212039Y-31767486D01*
X65214262Y-31774168D01*
X65214262Y-31774169D01*
X65262285Y-31918532D01*
X65268726Y-31937896D01*
X65272373Y-31943918D01*
X65351256Y-32074169D01*
X65361759Y-32091512D01*
X65486514Y-32220699D01*
X65636789Y-32319036D01*
X65805116Y-32381636D01*
X65812097Y-32382567D01*
X65812099Y-32382568D01*
X65976149Y-32404457D01*
X65976153Y-32404457D01*
X65983130Y-32405388D01*
X65990142Y-32404750D01*
X65990146Y-32404750D01*
X66154960Y-32389751D01*
X66154961Y-32389751D01*
X66161981Y-32389112D01*
X66332782Y-32333615D01*
X66386636Y-32301512D01*
X66480992Y-32245265D01*
X66480994Y-32245264D01*
X66487044Y-32241657D01*
X66617099Y-32117807D01*
X66634570Y-32091512D01*
X66684129Y-32016919D01*
X66716483Y-31968222D01*
X66735167Y-31919036D01*
X66777757Y-31806919D01*
X66777758Y-31806914D01*
X66780257Y-31800336D01*
X66792872Y-31710578D01*
X66804700Y-31626416D01*
X66804700Y-31626411D01*
X66805251Y-31622493D01*
X66805565Y-31600000D01*
X66785546Y-31421528D01*
X66779427Y-31403955D01*
X66744837Y-31304627D01*
X66726485Y-31251927D01*
X66720055Y-31241636D01*
X66635049Y-31105599D01*
X66631316Y-31099625D01*
X66567771Y-31035635D01*
X66509733Y-30977190D01*
X66509729Y-30977187D01*
X66504770Y-30972193D01*
X66493761Y-30965206D01*
X66446860Y-30935442D01*
X66353136Y-30875963D01*
X66313744Y-30861936D01*
X66190586Y-30818081D01*
X66190581Y-30818080D01*
X66183951Y-30815719D01*
X66176965Y-30814886D01*
X66176961Y-30814885D01*
X66034481Y-30797896D01*
X66005624Y-30794455D01*
X65998621Y-30795191D01*
X65998620Y-30795191D01*
X65834025Y-30812490D01*
X65834021Y-30812491D01*
X65827017Y-30813227D01*
X65820346Y-30815498D01*
X65663677Y-30868832D01*
X65663674Y-30868833D01*
X65657007Y-30871103D01*
X65651009Y-30874793D01*
X65651007Y-30874794D01*
X65612854Y-30898266D01*
X65504045Y-30965206D01*
X65499014Y-30970132D01*
X65499011Y-30970135D01*
X65443103Y-31024885D01*
X65375732Y-31090859D01*
X65371913Y-31096784D01*
X65371912Y-31096786D01*
X65344635Y-31139112D01*
X65278446Y-31241817D01*
X65276037Y-31248437D01*
X65276035Y-31248440D01*
X65250810Y-31317747D01*
X65217022Y-31410578D01*
X65194514Y-31588753D01*
X57550651Y-31588753D01*
X57508803Y-31468584D01*
X57506485Y-31461927D01*
X57487647Y-31431779D01*
X57415049Y-31315599D01*
X57411316Y-31309625D01*
X57314930Y-31212564D01*
X57289733Y-31187190D01*
X57289729Y-31187187D01*
X57284770Y-31182193D01*
X57274954Y-31175963D01*
X57213453Y-31136934D01*
X57133136Y-31085963D01*
X57088158Y-31069947D01*
X56970586Y-31028081D01*
X56970581Y-31028080D01*
X56963951Y-31025719D01*
X56956965Y-31024886D01*
X56956961Y-31024885D01*
X56829177Y-31009648D01*
X56785624Y-31004455D01*
X56778619Y-31005191D01*
X56771574Y-31005142D01*
X56771591Y-31002742D01*
X56712821Y-30991992D01*
X56660976Y-30943488D01*
X56650501Y-30920892D01*
X56628801Y-30858577D01*
X56628800Y-30858575D01*
X56626485Y-30851927D01*
X56611673Y-30828222D01*
X56535049Y-30705599D01*
X56531316Y-30699625D01*
X56452717Y-30620476D01*
X56409733Y-30577190D01*
X56409729Y-30577187D01*
X56404770Y-30572193D01*
X56393761Y-30565206D01*
X56329096Y-30524169D01*
X56253136Y-30475963D01*
X56208307Y-30460000D01*
X56090586Y-30418081D01*
X56090581Y-30418080D01*
X56083951Y-30415719D01*
X56076965Y-30414886D01*
X56076961Y-30414885D01*
X55925449Y-30396819D01*
X55905624Y-30394455D01*
X55898621Y-30395191D01*
X55898620Y-30395191D01*
X55734025Y-30412490D01*
X55734021Y-30412491D01*
X55727017Y-30413227D01*
X55720346Y-30415498D01*
X55563677Y-30468832D01*
X55563674Y-30468833D01*
X55557007Y-30471103D01*
X55551009Y-30474793D01*
X55551007Y-30474794D01*
X55538493Y-30482493D01*
X55404045Y-30565206D01*
X55399014Y-30570132D01*
X55399011Y-30570135D01*
X55391807Y-30577190D01*
X55275732Y-30690859D01*
X55271913Y-30696784D01*
X55271912Y-30696786D01*
X55195407Y-30815498D01*
X55178446Y-30841817D01*
X55176037Y-30848437D01*
X55176035Y-30848440D01*
X55166443Y-30874794D01*
X55117022Y-31010578D01*
X55094514Y-31188753D01*
X53973290Y-31188753D01*
X53953136Y-31175963D01*
X53892740Y-31154457D01*
X53790586Y-31118081D01*
X53790581Y-31118080D01*
X53783951Y-31115719D01*
X53776965Y-31114886D01*
X53776961Y-31114885D01*
X53648981Y-31099625D01*
X53605624Y-31094455D01*
X53598621Y-31095191D01*
X53598620Y-31095191D01*
X53434025Y-31112490D01*
X53434021Y-31112491D01*
X53427017Y-31113227D01*
X53420346Y-31115498D01*
X53263677Y-31168832D01*
X53263674Y-31168833D01*
X53257007Y-31171103D01*
X53251009Y-31174793D01*
X53251007Y-31174794D01*
X53216224Y-31196193D01*
X53104045Y-31265206D01*
X53099014Y-31270132D01*
X53099011Y-31270135D01*
X53036883Y-31330976D01*
X52975732Y-31390859D01*
X52971913Y-31396784D01*
X52971912Y-31396786D01*
X52885277Y-31531217D01*
X52878446Y-31541817D01*
X52876037Y-31548437D01*
X52876035Y-31548440D01*
X52858811Y-31595763D01*
X52817022Y-31710578D01*
X52794514Y-31888753D01*
X46700000Y-31888753D01*
X46700000Y-30338753D01*
X57244514Y-30338753D01*
X57245201Y-30345760D01*
X57245201Y-30345763D01*
X57251744Y-30412490D01*
X57262039Y-30517486D01*
X57264262Y-30524168D01*
X57264262Y-30524169D01*
X57300854Y-30634169D01*
X57318726Y-30687896D01*
X57322373Y-30693918D01*
X57397569Y-30818081D01*
X57411759Y-30841512D01*
X57416648Y-30846575D01*
X57416649Y-30846576D01*
X57466566Y-30898266D01*
X57536514Y-30970699D01*
X57686789Y-31069036D01*
X57855116Y-31131636D01*
X57862097Y-31132567D01*
X57862099Y-31132568D01*
X58026149Y-31154457D01*
X58026153Y-31154457D01*
X58033130Y-31155388D01*
X58040142Y-31154750D01*
X58040146Y-31154750D01*
X58204960Y-31139751D01*
X58204961Y-31139751D01*
X58211981Y-31139112D01*
X58375556Y-31085963D01*
X58376082Y-31085792D01*
X58382782Y-31083615D01*
X58395367Y-31076113D01*
X58530992Y-30995265D01*
X58530994Y-30995264D01*
X58537044Y-30991657D01*
X58667099Y-30867807D01*
X58673232Y-30858577D01*
X58755910Y-30734135D01*
X58763567Y-30722611D01*
X59274394Y-30722611D01*
X59292999Y-30891135D01*
X59322568Y-30971936D01*
X59339268Y-31017569D01*
X59351266Y-31050356D01*
X59355502Y-31056659D01*
X59355502Y-31056660D01*
X59365469Y-31071492D01*
X59445830Y-31191083D01*
X59451442Y-31196190D01*
X59451445Y-31196193D01*
X59565612Y-31300077D01*
X59565616Y-31300080D01*
X59571233Y-31305191D01*
X59577906Y-31308814D01*
X59577910Y-31308817D01*
X59713558Y-31382467D01*
X59713560Y-31382468D01*
X59720235Y-31386092D01*
X59727584Y-31388020D01*
X59876883Y-31427188D01*
X59876885Y-31427188D01*
X59884233Y-31429116D01*
X59970609Y-31430473D01*
X60046161Y-31431660D01*
X60046164Y-31431660D01*
X60053760Y-31431779D01*
X60061165Y-31430083D01*
X60061166Y-31430083D01*
X60146330Y-31410578D01*
X60219029Y-31393928D01*
X60370498Y-31317747D01*
X60462486Y-31239181D01*
X60493651Y-31212564D01*
X60493652Y-31212563D01*
X60499423Y-31207634D01*
X60598361Y-31069947D01*
X60606237Y-31050356D01*
X60658766Y-30919687D01*
X60658767Y-30919685D01*
X60661601Y-30912634D01*
X60675425Y-30815498D01*
X60684909Y-30748862D01*
X60684909Y-30748859D01*
X60685490Y-30744778D01*
X60685645Y-30730000D01*
X60683840Y-30715080D01*
X60666188Y-30569220D01*
X60665276Y-30561680D01*
X60625253Y-30455763D01*
X60622604Y-30448753D01*
X71304514Y-30448753D01*
X71305201Y-30455760D01*
X71305201Y-30455763D01*
X71307822Y-30482493D01*
X71322039Y-30627486D01*
X71324262Y-30634168D01*
X71324262Y-30634169D01*
X71344138Y-30693918D01*
X71378726Y-30797896D01*
X71382373Y-30803918D01*
X71466900Y-30943488D01*
X71471759Y-30951512D01*
X71476648Y-30956575D01*
X71476649Y-30956576D01*
X71488085Y-30968418D01*
X71596514Y-31080699D01*
X71746789Y-31179036D01*
X71915116Y-31241636D01*
X71922097Y-31242567D01*
X71922099Y-31242568D01*
X72086149Y-31264457D01*
X72086153Y-31264457D01*
X72093130Y-31265388D01*
X72100142Y-31264750D01*
X72100146Y-31264750D01*
X72264960Y-31249751D01*
X72264961Y-31249751D01*
X72271981Y-31249112D01*
X72442782Y-31193615D01*
X72463119Y-31181492D01*
X72590992Y-31105265D01*
X72590994Y-31105264D01*
X72597044Y-31101657D01*
X72727099Y-30977807D01*
X72732197Y-30970135D01*
X72813050Y-30848440D01*
X72826483Y-30828222D01*
X72856629Y-30748862D01*
X72887757Y-30666919D01*
X72887758Y-30666914D01*
X72890257Y-30660336D01*
X72895859Y-30620476D01*
X72914700Y-30486416D01*
X72914700Y-30486411D01*
X72915251Y-30482493D01*
X72915565Y-30460000D01*
X72895546Y-30281528D01*
X72893229Y-30274874D01*
X72891669Y-30268009D01*
X72894612Y-30267340D01*
X72891759Y-30209851D01*
X72927135Y-30148295D01*
X72990175Y-30115638D01*
X73030929Y-30114420D01*
X73065524Y-30119036D01*
X73106150Y-30124457D01*
X73106153Y-30124457D01*
X73113130Y-30125388D01*
X73120142Y-30124750D01*
X73120146Y-30124750D01*
X73284960Y-30109751D01*
X73284961Y-30109751D01*
X73291981Y-30109112D01*
X73462782Y-30053615D01*
X73468833Y-30050008D01*
X73610992Y-29965265D01*
X73610994Y-29965264D01*
X73617044Y-29961657D01*
X73747099Y-29837807D01*
X73752197Y-29830135D01*
X73842582Y-29694093D01*
X73846483Y-29688222D01*
X73868187Y-29631085D01*
X73907757Y-29526919D01*
X73907758Y-29526914D01*
X73910257Y-29520336D01*
X73917637Y-29467823D01*
X73934700Y-29346416D01*
X73934700Y-29346411D01*
X73935251Y-29342493D01*
X73935565Y-29320000D01*
X73915546Y-29141528D01*
X73909427Y-29123955D01*
X73884344Y-29051927D01*
X73856485Y-28971927D01*
X73849234Y-28960322D01*
X73765049Y-28825599D01*
X73761316Y-28819625D01*
X73697771Y-28755635D01*
X73639733Y-28697190D01*
X73639729Y-28697187D01*
X73634770Y-28692193D01*
X73627582Y-28687631D01*
X73512952Y-28614885D01*
X73483136Y-28595963D01*
X73453352Y-28585357D01*
X73320586Y-28538081D01*
X73320581Y-28538080D01*
X73313951Y-28535719D01*
X73306965Y-28534886D01*
X73306961Y-28534885D01*
X73179177Y-28519648D01*
X73135624Y-28514455D01*
X73128621Y-28515191D01*
X73128620Y-28515191D01*
X72964025Y-28532490D01*
X72964021Y-28532491D01*
X72957017Y-28533227D01*
X72950346Y-28535498D01*
X72793677Y-28588832D01*
X72793674Y-28588833D01*
X72787007Y-28591103D01*
X72781009Y-28594793D01*
X72781007Y-28594794D01*
X72746994Y-28615719D01*
X72634045Y-28685206D01*
X72629014Y-28690132D01*
X72629011Y-28690135D01*
X72621807Y-28697190D01*
X72505732Y-28810859D01*
X72501913Y-28816784D01*
X72501912Y-28816786D01*
X72457354Y-28885927D01*
X72408446Y-28961817D01*
X72347022Y-29130578D01*
X72324514Y-29308753D01*
X72325201Y-29315760D01*
X72325201Y-29315763D01*
X72326005Y-29323963D01*
X72342039Y-29487486D01*
X72344261Y-29494165D01*
X72344262Y-29494171D01*
X72346559Y-29501075D01*
X72349079Y-29572027D01*
X72312840Y-29633078D01*
X72249347Y-29664845D01*
X72212083Y-29665957D01*
X72115624Y-29654455D01*
X72108621Y-29655191D01*
X72108620Y-29655191D01*
X71944025Y-29672490D01*
X71944021Y-29672491D01*
X71937017Y-29673227D01*
X71930346Y-29675498D01*
X71773677Y-29728832D01*
X71773674Y-29728833D01*
X71767007Y-29731103D01*
X71761009Y-29734793D01*
X71761007Y-29734794D01*
X71697128Y-29774093D01*
X71614045Y-29825206D01*
X71609014Y-29830132D01*
X71609011Y-29830135D01*
X71572604Y-29865788D01*
X71485732Y-29950859D01*
X71481913Y-29956784D01*
X71481912Y-29956786D01*
X71419510Y-30053615D01*
X71388446Y-30101817D01*
X71386037Y-30108437D01*
X71386035Y-30108440D01*
X71380099Y-30124750D01*
X71327022Y-30270578D01*
X71304514Y-30448753D01*
X60622604Y-30448753D01*
X60608029Y-30410180D01*
X60605345Y-30403077D01*
X60568866Y-30350000D01*
X60513614Y-30269608D01*
X60513613Y-30269607D01*
X60509312Y-30263349D01*
X60497514Y-30252837D01*
X60388392Y-30155612D01*
X60388388Y-30155610D01*
X60382721Y-30150560D01*
X60350718Y-30133615D01*
X60279469Y-30095891D01*
X60232881Y-30071224D01*
X60068441Y-30029919D01*
X60060843Y-30029879D01*
X60060841Y-30029879D01*
X59983668Y-30029475D01*
X59898895Y-30029031D01*
X59891508Y-30030805D01*
X59891504Y-30030805D01*
X59748162Y-30065220D01*
X59734032Y-30068612D01*
X59727288Y-30072093D01*
X59727285Y-30072094D01*
X59615079Y-30130008D01*
X59583369Y-30146375D01*
X59577647Y-30151367D01*
X59577645Y-30151368D01*
X59542948Y-30181636D01*
X59455604Y-30257831D01*
X59441732Y-30277569D01*
X59393805Y-30345763D01*
X59358113Y-30396547D01*
X59296524Y-30554513D01*
X59295532Y-30562046D01*
X59295532Y-30562047D01*
X59276634Y-30705599D01*
X59274394Y-30722611D01*
X58763567Y-30722611D01*
X58766483Y-30718222D01*
X58798412Y-30634169D01*
X58827757Y-30556919D01*
X58827758Y-30556914D01*
X58830257Y-30550336D01*
X58835859Y-30510476D01*
X58854700Y-30376416D01*
X58854700Y-30376411D01*
X58855251Y-30372493D01*
X58855565Y-30350000D01*
X58835546Y-30171528D01*
X58830004Y-30155612D01*
X58795243Y-30055792D01*
X58776485Y-30001927D01*
X58752903Y-29964187D01*
X58685049Y-29855599D01*
X58681316Y-29849625D01*
X58606309Y-29774093D01*
X58559733Y-29727190D01*
X58559729Y-29727187D01*
X58554770Y-29722193D01*
X58543761Y-29715206D01*
X58481539Y-29675719D01*
X58403136Y-29625963D01*
X58331167Y-29600336D01*
X58240586Y-29568081D01*
X58240581Y-29568080D01*
X58233951Y-29565719D01*
X58226965Y-29564886D01*
X58226961Y-29564885D01*
X58099177Y-29549648D01*
X58055624Y-29544455D01*
X58048621Y-29545191D01*
X58048620Y-29545191D01*
X57884025Y-29562490D01*
X57884021Y-29562491D01*
X57877017Y-29563227D01*
X57870346Y-29565498D01*
X57713677Y-29618832D01*
X57713674Y-29618833D01*
X57707007Y-29621103D01*
X57701009Y-29624793D01*
X57701007Y-29624794D01*
X57634098Y-29665957D01*
X57554045Y-29715206D01*
X57549014Y-29720132D01*
X57549011Y-29720135D01*
X57508711Y-29759600D01*
X57425732Y-29840859D01*
X57421913Y-29846784D01*
X57421912Y-29846786D01*
X57396970Y-29885489D01*
X57328446Y-29991817D01*
X57326037Y-29998437D01*
X57326035Y-29998440D01*
X57307266Y-30050008D01*
X57267022Y-30160578D01*
X57244514Y-30338753D01*
X46700000Y-30338753D01*
X46700000Y-29388753D01*
X54194514Y-29388753D01*
X54195201Y-29395760D01*
X54195201Y-29395763D01*
X54201583Y-29460848D01*
X54212039Y-29567486D01*
X54214262Y-29574168D01*
X54214262Y-29574169D01*
X54265165Y-29727190D01*
X54268726Y-29737896D01*
X54272373Y-29743918D01*
X54355743Y-29881578D01*
X54361759Y-29891512D01*
X54366648Y-29896575D01*
X54366649Y-29896576D01*
X54431941Y-29964187D01*
X54486514Y-30020699D01*
X54636789Y-30119036D01*
X54805116Y-30181636D01*
X54812097Y-30182567D01*
X54812099Y-30182568D01*
X54976149Y-30204457D01*
X54976153Y-30204457D01*
X54983130Y-30205388D01*
X54990142Y-30204750D01*
X54990146Y-30204750D01*
X55154960Y-30189751D01*
X55154961Y-30189751D01*
X55161981Y-30189112D01*
X55332782Y-30133615D01*
X55369164Y-30111927D01*
X55480992Y-30045265D01*
X55480994Y-30045264D01*
X55487044Y-30041657D01*
X55617099Y-29917807D01*
X55634570Y-29891512D01*
X55671500Y-29835927D01*
X55716483Y-29768222D01*
X55746872Y-29688222D01*
X55777757Y-29606919D01*
X55777758Y-29606914D01*
X55780257Y-29600336D01*
X55781237Y-29593364D01*
X55804700Y-29426416D01*
X55804700Y-29426411D01*
X55805251Y-29422493D01*
X55805565Y-29400000D01*
X55790922Y-29269455D01*
X69904825Y-29269455D01*
X69905512Y-29276462D01*
X69905512Y-29276465D01*
X69907993Y-29301766D01*
X69921255Y-29437025D01*
X69974402Y-29596791D01*
X69978049Y-29602813D01*
X69978050Y-29602815D01*
X70054369Y-29728832D01*
X70061624Y-29740812D01*
X70066513Y-29745875D01*
X70066514Y-29745876D01*
X70093763Y-29774093D01*
X70178586Y-29861929D01*
X70184483Y-29865788D01*
X70313577Y-29950266D01*
X70313581Y-29950268D01*
X70319475Y-29954125D01*
X70477289Y-30012815D01*
X70484270Y-30013746D01*
X70484272Y-30013747D01*
X70529812Y-30019823D01*
X70644183Y-30035083D01*
X70651194Y-30034445D01*
X70651198Y-30034445D01*
X70804843Y-30020462D01*
X70811864Y-30019823D01*
X70818566Y-30017645D01*
X70818568Y-30017645D01*
X70965298Y-29969970D01*
X70965301Y-29969969D01*
X70971997Y-29967793D01*
X71116623Y-29881578D01*
X71121717Y-29876727D01*
X71121721Y-29876724D01*
X71233454Y-29770322D01*
X71233455Y-29770320D01*
X71238554Y-29765465D01*
X71254934Y-29740812D01*
X71327836Y-29631085D01*
X71331731Y-29625223D01*
X71391521Y-29467823D01*
X71412297Y-29320000D01*
X71414404Y-29305010D01*
X71414404Y-29305006D01*
X71414955Y-29301088D01*
X71415249Y-29280000D01*
X71413283Y-29262468D01*
X71397266Y-29119672D01*
X71397265Y-29119669D01*
X71396481Y-29112676D01*
X71341108Y-28953668D01*
X71251884Y-28810879D01*
X71243723Y-28802661D01*
X71138205Y-28696403D01*
X71138201Y-28696400D01*
X71133242Y-28691406D01*
X71123473Y-28685206D01*
X71077953Y-28656319D01*
X70991079Y-28601187D01*
X70984435Y-28598821D01*
X70978110Y-28595736D01*
X70978710Y-28594506D01*
X70927408Y-28557286D01*
X70901606Y-28491144D01*
X70915658Y-28421552D01*
X70965104Y-28370605D01*
X70968223Y-28369019D01*
X70971997Y-28367793D01*
X70990804Y-28356582D01*
X71047988Y-28322493D01*
X71116623Y-28281578D01*
X71121717Y-28276727D01*
X71121721Y-28276724D01*
X71233454Y-28170322D01*
X71233455Y-28170320D01*
X71238554Y-28165465D01*
X71254934Y-28140812D01*
X71327836Y-28031085D01*
X71331731Y-28025223D01*
X71391521Y-27867823D01*
X71414955Y-27701088D01*
X71415249Y-27680000D01*
X71414373Y-27672193D01*
X71397266Y-27519672D01*
X71397265Y-27519669D01*
X71396481Y-27512676D01*
X71341108Y-27353668D01*
X71251884Y-27210879D01*
X71243723Y-27202661D01*
X71138205Y-27096403D01*
X71138201Y-27096400D01*
X71133242Y-27091406D01*
X70991079Y-27001187D01*
X70832462Y-26944706D01*
X70825474Y-26943873D01*
X70825471Y-26943872D01*
X70732300Y-26932762D01*
X70665273Y-26924769D01*
X70658270Y-26925505D01*
X70658269Y-26925505D01*
X70612712Y-26930293D01*
X70497821Y-26942369D01*
X70491155Y-26944638D01*
X70491152Y-26944639D01*
X70345098Y-26994360D01*
X70345095Y-26994361D01*
X70338431Y-26996630D01*
X70332436Y-27000318D01*
X70332432Y-27000320D01*
X70201021Y-27081165D01*
X70201019Y-27081167D01*
X70195022Y-27084856D01*
X70074724Y-27202661D01*
X69983515Y-27344190D01*
X69925927Y-27502409D01*
X69904825Y-27669455D01*
X69905512Y-27676462D01*
X69905512Y-27676465D01*
X69908311Y-27705010D01*
X69921255Y-27837025D01*
X69974402Y-27996791D01*
X69978049Y-28002813D01*
X69978050Y-28002815D01*
X70047548Y-28117569D01*
X70061624Y-28140812D01*
X70066513Y-28145875D01*
X70066514Y-28145876D01*
X70137825Y-28219720D01*
X70178586Y-28261929D01*
X70184483Y-28265788D01*
X70313577Y-28350266D01*
X70313581Y-28350268D01*
X70319475Y-28354125D01*
X70326079Y-28356581D01*
X70326081Y-28356582D01*
X70338001Y-28361015D01*
X70394878Y-28403507D01*
X70419752Y-28470004D01*
X70404727Y-28539392D01*
X70354573Y-28589643D01*
X70347732Y-28593120D01*
X70345092Y-28594362D01*
X70338431Y-28596630D01*
X70303563Y-28618081D01*
X70201021Y-28681165D01*
X70201019Y-28681167D01*
X70195022Y-28684856D01*
X70187530Y-28692193D01*
X70080938Y-28796576D01*
X70074724Y-28802661D01*
X69983515Y-28944190D01*
X69981105Y-28950810D01*
X69981104Y-28950813D01*
X69973419Y-28971927D01*
X69925927Y-29102409D01*
X69904825Y-29269455D01*
X55790922Y-29269455D01*
X55785546Y-29221528D01*
X55779427Y-29203955D01*
X55744778Y-29104457D01*
X55726485Y-29051927D01*
X55715043Y-29033615D01*
X55635049Y-28905599D01*
X55631316Y-28899625D01*
X55550067Y-28817807D01*
X55509733Y-28777190D01*
X55509729Y-28777187D01*
X55504770Y-28772193D01*
X55493761Y-28765206D01*
X55375467Y-28690135D01*
X55353136Y-28675963D01*
X55312898Y-28661635D01*
X55190586Y-28618081D01*
X55190581Y-28618080D01*
X55183951Y-28615719D01*
X55176965Y-28614886D01*
X55176961Y-28614885D01*
X55049177Y-28599648D01*
X55005624Y-28594455D01*
X54998621Y-28595191D01*
X54998620Y-28595191D01*
X54834025Y-28612490D01*
X54834021Y-28612491D01*
X54827017Y-28613227D01*
X54820346Y-28615498D01*
X54663677Y-28668832D01*
X54663674Y-28668833D01*
X54657007Y-28671103D01*
X54651009Y-28674793D01*
X54651007Y-28674794D01*
X54614603Y-28697190D01*
X54504045Y-28765206D01*
X54499014Y-28770132D01*
X54499011Y-28770135D01*
X54436883Y-28830976D01*
X54375732Y-28890859D01*
X54371913Y-28896784D01*
X54371912Y-28896786D01*
X54327338Y-28965951D01*
X54278446Y-29041817D01*
X54276037Y-29048437D01*
X54276035Y-29048440D01*
X54263953Y-29081636D01*
X54217022Y-29210578D01*
X54194514Y-29388753D01*
X46700000Y-29388753D01*
X46700000Y-28288753D01*
X65194514Y-28288753D01*
X65195201Y-28295760D01*
X65195201Y-28295763D01*
X65196005Y-28303963D01*
X65212039Y-28467486D01*
X65214262Y-28474168D01*
X65214262Y-28474169D01*
X65262135Y-28618081D01*
X65268726Y-28637896D01*
X65272373Y-28643918D01*
X65348813Y-28770135D01*
X65361759Y-28791512D01*
X65366648Y-28796575D01*
X65366649Y-28796576D01*
X65443713Y-28876378D01*
X65486514Y-28920699D01*
X65636789Y-29019036D01*
X65805116Y-29081636D01*
X65812097Y-29082567D01*
X65812099Y-29082568D01*
X65976149Y-29104457D01*
X65976153Y-29104457D01*
X65983130Y-29105388D01*
X65990142Y-29104750D01*
X65990146Y-29104750D01*
X66154960Y-29089751D01*
X66154961Y-29089751D01*
X66161981Y-29089112D01*
X66332782Y-29033615D01*
X66425098Y-28978584D01*
X66480992Y-28945265D01*
X66480994Y-28945264D01*
X66487044Y-28941657D01*
X66617099Y-28817807D01*
X66621716Y-28810859D01*
X66697237Y-28697190D01*
X66716483Y-28668222D01*
X66741947Y-28601187D01*
X66777757Y-28506919D01*
X66777758Y-28506914D01*
X66780257Y-28500336D01*
X66789428Y-28435083D01*
X66804700Y-28326416D01*
X66804700Y-28326411D01*
X66805251Y-28322493D01*
X66805565Y-28300000D01*
X66785546Y-28121528D01*
X66779427Y-28103955D01*
X66728803Y-27958584D01*
X66726485Y-27951927D01*
X66669573Y-27860848D01*
X66635049Y-27805599D01*
X66631316Y-27799625D01*
X66537359Y-27705010D01*
X66509733Y-27677190D01*
X66509729Y-27677187D01*
X66504770Y-27672193D01*
X66493761Y-27665206D01*
X66446860Y-27635442D01*
X66353136Y-27575963D01*
X66323352Y-27565357D01*
X66190586Y-27518081D01*
X66190581Y-27518080D01*
X66183951Y-27515719D01*
X66176965Y-27514886D01*
X66176961Y-27514885D01*
X66049177Y-27499648D01*
X66005624Y-27494455D01*
X65998621Y-27495191D01*
X65998620Y-27495191D01*
X65834025Y-27512490D01*
X65834021Y-27512491D01*
X65827017Y-27513227D01*
X65820346Y-27515498D01*
X65663677Y-27568832D01*
X65663674Y-27568833D01*
X65657007Y-27571103D01*
X65651009Y-27574793D01*
X65651007Y-27574794D01*
X65580526Y-27618155D01*
X65504045Y-27665206D01*
X65499014Y-27670132D01*
X65499011Y-27670135D01*
X65484907Y-27683947D01*
X65375732Y-27790859D01*
X65371913Y-27796784D01*
X65371912Y-27796786D01*
X65282265Y-27935891D01*
X65278446Y-27941817D01*
X65276037Y-27948437D01*
X65276035Y-27948440D01*
X65250484Y-28018642D01*
X65217022Y-28110578D01*
X65194514Y-28288753D01*
X46700000Y-28288753D01*
X46700000Y-21286000D01*
X46720002Y-21217879D01*
X46773658Y-21171386D01*
X46826000Y-21160000D01*
X75774000Y-21160000D01*
X75842121Y-21180002D01*
G37*
%TD.AperFunction*%
%TD*%
M02*
